<?xml version="1.0" encoding="UTF-8" standalone="no"?>
<!DOCTYPE svg PUBLIC "-//W3C//DTD SVG 1.1//EN"
"http://www.w3.org/Graphics/SVG/1.1/DTD/svg11.dtd">


<!-- Page 4 -->
<svg x="0" y="0" width="909" height="1286" viewBox="0 0 909 1286" version="1.1" xmlns="http://www.w3.org/2000/svg" xmlns:xlink="http://www.w3.org/1999/xlink"
style="display: block;margin-left: auto;margin-right: auto;">
<defs>
<clipPath id="c_4"><path d="M0,0H909V1286H0Z"/></clipPath>
<style type="text/css"><![CDATA[

.g0_4{
fill: #050605;
}
.g1_4{
fill: #FFFFFF;
}
.g2_4{
fill: none;
stroke: #050604;
stroke-width: 1.668;
stroke-linecap: butt;
stroke-linejoin: miter;
}
.g3_4{
fill: none;
stroke: #050604;
stroke-width: 1.055;
stroke-linecap: butt;
stroke-linejoin: miter;
}
.g4_4{
fill: none;
stroke: #050604;
stroke-width: 1.057;
stroke-linecap: butt;
stroke-linejoin: miter;
}
.g5_4{
fill: none;
stroke: #050604;
stroke-width: 7.93;
stroke-linecap: butt;
stroke-linejoin: miter;
}
.g6_4{
fill: none;
stroke: #050604;
stroke-width: 8.043;
stroke-linecap: butt;
stroke-linejoin: miter;
}
.g7_4{
fill: none;
stroke: #050604;
stroke-width: 8.896;
stroke-linecap: butt;
stroke-linejoin: miter;
}
.g8_4{
fill: none;
stroke: #050604;
stroke-width: 8.036;
stroke-linecap: butt;
stroke-linejoin: miter;
}

]]></style>

</defs>
<g clip-path="url(#c_4)">
<path d="M320.1,579.8L264.9,699.5l74,176.6l92.3,52.5L551,900L641.7,740L635.6,635.1l-53.4,-78Z" class="g0_4"/>
<path d="M337.5,631.6c10.8,7.6,14.4,12.8,23,17.2c9.4,4.8,20.3,6,30.7,3.9c9.7,-2,16.8,-4.7,21.9,-9.5c-3.6,-5.3,-38.9,-8.4,-75.6,-11.6Z" class="g1_4"/>
<path d="M337.5,631.6c10.8,7.6,14.4,12.8,23,17.2c9.4,4.8,20.3,6,30.7,3.9c9.7,-2,16.8,-4.7,21.9,-9.5c-3.6,-5.3,-38.9,-8.4,-75.6,-11.6Z" class="g2_4"/>
<path d="M316.1,637.8c3.7,-6,10.9,-7.2,16.3,-2.8c2.7,2.3,5.4,4.7,7.6,6.8c23.5,23.6,57.3,24,83.5,11.1c11.2,-.3,12.1,12.9,11.2,21.7c-2.4,22.3,-16.9,41.8,-37.7,50.2c-5.5,2.2,-17.9,3.7,-24.4,4.1c-.2,0,-.3,0,-.5,0c-23.2,1.3,-37.8,-7.9,-42.5,-30.8c-.9,-4.3,-1.8,-8.9,-2.6,-13.7c-.3,-2.1,-2.6,-3.5,-4.6,-2.7c-6,2.3,-10.7,5.3,-15,8.3c-1.3,.9,-3.1,.1,-3.2,-1.4c-1.6,-13.3,2.5,-35.8,11.9,-50.8Z" class="g1_4"/>
<path d="M316.1,637.8c3.7,-6,10.9,-7.2,16.3,-2.8c2.7,2.3,5.4,4.7,7.6,6.8c23.5,23.6,57.3,24,83.5,11.1c11.2,-.3,12.1,12.9,11.2,21.7c-2.4,22.3,-16.9,41.8,-37.7,50.2c-5.5,2.2,-17.9,3.7,-24.4,4.1c-.2,0,-.3,0,-.5,0c-23.2,1.3,-37.8,-7.9,-42.5,-30.8c-.9,-4.3,-1.8,-8.9,-2.6,-13.7c-.3,-2.1,-2.6,-3.5,-4.6,-2.7c-6,2.3,-10.7,5.3,-15,8.3c-1.3,.9,-3.1,.1,-3.2,-1.4c-1.6,-13.3,2.5,-35.8,11.9,-50.8Z" class="g3_4"/>
<path d="M378.4,661.3c3.2,.5,16.3,.7,17.3,4.5c1.3,4.5,-13.8,12.7,-24.5,16c5.1,0,11.2,-.5,17.9,-2.4c20.9,-5.7,33.3,-20.3,38.2,-26.8c-15.9,1.6,-31.8,3.2,-47.7,4.9c-.6,1.2,-.6,2.6,-1.2,3.8Z" class="g0_4"/>
<path d="M575.6,631.6c-10.8,7.6,-14.4,12.8,-23,17.2c-9.4,4.8,-20.3,6,-30.7,3.9c-9,-1.8,-15.6,-4.2,-20.6,-8.4c-.7,-.6,-.7,-1.9,.2,-2.3c7.8,-4.6,40.4,-7.4,74.1,-10.4Z" class="g1_4"/>
<path d="M575.6,631.6c-10.8,7.6,-14.4,12.8,-23,17.2c-9.4,4.8,-20.3,6,-30.7,3.9c-9,-1.8,-15.6,-4.2,-20.6,-8.4c-.7,-.6,-.7,-1.9,.2,-2.3c7.8,-4.6,40.4,-7.4,74.1,-10.4Z" class="g2_4"/>
<path d="M597.2,637.8c-3.7,-6,-10.9,-7.2,-16.3,-2.8c-2.8,2.3,-5.5,4.7,-7.6,6.8c-23.5,23.6,-57.4,24,-83.7,11.1c-11.7,-.3,-12,12.9,-11.1,21.6c2.3,22.4,16.9,41.9,37.7,50.3c5.5,2.2,17.9,3.7,24.5,4.1c.1,0,.2,0,.4,0c23.2,1.4,37.8,-7.9,42.6,-30.8c.9,-4.3,1.7,-8.9,2.5,-13.7c.4,-2.1,2.6,-3.5,4.7,-2.7c6,2.3,10.6,5.3,15,8.3c1.3,.9,3,.1,3.2,-1.4c1.5,-13.3,-2.5,-35.8,-11.9,-50.8Z" class="g1_4"/>
<path d="M597.2,637.8c-3.7,-6,-10.9,-7.2,-16.3,-2.8c-2.8,2.3,-5.5,4.7,-7.6,6.8c-23.5,23.6,-57.4,24,-83.7,11.1c-11.7,-.3,-12,12.9,-11.1,21.6c2.3,22.4,16.9,41.9,37.7,50.3c5.5,2.2,17.9,3.7,24.5,4.1c.1,0,.2,0,.4,0c23.2,1.4,37.8,-7.9,42.6,-30.8c.9,-4.3,1.7,-8.9,2.5,-13.7c.4,-2.1,2.6,-3.5,4.7,-2.7c6,2.3,10.6,5.3,15,8.3c1.3,.9,3,.1,3.2,-1.4c1.5,-13.3,-2.5,-35.8,-11.9,-50.8Z" class="g4_4"/>
<path d="M534.9,661.3c-3,.5,-16.3,.7,-17.4,4.5c-1.3,4.5,13.8,12.7,24.6,16c-5.1,0,-11.3,-.5,-18,-2.4C503.3,673.7,490.9,659.1,486,652.6l47.6,4.9c.7,1.2,.6,2.6,1.3,3.8Z" class="g0_4"/>
<path d="M527.3,807.3c-3.1,-3.5,-7.5,-6.1,-13.5,-7.4c-4.1,-1,-8.5,-.7,-12.7,.4c-12.3,3,-26.2,1.5,-41.6,.2c-1.9,-.2,-3.8,-.2,-5.7,0c-15.4,1.3,-29.3,2.8,-41.7,-.2c-4.2,-1.1,-8.5,-1.4,-12.7,-.4c-6,1.3,-10.3,3.9,-13.4,7.4c-2.8,3.1,-3.4,7.7,-1.5,11.5c3.1,6,6.6,11.1,10.6,15.4c7.3,8,18.4,10.5,28.3,6.7c11.1,-4.3,23.6,-11.4,33.2,-10.6c9.7,-.8,22.1,6.3,33.3,10.6c9.9,3.8,21,1.3,28.3,-6.7c3.9,-4.3,7.5,-9.4,10.6,-15.4c1.9,-3.8,1.3,-8.4,-1.5,-11.5Z" class="g1_4"/>
<path d="M272.3,465.6l-11.6,-2.8C241,458,225.8,442.4,222.7,423C207.9,330.1,372.4,215.2,317.9,65.1c13.6,150.9,-213.6,247.7,-194,403c7.7,66.6,61.1,98.6,132.2,117C244.7,543.6,250,500.7,272.3,465.6Z" class="g1_4"/>
<path d="M272.3,465.6l-11.6,-2.8C241,458,225.8,442.4,222.7,423C207.9,330.1,372.4,215.2,317.9,65.1c13.6,150.9,-213.6,247.7,-194,403c7.7,66.6,61.1,98.6,132.2,117C244.7,543.6,250,500.7,272.3,465.6Z" class="g5_4"/>
<path d="M641,465.6l11.5,-2.8C672.3,458,687.4,442.4,690.6,423C705.4,330.1,540.9,215.2,595.4,65.1C581.8,216,809,312.8,789.4,468.1c-7.8,66.6,-61.1,98.6,-132.2,117c11.4,-41.5,6,-84.4,-16.2,-119.5Z" class="g1_4"/>
<path d="M641,465.6l11.5,-2.8C672.3,458,687.4,442.4,690.6,423C705.4,330.1,540.9,215.2,595.4,65.1C581.8,216,809,312.8,789.4,468.1c-7.8,66.6,-61.1,98.6,-132.2,117c11.4,-41.5,6,-84.4,-16.2,-119.5Z" class="g5_4"/>
<path d="M136.7,393.7c-46.8,130.8,72.9,170.8,87.1,118.6l32.7,72.1L199,563.9L157.8,536.1L135.7,506.4L123.3,455.3l8.1,-61.6Z" class="g0_4"/>
<path d="M776.5,394.5c46.8,130.8,-72.8,169.9,-87,117.7l-32.3,72.9l57.5,-20.4l41.2,-27.8L778,507.1l12.4,-51l-4.6,-54.2Z" class="g0_4"/>
<path d="M615.3,425.8c8.3,10.5,20.2,16.8,34.8,20.1c6,1.3,11.4,4.8,15.2,10l.8,1.1c23.1,42.1,28,87.3,12.4,136c-1,3.2,-3.3,5.8,-6.2,7.4c-10.9,5.8,-16,13.3,-18.5,28.8C645,624.3,635.4,616.1,633.3,605L518.5,622.3c0,0,-35.1,.3,-45.1,-9.2H439.9c-10,9.5,-45.1,9.2,-45.1,9.2L279.9,605c-2.1,11.1,-12.5,19.3,-21.2,24.2c3.3,-15.5,-6.8,-23,-17.8,-28.8c-2.9,-1.6,-5.1,-4.2,-6.1,-7.4C219.1,544.3,224,499.1,247.2,457l.8,-1.1c3.7,-5.2,9.1,-8.7,15.2,-10c14.6,-3.3,26.5,-9.6,34.8,-20.1c93.1,-114,224.2,-114,317.3,0Z" class="g1_4"/>
<path d="M615.3,425.8c8.3,10.5,20.2,16.8,34.8,20.1c6,1.3,11.4,4.8,15.2,10l.8,1.1c23.1,42.1,28,87.3,12.4,136c-1,3.2,-3.3,5.8,-6.2,7.4c-10.9,5.8,-16,13.3,-18.5,28.8C645,624.3,635.4,616.1,633.3,605L518.5,622.3c0,0,-35.1,.3,-45.1,-9.2H439.9c-10,9.5,-45.1,9.2,-45.1,9.2L279.9,605c-2.1,11.1,-12.5,19.3,-21.2,24.2c3.3,-15.5,-6.8,-23,-17.8,-28.8c-2.9,-1.6,-5.1,-4.2,-6.1,-7.4C219.1,544.3,224,499.1,247.2,457l.8,-1.1c3.7,-5.2,9.1,-8.7,15.2,-10c14.6,-3.3,26.5,-9.6,34.8,-20.1c93.1,-114,224.2,-114,317.3,0Z" class="g6_4"/>
<path d="M312.6,415.2C277.8,461,273,492.4,270.4,536.2c-.4,-23.2,0,-43.2,1.7,-59.6c1.3,-12.4,-1.5,-32.5,-16.5,-21.8c-2.3,1.6,-4.5,3.7,-7,7.8c6.3,-16.9,34.9,-20.3,61.1,-48.8c1.5,-1.5,3.4,-3.1,5,-4.6c1.8,-1.8,10.7,-7.8,6.8,-3.5c-1.2,1.4,-7.7,8,-8.9,9.5Z" class="g0_4"/>
<path d="M600.4,415.2c34.9,45.8,39.7,77.2,42.2,121c.5,-23.2,.1,-43.2,-1.6,-59.6c-1.3,-12.4,1.5,-32.5,16.5,-21.8c2.2,1.6,4.5,3.7,7,7.8c-6.3,-16.9,-34.9,-20.3,-61.1,-48.8c-1.5,-1.5,-3.4,-3.1,-5,-4.6c-1.8,-1.8,-10.7,-7.8,-6.8,-3.5c1.2,1.4,7.7,8,8.8,9.5Z" class="g0_4"/>
<path d="M650.7,593.3c-3.1,-1.8,-5.2,-6.2,-6.5,-9.7c-1.2,-3,-1.9,-6.6,-1.5,-11.4c.6,-8.6,.4,-13.4,-.1,-27c-2.5,25.6,-8.6,42.3,-32.1,47.9c-1.4,.3,-27.8,9.3,-32.1,8.5c0,0,68.2,24.5,70,23.4l16.8,-20l11.9,-9l3.8,-27.8c-5.7,23.9,-14.4,34.4,-30.2,25.1Z" class="g0_4"/>
<path d="M262.7,593.3c3.1,-1.8,5.3,-6.2,6.6,-9.7c1.1,-3,1.8,-6.6,1.5,-11.4c-.7,-8.6,-.5,-13.4,0,-27c2.5,25.6,8.6,42.3,32.1,47.9c1.4,.3,27.8,9.3,32.2,8.5c0,0,-68.3,24.5,-70.1,23.4L248.2,605l-11.8,-9l-3.8,-27.8c5.6,23.9,14.3,34.4,30.1,25.1Z" class="g0_4"/>
<path d="M360.4,374.3c4.8,-2.7,25.4,-17.5,43.2,-9.2c25.6,12,30.3,56.7,30.9,59.8c-2.7,-17.8,-7.4,-42.3,-10.1,-60.1c-2.4,-4.9,-3.8,-15.1,-6.1,-20l-33.6,10.5Z" class="g0_4"/>
<path d="M552.9,374.3c-4.7,-2.7,-25.4,-17.5,-43.1,-9.2c-25.7,12,-30.4,56.7,-31,59.8c2.7,-17.8,7.4,-42.3,10.1,-60.1c2.4,-4.9,4.4,-14.9,6.8,-19.9l33,10.4Z" class="g0_4"/>
<path d="M456.6,841c-10.3,0,-20.6,2.2,-30,6.5c-2.2,1,-4.6,2.1,-7.3,3.3c-8,3.4,-11.1,2,-17.4,-3.9C371.1,818,333.6,772.4,320.3,696.2c-4,2.2,-7.6,5,-11,8.2c-2,2,-5.4,1.2,-6.3,-1.5c-6.5,-19.3,-5,-41.9,6.3,-68.5c2.8,-6.7,-.3,-14.5,-7.1,-17.3c-9,-3.7,-21.1,-8.1,-32.5,-13.4C256,642.3,205.4,660,161,637c5.9,29,32.1,40.3,46.6,53.7c7.6,7,7.4,18.9,-.7,25.3c-12.1,9.3,-32.8,5.3,-54.7,-10.4c.4,12.6,11.5,27.5,21.4,36.9c3.7,3.5,6.8,7.6,9.1,12.2c9,18,6.4,39.7,-6.6,55c-24.3,28.7,-50.5,55.8,-29,113c1.3,-23,3.9,-37.2,15.3,-45c14.6,-10,34.2,3,30.4,19.9c-5.9,26,-14,62.2,19.7,99.7c-2.1,-19.6,.1,-34.7,9.3,-42.3c7.2,-5.9,18.2,-4.4,24.3,2.5c34.3,38.9,1.9,117.3,87.3,178.3c-20,-74.6,16.1,-86.8,56.6,-48.6c24.3,22.9,50.3,64,66.6,120.5C500.3,1057,620.5,1016.4,588.5,1135.8c85.4,-61,44.4,-139.4,78.7,-178.3c6.1,-6.9,17.1,-8.4,24.2,-2.5c9.3,7.6,11.5,22.7,9.3,42.3c33.8,-37.5,25.7,-73.7,19.8,-99.7c-3.9,-16.9,15.8,-29.9,30.4,-19.9c11.3,7.8,14,22,15.2,45c21.6,-57.2,-4.7,-84.3,-28.9,-113c-13,-15.3,-15.6,-37,-6.7,-55c2.3,-4.6,5.5,-8.7,9.2,-12.2c9.9,-9.4,21,-24.3,21.3,-36.9c-21.9,15.7,-42.5,19.7,-54.6,10.4c-8.2,-6.4,-8.4,-18.3,-.8,-25.3C720.2,677.3,740,666,746,637c-44.4,23,-88.7,5.3,-102.4,-33.3c-11.4,5.3,-23.5,9.7,-32.5,13.4c-6.8,2.8,-10,10.6,-7.1,17.3c11.3,26.6,12.8,49.2,6.3,68.5c-.9,2.7,-4.3,3.5,-6.4,1.5c-3.3,-3.2,-7,-6,-10.9,-8.2C579.6,772.4,542.2,818,511.4,846.9c-6.3,5.9,-9.4,7.3,-17.4,3.9c-2.8,-1.2,-5.2,-2.3,-7.4,-3.3C477.2,843.2,467,841,456.6,841Z" class="g1_4"/>
<path d="M456.6,841c-10.3,0,-20.6,2.2,-30,6.5c-2.2,1,-4.6,2.1,-7.3,3.3c-8,3.4,-11.1,2,-17.4,-3.9C371.1,818,333.6,772.4,320.3,696.2c-4,2.2,-7.6,5,-11,8.2c-2,2,-5.4,1.2,-6.3,-1.5c-6.5,-19.3,-5,-41.9,6.3,-68.5c2.8,-6.7,-.3,-14.5,-7.1,-17.3c-9,-3.7,-21.1,-8.1,-32.5,-13.4C256,642.3,205.4,660,161,637c5.9,29,32.1,40.3,46.6,53.7c7.6,7,7.4,18.9,-.7,25.3c-12.1,9.3,-32.8,5.3,-54.7,-10.4c.4,12.6,11.5,27.5,21.4,36.9c3.7,3.5,6.8,7.6,9.1,12.2c9,18,6.4,39.7,-6.6,55c-24.3,28.7,-50.5,55.8,-29,113c1.3,-23,3.9,-37.2,15.3,-45c14.6,-10,34.2,3,30.4,19.9c-5.9,26,-14,62.2,19.7,99.7c-2.1,-19.6,.1,-34.7,9.3,-42.3c7.2,-5.9,18.2,-4.4,24.3,2.5c34.3,38.9,1.9,117.3,87.3,178.3c-20,-74.6,16.1,-86.8,56.6,-48.6c24.3,22.9,50.3,64,66.6,120.5C500.3,1057,620.5,1016.4,588.5,1135.8c85.4,-61,44.4,-139.4,78.7,-178.3c6.1,-6.9,17.1,-8.4,24.2,-2.5c9.3,7.6,11.5,22.7,9.3,42.3c33.8,-37.5,25.7,-73.7,19.8,-99.7c-3.9,-16.9,15.8,-29.9,30.4,-19.9c11.3,7.8,14,22,15.2,45c21.6,-57.2,-4.7,-84.3,-28.9,-113c-13,-15.3,-15.6,-37,-6.7,-55c2.3,-4.6,5.5,-8.7,9.2,-12.2c9.9,-9.4,21,-24.3,21.3,-36.9c-21.9,15.7,-42.5,19.7,-54.6,10.4c-8.2,-6.4,-8.4,-18.3,-.8,-25.3C720.2,677.3,740,666,746,637c-44.4,23,-88.7,5.3,-102.4,-33.3c-11.4,5.3,-23.5,9.7,-32.5,13.4c-6.8,2.8,-10,10.6,-7.1,17.3c11.3,26.6,12.8,49.2,6.3,68.5c-.9,2.7,-4.3,3.5,-6.4,1.5c-3.3,-3.2,-7,-6,-10.9,-8.2C579.6,772.4,542.2,818,511.4,846.9c-6.3,5.9,-9.4,7.3,-17.4,3.9c-2.8,-1.2,-5.2,-2.3,-7.4,-3.3C477.2,843.2,467,841,456.6,841Z" class="g7_4"/>
<path d="M459.5,760.2C484.1,742.4,509,733,537.2,737.8c24,4,46.8,16.8,59.4,37.5C645.4,856,559.3,903,577.1,1005.8c-62.3,-89.1,26.8,-187,-54.4,-212.6c-7.1,-2.3,-14.5,-2.8,-21.8,-1.6c-13.7,2.3,-32.7,5.1,-44.3,-.9c-11.5,6,-30.5,3.2,-44.2,.9c-7.3,-1.2,-14.7,-.7,-21.8,1.6c-81.2,25.6,7.9,123.5,-54.5,212.6C354,903,267.9,856,316.7,775.3c12.6,-20.7,35.4,-33.5,59.4,-37.5c28.1,-4.8,53.1,4.6,77.7,22.4Z" class="g1_4"/>
<path d="M459.5,760.2C484.1,742.4,509,733,537.2,737.8c24,4,46.8,16.8,59.4,37.5C645.4,856,559.3,903,577.1,1005.8c-62.3,-89.1,26.8,-187,-54.4,-212.6c-7.1,-2.3,-14.5,-2.8,-21.8,-1.6c-13.7,2.3,-32.7,5.1,-44.3,-.9c-11.5,6,-30.5,3.2,-44.2,.9c-7.3,-1.2,-14.7,-.7,-21.8,1.6c-81.2,25.6,7.9,123.5,-54.5,212.6C354,903,267.9,856,316.7,775.3c12.6,-20.7,35.4,-33.5,59.4,-37.5c28.1,-4.8,53.1,4.6,77.7,22.4h5.7Z" class="g8_4"/>
<path d="M485.8,752.3C470.4,742.2,467.9,704.3,471.7,654c.7,-9,9.5,-12.5,15.5,-15c20.7,-8.5,58.5,-6.7,100,-17.1c13.7,-3.2,28,-8.1,43.2,-15.4c2.5,-1.3,4.9,-2.9,6.9,-4.9c2.7,-2.8,4.1,-5.5,4.3,-8.3c.1,-2.4,-2.2,-4.1,-4.4,-3.5c-48.3,14.8,-88.3,20.6,-119.6,17.1c-19.2,-2.3,-35.4,-16.5,-40.5,-36C461.3,511,466.4,444.5,491.5,349.7c.8,-3.1,.1,-6.5,-2.1,-8.8C478.7,329.2,466.5,324.1,456.6,321.1c-9.8,3,-22,8.1,-32.7,19.8c-2.2,2.3,-3,5.7,-2.1,8.8c25.1,94.8,30.1,161.3,14.4,221.2c-5.1,19.5,-21.3,33.7,-40.6,36C364.4,610.4,324.4,604.6,276,589.8c-2.1,-.6,-4.4,1.1,-4.3,3.5c.1,2.8,1.6,5.5,4.3,8.3c2,2,4.4,3.6,6.9,4.9c15.1,7.3,29.5,12.2,43.2,15.4c41.5,10.4,79.3,8.6,100,17.1c6,2.5,14.8,6,15.5,15c3.7,50.3,1.3,88.2,-14.1,98.3l15.9,13c7.7,6.3,18.7,6.3,26.4,0Z" class="g1_4"/>
<path d="M485.8,752.3C470.4,742.2,467.9,704.3,471.7,654c.7,-9,9.5,-12.5,15.5,-15c20.7,-8.5,58.5,-6.7,100,-17.1c13.7,-3.2,28,-8.1,43.2,-15.4c2.5,-1.3,4.9,-2.9,6.9,-4.9c2.7,-2.8,4.1,-5.5,4.3,-8.3c.1,-2.4,-2.2,-4.1,-4.4,-3.5c-48.3,14.8,-88.3,20.6,-119.6,17.1c-19.2,-2.3,-35.4,-16.5,-40.5,-36C461.3,511,466.4,444.5,491.5,349.7c.8,-3.1,.1,-6.5,-2.1,-8.8C478.7,329.2,466.5,324.1,456.6,321.1c-9.8,3,-22,8.1,-32.7,19.8c-2.2,2.3,-3,5.7,-2.1,8.8c25.1,94.8,30.1,161.3,14.4,221.2c-5.1,19.5,-21.3,33.7,-40.6,36C364.4,610.4,324.4,604.6,276,589.8c-2.1,-.6,-4.4,1.1,-4.3,3.5c.1,2.8,1.6,5.5,4.3,8.3c2,2,4.4,3.6,6.9,4.9c15.1,7.3,29.5,12.2,43.2,15.4c41.5,10.4,79.3,8.6,100,17.1c6,2.5,14.8,6,15.5,15c3.7,50.3,1.3,88.2,-14.1,98.3l15.9,13c7.7,6.3,18.7,6.3,26.4,0l16,-13Z" class="g6_4"/>
<path d="M363.9,926.1c-.6,-53.3,-8.7,-120.5,29,-81.6l-8.2,-20.1L370.8,810.7l-8.9,2.2L351.8,852l5,48Z" class="g0_4"/>
<path d="M549.3,926.1c.5,-53.3,10.5,-122.3,-27.2,-83.4l6.7,-18.3l13.8,-13.7l8.8,2.1l11.4,41.3l-5.8,46Z" class="g0_4"/>
<path d="M292.8,611.1c16.2,15.8,-16,60.5,-59.9,51.6c12.8,3.5,25.7,6.2,42.6,.4c1,-.4,2.1,-.6,3.2,-.6c3.2,-.1,3.2,1.9,1.5,4.8c-.7,1.2,-1.7,2.3,-2.6,3.4C253.1,697,253,721.9,262,750.2c-5.5,-33.4,2.6,-54.6,20.6,-72.7c6.4,-6.4,11.1,-12.6,13.9,-17c6.1,-9.4,10,-14.7,13.1,-29.5c1,-4.7,.7,-10.6,-1.8,-14l2.3,.5Z" class="g0_4"/>
<path d="M620.5,611.1c-16.2,15.8,16,60.5,59.9,51.6c-12.8,3.5,-25.6,6.2,-42.5,.4c-1.1,-.4,-2.2,-.6,-3.2,-.6c-3.3,-.1,-3.3,1.9,-1.6,4.8c.8,1.2,1.7,2.3,2.7,3.4c24.4,26.3,24.6,51.2,15.5,79.5c5.5,-33.4,-2.6,-54.6,-20.6,-72.7c-6.4,-6.4,-11,-12.6,-13.9,-17c-6.1,-9.4,-10,-14.7,-13.1,-29.5c-1,-4.7,-.7,-10.6,1.8,-14l-2.3,-2.3Z" class="g0_4"/>
<path d="M303.8,792.4C306.7,774,306.3,749.3,293,726.8c12.1,11.9,18.6,34.7,20.6,50Z" class="g0_4"/>
<path d="M608.9,792.4C606,774,606.4,749.3,619.7,726.8c-12.1,11.9,-18.6,34.7,-20.5,50Z" class="g0_4"/>

</g>
</svg>
