<?xml version="1.0" encoding="UTF-8" standalone="no"?>
<svg
   xmlns:dc="http://purl.org/dc/elements/1.1/"
   xmlns:cc="http://creativecommons.org/ns#"
   xmlns:rdf="http://www.w3.org/1999/02/22-rdf-syntax-ns#"
   xmlns:svg="http://www.w3.org/2000/svg"
   xmlns="http://www.w3.org/2000/svg"
   viewBox="0 0 793.70135 1122.52"
   height="1122.52"
   width="793.70135"
   xml:space="preserve"
   id="svg2"
   version="1.1"><metadata
     id="metadata8"><rdf:RDF><cc:Work
         rdf:about=""><dc:format>image/svg+xml</dc:format><dc:type
           rdf:resource="http://purl.org/dc/dcmitype/StillImage" /></cc:Work></rdf:RDF></metadata><defs
     id="defs6"><clipPath
       id="clipPath18"
       clipPathUnits="userSpaceOnUse"><path
         id="path16"
         d="M 0,841.89 H 595.276 V 0 H 0 Z" /></clipPath></defs><g
     transform="matrix(1.3333333,0,0,-1.3333333,0,1122.52)"
     id="g10"><g
       id="g12"><g
         clip-path="url(#clipPath18)"
         id="g14"><g
           transform="translate(248.8828,404.8047)"
           id="g20"><path
             id="path22"
             style="fill:#ffffff;fill-opacity:1;fill-rule:nonzero;stroke:none"
             d="m 0,0 c 4.519,0.012 9.263,0.882 13.296,2.217 2.06,0.681 4.036,1.537 5.84,2.748 0.523,0.351 0.996,0.795 1.433,1.252 0.247,0.258 0.151,0.6 -0.133,0.832 -0.894,0.731 -2.001,0.99 -3.07,1.285 -3.394,0.938 -6.867,1.491 -10.35,1.963 -3.165,0.429 -6.341,0.782 -9.516,1.143 -2.539,0.289 -5.081,0.561 -7.626,0.8 -4.057,0.382 -8.117,0.728 -12.175,1.098 -0.477,0.043 -0.948,0.156 -1.424,0.208 -0.316,0.034 -0.638,0.029 -0.956,0.014 -0.24,-0.012 -0.516,-0.086 -0.527,-0.363 -0.007,-0.21 0.073,-0.502 0.223,-0.627 2.638,-2.205 5.239,-4.459 7.956,-6.564 C -11.714,1.886 -5.583,0.119 0,0 m 99.022,-0.031 c 6.018,0.143 11.301,1.476 16.088,4.478 3.668,2.299 6.746,5.357 10.109,8.05 0.159,0.128 0.283,0.412 0.272,0.616 -0.021,0.412 -0.411,0.475 -0.711,0.451 -2.226,-0.172 -4.451,-0.361 -6.674,-0.571 -2.46,-0.231 -4.918,-0.498 -7.378,-0.735 -2.303,-0.222 -4.612,-0.383 -6.909,-0.645 -3.564,-0.406 -7.127,-0.834 -10.679,-1.33 -3.395,-0.474 -6.782,-1.023 -10.098,-1.92 -1,-0.27 -2,-0.556 -2.896,-1.101 C 79.594,6.927 79.537,6.315 80.03,5.857 81.156,4.812 82.488,4.074 83.874,3.459 88.821,1.265 94.027,0.2 99.022,-0.031 M 16.231,-95.296 c -4.247,-0.276 -8.138,-1.48 -11.41,-4.347 -2.581,-2.259 -3.841,-5.624 -1.717,-9.495 2.125,-3.875 4.568,-7.496 7.796,-10.561 1.473,-1.4 3.107,-2.496 4.977,-3.26 4.186,-1.711 8.401,-1.772 12.609,-0.129 2.306,0.9 4.56,1.93 6.853,2.862 2.366,0.962 4.735,1.925 7.135,2.797 1.724,0.627 3.505,1.099 5.35,1.237 3.879,0.29 7.658,-0.15 11.284,-1.61 2.741,-1.102 5.461,-2.258 8.197,-3.372 1.922,-0.782 3.818,-1.656 5.792,-2.279 5.591,-1.766 10.823,-0.805 15.351,2.829 4.108,3.297 7.06,7.617 9.26,12.38 1.28,2.772 0.829,5.47 -1.276,7.784 -1.253,1.377 -2.756,2.425 -4.428,3.229 -3.96,1.902 -8.066,2.386 -12.361,1.347 -5.725,-1.386 -11.525,-1.589 -17.373,-1.025 -2.941,0.283 -5.892,0.448 -8.839,0.663 -5.289,0.386 -10.53,-0.371 -15.783,-0.74 -5.534,-0.388 -11.006,-0.199 -16.438,0.967 -1.637,0.352 -3.276,0.737 -4.979,0.723 m -19.202,77.249 c 0.658,0.276 1.316,0.547 1.971,0.828 2.28,0.977 4.501,2.072 6.611,3.38 1.293,0.801 2.554,1.652 3.618,2.751 2.034,2.099 1.7,3.647 -0.99,4.64 -0.225,0.083 -0.447,0.189 -0.681,0.231 -1.333,0.242 -2.664,0.513 -4.007,0.689 -1.742,0.227 -3.506,0.299 -5.24,0.571 -9.184,1.438 -17.19,5.291 -23.92,11.75 -1.613,1.549 -3.298,3.025 -4.974,4.507 -0.536,0.473 -1.116,0.92 -1.736,1.273 -3.255,1.857 -6.27,0.917 -8.319,-1.179 -0.66,-0.676 -1.183,-1.507 -1.674,-2.325 -1.275,-2.13 -2.306,-4.383 -3.197,-6.699 -2.518,-6.545 -3.863,-13.337 -4.228,-20.329 -0.083,-1.6 -0.052,-3.201 0.267,-4.778 0.242,-1.202 1.028,-1.597 2.099,-1.047 0.566,0.291 1.092,0.664 1.626,1.014 2.008,1.318 4.082,2.516 6.281,3.488 0.584,0.259 1.177,0.506 1.786,0.691 1.189,0.362 2.26,-0.077 2.81,-1.17 0.21,-0.417 0.313,-0.9 0.404,-1.365 0.475,-2.43 0.92,-4.866 1.396,-7.296 0.663,-3.387 1.625,-6.674 3.29,-9.724 2.692,-4.933 6.687,-8.288 12.064,-9.963 2.605,-0.813 5.271,-1.261 8.004,-1.365 4.817,-0.183 9.574,0.389 14.312,1.132 3.324,0.522 6.545,1.407 9.562,2.985 8.388,4.382 14.535,10.867 18.384,19.503 2.411,5.412 3.589,11.079 3.281,17.024 -0.097,1.857 -0.466,3.643 -1.276,5.323 -0.607,1.257 -1.477,2.274 -2.745,2.912 -0.959,0.483 -1.42,0.433 -2.134,-0.31 -0.443,-0.46 -0.842,-0.962 -1.259,-1.448 -1.831,-2.125 -3.825,-4.084 -5.989,-5.867 -7.371,-6.068 -15.787,-9.521 -25.397,-9.827 m 106.802,-0.445 c -3.567,0.444 -6.727,0.824 -9.812,1.723 -8.287,2.418 -15.185,7.006 -21.009,13.298 -0.706,0.763 -1.359,1.575 -2.061,2.34 -0.949,1.035 -1.479,1.105 -2.718,0.442 -1.019,-0.546 -1.775,-1.355 -2.336,-2.347 -0.516,-0.91 -0.85,-1.89 -1.069,-2.915 -0.626,-2.938 -0.512,-5.871 -0.081,-8.823 2.027,-13.892 9.289,-24.082 21.651,-30.662 1.98,-1.053 4.081,-1.816 6.29,-2.282 3.13,-0.659 6.287,-1.095 9.467,-1.434 4.238,-0.452 8.457,-0.554 12.659,0.212 6.279,1.143 11.346,4.168 14.747,9.708 1.476,2.405 2.56,4.985 3.192,7.724 0.717,3.113 1.287,6.26 1.924,9.391 0.128,0.626 0.212,1.267 0.413,1.869 0.508,1.519 1.661,2.09 3.183,1.602 0.608,-0.195 1.201,-0.443 1.782,-0.706 2.117,-0.957 4.124,-2.115 6.071,-3.379 0.536,-0.348 1.056,-0.731 1.62,-1.026 1.158,-0.605 2.012,-0.148 2.216,1.189 0.097,0.629 0.099,1.274 0.122,1.913 0.147,4.014 -0.24,7.984 -1.009,11.921 -1.203,6.156 -3.078,12.076 -6.188,17.56 -0.514,0.905 -1.039,1.803 -1.779,2.55 -1.984,2.004 -5.058,3.09 -8.327,1.218 -0.688,-0.395 -1.335,-0.887 -1.93,-1.413 -1.737,-1.535 -3.465,-3.083 -5.15,-4.675 -4.847,-4.581 -10.444,-7.872 -16.798,-9.894 -3.832,-1.218 -7.786,-1.752 -11.768,-2.102 -1.684,-0.148 -3.334,-0.421 -4.921,-0.972 -2.744,-0.951 -3.076,-2.486 -1.036,-4.601 0.892,-0.925 1.931,-1.674 3.008,-2.372 2.355,-1.527 4.866,-2.752 7.436,-3.869 0.647,-0.281 1.389,-0.377 2.211,-1.188 M 45.122,100.915 C 45.285,96.548 44.876,91.197 44.524,85.853 44.194,80.831 43.593,75.825 42.794,70.847 41.804,64.685 40.576,58.576 38.916,52.559 37.799,48.507 35.974,44.784 33.459,41.417 28.096,34.24 21.002,29.755 12.178,28.231 7.05,27.345 1.828,27.293 -3.372,27.34 c -7.443,0.067 -14.853,0.687 -22.212,1.787 -7.587,1.134 -15.108,2.628 -22.563,4.441 -6.057,1.473 -12.069,3.106 -18.041,4.888 -0.574,0.171 -1.303,0.543 -1.731,-0.122 -0.342,-0.531 0.169,-1.058 0.475,-1.507 1.251,-1.839 2.986,-3.123 4.968,-4.042 2.974,-1.378 5.961,-2.734 8.993,-3.977 11.007,-4.514 22.531,-7.121 34.21,-9.122 8.508,-1.457 17.1,-2.3 25.669,-3.292 4.842,-0.561 9.679,-1.133 14.473,-2.019 4.578,-0.847 9.016,-2.141 13.228,-4.158 1.667,-0.798 3.261,-1.705 4.666,-2.915 2.422,-2.086 3.766,-4.716 3.981,-7.918 0.118,-1.755 0.307,-3.506 0.397,-5.263 0.391,-7.67 0.715,-15.341 0.573,-23.024 -0.11,-6.006 -0.491,-11.991 -1.496,-17.913 -1.037,-6.108 -2.568,-12.055 -6.492,-17.084 -0.575,-0.737 -0.549,-1.115 0.103,-1.652 2.718,-2.234 5.388,-4.537 8.221,-6.618 3.471,-2.55 8.954,-2.575 12.619,0.181 2.684,2.016 5.245,4.196 7.834,6.337 0.782,0.646 0.808,0.967 0.142,1.828 -2.854,3.687 -4.406,7.938 -5.499,12.405 -1.261,5.148 -1.87,10.391 -2.157,15.66 -0.455,8.314 -0.285,16.637 0.033,24.952 0.134,3.514 0.5,7.018 0.737,10.528 0.237,3.528 1.999,6.174 4.735,8.254 1.408,1.07 2.982,1.857 4.584,2.595 4.761,2.196 9.791,3.484 14.944,4.236 6.166,0.899 12.35,1.676 18.541,2.373 6.114,0.688 12.214,1.439 18.293,2.396 7.588,1.194 15.077,2.827 22.468,4.9 7.331,2.055 14.389,4.842 21.247,8.142 1.747,0.841 3.351,1.873 4.634,3.347 0.525,0.603 1.042,1.217 1.232,2.03 0.074,0.319 -0.16,0.652 -0.478,0.671 -0.657,0.039 -1.25,-0.201 -1.865,-0.375 -3.922,-1.105 -7.838,-2.236 -11.78,-3.266 -7.808,-2.041 -15.668,-3.858 -23.65,-5.101 -4.024,-0.627 -8.055,-1.221 -12.094,-1.747 -2.137,-0.278 -4.296,-0.44 -6.449,-0.548 -5.995,-0.297 -11.992,-0.428 -17.988,-0.023 -3.513,0.237 -7.02,0.564 -10.374,1.717 -11.723,4.026 -19.198,12.142 -22.438,24.004 -3.722,13.635 -5.523,27.576 -5.861,41.704 -0.3,12.574 0.316,25.099 1.846,37.588 0.864,7.066 1.887,14.105 3.143,21.108 2.3,12.831 5.134,25.548 8.393,38.17 0.599,2.322 1.176,4.65 1.796,6.967 0.456,1.698 0.09,3.158 -1.125,4.417 -0.112,0.116 -0.216,0.237 -0.327,0.352 -5.002,5.173 -11.02,8.681 -17.83,10.902 -0.801,0.262 -1.541,0.241 -2.337,-0.019 -6.807,-2.231 -12.8,-5.761 -17.827,-10.914 -1.371,-1.406 -1.819,-2.95 -1.369,-4.811 0.094,-0.388 0.212,-0.77 0.307,-1.158 1.738,-7.064 3.536,-14.113 5.195,-21.196 2.554,-10.9 4.684,-21.889 6.352,-32.959 1.156,-7.668 2.094,-15.365 2.633,-23.109 0.427,-6.146 0.805,-12.29 0.812,-19.453 m 70.647,-277.314 c -0.046,-3.044 0.166,-6.075 0.338,-9.111 0.367,-6.413 1.396,-12.711 3.089,-18.899 1.077,-3.939 2.452,-7.778 4.162,-11.489 0.299,-0.652 0.651,-1.28 1.006,-1.902 0.057,-0.099 0.28,-0.175 0.401,-0.148 0.118,0.026 0.285,0.191 0.293,0.304 0.046,0.637 0.068,1.276 0.066,1.914 -0.015,3.918 0.002,7.829 0.316,11.747 0.483,5.994 1.435,11.899 2.784,17.75 1.889,8.199 4.605,16.138 7.559,24.002 2.755,7.335 5.739,14.584 8.26,22.005 2.631,7.743 4.728,15.594 5.231,23.819 0.291,4.75 -0.066,9.428 -0.962,14.076 -1.407,7.31 -4.326,14.03 -8.073,20.422 -2.615,4.462 -5.874,8.388 -9.85,11.684 -10.221,8.477 -22.11,12.662 -35.265,13.282 -7.86,0.369 -15.409,-1.326 -22.688,-4.258 -0.296,-0.119 -0.59,-0.245 -0.879,-0.383 -1.143,-0.542 -1.212,-0.929 -0.288,-1.664 0.375,-0.299 0.789,-0.549 1.154,-0.856 0.422,-0.356 0.419,-0.836 0.001,-1.25 -0.283,-0.28 -0.596,-0.532 -0.905,-0.785 -3.657,-2.984 -7.312,-5.97 -10.976,-8.944 -0.558,-0.453 -1.137,-0.889 -1.747,-1.267 -3.01,-1.866 -6.292,-2.786 -9.826,-2.47 -3.512,0.314 -6.627,1.661 -9.357,3.94 -3.438,2.871 -6.937,5.669 -10.408,8.5 -0.372,0.304 -0.747,0.605 -1.096,0.933 -0.648,0.607 -0.669,1.032 0.116,1.527 2.292,1.446 1.894,1.872 -0.316,2.754 -9.239,3.687 -18.767,5.2 -28.663,3.71 -7.089,-1.067 -13.851,-3.19 -20.172,-6.622 -7.523,-4.086 -13.786,-9.545 -18.305,-16.884 -2.143,-3.479 -3.993,-7.109 -5.525,-10.902 -4.055,-10.039 -5.141,-20.388 -3.372,-31.069 0.851,-5.144 2.178,-10.157 3.785,-15.104 2.423,-7.458 5.386,-14.715 8.173,-22.038 3.13,-8.224 6.044,-16.517 8.131,-25.08 1.462,-5.993 2.502,-12.061 3.001,-18.201 0.33,-4.064 0.43,-8.149 0.264,-12.232 -0.029,-0.714 0.019,-1.432 0.066,-2.145 0.007,-0.105 0.199,-0.257 0.324,-0.279 0.129,-0.023 0.355,0.044 0.412,0.145 0.392,0.692 0.788,1.387 1.115,2.111 4.329,9.593 6.577,19.708 7.204,30.163 0.594,9.921 0.058,19.826 -1.071,29.698 -0.4,3.496 -0.847,6.985 -1.182,10.486 -0.479,5.013 -0.94,10.03 -1.29,15.055 -0.408,5.852 -0.081,11.676 1.278,17.401 2.006,8.452 6.763,14.909 14.268,19.308 3.747,2.198 7.736,3.817 11.95,4.877 1.707,0.43 3.43,0.791 5.191,0.881 3.363,0.172 6.706,0.031 10.03,-0.59 5.357,-0.999 10.756,-1.503 16.217,-1.365 3.24,0.082 6.365,0.574 9.305,1.976 0.774,0.369 1.47,0.43 2.271,0.039 3.158,-1.54 6.534,-1.963 10.015,-2.027 5.222,-0.095 10.377,0.44 15.499,1.361 3.724,0.67 7.485,0.994 11.221,0.499 6.432,-0.853 12.376,-3.171 17.784,-6.763 5.583,-3.709 9.485,-8.754 11.629,-15.122 1.232,-3.66 1.901,-7.434 2.089,-11.286 0.3,-6.164 0.037,-12.316 -0.587,-18.45 -0.786,-7.714 -1.787,-15.405 -2.436,-23.135 -0.381,-4.546 -0.591,-9.096 -0.759,-13.649 M -35.692,345.126 c 0.141,2.98 -0.223,6.969 -0.614,10.946 -0.281,2.859 -0.606,5.725 -1.269,8.533 -0.08,0.337 -10e-4,0.905 -0.574,0.806 -0.194,-0.034 -0.355,-0.481 -0.456,-0.766 -0.106,-0.297 -0.134,-0.624 -0.173,-0.941 -0.782,-6.451 -2.285,-12.739 -4.253,-18.923 -3.489,-10.957 -8.489,-21.215 -14.355,-31.072 -6.722,-11.296 -14.461,-21.878 -22.585,-32.191 -8.962,-11.375 -18.391,-22.364 -27.701,-33.451 -9.002,-10.722 -17.91,-21.519 -26.146,-32.85 -7.063,-9.717 -13.599,-19.765 -19.004,-30.515 -6.887,-13.696 -11.686,-28.004 -12.925,-43.393 -0.704,-8.751 -0.395,-17.458 1.469,-26.015 2.479,-11.378 8.256,-20.921 17.256,-28.367 6.563,-5.43 14.034,-8.841 22.665,-9.357 4.307,-0.257 8.482,0.321 12.349,2.281 5.546,2.81 9.04,7.24 10.131,13.447 0.193,1.102 0.409,2.201 0.63,3.297 1.969,9.778 5.246,19.105 9.664,28.039 0.319,0.645 0.622,1.298 0.918,1.953 0.226,0.499 0.112,0.945 -0.302,1.288 -0.554,0.46 -1.131,0.891 -1.692,1.341 -6.136,4.918 -10.26,11.147 -12.094,18.814 -1.26,5.264 -1.349,10.631 -0.885,15.986 0.555,6.399 2.056,12.61 4.092,18.701 2.874,8.596 6.681,16.782 10.83,24.819 5.028,9.739 10.546,19.205 16.016,28.698 6.629,11.503 13.22,23.027 19.096,34.94 5.742,11.637 10.77,23.559 14.375,36.046 3.477,12.046 5.536,24.307 5.537,37.906 m 174.395,20.45 c -0.792,-0.978 -0.763,-0.983 -0.915,-1.904 -0.852,-5.132 -1.374,-10.289 -1.559,-15.495 -0.365,-10.29 0.66,-20.436 2.798,-30.489 2.455,-11.54 6.302,-22.626 10.956,-33.444 4.999,-11.619 10.846,-22.816 17.064,-33.819 5.783,-10.233 11.678,-20.403 17.463,-30.635 5.079,-8.981 9.903,-18.097 13.892,-27.627 4.002,-9.56 7.062,-19.357 7.786,-29.789 0.336,-4.833 0.037,-9.6 -1.029,-14.296 -1.725,-7.61 -5.822,-13.773 -11.85,-18.682 -0.621,-0.504 -1.264,-0.979 -1.883,-1.485 -0.416,-0.34 -0.538,-0.793 -0.338,-1.289 0.209,-0.518 0.454,-1.022 0.701,-1.523 1.488,-3.013 2.877,-6.068 4.117,-9.191 2.872,-7.23 5.001,-14.664 6.32,-22.339 1.025,-5.973 4.3,-10.422 9.578,-13.36 3.875,-2.158 8.124,-2.924 12.494,-2.751 6.011,0.237 11.658,1.937 16.857,4.964 12.118,7.056 19.61,17.632 23.178,31.049 1.317,4.952 1.662,10.074 2.017,15.189 0.429,6.183 0.007,12.313 -0.798,18.419 -1.135,8.6 -3.527,16.894 -6.645,24.972 -3.698,9.581 -8.508,18.604 -13.925,27.312 -6.685,10.748 -14.246,20.866 -22.124,30.755 -9.271,11.636 -18.988,22.903 -28.525,34.319 -8.614,10.313 -17.104,20.727 -24.932,31.66 -6.947,9.702 -13.335,19.747 -18.574,30.489 -5.607,11.496 -9.752,23.456 -11.518,36.178 -0.128,0.919 -0.115,1.907 -0.606,2.812 M 171.795,85.271 c -0.617,5.254 -1.129,10.502 -1.991,15.713 -1.444,8.72 -3.815,17.161 -7.324,25.275 -4.631,10.714 -10.874,20.459 -17.94,29.705 -0.339,0.444 -0.72,0.858 -1.097,1.271 -5.288,5.806 -10.941,11.226 -17.058,16.157 -5.613,4.525 -11.426,8.754 -17.763,12.23 -3.024,1.658 -6.16,3.028 -9.492,3.96 -3.134,0.877 -6.324,1.063 -9.511,0.647 -3.574,-0.468 -6.672,-2.134 -9.435,-4.42 -2.68,-2.217 -4.824,-4.892 -6.637,-7.841 -2.318,-3.769 -3.985,-7.826 -5.391,-12.01 -1.92,-5.714 -2.791,-11.652 -3.791,-17.561 -1.281,-7.567 -2.301,-15.17 -3.042,-22.814 -0.626,-6.452 -1.043,-12.915 -1.217,-19.389 -0.204,-7.602 0.111,-15.188 0.781,-22.768 0.614,-6.94 1.63,-13.813 3.048,-20.627 0.764,-3.675 1.447,-7.393 2.81,-10.904 4.007,-10.329 11.306,-16.853 22.329,-18.891 3.223,-0.596 6.497,-0.858 9.78,-0.863 4.716,-0.006 9.426,-0.047 14.143,0.373 3.742,0.333 7.482,0.69 11.198,1.2 6.809,0.935 13.557,2.242 20.251,3.796 3.501,0.813 7.016,1.596 10.408,2.812 6.195,2.221 10.654,6.334 13.348,12.345 1.448,3.232 2.331,6.63 2.966,10.101 0.156,0.854 0.348,1.701 0.522,2.551 0.211,-0.443 0.215,-0.841 0.21,-1.24 -0.04,-3.839 -0.032,-7.679 -0.139,-11.516 -0.084,-3.01 0.397,-5.862 1.607,-8.641 1.48,-3.395 3.946,-5.522 7.471,-6.56 3.934,-1.157 7.257,-0.306 9.952,2.82 1.21,1.403 2.146,2.984 2.925,4.659 1.455,3.133 2.532,6.395 3.214,9.777 1.077,5.338 1.72,10.74 1.989,16.174 0.325,6.566 0.004,13.117 -0.973,19.621 -1.771,11.808 -5.497,22.988 -10.952,33.599 -0.698,1.359 -1.559,2.614 -2.571,3.752 -1.674,1.882 -3.664,3.278 -6.085,4.112 -1.849,0.638 -4.134,-0.161 -5.311,-1.786 -0.761,-1.052 -1.272,-2.218 -1.616,-3.458 -0.601,-2.168 -0.875,-4.382 -0.958,-6.63 -0.082,-2.251 0.29,-4.465 0.434,-6.698 0.252,-3.91 0.417,-7.825 0.687,-11.734 0.375,-5.434 0.228,-10.872 0.221,-16.299 M -71.294,64.915 c 0.076,0.003 0.152,0.006 0.229,0.009 0.181,-0.928 0.36,-1.858 0.543,-2.786 0.6,-3.067 1.397,-6.075 2.626,-8.958 2.688,-6.31 7.242,-10.652 13.729,-12.893 2.111,-0.729 4.268,-1.351 6.439,-1.877 9.946,-2.409 19.965,-4.408 30.167,-5.409 4.058,-0.397 8.108,-0.861 12.19,-0.866 4.397,-0.005 8.791,-0.117 13.181,0.404 1.906,0.226 3.825,0.356 5.675,0.865 10.776,2.963 17.634,9.967 20.864,20.555 1.517,4.973 2.49,10.087 3.358,15.212 0.974,5.757 1.656,11.547 2.086,17.374 0.419,5.671 0.599,11.345 0.504,17.021 -0.081,4.874 -0.186,9.75 -0.559,14.622 -0.435,5.663 -0.983,11.311 -1.689,16.941 -0.864,6.901 -2.025,13.759 -3.245,20.606 -0.858,4.816 -2.07,9.528 -3.868,14.08 -1.415,3.581 -3.116,7.016 -5.341,10.171 -1.762,2.501 -3.817,4.717 -6.263,6.576 -4.769,3.624 -10.125,4.513 -15.898,3.473 -4.059,-0.73 -7.806,-2.319 -11.389,-4.305 -3.288,-1.822 -6.5,-3.77 -9.57,-5.949 -4.571,-3.245 -8.976,-6.696 -13.176,-10.405 -7.336,-6.479 -14.257,-13.333 -19.515,-21.683 -0.767,-1.218 -1.595,-2.398 -2.372,-3.609 -4.376,-6.815 -8.159,-13.938 -11.09,-21.497 -3.667,-9.455 -5.794,-19.272 -6.888,-29.332 -0.155,-1.43 -0.34,-2.857 -0.52,-4.284 -0.006,-0.046 -0.115,-0.079 -0.176,-0.118 -0.282,0.238 -0.251,0.575 -0.244,0.883 0.128,5.597 0.231,11.196 0.416,16.791 0.077,2.316 0.249,4.636 0.533,6.934 0.344,2.793 0.374,5.584 0.28,8.384 -0.062,1.851 -0.457,3.647 -1.015,5.405 -0.364,1.148 -0.865,2.248 -1.69,3.148 -1.352,1.476 -2.957,2.093 -4.967,1.478 -1.007,-0.307 -1.945,-0.726 -2.828,-1.278 -2.436,-1.521 -4.255,-3.601 -5.569,-6.146 -2.315,-4.482 -4.339,-9.092 -6.058,-13.834 -3.207,-8.846 -5.234,-17.963 -5.891,-27.345 -0.623,-8.885 -0.217,-17.745 1.402,-26.523 0.787,-4.264 2.024,-8.393 3.905,-12.31 0.87,-1.811 1.919,-3.511 3.36,-4.935 1.338,-1.323 2.884,-2.299 4.782,-2.552 3.921,-0.522 9.5,1.534 11.578,6.073 1.284,2.804 2.176,5.651 2.08,8.777 -0.111,3.597 -0.144,7.197 -0.192,10.795 -0.011,0.772 0.055,1.545 0.086,2.317 M -89.66,-7.322 c 1.835,0.142 3.653,0.232 5.473,0.46 6.507,0.813 12.337,3.245 17.6,7.087 4.191,3.058 7.633,6.802 10.101,11.397 1.221,2.275 2.117,4.68 2.397,7.247 0.355,3.265 -0.022,3.185 -2.388,4.136 -4.005,1.609 -8.002,3.235 -12,4.863 -2.19,0.891 -2.187,0.899 -3.277,-1.166 -0.037,-0.071 -0.073,-0.142 -0.11,-0.213 -3.997,-7.755 -9.844,-13.764 -17.382,-18.083 -10.013,-5.737 -20.803,-7.918 -32.298,-6.867 -5.05,0.462 -9.935,1.545 -14.726,3.146 -0.454,0.151 -0.911,0.299 -1.376,0.406 -0.606,0.139 -0.979,-0.236 -0.765,-0.78 0.263,-0.667 0.552,-1.331 0.889,-1.962 1.977,-3.711 4.639,-6.888 7.664,-9.78 2.548,-2.437 5.313,-4.612 8.126,-6.731 2.619,-1.973 5.259,-3.921 7.835,-5.949 1.315,-1.036 2.617,-2.129 3.744,-3.362 5.631,-6.154 4.555,-15.529 -2.173,-20.165 -1.324,-0.913 -2.738,-1.643 -4.257,-2.178 -3.88,-1.369 -7.861,-1.313 -11.846,-0.728 -4.717,0.692 -9.081,2.469 -13.308,4.61 -0.639,0.325 -1.284,0.641 -1.937,0.937 -0.13,0.059 -0.343,0.064 -0.457,-0.004 -0.23,-0.138 -0.264,-0.408 -0.18,-0.638 0.497,-1.36 1.245,-2.593 2.002,-3.815 2.416,-3.896 5.324,-7.396 8.605,-10.589 1.434,-1.396 2.863,-2.802 4.024,-4.438 6.349,-8.949 8.132,-18.784 5.587,-29.413 -1.249,-5.218 -3.668,-9.877 -7.093,-14.004 -2.35,-2.831 -4.755,-5.618 -7.101,-8.452 -3.574,-4.317 -6.95,-8.777 -9.786,-13.628 -5.865,-10.032 -8.03,-20.789 -6.396,-32.3 0.109,-0.768 0.152,-1.57 0.717,-2.186 0.577,0.278 0.635,0.79 0.774,1.231 0.435,1.371 0.771,2.776 1.264,4.124 1.286,3.512 3.235,6.596 6.102,9.05 3.23,2.765 6.907,4.179 11.224,4.016 6.832,-0.259 12.967,-5.301 14.479,-11.942 0.587,-2.579 0.341,-5.076 -0.244,-7.593 -0.959,-4.128 -1.828,-8.273 -2.413,-12.475 -0.787,-5.644 -1.041,-11.285 -0.395,-16.975 0.907,-8.011 3.518,-15.399 7.733,-22.238 0.527,-0.855 0.853,-1.921 1.933,-2.337 1.106,0.816 0.649,2.039 0.733,3.081 0.259,3.209 0.84,6.338 1.994,9.347 1.105,2.883 2.748,5.407 5.089,7.455 2.051,1.794 4.44,2.896 7.125,3.158 5.109,0.498 9.448,-1.156 12.887,-5.016 1.439,-1.615 2.692,-3.374 3.823,-5.22 2.997,-4.89 4.896,-10.223 6.331,-15.742 1.913,-7.362 3.006,-14.883 4.309,-22.362 1.181,-6.775 2.504,-13.517 4.356,-20.147 5.118,-18.312 14.792,-33.721 29.3,-46.053 0.526,-0.447 1.085,-1.352 1.744,-1.017 0.864,0.437 0.312,1.433 0.174,2.162 -1.062,5.602 -1.5,11.244 -1.299,16.945 0.09,2.574 0.452,5.101 1.093,7.581 0.933,3.614 2.469,6.929 5.209,9.569 2.509,2.418 5.49,3.783 8.979,4.083 4.337,0.373 8.421,-0.538 12.372,-2.249 3.691,-1.598 7.089,-3.69 10.311,-6.078 4.71,-3.492 8.924,-7.527 12.858,-11.859 5.989,-6.595 11.175,-13.787 15.827,-21.373 7.895,-12.875 14.049,-26.56 19.013,-40.801 0.236,-0.677 0.467,-1.36 0.751,-2.019 0.082,-0.192 0.312,-0.38 0.515,-0.444 0.244,-0.077 0.435,0.142 0.524,0.363 0.3,0.739 0.602,1.48 0.865,2.233 2.396,6.878 5.145,13.612 8.266,20.193 6.299,13.284 13.893,25.753 23.488,36.942 5.224,6.092 10.942,11.667 17.498,16.338 3.989,2.842 8.206,5.264 12.817,6.971 3.8,1.405 7.698,2.076 11.759,1.801 5.582,-0.379 9.856,-2.974 12.967,-7.561 1.266,-1.867 2.151,-3.924 2.787,-6.084 0.909,-3.084 1.373,-6.232 1.47,-9.45 0.159,-5.301 -0.305,-10.543 -1.251,-15.752 -0.093,-0.51 -0.447,-1.161 0.225,-1.492 0.498,-0.244 0.864,0.266 1.244,0.535 0.13,0.091 0.246,0.204 0.368,0.308 9.968,8.613 17.714,18.843 22.698,31.1 3.519,8.659 5.469,17.708 6.63,26.935 0.907,7.217 1.619,14.458 2.439,21.687 0.514,4.533 1.285,9.023 2.492,13.427 1.383,5.047 3.377,9.827 6.473,14.092 1.036,1.428 2.136,2.802 3.472,3.963 5.459,4.745 14.247,5.114 19.701,-0.825 1.533,-1.671 2.714,-3.557 3.597,-5.634 1.005,-2.37 1.64,-4.845 1.949,-7.397 0.211,-1.744 0.342,-3.499 0.513,-5.248 0.024,-0.241 0.112,-0.514 0.37,-0.529 0.206,-0.011 0.475,0.093 0.621,0.241 0.276,0.282 0.499,0.622 0.716,0.955 4.67,7.154 7.544,14.969 8.527,23.457 0.731,6.324 0.301,12.61 -0.711,18.877 -0.625,3.87 -1.48,7.691 -2.323,11.516 -0.455,2.061 -0.533,4.153 -0.137,6.199 1.556,8.061 9.652,13.961 18.63,12.068 4.179,-0.881 7.384,-3.338 9.963,-6.658 1.941,-2.498 3.175,-5.352 4.078,-8.362 0.207,-0.689 0.388,-1.385 0.578,-2.079 0.087,-0.313 0.205,-0.626 0.564,-0.684 0.454,-0.074 0.511,0.326 0.573,0.611 0.416,1.963 0.517,3.958 0.644,5.955 0.459,7.229 -0.693,14.178 -3.451,20.873 -2.18,5.291 -5.207,10.077 -8.607,14.648 -3.44,4.625 -7.228,8.965 -10.947,13.363 -7.301,8.636 -10.127,18.546 -8.304,29.709 0.999,6.124 3.48,11.619 7.596,16.314 0.948,1.08 1.992,2.079 3.012,3.094 3.42,3.401 6.435,7.117 8.848,11.303 0.438,0.76 0.812,1.558 1.175,2.357 0.126,0.277 0.232,0.661 -0.128,0.849 -0.178,0.093 -0.488,0.065 -0.681,-0.026 -1.735,-0.818 -3.436,-1.712 -5.189,-2.488 -5.338,-2.363 -10.883,-3.694 -16.774,-3.23 -3.687,0.291 -7.032,1.496 -9.91,3.825 -3.011,2.437 -4.675,5.604 -4.879,9.516 -0.227,4.352 1.273,8.003 4.442,10.954 1.579,1.47 3.24,2.856 4.883,4.257 2.984,2.542 6.016,5.029 8.781,7.815 3.692,3.719 6.829,7.835 8.976,12.648 0.324,0.727 0.608,1.476 0.853,2.234 0.178,0.552 -0.219,0.899 -0.808,0.75 -0.387,-0.099 -0.773,-0.208 -1.149,-0.343 -4.759,-1.703 -9.64,-2.783 -14.681,-3.331 -5.162,-0.562 -10.238,-0.212 -15.245,0.919 -14.041,3.174 -24.337,11.235 -30.872,24.076 -0.182,0.356 -0.34,0.725 -0.537,1.072 -0.526,0.933 -0.789,1.04 -1.722,0.719 -0.302,-0.104 -0.597,-0.23 -0.893,-0.35 -3.926,-1.589 -7.854,-3.177 -11.779,-4.771 -0.592,-0.241 -1.166,-0.524 -1.759,-0.764 -0.681,-0.275 -0.964,-0.796 -0.987,-1.495 -0.044,-1.282 0.014,-2.551 0.314,-3.811 0.792,-3.324 2.297,-6.307 4.321,-9.027 5.093,-6.842 11.791,-11.408 19.957,-13.809 3.62,-1.065 7.337,-1.555 11.309,-1.474 -1.407,-0.801 -2.8,-0.696 -4.118,-0.893 -3.101,-0.464 -6.206,-0.417 -9.317,-0.021 -2.628,0.335 -5.186,0.95 -7.697,1.765 -1.007,0.327 -2.013,0.52 -3.063,0.405 -1.065,-0.116 -1.613,-0.845 -1.306,-1.831 0.211,-0.678 0.51,-1.357 0.909,-1.94 0.584,-0.854 1.263,-1.65 1.956,-2.423 2.62,-2.928 5.019,-6.018 7.042,-9.394 4.082,-6.812 6.182,-14.165 6.145,-22.131 -0.012,-2.572 -0.262,-5.117 -0.649,-7.641 -0.3,-1.949 -0.525,-3.939 -1.302,-5.926 -0.401,0.637 -0.19,1.181 -0.189,1.696 0,2.639 0.083,5.279 0.023,7.917 -0.111,4.837 -1.09,9.519 -2.737,14.064 -2.359,6.507 -6.189,12.077 -10.991,16.996 -3.022,3.097 -5.891,6.314 -8.428,9.825 -0.344,0.475 -0.638,1.364 -1.384,1.012 -0.486,-0.229 -0.201,-1.025 -0.152,-1.574 0.015,-0.158 0.054,-0.315 0.08,-0.472 1.015,-6.379 0.965,-12.747 -0.256,-19.092 -0.408,-2.12 -0.971,-4.203 -1.645,-6.258 -1.404,-4.279 -6.305,-4.54 -8.538,-2.322 -0.284,0.281 -0.588,0.542 -0.888,0.807 -2.406,2.128 -2.588,2.071 -3.243,-1.042 -1.895,-9.013 -4.435,-17.838 -7.675,-26.461 -0.281,-0.749 -0.551,-1.501 -0.815,-2.257 -0.175,-0.503 -0.041,-0.951 0.335,-1.311 0.463,-0.441 0.945,-0.862 1.425,-1.286 3.071,-2.71 5.821,-5.707 8.184,-9.061 0.443,-0.626 0.756,-1.76 1.572,-1.617 1.006,0.177 0.789,1.424 0.953,2.212 0.85,4.08 1.973,8.076 3.432,11.977 1.406,3.757 3.122,7.361 5.383,10.687 0.185,0.271 0.299,0.76 0.951,0.566 -0.229,-0.533 -0.447,-1.034 -0.664,-1.536 -1.527,-3.533 -2.698,-7.174 -3.563,-10.928 -1.601,-6.934 -1.694,-13.952 -1.272,-20.998 0.134,-2.235 0.605,-4.405 1.426,-6.526 2.181,-5.635 3.332,-11.516 3.676,-17.537 0.352,-6.184 -0.327,-12.296 -1.628,-18.343 -1.586,-7.372 -4.058,-14.464 -6.715,-21.499 -2.543,-6.732 -5.165,-13.435 -7.607,-20.203 -4.555,-12.62 -7.762,-25.532 -8.188,-39.034 -0.187,-5.935 0.115,-11.835 0.952,-17.701 0.575,-4.034 1.352,-8.039 2.02,-12.06 0.056,-0.341 0.259,-0.822 -0.446,-0.978 -0.227,0.284 -0.489,0.581 -0.715,0.902 -1.474,2.092 -2.931,4.197 -4.41,6.285 -10.493,14.817 -15.414,31.452 -16.126,49.455 -0.355,8.964 0.3,17.913 0.626,26.861 0.253,6.959 0.384,13.912 0.262,20.87 -0.043,2.474 -0.285,4.95 -0.561,7.412 -0.178,1.583 -0.527,3.155 -0.902,4.707 -0.357,1.478 -0.881,2.907 -1.747,4.186 -1.557,2.297 -3.612,3.021 -6.243,2.205 -1.313,-0.407 -2.496,-1.07 -3.622,-1.839 -1.723,-1.177 -3.276,-2.556 -4.765,-4.015 -2.228,-2.183 -4.471,-4.35 -6.723,-6.51 -1.04,-0.998 -2.137,-1.933 -3.378,-2.678 -2.299,-1.382 -4.718,-1.849 -7.358,-1.103 -1.236,0.35 -2.442,0.762 -3.615,1.267 -1.836,0.791 -3.646,1.639 -5.481,2.43 -5.046,2.177 -10.332,3.363 -15.811,3.579 -6.986,0.274 -13.667,-1.127 -20.048,-3.974 -1.533,-0.684 -3.056,-1.392 -4.597,-2.055 -1.174,-0.506 -2.377,-0.921 -3.616,-1.262 -2.643,-0.728 -5.062,-0.257 -7.352,1.142 -1.234,0.754 -2.331,1.689 -3.376,2.683 -1.912,1.819 -3.813,3.65 -5.707,5.49 -1.552,1.508 -3.186,2.916 -4.992,4.114 -1.206,0.8 -2.491,1.433 -3.894,1.82 -2.149,0.591 -3.94,-0.014 -5.428,-1.617 -0.659,-0.709 -1.14,-1.539 -1.534,-2.42 -0.622,-1.394 -1.054,-2.847 -1.375,-4.335 -0.966,-4.477 -1.265,-9.027 -1.382,-13.584 -0.264,-10.402 0.108,-20.799 0.615,-31.183 0.392,-8.023 0.07,-15.983 -1.074,-23.922 -1.653,-11.46 -5.404,-22.181 -11.349,-32.125 -2.63,-4.4 -5.709,-8.495 -8.625,-12.7 -0.127,-0.183 -0.259,-0.41 -0.682,-0.323 0.123,0.921 0.217,1.863 0.378,2.795 0.925,5.355 1.911,10.695 2.376,16.125 0.588,6.883 0.475,13.747 -0.311,20.594 -0.823,7.164 -2.404,14.178 -4.463,21.089 -2.172,7.288 -4.861,14.39 -7.589,21.479 -2.727,7.089 -5.533,14.149 -7.709,21.435 -2.112,7.073 -3.606,14.248 -3.759,21.671 -0.144,6.943 0.66,13.746 2.974,20.298 1.109,3.14 1.643,6.345 1.856,9.616 0.723,11.105 -0.655,21.868 -5.422,32.053 -0.135,0.288 -0.485,0.614 -0.051,1.023 2.213,-2.925 3.863,-6.111 5.261,-9.434 2.086,-4.955 3.57,-10.092 4.581,-15.371 0.116,-0.605 0.062,-1.527 0.662,-1.703 0.861,-0.255 1.113,0.74 1.49,1.294 2.447,3.589 5.281,6.834 8.551,9.691 2.45,2.14 2.378,1.672 1.205,4.801 -3.175,8.475 -5.72,17.133 -7.598,25.987 -0.15,0.704 -0.292,1.41 -0.471,2.106 -0.316,1.228 -0.799,1.377 -1.848,0.537 -0.749,-0.6 -1.452,-1.255 -2.171,-1.891 -2.152,-1.903 -6.639,-1.776 -8.165,2.07 -0.207,0.52 -0.393,1.05 -0.549,1.586 -1.237,4.239 -2.03,8.548 -2.126,12.979 -0.087,4.006 0.058,7.994 0.664,11.961 0.059,0.385 0.043,0.784 0.046,1.176 0,0.064 -0.073,0.176 -0.125,0.184 -0.149,0.024 -0.371,0.072 -0.447,-0.005 -0.386,-0.395 -0.77,-0.802 -1.093,-1.249 -2.349,-3.248 -4.954,-6.276 -7.781,-9.118 -0.733,-0.736 -1.439,-1.501 -2.137,-2.272 -9.533,-10.522 -13.156,-22.975 -12.073,-36.965 0.061,-0.788 0.102,-1.578 0.156,-2.421 -0.435,0.199 -0.496,0.531 -0.564,0.823 -1.035,4.451 -1.668,8.942 -1.686,13.533 -0.031,7.637 1.959,14.69 5.782,21.262 2.06,3.542 4.535,6.773 7.264,9.822 0.797,0.891 1.534,1.842 2.238,2.81 0.421,0.58 0.722,1.241 0.765,1.991 0.046,0.824 -0.38,1.382 -1.208,1.496 -1.221,0.167 -2.375,-0.118 -3.527,-0.499 -4.602,-1.521 -9.326,-2.203 -14.17,-1.919 -2.135,0.125 -4.267,0.33 -6.317,1.056 m 45.555,408.113 c 0.154,-0.207 0.34,-0.367 0.411,-0.566 2.631,-7.464 5.633,-14.797 7.844,-22.408 2.17,-7.467 3.606,-15.066 4.321,-22.818 0.589,-6.395 0.639,-12.795 0.219,-19.177 -0.777,-11.781 -3.219,-23.261 -6.815,-34.504 -4.104,-12.836 -9.582,-25.088 -15.715,-37.062 -5.909,-11.537 -12.41,-22.745 -18.877,-33.972 -5.11,-8.87 -10.22,-17.742 -14.845,-26.88 -3.869,-7.642 -7.403,-15.424 -10.008,-23.604 -1.803,-5.661 -3.089,-11.429 -3.517,-17.355 -0.431,-5.955 -0.031,-11.837 2.216,-17.46 1.914,-4.789 4.977,-8.727 8.977,-11.954 0.373,-0.302 0.758,-0.592 1.16,-0.853 0.746,-0.484 1.084,-0.466 1.717,0.066 0.245,0.205 0.467,0.437 0.694,0.663 2.738,2.733 6.036,4.43 9.789,5.28 2.657,0.603 5.243,1.424 7.762,2.461 5.356,2.206 9.885,5.507 13.534,10.037 4.421,5.487 9.18,10.672 14.209,15.609 10.794,10.6 22.69,19.712 36.092,26.799 9.089,4.806 18.588,8.54 28.598,10.929 1.363,0.326 2.42,0.953 3.384,2.036 5.05,5.671 11.283,9.624 18.371,12.266 1.198,0.446 2.432,0.794 3.634,1.228 0.795,0.287 1.542,0.232 2.341,-0.008 8.523,-2.565 16.025,-6.815 22.005,-13.493 0.971,-1.083 2.024,-1.713 3.385,-2.028 4.992,-1.156 9.858,-2.726 14.636,-4.567 13.783,-5.31 26.248,-12.87 37.709,-22.137 9.302,-7.521 17.679,-15.975 25.334,-25.155 0.204,-0.246 0.418,-0.486 0.61,-0.741 5.031,-6.689 11.87,-10.557 19.81,-12.708 0.693,-0.188 1.392,-0.361 2.093,-0.523 3.748,-0.867 7.053,-2.552 9.782,-5.296 1.251,-1.259 1.45,-1.536 3.196,-0.155 5.946,4.704 9.769,10.704 11.026,18.24 1.148,6.881 0.672,13.711 -0.764,20.494 -1.75,8.259 -4.758,16.087 -8.259,23.739 -4.531,9.903 -9.835,19.398 -15.232,28.843 -6.309,11.041 -12.778,21.991 -18.785,33.203 -6.312,11.783 -12.127,23.795 -16.738,36.364 -3.394,9.253 -6.095,18.697 -7.785,28.412 -0.835,4.804 -1.493,9.638 -1.68,14.524 -0.079,2.077 -0.3,4.152 -0.311,6.229 -0.072,14.122 2.139,27.875 6.817,41.21 1.88,5.355 3.855,10.678 5.812,16.007 0.15,0.409 0.1,0.984 0.83,1.222 -0.113,-1.151 -0.228,-2.238 -0.325,-3.326 -0.1,-1.115 -0.19,-2.231 -0.275,-3.347 -0.413,-5.42 -1.134,-10.814 -1.242,-16.26 -0.213,-10.658 1.431,-21.034 4.586,-31.19 3.34,-10.751 8.199,-20.814 13.912,-30.484 6.074,-10.281 13.027,-19.954 20.343,-29.375 8.589,-11.06 17.665,-21.72 26.679,-32.43 9.478,-11.263 18.923,-22.551 27.687,-34.389 7.34,-9.913 14.159,-20.158 19.899,-31.094 5.149,-9.807 9.317,-19.998 11.947,-30.783 1.385,-5.68 2.278,-11.431 2.771,-17.265 0.482,-5.686 0.367,-11.346 -0.127,-17.011 -1.041,-11.944 -4.11,-23.276 -10.222,-33.684 -4.965,-8.454 -11.43,-15.584 -19.093,-21.655 -7.695,-6.098 -16.164,-10.9 -25.09,-14.93 -4.301,-1.942 -8.686,-3.676 -13.127,-5.268 -0.527,-0.188 -1.05,-0.39 -1.584,-0.555 -0.925,-0.285 -1.474,-0.888 -1.697,-1.829 -0.186,-0.777 -0.41,-1.545 -0.635,-2.312 -0.472,-1.611 -0.961,-3.217 -1.432,-4.828 -0.873,-2.99 -2.675,-5.23 -5.384,-6.761 -0.905,-0.512 -1.797,-1.049 -2.657,-1.631 -2.939,-1.99 -4.995,-4.689 -6.286,-7.981 -0.95,-2.425 -0.928,-2.599 0.869,-4.422 4.526,-4.588 9.883,-7.83 16.017,-9.777 6.352,-2.017 12.826,-2.44 19.432,-1.578 6.177,0.807 11.98,2.728 17.546,5.453 1.364,0.668 2.705,1.384 4.058,2.075 0.422,0.216 0.83,0.501 1.351,0.343 0.371,-0.435 0.188,-0.929 0.107,-1.379 -0.859,-4.815 -2.029,-9.534 -4.126,-13.99 -2.344,-4.977 -5.525,-9.351 -9.355,-13.274 -2.183,-2.234 -4.512,-4.308 -6.889,-6.332 -2.375,-2.022 -4.746,-4.05 -7.106,-6.09 -1.295,-1.12 -2.269,-2.47 -2.771,-4.128 -0.982,-3.24 -0.141,-5.995 2.275,-8.293 0.997,-0.947 2.188,-1.634 3.48,-2.081 2.521,-0.873 5.099,-1.237 7.786,-0.919 4.345,0.515 8.408,1.892 12.32,3.779 3.178,1.532 6.173,3.375 9.048,5.416 0.979,0.694 1.947,1.404 2.935,2.083 0.38,0.26 0.775,0.674 1.289,0.361 0.379,-0.232 0.342,-0.686 0.358,-1.081 0.199,-4.809 -0.702,-9.371 -2.898,-13.687 -2.565,-5.038 -5.909,-9.495 -9.807,-13.558 -0.941,-0.982 -1.937,-1.91 -2.884,-2.886 -4.458,-4.597 -6.881,-10.153 -7.599,-16.461 -1.026,-9.005 1.582,-16.895 7.447,-23.764 3.74,-4.379 7.505,-8.739 10.953,-13.359 3.648,-4.887 6.9,-10.009 9.252,-15.659 3.582,-8.602 4.757,-17.526 3.723,-26.784 -0.68,-6.077 -2.114,-11.963 -4.147,-17.707 -1.465,-4.145 -3.074,-8.24 -4.624,-12.355 -0.082,-0.216 -0.22,-0.411 -0.327,-0.606 -0.577,-0.024 -0.422,0.415 -0.437,0.663 -0.319,5.028 -0.591,10.059 -0.933,15.086 -0.287,4.231 -0.767,8.439 -1.882,12.55 -0.483,1.781 -1.114,3.504 -1.994,5.13 -1.284,2.373 -3.048,4.308 -5.385,5.672 -6.375,3.722 -14.234,-0.598 -15.216,-7.1 -0.157,-1.046 -0.136,-2.065 0.083,-3.095 0.616,-2.894 1.24,-5.785 1.81,-8.687 1.145,-5.819 1.805,-11.68 1.765,-17.629 -0.07,-10.222 -2.631,-19.756 -7.583,-28.673 -2.105,-3.789 -4.559,-7.339 -7.359,-10.642 -1.862,-2.196 -3.806,-4.322 -5.728,-6.467 -0.315,-0.35 -0.682,-0.67 -1.072,-0.932 -0.212,-0.142 -0.498,-0.001 -0.544,0.274 -0.152,0.881 0.04,1.747 0.149,2.619 0.679,5.404 1.116,10.819 0.752,16.272 -0.167,2.49 -0.644,4.911 -1.474,7.262 -0.536,1.52 -1.305,2.912 -2.275,4.202 -3.641,4.84 -9.932,4.112 -13.142,1.073 -0.923,-0.873 -1.737,-1.881 -2.494,-2.906 -2.502,-3.386 -4.139,-7.195 -5.343,-11.206 -1.105,-3.684 -1.878,-7.45 -2.35,-11.257 -0.759,-6.108 -1.348,-12.237 -2.035,-18.354 -0.931,-8.269 -2.148,-16.487 -4.394,-24.522 -4.35,-15.562 -12.484,-28.817 -24.211,-39.905 -5.075,-4.797 -10.669,-8.926 -16.376,-12.918 -0.131,-0.091 -0.269,-0.171 -0.406,-0.254 -0.208,-0.125 -0.441,-0.219 -0.63,-0.013 -0.091,0.098 -0.14,0.303 -0.108,0.434 0.185,0.778 0.399,1.548 0.604,2.321 1,3.786 2.009,7.569 2.787,11.413 0.844,4.165 1.345,8.367 1.586,12.6 0.197,3.454 -0.166,6.872 -0.884,10.25 -0.316,1.488 -0.826,2.92 -1.462,4.308 -2.75,5.999 -8.171,7.904 -13.566,7.168 -4.012,-0.547 -7.726,-1.977 -11.276,-3.879 -5.111,-2.739 -9.671,-6.235 -13.931,-10.142 -7.054,-6.471 -13.071,-13.826 -18.429,-21.733 -8.981,-13.258 -15.821,-27.583 -21.171,-42.647 -2.14,-6.032 -3.909,-12.178 -5.701,-18.318 -0.17,-0.583 -0.18,-1.251 -0.968,-1.731 -0.291,0.9 -0.579,1.707 -0.813,2.527 -2.388,8.385 -4.958,16.709 -8.122,24.841 -5.443,13.989 -12.119,27.334 -20.699,39.686 -4.208,6.056 -8.832,11.771 -14.091,16.957 -3.426,3.377 -7.07,6.491 -11.109,9.122 -2.216,1.442 -4.524,2.707 -6.978,3.713 -1.937,0.793 -3.938,1.338 -5.998,1.633 -3.917,0.563 -8.382,-0.683 -10.945,-5.255 -1.232,-2.197 -1.934,-4.572 -2.307,-7.028 -0.529,-3.485 -0.636,-6.988 -0.359,-10.524 0.589,-7.535 2.257,-14.847 4.231,-22.108 0.189,-0.694 0.383,-1.386 0.564,-2.084 0.115,-0.446 0.395,-0.959 -0.127,-1.293 -0.392,-0.251 -0.758,0.065 -1.086,0.289 -9.424,6.434 -18.141,13.661 -25.428,22.513 -8.409,10.216 -14.255,21.763 -18.021,34.409 -2.08,6.986 -3.516,14.113 -4.78,21.281 -1.221,6.926 -2.235,13.891 -3.846,20.746 -0.953,4.053 -2.136,8.035 -3.835,11.848 -1.475,3.309 -3.316,6.388 -5.709,9.117 -2.025,2.31 -4.583,3.39 -7.66,3.277 -2.01,-0.073 -3.728,-0.805 -5.191,-2.166 -1.556,-1.447 -2.611,-3.215 -3.366,-5.186 -1.248,-3.258 -1.623,-6.669 -1.775,-10.114 -0.166,-3.769 0.273,-7.507 0.671,-11.245 0.187,-1.748 0.395,-3.494 0.576,-5.243 0.014,-0.137 -0.068,-0.343 -0.175,-0.415 -0.097,-0.067 -0.303,-0.031 -0.433,0.025 -0.141,0.061 -0.266,0.181 -0.371,0.299 -3.243,3.643 -6.614,7.178 -9.486,11.139 -5.477,7.555 -9.302,15.836 -10.998,25.047 -0.843,4.579 -1.092,9.201 -0.938,13.854 0.221,6.666 1.401,13.187 2.835,19.675 0.224,1.014 0.498,2.02 0.676,3.044 1.204,6.923 -4.256,11.716 -10.101,11.824 -2.118,0.04 -4.085,-0.672 -5.837,-1.909 -2.421,-1.71 -4.135,-3.976 -5.301,-6.679 -1.31,-3.037 -1.997,-6.24 -2.437,-9.497 -0.566,-4.202 -0.915,-8.423 -1.05,-12.664 -0.094,-2.957 -0.309,-5.91 -0.489,-8.863 -0.013,-0.212 -0.129,-0.539 -0.28,-0.598 -0.405,-0.16 -0.536,0.243 -0.635,0.507 -2.831,7.557 -5.957,15.012 -7.628,22.963 -1.378,6.555 -1.811,13.163 -1.062,19.801 0.817,7.242 3.255,13.988 6.854,20.321 3.017,5.305 6.654,10.169 10.534,14.858 2.244,2.712 4.519,5.399 6.801,8.077 3.832,4.497 6.319,9.638 7.069,15.5 1.203,9.406 -1.075,17.794 -7.831,24.683 -2.692,2.745 -5.367,5.492 -7.659,8.586 -2.438,3.29 -4.545,6.765 -6.019,10.609 -1.371,3.575 -1.754,7.288 -1.667,11.074 0.016,0.702 0.581,1.027 1.149,0.661 0.873,-0.563 1.718,-1.172 2.56,-1.781 3.377,-2.441 6.901,-4.631 10.68,-6.405 3.791,-1.78 7.726,-3.06 11.906,-3.484 3.261,-0.332 6.375,0.179 9.273,1.772 5.584,3.068 5.413,9.787 1.726,13.204 -1.646,1.526 -3.406,2.907 -5.189,4.265 -3.245,2.471 -6.518,4.907 -9.723,7.431 -2.77,2.179 -5.312,4.614 -7.626,7.282 -4.609,5.309 -7.655,11.386 -9.002,18.298 -0.244,1.254 -0.452,2.515 -0.633,3.779 -0.055,0.386 0.251,0.631 0.607,0.491 0.741,-0.29 1.464,-0.633 2.167,-1.006 3.61,-1.913 7.322,-3.584 11.227,-4.813 6.48,-2.04 13.125,-2.899 19.885,-2.394 10.764,0.805 20.4,4.453 28.423,11.879 0.704,0.651 1.342,1.372 2.023,2.048 0.641,0.637 0.754,1.385 0.489,2.21 -0.294,0.918 -0.723,1.772 -1.263,2.575 -0.903,1.342 -2.032,2.465 -3.298,3.459 -1.579,1.237 -3.264,2.32 -5.046,3.23 -3.187,1.626 -5.194,4.165 -6.137,7.592 -0.509,1.85 -1.063,3.687 -1.581,5.535 -0.679,2.42 -0.665,2.44 -2.973,3.255 -3.921,1.386 -7.796,2.887 -11.61,4.542 -9.426,4.091 -18.384,8.996 -26.518,15.324 -8.302,6.458 -15.255,14.1 -20.419,23.308 -4.794,8.547 -7.636,17.72 -8.999,27.408 -0.964,6.845 -1.179,13.709 -0.833,20.586 0.394,7.854 1.836,15.551 4.003,23.11 3.103,10.821 7.668,21.017 13.153,30.821 6.223,11.126 13.5,21.546 21.226,31.665 8.16,10.685 16.814,20.967 25.475,31.243 9.435,11.194 18.903,22.36 27.774,34.013 6.935,9.11 13.48,18.482 19.174,28.427 5.502,9.611 10.11,19.614 13.182,30.282 1.998,6.936 3.246,13.995 3.766,21.209 0.416,5.779 0.103,11.504 -0.468,17.241 -0.38,3.818 -0.708,7.642 -1.032,11.466 -0.044,0.514 -0.262,1.078 0.188,1.622" /></g></g></g></g></svg>