<?xml version="1.0" encoding="utf-8"?>
<!-- Generator: Adobe Illustrator 22.0.1, SVG Export Plug-In . SVG Version: 6.00 Build 0)  -->
<svg version="1.1" id="Livello_1" xmlns="http://www.w3.org/2000/svg" xmlns:xlink="http://www.w3.org/1999/xlink" x="0px" y="0px"
	 viewBox="0 0 595.3 841.9" style="enable-background:new 0 0 595.3 841.9;" xml:space="preserve">
<style type="text/css">
	.st0{fill:#008F00;}
</style>
<g>
	<path class="st0" d="M383.6,459.2c0.1-0.6,0.2-1.3,0.4-1.9c0.5-1.5,1.7-2.1,3.2-1.6c0.6,0.2,1.2,0.4,1.8,0.7c2.1,1,4.1,2.1,6.1,3.4
		c0.5,0.3,1.1,0.7,1.6,1c1.2,0.6,2,0.1,2.2-1.2c0.1-0.6,0.1-1.3,0.1-1.9c0.1-4-0.2-8-1-11.9c-1.2-6.2-3.1-12.1-6.2-17.6
		c-0.5-0.9-1-1.8-1.8-2.5c-2-2-5.1-3.1-8.3-1.2c-0.7,0.4-1.3,0.9-1.9,1.4c-1.7,1.5-3.5,3.1-5.1,4.7c-4.8,4.6-10.4,7.9-16.8,9.9
		c-3.8,1.2-7.8,1.8-11.8,2.1c-1.7,0.1-3.3,0.4-4.9,1c-2.7,1-3.1,2.5-1,4.6c0.9,0.9,1.9,1.7,3,2.4c2.4,1.5,4.9,2.8,7.4,3.9
		c0.6,0.3,1.4,0.4,2.2,1.2c-3.6-0.4-6.7-0.8-9.8-1.7c-8.3-2.4-15.2-7-21-13.3c-0.7-0.8-1.4-1.6-2.1-2.3c-0.9-1-1.5-1.1-2.7-0.4
		c-1,0.5-1.8,1.4-2.3,2.3c-0.5,0.9-0.8,1.9-1.1,2.9c-0.6,2.9-0.5,5.9-0.1,8.8c2,13.9,9.3,24.1,21.7,30.7c2,1.1,4.1,1.8,6.3,2.3
		c3.1,0.7,6.3,1.1,9.5,1.4c4.2,0.5,8.5,0.6,12.7-0.2c6.3-1.1,11.3-4.2,14.7-9.7c1.5-2.4,2.6-5,3.2-7.7
		C382.4,465.5,382.9,462.3,383.6,459.2z"/>
	<path class="st0" d="M218.3,425.8c-0.5-0.5-1.1-0.9-1.7-1.3c-3.3-1.9-6.3-0.9-8.3,1.2c-0.7,0.7-1.2,1.5-1.7,2.3
		c-1.3,2.1-2.3,4.4-3.2,6.7c-2.5,6.5-3.9,13.3-4.2,20.3c-0.1,1.6-0.1,3.2,0.3,4.8c0.2,1.2,1,1.6,2.1,1c0.6-0.3,1.1-0.7,1.6-1
		c2-1.3,4.1-2.5,6.3-3.5c0.6-0.3,1.2-0.5,1.8-0.7c1.2-0.4,2.3,0.1,2.8,1.2c0.2,0.4,0.3,0.9,0.4,1.4c0.5,2.4,0.9,4.9,1.4,7.3
		c0.7,3.4,1.6,6.7,3.3,9.7c2.7,4.9,6.7,8.3,12.1,10c2.6,0.8,5.3,1.3,8,1.4c4.8,0.2,9.6-0.4,14.3-1.1c3.3-0.5,6.5-1.4,9.6-3
		c8.4-4.4,14.5-10.9,18.4-19.5c2.4-5.4,3.6-11.1,3.3-17c-0.1-1.9-0.5-3.6-1.3-5.3c-0.6-1.3-1.5-2.3-2.7-2.9c-1-0.5-1.4-0.4-2.1,0.3
		c-0.4,0.5-0.8,1-1.3,1.4c-1.8,2.1-3.8,4.1-6,5.9c-7.4,6.1-15.8,9.5-25.4,9.8c0.7-0.3,1.3-0.5,2-0.8c2.3-1,4.5-2.1,6.6-3.4
		c1.3-0.8,2.6-1.7,3.6-2.8c2-2.1,1.7-3.6-1-4.6c-0.2-0.1-0.4-0.2-0.7-0.2c-1.3-0.2-2.7-0.5-4-0.7c-1.7-0.2-3.5-0.3-5.2-0.6
		c-9.2-1.4-17.2-5.3-23.9-11.8C221.7,428.7,220,427.3,218.3,425.8z"/>
	<path class="st0" d="M248.9,437.1c4.5,0,9.3-0.9,13.3-2.2c2.1-0.7,4-1.5,5.8-2.7c0.5-0.4,1-0.8,1.4-1.3c0.2-0.3,0.2-0.6-0.1-0.8
		c-0.9-0.7-2-1-3.1-1.3c-3.4-0.9-6.9-1.5-10.3-2c-3.2-0.4-6.3-0.8-9.5-1.1c-2.5-0.3-5.1-0.6-7.6-0.8c-4.1-0.4-8.1-0.7-12.2-1.1
		c-0.5,0-0.9-0.2-1.4-0.2c-0.3,0-0.6,0-1,0c-0.2,0-0.5,0.1-0.5,0.4c0,0.2,0.1,0.5,0.2,0.6c2.6,2.2,5.2,4.5,8,6.6
		C237.2,435.2,243.3,437,248.9,437.1z"/>
	<path class="st0" d="M347.9,437.1c6-0.1,11.3-1.5,16.1-4.5c3.7-2.3,6.7-5.4,10.1-8.1c0.2-0.1,0.3-0.4,0.3-0.6
		c0-0.4-0.4-0.5-0.7-0.5c-2.2,0.2-4.5,0.4-6.7,0.6c-2.5,0.2-4.9,0.5-7.4,0.7c-2.3,0.2-4.6,0.4-6.9,0.6c-3.6,0.4-7.1,0.8-10.7,1.3
		c-3.4,0.5-6.8,1-10.1,1.9c-1,0.3-2,0.6-2.9,1.1c-0.6,0.3-0.6,0.9-0.1,1.4c1.1,1,2.5,1.8,3.8,2.4
		C337.7,435.8,342.9,436.9,347.9,437.1z"/>
	<path class="st0" d="M328.5,533c-5.7,1.4-11.5,1.6-17.4,1c-2.9-0.3-5.9-0.4-8.8-0.7c-5.3-0.4-10.5,0.4-15.8,0.7
		c-5.5,0.4-11,0.2-16.4-1c-1.6-0.4-3.3-0.7-5-0.7c-4.2,0.3-8.1,1.5-11.4,4.3c-2.6,2.3-3.8,5.6-1.7,9.5c2.1,3.9,4.6,7.5,7.8,10.6
		c1.5,1.4,3.1,2.5,5,3.3c4.2,1.7,8.4,1.8,12.6,0.1c2.3-0.9,4.6-1.9,6.9-2.9c2.4-1,4.7-1.9,7.1-2.8c1.7-0.6,3.5-1.1,5.4-1.2
		c3.9-0.3,7.7,0.1,11.3,1.6c2.7,1.1,5.5,2.3,8.2,3.4c1.9,0.8,3.8,1.7,5.8,2.3c5.6,1.8,10.8,0.8,15.4-2.8c4.1-3.3,7.1-7.6,9.3-12.4
		c1.3-2.8,0.8-5.5-1.3-7.8c-1.3-1.4-2.8-2.4-4.4-3.2C336.9,532.4,332.8,531.9,328.5,533z"/>
	<path class="st0" d="M279,239.5c1.7,7.1,3.5,14.1,5.2,21.2c2.6,10.9,4.7,21.9,6.4,33c1.2,7.7,2.1,15.4,2.6,23.1
		c0.4,6.1,0.8,12.3,0.8,19.5c0.2,4.4-0.2,9.7-0.6,15.1c-0.3,5-0.9,10-1.7,15c-1,6.2-2.2,12.3-3.9,18.3c-1.1,4.1-2.9,7.8-5.5,11.1
		c-5.4,7.2-12.5,11.7-21.3,13.2c-5.1,0.9-10.4,0.9-15.5,0.9c-7.4-0.1-14.9-0.7-22.2-1.8c-7.6-1.1-15.1-2.6-22.6-4.4
		c-6.1-1.5-12.1-3.1-18-4.9c-0.6-0.2-1.3-0.5-1.7,0.1c-0.3,0.5,0.2,1.1,0.5,1.5c1.3,1.8,3,3.1,5,4c3,1.4,6,2.7,9,4
		c11,4.5,22.5,7.1,34.2,9.1c8.5,1.5,17.1,2.3,25.7,3.3c4.8,0.6,9.7,1.1,14.5,2c4.6,0.8,9,2.1,13.2,4.2c1.7,0.8,3.3,1.7,4.7,2.9
		c2.4,2.1,3.8,4.7,4,7.9c0.1,1.8,0.3,3.5,0.4,5.3c0.4,7.7,0.7,15.3,0.6,23c-0.1,6-0.5,12-1.5,17.9c-1,6.1-2.6,12.1-6.5,17.1
		c-0.6,0.7-0.5,1.1,0.1,1.7c2.7,2.2,5.4,4.5,8.2,6.6c3.5,2.5,9,2.6,12.6-0.2c2.7-2,5.2-4.2,7.8-6.3c0.8-0.6,0.8-1,0.1-1.8
		c-2.9-3.7-4.4-7.9-5.5-12.4c-1.3-5.1-1.9-10.4-2.2-15.7c-0.5-8.3-0.3-16.6,0-25c0.1-3.5,0.5-7,0.7-10.5c0.2-3.5,2-6.2,4.7-8.3
		c1.4-1.1,3-1.9,4.6-2.6c4.8-2.2,9.8-3.5,14.9-4.2c6.2-0.9,12.3-1.7,18.5-2.4c6.1-0.7,12.2-1.4,18.3-2.4c7.6-1.2,15.1-2.8,22.5-4.9
		c7.3-2.1,14.4-4.8,21.2-8.1c1.7-0.8,3.4-1.9,4.6-3.3c0.5-0.6,1-1.2,1.2-2c0.1-0.3-0.2-0.7-0.5-0.7c-0.7,0-1.2,0.2-1.9,0.4
		c-3.9,1.1-7.8,2.2-11.8,3.3c-7.8,2-15.7,3.9-23.7,5.1c-4,0.6-8.1,1.2-12.1,1.7c-2.1,0.3-4.3,0.4-6.4,0.5c-6,0.3-12,0.4-18,0
		c-3.5-0.2-7-0.6-10.4-1.7c-11.7-4-19.2-12.1-22.4-24c-3.7-13.6-5.5-27.6-5.9-41.7c-0.3-12.6,0.3-25.1,1.8-37.6
		c0.9-7.1,1.9-14.1,3.1-21.1c2.3-12.8,5.1-25.5,8.4-38.2c0.6-2.3,1.2-4.7,1.8-7c0.5-1.7,0.1-3.2-1.1-4.4c-0.1-0.1-0.2-0.2-0.3-0.4
		c-5-5.2-11-8.7-17.8-10.9c-0.8-0.3-1.5-0.2-2.3,0c-6.8,2.2-12.8,5.8-17.8,10.9c-1.4,1.4-1.8,3-1.4,4.8
		C278.8,238.7,278.9,239.1,279,239.5z"/>
	<path class="st0" d="M377.1,623.3c1.9-8.2,4.6-16.1,7.6-24c2.8-7.3,5.7-14.6,8.3-22c2.6-7.7,4.7-15.6,5.2-23.8
		c0.3-4.8-0.1-9.4-1-14.1c-1.4-7.3-4.3-14-8.1-20.4c-2.6-4.5-5.9-8.4-9.9-11.7c-10.2-8.5-22.1-12.7-35.3-13.3
		c-7.9-0.4-15.4,1.3-22.7,4.3c-0.3,0.1-0.6,0.2-0.9,0.4c-1.1,0.5-1.2,0.9-0.3,1.7c0.4,0.3,0.8,0.5,1.2,0.9c0.4,0.4,0.4,0.8,0,1.2
		c-0.3,0.3-0.6,0.5-0.9,0.8c-3.7,3-7.3,6-11,8.9c-0.6,0.5-1.1,0.9-1.7,1.3c-3,1.9-6.3,2.8-9.8,2.5c-3.5-0.3-6.6-1.7-9.4-3.9
		c-3.4-2.9-6.9-5.7-10.4-8.5c-0.4-0.3-0.7-0.6-1.1-0.9c-0.6-0.6-0.7-1,0.1-1.5c2.3-1.4,1.9-1.9-0.3-2.8c-9.2-3.7-18.8-5.2-28.7-3.7
		c-7.1,1.1-13.9,3.2-20.2,6.6c-7.5,4.1-13.8,9.5-18.3,16.9c-2.1,3.5-4,7.1-5.5,10.9c-4.1,10-5.1,20.4-3.4,31.1
		c0.9,5.1,2.2,10.2,3.8,15.1c2.4,7.5,5.4,14.7,8.2,22c3.1,8.2,6,16.5,8.1,25.1c1.5,6,2.5,12.1,3,18.2c0.3,4.1,0.4,8.1,0.3,12.2
		c0,0.7,0,1.4,0.1,2.1c0,0.1,0.2,0.3,0.3,0.3c0.1,0,0.4,0,0.4-0.1c0.4-0.7,0.8-1.4,1.1-2.1c4.3-9.6,6.6-19.7,7.2-30.2
		c0.6-9.9,0.1-19.8-1.1-29.7c-0.4-3.5-0.8-7-1.2-10.5c-0.5-5-0.9-10-1.3-15.1c-0.4-5.9-0.1-11.7,1.3-17.4c2-8.5,6.8-14.9,14.3-19.3
		c3.7-2.2,7.7-3.8,12-4.9c1.7-0.4,3.4-0.8,5.2-0.9c3.4-0.2,6.7,0,10,0.6c5.4,1,10.8,1.5,16.2,1.4c3.2-0.1,6.4-0.6,9.3-2
		c0.8-0.4,1.5-0.4,2.3,0c3.2,1.5,6.5,2,10,2c5.2,0.1,10.4-0.4,15.5-1.4c3.7-0.7,7.5-1,11.2-0.5c6.4,0.9,12.4,3.2,17.8,6.8
		c5.6,3.7,9.5,8.8,11.6,15.1c1.2,3.7,1.9,7.4,2.1,11.3c0.3,6.2,0,12.3-0.6,18.4c-0.8,7.7-1.8,15.4-2.4,23.1
		c-0.4,4.5-0.6,9.1-0.8,13.6c0,3,0.2,6.1,0.3,9.1c0.4,6.4,1.4,12.7,3.1,18.9c1.1,3.9,2.5,7.8,4.2,11.5c0.3,0.7,0.7,1.3,1,1.9
		c0.1,0.1,0.3,0.2,0.4,0.1c0.1,0,0.3-0.2,0.3-0.3c0-0.6,0.1-1.3,0.1-1.9c0-3.9,0-7.8,0.3-11.7C374.8,635.1,375.8,629.2,377.1,623.3z
		"/>
	<path class="st0" d="M421.1,410.6c-0.2-0.4-0.3-0.7-0.5-1.1c-0.5-0.9-0.8-1-1.7-0.7c-0.3,0.1-0.6,0.2-0.9,0.4
		c-3.9,1.6-7.9,3.2-11.8,4.8c-0.6,0.2-1.2,0.5-1.8,0.8c-0.7,0.3-1,0.8-1,1.5c0,1.3,0,2.6,0.3,3.8c0.8,3.3,2.3,6.3,4.3,9
		c5.1,6.8,11.8,11.4,20,13.8c3.6,1.1,7.3,1.6,11.3,1.5c-1.4,0.8-2.8,0.7-4.1,0.9c-3.1,0.5-6.2,0.4-9.3,0c-2.6-0.3-5.2-1-7.7-1.8
		c-1-0.3-2-0.5-3.1-0.4c-1.1,0.1-1.6,0.8-1.3,1.8c0.2,0.7,0.5,1.4,0.9,1.9c0.6,0.9,1.3,1.7,2,2.4c2.6,2.9,5,6,7,9.4
		c4.1,6.8,6.2,14.2,6.1,22.1c0,2.6-0.3,5.1-0.6,7.6c-0.3,1.9-0.5,3.9-1.3,5.9c-0.4-0.6-0.2-1.2-0.2-1.7c0-2.6,0.1-5.3,0-7.9
		c-0.1-4.8-1.1-9.5-2.7-14.1c-2.4-6.5-6.2-12.1-11-17c-3-3.1-5.9-6.3-8.4-9.8c-0.3-0.5-0.6-1.4-1.4-1c-0.5,0.2-0.2,1-0.2,1.6
		c0,0.2,0.1,0.3,0.1,0.5c1,6.4,1,12.7-0.3,19.1c-0.4,2.1-1,4.2-1.6,6.3c-1.4,4.3-6.3,4.5-8.5,2.3c-0.3-0.3-0.6-0.5-0.9-0.8
		c-2.4-2.1-2.6-2.1-3.2,1c-1.9,9-4.4,17.8-7.7,26.5c-0.3,0.7-0.6,1.5-0.8,2.3c-0.2,0.5,0,1,0.3,1.3c0.5,0.4,0.9,0.9,1.4,1.3
		c3.1,2.7,5.8,5.7,8.2,9.1c0.4,0.6,0.8,1.8,1.6,1.6c1-0.2,0.8-1.4,1-2.2c0.8-4.1,2-8.1,3.4-12c1.4-3.8,3.1-7.4,5.4-10.7
		c0.2-0.3,0.3-0.8,1-0.6c-0.2,0.5-0.4,1-0.7,1.5c-1.5,3.5-2.7,7.2-3.6,10.9c-1.6,6.9-1.7,14-1.3,21c0.1,2.2,0.6,4.4,1.4,6.5
		c2.2,5.6,3.3,11.5,3.7,17.5c0.4,6.2-0.3,12.3-1.6,18.3c-1.6,7.4-4.1,14.5-6.7,21.5c-2.5,6.7-5.2,13.4-7.6,20.2
		c-4.6,12.6-7.8,25.5-8.2,39c-0.2,5.9,0.1,11.8,1,17.7c0.6,4,1.4,8,2,12.1c0.1,0.3,0.3,0.8-0.4,1c-0.2-0.3-0.5-0.6-0.7-0.9
		c-1.5-2.1-2.9-4.2-4.4-6.3c-10.5-14.8-15.4-31.5-16.1-49.5c-0.4-9,0.3-17.9,0.6-26.9c0.3-7,0.4-13.9,0.3-20.9c0-2.5-0.3-5-0.6-7.4
		c-0.2-1.6-0.5-3.2-0.9-4.7c-0.4-1.5-0.9-2.9-1.7-4.2c-1.6-2.3-3.6-3-6.2-2.2c-1.3,0.4-2.5,1.1-3.6,1.8c-1.7,1.2-3.3,2.6-4.8,4
		c-2.2,2.2-4.5,4.4-6.7,6.5c-1,1-2.1,1.9-3.4,2.7c-2.3,1.4-4.7,1.8-7.4,1.1c-1.2-0.3-2.4-0.8-3.6-1.3c-1.8-0.8-3.6-1.6-5.5-2.4
		c-5-2.2-10.3-3.4-15.8-3.6c-7-0.3-13.7,1.1-20,4c-1.5,0.7-3.1,1.4-4.6,2.1c-1.2,0.5-2.4,0.9-3.6,1.3c-2.6,0.7-5.1,0.3-7.4-1.1
		c-1.2-0.8-2.3-1.7-3.4-2.7c-1.9-1.8-3.8-3.7-5.7-5.5c-1.6-1.5-3.2-2.9-5-4.1c-1.2-0.8-2.5-1.4-3.9-1.8c-2.1-0.6-3.9,0-5.4,1.6
		c-0.7,0.7-1.1,1.5-1.5,2.4c-0.6,1.4-1.1,2.8-1.4,4.3c-1,4.5-1.3,9-1.4,13.6c-0.3,10.4,0.1,20.8,0.6,31.2c0.4,8,0.1,16-1.1,23.9
		c-1.7,11.5-5.4,22.2-11.3,32.1c-2.6,4.4-5.7,8.5-8.6,12.7c-0.1,0.2-0.3,0.4-0.7,0.3c0.1-0.9,0.2-1.9,0.4-2.8
		c0.9-5.4,1.9-10.7,2.4-16.1c0.6-6.9,0.5-13.7-0.3-20.6c-0.8-7.2-2.4-14.2-4.5-21.1c-2.2-7.3-4.9-14.4-7.6-21.5
		c-2.7-7.1-5.5-14.1-7.7-21.4c-2.1-7.1-3.6-14.2-3.8-21.7c-0.1-6.9,0.7-13.7,3-20.3c1.1-3.1,1.6-6.3,1.9-9.6
		c0.7-11.1-0.7-21.9-5.4-32.1c-0.1-0.3-0.5-0.6-0.1-1c2.2,2.9,3.9,6.1,5.3,9.4c2.1,5,3.6,10.1,4.6,15.4c0.1,0.6,0.1,1.5,0.7,1.7
		c0.9,0.3,1.1-0.7,1.5-1.3c2.4-3.6,5.3-6.8,8.6-9.7c2.4-2.1,2.4-1.7,1.2-4.8c-3.2-8.5-5.7-17.1-7.6-26c-0.1-0.7-0.3-1.4-0.5-2.1
		c-0.3-1.2-0.8-1.4-1.8-0.5c-0.7,0.6-1.5,1.3-2.2,1.9c-2.2,1.9-6.6,1.8-8.2-2.1c-0.2-0.5-0.4-1-0.5-1.6c-1.2-4.2-2-8.5-2.1-13
		c-0.1-4,0.1-8,0.7-12c0.1-0.4,0-0.8,0-1.2c0-0.1-0.1-0.2-0.1-0.2c-0.1,0-0.4-0.1-0.4,0c-0.4,0.4-0.8,0.8-1.1,1.2
		c-2.3,3.2-5,6.3-7.8,9.1c-0.7,0.7-1.4,1.5-2.1,2.3c-9.5,10.5-13.2,23-12.1,37c0.1,0.8,0.1,1.6,0.2,2.4c-0.4-0.2-0.5-0.5-0.6-0.8
		c-1-4.5-1.7-8.9-1.7-13.5c0-7.6,2-14.7,5.8-21.3c2.1-3.5,4.5-6.8,7.3-9.8c0.8-0.9,1.5-1.8,2.2-2.8c0.4-0.6,0.7-1.2,0.8-2
		c0-0.8-0.4-1.4-1.2-1.5c-1.2-0.2-2.4,0.1-3.5,0.5c-4.6,1.5-9.3,2.2-14.2,1.9c-2.1-0.1-4.3-0.3-6.3-1.1c1.8-0.1,3.7-0.2,5.5-0.5
		c6.5-0.8,12.3-3.2,17.6-7.1c4.2-3.1,7.6-6.8,10.1-11.4c1.2-2.3,2.1-4.7,2.4-7.2c0.4-3.3,0-3.2-2.4-4.1c-4-1.6-8-3.2-12-4.9
		c-2.2-0.9-2.2-0.9-3.3,1.2c0,0.1-0.1,0.1-0.1,0.2c-4,7.8-9.8,13.8-17.4,18.1c-10,5.7-20.8,7.9-32.3,6.9c-5-0.5-9.9-1.5-14.7-3.1
		c-0.5-0.2-0.9-0.3-1.4-0.4c-0.6-0.1-1,0.2-0.8,0.8c0.3,0.7,0.6,1.3,0.9,2c2,3.7,4.6,6.9,7.7,9.8c2.5,2.4,5.3,4.6,8.1,6.7
		c2.6,2,5.3,3.9,7.8,5.9c1.3,1,2.6,2.1,3.7,3.4c5.6,6.2,4.6,15.5-2.2,20.2c-1.3,0.9-2.7,1.6-4.3,2.2c-3.9,1.4-7.9,1.3-11.8,0.7
		c-4.7-0.7-9.1-2.5-13.3-4.6c-0.6-0.3-1.3-0.6-1.9-0.9c-0.1-0.1-0.3-0.1-0.5,0c-0.2,0.1-0.3,0.4-0.2,0.6c0.5,1.4,1.2,2.6,2,3.8
		c2.4,3.9,5.3,7.4,8.6,10.6c1.4,1.4,2.9,2.8,4,4.4c6.3,8.9,8.1,18.8,5.6,29.4c-1.2,5.2-3.7,9.9-7.1,14c-2.3,2.8-4.8,5.6-7.1,8.5
		c-3.6,4.3-6.9,8.8-9.8,13.6c-5.9,10-8,20.8-6.4,32.3c0.1,0.8,0.2,1.6,0.7,2.2c0.6-0.3,0.6-0.8,0.8-1.2c0.4-1.4,0.8-2.8,1.3-4.1
		c1.3-3.5,3.2-6.6,6.1-9.1c3.2-2.8,6.9-4.2,11.2-4c6.8,0.3,13,5.3,14.5,11.9c0.6,2.6,0.3,5.1-0.2,7.6c-1,4.1-1.8,8.3-2.4,12.5
		c-0.8,5.6-1,11.3-0.4,17c0.9,8,3.5,15.4,7.7,22.2c0.5,0.9,0.9,1.9,1.9,2.3c1.1-0.8,0.6-2,0.7-3.1c0.3-3.2,0.8-6.3,2-9.3
		c1.1-2.9,2.7-5.4,5.1-7.5c2.1-1.8,4.4-2.9,7.1-3.2c5.1-0.5,9.4,1.2,12.9,5c1.4,1.6,2.7,3.4,3.8,5.2c3,4.9,4.9,10.2,6.3,15.7
		c1.9,7.4,3,14.9,4.3,22.4c1.2,6.8,2.5,13.5,4.4,20.1c5.1,18.3,14.8,33.7,29.3,46.1c0.5,0.4,1.1,1.4,1.7,1c0.9-0.4,0.3-1.4,0.2-2.2
		c-1.1-5.6-1.5-11.2-1.3-16.9c0.1-2.6,0.5-5.1,1.1-7.6c0.9-3.6,2.5-6.9,5.2-9.6c2.5-2.4,5.5-3.8,9-4.1c4.3-0.4,8.4,0.5,12.4,2.2
		c3.7,1.6,7.1,3.7,10.3,6.1c4.7,3.5,8.9,7.5,12.9,11.9c6,6.6,11.2,13.8,15.8,21.4c7.9,12.9,14,26.6,19,40.8c0.2,0.7,0.5,1.4,0.8,2
		c0.1,0.2,0.3,0.4,0.5,0.4c0.2,0.1,0.4-0.1,0.5-0.4c0.3-0.7,0.6-1.5,0.9-2.2c2.4-6.9,5.1-13.6,8.3-20.2
		c6.3-13.3,13.9-25.8,23.5-36.9c5.2-6.1,10.9-11.7,17.5-16.3c4-2.8,8.2-5.3,12.8-7c3.8-1.4,7.7-2.1,11.8-1.8c5.6,0.4,9.9,3,13,7.6
		c1.3,1.9,2.2,3.9,2.8,6.1c0.9,3.1,1.4,6.2,1.5,9.5c0.2,5.3-0.3,10.5-1.3,15.8c-0.1,0.5-0.4,1.2,0.2,1.5c0.5,0.2,0.9-0.3,1.2-0.5
		c0.1-0.1,0.2-0.2,0.4-0.3c10-8.6,17.7-18.8,22.7-31.1c3.5-8.7,5.5-17.7,6.6-26.9c0.9-7.2,1.6-14.5,2.4-21.7c0.5-4.5,1.3-9,2.5-13.4
		c1.4-5,3.4-9.8,6.5-14.1c1-1.4,2.1-2.8,3.5-4c5.5-4.7,14.2-5.1,19.7,0.8c1.5,1.7,2.7,3.6,3.6,5.6c1,2.4,1.6,4.8,1.9,7.4
		c0.2,1.7,0.3,3.5,0.5,5.2c0,0.2,0.1,0.5,0.4,0.5c0.2,0,0.5-0.1,0.6-0.2c0.3-0.3,0.5-0.6,0.7-1c4.7-7.2,7.5-15,8.5-23.5
		c0.7-6.3,0.3-12.6-0.7-18.9c-0.6-3.9-1.5-7.7-2.3-11.5c-0.5-2.1-0.5-4.2-0.1-6.2c1.6-8.1,9.7-14,18.6-12.1c4.2,0.9,7.4,3.3,10,6.7
		c1.9,2.5,3.2,5.4,4.1,8.4c0.2,0.7,0.4,1.4,0.6,2.1c0.1,0.3,0.2,0.6,0.6,0.7c0.5,0.1,0.5-0.3,0.6-0.6c0.4-2,0.5-4,0.6-6
		c0.5-7.2-0.7-14.2-3.5-20.9c-2.2-5.3-5.2-10.1-8.6-14.6c-3.4-4.6-7.2-9-10.9-13.4c-7.3-8.6-10.1-18.5-8.3-29.7
		c1-6.1,3.5-11.6,7.6-16.3c0.9-1.1,2-2.1,3-3.1c3.4-3.4,6.4-7.1,8.8-11.3c0.4-0.8,0.8-1.6,1.2-2.4c0.1-0.3,0.2-0.7-0.1-0.8
		c-0.2-0.1-0.5-0.1-0.7,0c-1.7,0.8-3.4,1.7-5.2,2.5c-5.3,2.4-10.9,3.7-16.8,3.2c-3.7-0.3-7-1.5-9.9-3.8c-3-2.4-4.7-5.6-4.9-9.5
		c-0.2-4.4,1.3-8,4.4-11c1.6-1.5,3.2-2.9,4.9-4.3c3-2.5,6-5,8.8-7.8c3.7-3.7,6.8-7.8,9-12.6c0.3-0.7,0.6-1.5,0.9-2.2
		c0.2-0.6-0.2-0.9-0.8-0.7c-0.4,0.1-0.8,0.2-1.1,0.3c-4.8,1.7-9.6,2.8-14.7,3.3c-5.2,0.6-10.2,0.2-15.2-0.9
		C437.9,431.5,427.6,423.4,421.1,410.6z"/>
	<path class="st0" d="M507.8,265c-3.7-9.6-8.5-18.6-13.9-27.3c-6.7-10.7-14.2-20.9-22.1-30.8c-9.3-11.6-19-22.9-28.5-34.3
		c-8.6-10.3-17.1-20.7-24.9-31.7c-6.9-9.7-13.3-19.7-18.6-30.5C394.1,99,390,87,388.2,74.3c-0.1-0.9-0.1-1.9-0.6-2.8
		c-0.8,1-0.8,1-0.9,1.9c-0.9,5.1-1.4,10.3-1.6,15.5c-0.4,10.3,0.7,20.4,2.8,30.5c2.5,11.5,6.3,22.6,11,33.4
		c5,11.6,10.8,22.8,17.1,33.8c5.8,10.2,11.7,20.4,17.5,30.6c5.1,9,9.9,18.1,13.9,27.6c4,9.6,7.1,19.4,7.8,29.8c0.3,4.8,0,9.6-1,14.3
		c-1.7,7.6-5.8,13.8-11.9,18.7c-0.6,0.5-1.3,1-1.9,1.5c-0.4,0.3-0.5,0.8-0.3,1.3c0.2,0.5,0.5,1,0.7,1.5c1.5,3,2.9,6.1,4.1,9.2
		c2.9,7.2,5,14.7,6.3,22.3c1,6,4.3,10.4,9.6,13.4c3.9,2.2,8.1,2.9,12.5,2.8c6-0.2,11.7-1.9,16.9-5c12.1-7.1,19.6-17.6,23.2-31
		c1.3-5,1.7-10.1,2-15.2c0.4-6.2,0-12.3-0.8-18.4C513.3,281.4,510.9,273.1,507.8,265z"/>
	<path class="st0" d="M435.9,313.1c-0.7-1.4-1.6-2.6-2.6-3.8c-1.7-1.9-3.7-3.3-6.1-4.1c-1.8-0.6-4.1,0.2-5.3,1.8
		c-0.8,1.1-1.3,2.2-1.6,3.5c-0.6,2.2-0.9,4.4-1,6.6c-0.1,2.3,0.3,4.5,0.4,6.7c0.3,3.9,0.4,7.8,0.7,11.7c0.4,5.4,0.2,10.9,0.2,16.3
		c-0.6-5.3-1.1-10.5-2-15.7c-1.4-8.7-3.8-17.2-7.3-25.3c-4.6-10.7-10.9-20.5-17.9-29.7c-0.3-0.4-0.7-0.9-1.1-1.3
		c-5.3-5.8-10.9-11.2-17.1-16.2c-5.6-4.5-11.4-8.8-17.8-12.2c-3-1.7-6.2-3-9.5-4c-3.1-0.9-6.3-1.1-9.5-0.6c-3.6,0.5-6.7,2.1-9.4,4.4
		c-2.7,2.2-4.8,4.9-6.6,7.8c-2.3,3.8-4,7.8-5.4,12c-1.9,5.7-2.8,11.7-3.8,17.6c-1.3,7.6-2.3,15.2-3,22.8c-0.6,6.5-1,12.9-1.2,19.4
		c-0.2,7.6,0.1,15.2,0.8,22.8c0.6,6.9,1.6,13.8,3,20.6c0.8,3.7,1.4,7.4,2.8,10.9c4,10.3,11.3,16.9,22.3,18.9
		c3.2,0.6,6.5,0.9,9.8,0.9c4.7,0,9.4,0,14.1-0.4c3.7-0.3,7.5-0.7,11.2-1.2c6.8-0.9,13.6-2.2,20.3-3.8c3.5-0.8,7-1.6,10.4-2.8
		c6.2-2.2,10.7-6.3,13.3-12.3c1.4-3.2,2.3-6.6,3-10.1c0.2-0.9,0.3-1.7,0.5-2.6c0.2,0.4,0.2,0.8,0.2,1.2c0,3.8,0,7.7-0.1,11.5
		c-0.1,3,0.4,5.9,1.6,8.6c1.5,3.4,3.9,5.5,7.5,6.6c3.9,1.2,7.3,0.3,10-2.8c1.2-1.4,2.1-3,2.9-4.7c1.5-3.1,2.5-6.4,3.2-9.8
		c1.1-5.3,1.7-10.7,2-16.2c0.3-6.6,0-13.1-1-19.6C445.1,334.9,441.3,323.7,435.9,313.1z"/>
	<path class="st0" d="M175.6,394.1c1.3-2.8,2.2-5.7,2.1-8.8c-0.1-3.6-0.1-7.2-0.2-10.8c0-0.8,0.1-1.5,0.1-2.3c0.1,0,0.2,0,0.2,0
		c0.2,0.9,0.4,1.9,0.5,2.8c0.6,3.1,1.4,6.1,2.6,9c2.7,6.3,7.2,10.7,13.7,12.9c2.1,0.7,4.3,1.4,6.4,1.9c9.9,2.4,20,4.4,30.2,5.4
		c4.1,0.4,8.1,0.9,12.2,0.9c4.4,0,8.8,0.1,13.2-0.4c1.9-0.2,3.8-0.4,5.7-0.9c10.8-3,17.6-10,20.9-20.6c1.5-5,2.5-10.1,3.4-15.2
		c1-5.8,1.7-11.5,2.1-17.4c0.4-5.7,0.6-11.3,0.5-17c-0.1-4.9-0.2-9.8-0.6-14.6c-0.4-5.7-1-11.3-1.7-16.9c-0.9-6.9-2-13.8-3.2-20.6
		c-0.9-4.8-2.1-9.5-3.9-14.1c-1.4-3.6-3.1-7-5.3-10.2c-1.8-2.5-3.8-4.7-6.3-6.6c-4.8-3.6-10.1-4.5-15.9-3.5
		c-4.1,0.7-7.8,2.3-11.4,4.3c-3.3,1.8-6.5,3.8-9.6,5.9c-4.6,3.2-9,6.7-13.2,10.4c-7.3,6.5-14.3,13.3-19.5,21.7
		c-0.8,1.2-1.6,2.4-2.4,3.6c-4.4,6.8-8.2,13.9-11.1,21.5c-3.7,9.5-5.8,19.3-6.9,29.3c-0.2,1.4-0.3,2.9-0.5,4.3c0,0-0.1,0.1-0.2,0.1
		c-0.3-0.2-0.3-0.6-0.2-0.9c0.1-5.6,0.2-11.2,0.4-16.8c0.1-2.3,0.2-4.6,0.5-6.9c0.3-2.8,0.4-5.6,0.3-8.4c-0.1-1.9-0.5-3.6-1-5.4
		c-0.4-1.1-0.9-2.2-1.7-3.1c-1.4-1.5-3-2.1-5-1.5c-1,0.3-1.9,0.7-2.8,1.3c-2.4,1.5-4.3,3.6-5.6,6.1c-2.3,4.5-4.3,9.1-6.1,13.8
		c-3.2,8.8-5.2,18-5.9,27.3c-0.6,8.9-0.2,17.7,1.4,26.5c0.8,4.3,2,8.4,3.9,12.3c0.9,1.8,1.9,3.5,3.4,4.9c1.3,1.3,2.9,2.3,4.8,2.6
		C168,400.7,173.5,398.6,175.6,394.1z"/>
	<path class="st0" d="M158.2,310.5c0.2-0.5,0.1-0.9-0.3-1.3c-0.6-0.5-1.1-0.9-1.7-1.3c-6.1-4.9-10.3-11.1-12.1-18.8
		c-1.3-5.3-1.3-10.6-0.9-16c0.6-6.4,2.1-12.6,4.1-18.7c2.9-8.6,6.7-16.8,10.8-24.8c5-9.7,10.5-19.2,16-28.7
		c6.6-11.5,13.2-23,19.1-34.9c5.7-11.6,10.8-23.6,14.4-36c3.5-12,5.5-24.3,5.5-37.9c0.1-3-0.2-7-0.6-10.9c-0.3-2.9-0.6-5.7-1.3-8.5
		c-0.1-0.3,0-0.9-0.6-0.8c-0.2,0-0.4,0.5-0.5,0.8c-0.1,0.3-0.1,0.6-0.2,0.9c-0.8,6.5-2.3,12.7-4.3,18.9c-3.5,11-8.5,21.2-14.4,31.1
		c-6.7,11.3-14.5,21.9-22.6,32.2c-9,11.4-18.4,22.4-27.7,33.5c-9,10.7-17.9,21.5-26.1,32.8c-7.1,9.7-13.6,19.8-19,30.5
		c-6.9,13.7-11.7,28-12.9,43.4c-0.7,8.8-0.4,17.5,1.5,26c2.5,11.4,8.3,20.9,17.3,28.4c6.6,5.4,14,8.8,22.7,9.4
		c4.3,0.3,8.5-0.3,12.3-2.3c5.5-2.8,9-7.2,10.1-13.4c0.2-1.1,0.4-2.2,0.6-3.3c2-9.8,5.2-19.1,9.7-28
		C157.6,311.8,157.9,311.2,158.2,310.5z"/>
</g>
</svg>
