<?xml version="1.0" encoding="UTF-8" standalone="no"?>
<!-- Generator: Adobe Illustrator 22.0.1, SVG Export Plug-In . SVG Version: 6.00 Build 0)  -->

<svg
   xmlns:dc="http://purl.org/dc/elements/1.1/"
   xmlns:cc="http://creativecommons.org/ns#"
   xmlns:rdf="http://www.w3.org/1999/02/22-rdf-syntax-ns#"
   xmlns:svg="http://www.w3.org/2000/svg"
   xmlns="http://www.w3.org/2000/svg"
   xmlns:sodipodi="http://sodipodi.sourceforge.net/DTD/sodipodi-0.dtd"
   xmlns:inkscape="http://www.inkscape.org/namespaces/inkscape"
   version="1.1"
   id="Livello_1"
   x="0px"
   y="0px"
   viewBox="0 0 456.8 233.99999"
   xml:space="preserve"
   sodipodi:docname="logo_scritta.svg"
   width="456.79999"
   height="234"
   inkscape:version="0.92.4 (5da689c313, 2019-01-14)"><metadata
   id="metadata65"><rdf:RDF><cc:Work
       rdf:about=""><dc:format>image/svg+xml</dc:format><dc:type
         rdf:resource="http://purl.org/dc/dcmitype/StillImage" /></cc:Work></rdf:RDF></metadata><defs
   id="defs63" /><sodipodi:namedview
   pagecolor="#ffffff"
   bordercolor="#666666"
   borderopacity="1"
   objecttolerance="10"
   gridtolerance="10"
   guidetolerance="10"
   inkscape:pageopacity="0"
   inkscape:pageshadow="2"
   inkscape:window-width="1920"
   inkscape:window-height="1057"
   id="namedview61"
   showgrid="false"
   inkscape:zoom="0.28031832"
   inkscape:cx="168.24999"
   inkscape:cy="-782.65004"
   inkscape:window-x="-8"
   inkscape:window-y="-8"
   inkscape:window-maximized="1"
   inkscape:current-layer="Livello_1" />
<style
   type="text/css"
   id="style2">
	.st0{enable-background:new;}
	.st1{fill:#FFFFFF;}
</style>
<g
   class="st0"
   id="g14"
   style="enable-background:new"
   transform="translate(-64.7,-35)">
	<path
   class="st1"
   d="m 147.2,112.6 v 30.7 c -5.3,-6.4 -10,-10.8 -14.2,-13.2 -4.1,-2.5 -8.9,-3.7 -14.5,-3.7 -8.7,0 -15.9,3 -21.6,9.1 -5.7,6.1 -8.6,13.7 -8.6,22.9 0,9.4 2.8,17.1 8.3,23.1 5.6,6 12.7,9 21.4,9 5.5,0 10.4,-1.2 14.7,-3.6 4.1,-2.3 8.9,-6.8 14.5,-13.5 v 30.5 c -9.4,4.9 -18.7,7.3 -28.1,7.3 -15.4,0 -28.4,-5 -38.8,-15 -10.4,-10 -15.6,-22.5 -15.6,-37.4 0,-14.9 5.3,-27.5 15.8,-37.7 10.5,-10.3 23.4,-15.4 38.8,-15.4 9.8,-0.2 19.1,2.2 27.9,6.9 z"
   id="path4"
   inkscape:connector-curvature="0"
   style="fill:#ffffff" />
	<path
   class="st1"
   d="M 192.6,35 V 208.2 H 169.5 V 35 Z"
   id="path6"
   inkscape:connector-curvature="0"
   style="fill:#ffffff" />
	<path
   class="st1"
   d="m 295.5,108.3 h 23.2 v 99.9 h -23.2 v -10.5 c -9.5,8.9 -19.7,13.3 -30.7,13.3 -13.8,0 -25.2,-5 -34.2,-15 -9,-10.2 -13.4,-22.9 -13.4,-38.1 0,-15 4.5,-27.4 13.4,-37.4 9,-10 20.2,-15 33.6,-15 11.6,0 22,4.8 31.3,14.4 z m -54.8,49.6 c 0,9.6 2.6,17.4 7.7,23.4 5.3,6.1 11.9,9.1 19.9,9.1 8.5,0 15.4,-2.9 20.7,-8.8 5.3,-6.1 7.9,-13.8 7.9,-23.2 0,-9.4 -2.6,-17.1 -7.9,-23.2 -5.3,-5.9 -12.1,-8.9 -20.5,-8.9 -7.9,0 -14.6,3 -19.9,9 -5.3,6.2 -7.9,13.7 -7.9,22.6 z"
   id="path8"
   inkscape:connector-curvature="0"
   style="fill:#ffffff" />
	<path
   class="st1"
   d="m 405.8,125.3 -19.1,10.2 c -3,-6.2 -6.7,-9.2 -11.2,-9.2 -2.1,0 -3.9,0.7 -5.4,2.1 -1.5,1.4 -2.3,3.2 -2.3,5.4 0,3.8 4.4,7.6 13.3,11.4 12.2,5.3 20.5,10.1 24.7,14.6 4.2,4.4 6.4,10.4 6.4,17.9 0,9.6 -3.6,17.7 -10.7,24.2 -6.9,6.2 -15.2,9.2 -25,9.2 -16.7,0 -28.6,-8.2 -35.6,-24.5 l 19.7,-9.1 c 2.7,4.8 4.8,7.8 6.3,9.1 2.8,2.6 6.2,3.9 10,3.9 7.8,0 11.7,-3.6 11.7,-10.7 0,-4.1 -3,-7.9 -9,-11.5 -2.3,-1.2 -4.6,-2.3 -7,-3.4 -2.3,-1.1 -4.7,-2.2 -7.1,-3.4 -6.7,-3.3 -11.4,-6.6 -14.2,-9.8 -3.5,-4.2 -5.2,-9.5 -5.2,-16.1 0,-8.7 3,-15.9 8.9,-21.5 6.1,-5.7 13.5,-8.5 22.1,-8.5 13,-0.1 22.5,6.5 28.7,19.7 z"
   id="path10"
   inkscape:connector-curvature="0"
   style="fill:#ffffff" />
	<path
   class="st1"
   d="m 433,35 h 23 v 81.6 c 8.2,-7.4 17.3,-11.1 27.2,-11.1 11.3,0 20.3,3.7 27.1,11 5.7,6.4 8.6,16.5 8.6,30.5 v 61.2 h -23.1 v -59.1 c 0,-8 -1.4,-13.8 -4.3,-17.4 -2.8,-3.6 -7.4,-5.4 -13.7,-5.4 -8.1,0 -13.7,2.5 -17,7.5 -3.2,5.1 -4.8,13.7 -4.8,26 v 48.3 h -23 z"
   id="path12"
   inkscape:connector-curvature="0"
   style="fill:#ffffff" />
</g>
<g
   id="g30"
   transform="translate(-64.7,-35)">
	<path
   class="st1"
   d="m 67.3,242 h 4 v 1.6 c 0.7,-0.8 1.4,-1.3 2,-1.6 0.6,-0.3 1.3,-0.4 2.1,-0.4 1.1,0 2.2,0.3 3.3,1 l -1.8,3.7 c -0.8,-0.5 -1.5,-0.8 -2.2,-0.8 -2.2,0 -3.3,1.7 -3.3,5 v 9 h -4 V 242 Z"
   id="path16"
   inkscape:connector-curvature="0"
   style="fill:#ffffff" />
	<path
   class="st1"
   d="m 93.5,242 h 4 v 17.4 h -4 v -1.8 c -1.7,1.5 -3.4,2.3 -5.3,2.3 -2.4,0 -4.4,-0.9 -6,-2.6 -1.6,-1.8 -2.3,-4 -2.3,-6.6 0,-2.6 0.8,-4.8 2.3,-6.5 1.6,-1.7 3.5,-2.6 5.9,-2.6 2,0 3.8,0.8 5.4,2.5 z m -9.5,8.6 c 0,1.7 0.4,3 1.3,4.1 0.9,1.1 2.1,1.6 3.5,1.6 1.5,0 2.7,-0.5 3.6,-1.5 0.9,-1.1 1.4,-2.4 1.4,-4 0,-1.6 -0.5,-3 -1.4,-4 -0.9,-1 -2.1,-1.6 -3.6,-1.6 -1.4,0 -2.5,0.5 -3.5,1.6 -0.8,1 -1.3,2.3 -1.3,3.8 z"
   id="path18"
   inkscape:connector-curvature="0"
   style="fill:#ffffff" />
	<path
   class="st1"
   d="m 119.5,259 c 0,0.8 0,1.5 -0.1,2.2 -0.1,0.7 -0.1,1.2 -0.2,1.7 -0.3,1.3 -0.8,2.4 -1.7,3.4 -1.6,1.8 -3.7,2.7 -6.5,2.7 -2.3,0 -4.2,-0.6 -5.7,-1.9 -1.5,-1.3 -2.4,-3.1 -2.7,-5.3 h 4 c 0.2,0.9 0.4,1.5 0.8,2 0.8,1.1 2,1.6 3.6,1.6 2.9,0 4.4,-1.8 4.4,-5.4 v -2.4 c -1.6,1.6 -3.4,2.4 -5.5,2.4 -2.4,0 -4.3,-0.9 -5.8,-2.6 -1.5,-1.7 -2.3,-3.9 -2.3,-6.5 0,-2.5 0.7,-4.7 2.1,-6.5 1.5,-1.9 3.5,-2.8 6,-2.8 2.2,0 4,0.8 5.5,2.4 v -2 h 4 v 17 z m -3.9,-8.3 c 0,-1.7 -0.5,-3 -1.4,-4.1 -0.9,-1 -2.1,-1.6 -3.5,-1.6 -1.5,0 -2.7,0.6 -3.6,1.7 -0.8,1 -1.2,2.3 -1.2,3.9 0,1.6 0.4,2.9 1.2,3.9 0.9,1.1 2.1,1.7 3.6,1.7 1.5,0 2.8,-0.6 3.6,-1.7 0.9,-0.9 1.3,-2.2 1.3,-3.8 z"
   id="path20"
   inkscape:connector-curvature="0"
   style="fill:#ffffff" />
	<path
   class="st1"
   d="m 137.4,242 h 4 v 17.4 h -4 v -1.8 c -1.7,1.5 -3.4,2.3 -5.3,2.3 -2.4,0 -4.4,-0.9 -6,-2.6 -1.6,-1.8 -2.3,-4 -2.3,-6.6 0,-2.6 0.8,-4.8 2.3,-6.5 1.6,-1.7 3.5,-2.6 5.9,-2.6 2,0 3.8,0.8 5.4,2.5 z m -9.6,8.6 c 0,1.7 0.4,3 1.3,4.1 0.9,1.1 2.1,1.6 3.5,1.6 1.5,0 2.7,-0.5 3.6,-1.5 0.9,-1.1 1.4,-2.4 1.4,-4 0,-1.6 -0.5,-3 -1.4,-4 -0.9,-1 -2.1,-1.6 -3.6,-1.6 -1.4,0 -2.5,0.5 -3.5,1.6 -0.8,1 -1.3,2.3 -1.3,3.8 z"
   id="path22"
   inkscape:connector-curvature="0"
   style="fill:#ffffff" />
	<path
   class="st1"
   d="m 152.3,255.6 h 10.3 v 3.8 h -18.3 l 11.3,-13.6 h -8.9 V 242 h 16.8 z"
   id="path24"
   inkscape:connector-curvature="0"
   style="fill:#ffffff" />
	<path
   class="st1"
   d="m 172.2,255.6 h 10.3 v 3.8 h -18.3 l 11.3,-13.6 h -8.9 V 242 h 16.8 z"
   id="path26"
   inkscape:connector-curvature="0"
   style="fill:#ffffff" />
	<path
   class="st1"
   d="m 185.7,234.8 c 0,-0.7 0.3,-1.3 0.8,-1.8 0.5,-0.5 1.1,-0.8 1.8,-0.8 0.7,0 1.3,0.3 1.9,0.8 0.5,0.5 0.8,1.1 0.8,1.8 0,0.7 -0.3,1.3 -0.8,1.9 -0.5,0.5 -1.1,0.8 -1.8,0.8 -0.7,0 -1.3,-0.3 -1.9,-0.8 -0.6,-0.6 -0.8,-1.2 -0.8,-1.9 z m 4.6,7.2 v 17.4 h -4 V 242 Z"
   id="path28"
   inkscape:connector-curvature="0"
   style="fill:#ffffff" />
</g>
<g
   id="g42"
   transform="translate(-64.7,-35)">
	<path
   class="st1"
   d="m 274.1,245 -3.3,1.8 c -0.5,-1.1 -1.2,-1.6 -1.9,-1.6 -0.4,0 -0.7,0.1 -0.9,0.4 -0.3,0.2 -0.4,0.6 -0.4,0.9 0,0.7 0.8,1.3 2.3,2 2.1,0.9 3.6,1.8 4.3,2.5 0.7,0.8 1.1,1.8 1.1,3.1 0,1.7 -0.6,3.1 -1.9,4.2 -1.2,1.1 -2.7,1.6 -4.4,1.6 -2.9,0 -5,-1.4 -6.2,-4.3 l 3.4,-1.6 c 0.5,0.8 0.8,1.4 1.1,1.6 0.5,0.5 1.1,0.7 1.8,0.7 1.4,0 2,-0.6 2,-1.9 0,-0.7 -0.5,-1.4 -1.6,-2 -0.4,-0.2 -0.8,-0.4 -1.2,-0.6 -0.4,-0.2 -0.8,-0.4 -1.2,-0.6 -1.2,-0.6 -2,-1.1 -2.5,-1.7 -0.6,-0.7 -0.9,-1.7 -0.9,-2.8 0,-1.5 0.5,-2.8 1.6,-3.8 1.1,-1 2.3,-1.5 3.9,-1.5 2.2,0.1 3.8,1.3 4.9,3.6 z"
   id="path32"
   inkscape:connector-curvature="0"
   style="fill:#ffffff" />
	<path
   class="st1"
   d="m 282.9,268.9 h -4 V 242 h 4 v 1.9 c 1.6,-1.6 3.4,-2.4 5.4,-2.4 2.4,0 4.4,0.9 5.9,2.6 1.6,1.8 2.4,4 2.4,6.6 0,2.6 -0.8,4.8 -2.3,6.5 -1.5,1.7 -3.5,2.6 -5.9,2.6 -2,0 -3.9,-0.8 -5.5,-2.4 z m 9.5,-18.1 c 0,-1.7 -0.5,-3 -1.4,-4.1 -0.9,-1.1 -2.1,-1.6 -3.5,-1.6 -1.5,0 -2.7,0.5 -3.6,1.5 -0.9,1 -1.4,2.4 -1.4,4 0,1.6 0.5,3 1.4,4 0.9,1 2.1,1.6 3.6,1.6 1.4,0 2.5,-0.5 3.4,-1.6 1,-0.9 1.5,-2.2 1.5,-3.8 z"
   id="path34"
   inkscape:connector-curvature="0"
   style="fill:#ffffff" />
	<path
   class="st1"
   d="m 299.9,250.6 c 0,-2.5 0.9,-4.7 2.7,-6.4 1.8,-1.8 4,-2.6 6.6,-2.6 2.6,0 4.8,0.9 6.6,2.7 1.8,1.8 2.7,4 2.7,6.5 0,2.6 -0.9,4.8 -2.7,6.6 -1.8,1.8 -4,2.6 -6.7,2.6 -2.6,0 -4.8,-0.9 -6.6,-2.7 -1.7,-1.8 -2.6,-4.1 -2.6,-6.7 z m 4.2,0 c 0,1.7 0.5,3.1 1.4,4.1 1,1 2.2,1.5 3.8,1.5 1.6,0 2.8,-0.5 3.8,-1.5 0.9,-1 1.4,-2.4 1.4,-4.1 0,-1.7 -0.5,-3 -1.4,-4.1 -1,-1 -2.2,-1.5 -3.8,-1.5 -1.5,0 -2.8,0.5 -3.7,1.5 -1.1,1.2 -1.5,2.5 -1.5,4.1 z"
   id="path36"
   inkscape:connector-curvature="0"
   style="fill:#ffffff" />
	<path
   class="st1"
   d="m 322.8,242 h 4 v 1.6 c 0.7,-0.8 1.4,-1.3 2,-1.6 0.6,-0.3 1.3,-0.4 2.1,-0.4 1.1,0 2.2,0.3 3.3,1 l -1.8,3.7 c -0.8,-0.5 -1.5,-0.8 -2.2,-0.8 -2.2,0 -3.3,1.7 -3.3,5 v 9 h -4 V 242 Z"
   id="path38"
   inkscape:connector-curvature="0"
   style="fill:#ffffff" />
	<path
   class="st1"
   d="m 341.9,245.7 v 13.6 h -4 v -13.6 h -1.7 V 242 h 1.7 v -6.4 h 4 v 6.4 h 3.1 v 3.8 h -3.1 z"
   id="path40"
   inkscape:connector-curvature="0"
   style="fill:#ffffff" />
</g>
<g
   id="g58"
   transform="translate(-64.7,-35)">
	<path
   class="st1"
   d="m 428.3,242.7 v 5.3 c -0.9,-1.1 -1.7,-1.9 -2.5,-2.3 -0.7,-0.4 -1.6,-0.6 -2.5,-0.6 -1.5,0 -2.8,0.5 -3.8,1.6 -1,1.1 -1.5,2.4 -1.5,4 0,1.6 0.5,3 1.4,4 1,1 2.2,1.6 3.7,1.6 1,0 1.8,-0.2 2.6,-0.6 0.7,-0.4 1.6,-1.2 2.5,-2.4 v 5.3 c -1.6,0.8 -3.3,1.3 -4.9,1.3 -2.7,0 -4.9,-0.9 -6.8,-2.6 -1.8,-1.8 -2.7,-3.9 -2.7,-6.5 0,-2.6 0.9,-4.8 2.8,-6.6 1.8,-1.8 4.1,-2.7 6.8,-2.7 1.8,0 3.4,0.4 4.9,1.2 z"
   id="path44"
   inkscape:connector-curvature="0"
   style="fill:#ffffff" />
	<path
   class="st1"
   d="m 436.2,242 v 10 c 0,2.9 1.1,4.3 3.4,4.3 2.3,0 3.4,-1.4 3.4,-4.3 v -10 h 4 v 10.1 c 0,1.4 -0.2,2.6 -0.5,3.6 -0.3,0.9 -0.9,1.7 -1.7,2.4 -1.4,1.2 -3.1,1.8 -5.2,1.8 -2.1,0 -3.8,-0.6 -5.2,-1.8 -0.8,-0.7 -1.4,-1.5 -1.8,-2.4 -0.3,-0.8 -0.5,-2 -0.5,-3.6 V 242 Z"
   id="path46"
   inkscape:connector-curvature="0"
   style="fill:#ffffff" />
	<path
   class="st1"
   d="m 456.2,229.2 v 30.2 h -4 v -30.2 z"
   id="path48"
   inkscape:connector-curvature="0"
   style="fill:#ffffff" />
	<path
   class="st1"
   d="m 465.4,245.7 v 13.6 h -4 v -13.6 h -1.7 V 242 h 1.7 v -6.4 h 4 v 6.4 h 3.1 v 3.8 h -3.1 z"
   id="path50"
   inkscape:connector-curvature="0"
   style="fill:#ffffff" />
	<path
   class="st1"
   d="m 475.3,242 v 10 c 0,2.9 1.1,4.3 3.4,4.3 2.3,0 3.4,-1.4 3.4,-4.3 v -10 h 4 v 10.1 c 0,1.4 -0.2,2.6 -0.5,3.6 -0.3,0.9 -0.9,1.7 -1.7,2.4 -1.4,1.2 -3.1,1.8 -5.2,1.8 -2.1,0 -3.8,-0.6 -5.2,-1.8 -0.8,-0.7 -1.4,-1.5 -1.8,-2.4 -0.3,-0.8 -0.5,-2 -0.5,-3.6 V 242 Z"
   id="path52"
   inkscape:connector-curvature="0"
   style="fill:#ffffff" />
	<path
   class="st1"
   d="m 491.2,242 h 4 v 1.6 c 0.7,-0.8 1.4,-1.3 2,-1.6 0.6,-0.3 1.3,-0.4 2.1,-0.4 1.1,0 2.2,0.3 3.3,1 l -1.8,3.7 c -0.8,-0.5 -1.5,-0.8 -2.2,-0.8 -2.2,0 -3.3,1.7 -3.3,5 v 9 h -4 V 242 Z"
   id="path54"
   inkscape:connector-curvature="0"
   style="fill:#ffffff" />
	<path
   class="st1"
   d="m 517.5,242 h 4 v 17.4 h -4 v -1.8 c -1.7,1.5 -3.4,2.3 -5.3,2.3 -2.4,0 -4.4,-0.9 -6,-2.6 -1.6,-1.8 -2.3,-4 -2.3,-6.6 0,-2.6 0.8,-4.8 2.3,-6.5 1.6,-1.7 3.5,-2.6 5.9,-2.6 2,0 3.8,0.8 5.4,2.5 z m -9.6,8.6 c 0,1.7 0.4,3 1.3,4.1 0.9,1.1 2.1,1.6 3.5,1.6 1.5,0 2.7,-0.5 3.6,-1.5 0.9,-1.1 1.4,-2.4 1.4,-4 0,-1.6 -0.5,-3 -1.4,-4 -0.9,-1 -2.1,-1.6 -3.6,-1.6 -1.4,0 -2.5,0.5 -3.5,1.6 -0.8,1 -1.3,2.3 -1.3,3.8 z"
   id="path56"
   inkscape:connector-curvature="0"
   style="fill:#ffffff" />
</g>
</svg>