<svg id="Livello_1" data-name="Livello 1" xmlns="http://www.w3.org/2000/svg" viewBox="0 0 441.87 1158.4"><defs><style>.cls-1{fill:#f2f2f2;}</style></defs><title>barbaro.definitivo.vuoto.gap</title><path class="cls-1" d="M126.6.44A2.49,2.49,0,0,1,127,1c2.63,7.47,5.63,14.8,7.84,22.41a121.23,121.23,0,0,1,4.32,22.82,121.62,121.62,0,0,1,.22,19.18,144.6,144.6,0,0,1-6.81,34.5A246,246,0,0,1,116.86,137c-5.91,11.54-12.41,22.75-18.88,34-5.11,8.87-10.22,17.75-14.84,26.88a160.62,160.62,0,0,0-10,23.61,75.19,75.19,0,0,0-3.52,17.35c-.43,6,0,11.84,2.22,17.46a29.08,29.08,0,0,0,9,12,12.34,12.34,0,0,0,1.16.85c.74.48,1.08.47,1.71-.07a8.69,8.69,0,0,0,.7-.66A19.68,19.68,0,0,1,94.17,263a48.24,48.24,0,0,0,7.76-2.46,33.44,33.44,0,0,0,13.53-10,182.49,182.49,0,0,1,14.21-15.61,155,155,0,0,1,36.09-26.8,121.62,121.62,0,0,1,28.6-10.93,6.23,6.23,0,0,0,3.39-2,45.32,45.32,0,0,1,18.37-12.27c1.19-.44,2.43-.79,3.63-1.22a3.54,3.54,0,0,1,2.34,0c8.52,2.57,16,6.82,22,13.5a6.16,6.16,0,0,0,3.38,2,110.3,110.3,0,0,1,14.64,4.57,139.74,139.74,0,0,1,37.71,22.14,181.9,181.9,0,0,1,25.33,25.15c.21.25.42.49.61.74,5,6.69,11.87,10.56,19.81,12.71.69.19,1.39.36,2.09.53a19.7,19.7,0,0,1,9.79,5.29c1.25,1.26,1.45,1.54,3.19.16a28.7,28.7,0,0,0,11-18.24,54.62,54.62,0,0,0-.77-20.5A113.61,113.61,0,0,0,362.65,206c-4.53-9.9-9.83-19.39-15.23-28.84-6.31-11-12.77-22-18.78-33.2A286,286,0,0,1,311.9,107.6a163.42,163.42,0,0,1-7.78-28.41,107.25,107.25,0,0,1-1.68-14.52c-.08-2.08-.31-4.15-.32-6.23a121.68,121.68,0,0,1,6.82-41.21c1.88-5.36,3.86-10.68,5.81-16,.15-.41.1-1,.83-1.22-.11,1.15-.22,2.24-.32,3.33s-.19,2.23-.28,3.34c-.41,5.42-1.13,10.82-1.24,16.26a97.84,97.84,0,0,0,4.59,31.19,144.23,144.23,0,0,0,13.91,30.49A282.21,282.21,0,0,0,352.58,114c8.59,11.06,17.67,21.72,26.68,32.43C388.74,157.67,398.18,169,407,180.8a239.73,239.73,0,0,1,19.9,31.09,135,135,0,0,1,11.94,30.79,113.05,113.05,0,0,1,2.78,17.26,99.6,99.6,0,0,1-.13,17c-1,11.95-4.11,23.28-10.22,33.69a77.87,77.87,0,0,1-19.1,21.65A118.21,118.21,0,0,1,387,347.22c-4.3,1.94-8.68,3.68-13.12,5.27-.53.19-1.05.39-1.59.56a2.34,2.34,0,0,0-1.7,1.82c-.18.78-.41,1.55-.63,2.32-.47,1.61-1,3.21-1.43,4.82a11.13,11.13,0,0,1-5.39,6.77c-.9.51-1.79,1-2.65,1.63a16.73,16.73,0,0,0-6.29,8c-1,2.42-.93,2.6.87,4.42a38.56,38.56,0,0,0,16,9.78,44.35,44.35,0,0,0,19.43,1.57,55.86,55.86,0,0,0,17.54-5.45c1.37-.67,2.71-1.38,4.06-2.07a1.76,1.76,0,0,1,1.35-.35c.37.44.19.93.11,1.38a55.05,55.05,0,0,1-4.13,14,48.58,48.58,0,0,1-9.35,13.28c-2.18,2.23-4.51,4.3-6.89,6.33s-4.75,4.05-7.11,6.09a8.87,8.87,0,0,0-2.77,4.13,7.65,7.65,0,0,0,2.28,8.29,9.51,9.51,0,0,0,3.48,2.08,17.27,17.27,0,0,0,7.78.92A38.74,38.74,0,0,0,409.22,439a62.2,62.2,0,0,0,9-5.41c1-.7,2-1.41,2.94-2.09.38-.26.77-.67,1.29-.36s.34.69.35,1.08A27.21,27.21,0,0,1,420,445.91a57,57,0,0,1-9.81,13.56c-.94,1-1.94,1.91-2.88,2.88a27.38,27.38,0,0,0-7.6,16.46,30,30,0,0,0,7.44,23.77c3.74,4.38,7.51,8.74,11,13.36a73.43,73.43,0,0,1,9.25,15.66A53.09,53.09,0,0,1,431,558.38a79.6,79.6,0,0,1-4.14,17.71c-1.47,4.14-3.08,8.24-4.63,12.35a4.47,4.47,0,0,1-.33.61c-.57,0-.42-.42-.43-.67-.32-5-.59-10-.94-15.08a63.42,63.42,0,0,0-1.88-12.55,23.51,23.51,0,0,0-2-5.13,14.21,14.21,0,0,0-5.39-5.67,10.29,10.29,0,0,0-15.21,7.1,8.45,8.45,0,0,0,.08,3.09c.62,2.9,1.24,5.79,1.81,8.69a88.37,88.37,0,0,1,1.76,17.63,58.88,58.88,0,0,1-7.58,28.67,65.46,65.46,0,0,1-7.36,10.64c-1.86,2.2-3.8,4.32-5.73,6.47a5.59,5.59,0,0,1-1.07.93.36.36,0,0,1-.54-.27,8.87,8.87,0,0,1,.15-2.62,85.16,85.16,0,0,0,.75-16.27,27.39,27.39,0,0,0-1.47-7.27,15.7,15.7,0,0,0-2.28-4.2,8.86,8.86,0,0,0-13.14-1.07,21.79,21.79,0,0,0-2.5,2.91,36,36,0,0,0-5.34,11.2,68.9,68.9,0,0,0-2.35,11.26c-.76,6.11-1.35,12.24-2,18.35a154.76,154.76,0,0,1-4.4,24.53,85.77,85.77,0,0,1-24.21,39.9,141.47,141.47,0,0,1-16.37,12.92c-.13.09-.27.17-.41.25s-.44.22-.63,0a.54.54,0,0,1-.11-.43c.19-.78.4-1.55.61-2.32,1-3.79,2-7.57,2.78-11.41a87.86,87.86,0,0,0,1.59-12.6,38.75,38.75,0,0,0-.88-10.25,20.69,20.69,0,0,0-1.47-4.31c-2.75-6-8.17-7.91-13.56-7.17a33.45,33.45,0,0,0-11.28,3.88A69.08,69.08,0,0,0,267,688.33a122.66,122.66,0,0,0-18.43,21.73,187.28,187.28,0,0,0-21.17,42.65c-2.14,6-3.91,12.18-5.7,18.32-.17.58-.18,1.25-1,1.73-.29-.9-.58-1.71-.81-2.53-2.39-8.38-5-16.71-8.12-24.84a189.61,189.61,0,0,0-20.7-39.68,119.77,119.77,0,0,0-14.09-17,71.42,71.42,0,0,0-11.11-9.12,42,42,0,0,0-7-3.71,25.19,25.19,0,0,0-6-1.64A10.36,10.36,0,0,0,142,679.54a20.23,20.23,0,0,0-2.31,7,45.77,45.77,0,0,0-.36,10.53,120.39,120.39,0,0,0,4.23,22.11c.19.69.38,1.38.56,2.08.12.45.4,1-.12,1.29s-.76-.06-1.09-.29c-9.42-6.43-18.14-13.66-25.43-22.51a96.92,96.92,0,0,1-18-34.41,190.75,190.75,0,0,1-4.78-21.28c-1.22-6.92-2.23-13.89-3.84-20.74A66.37,66.37,0,0,0,87,611.49a35.42,35.42,0,0,0-5.71-9.12,9.26,9.26,0,0,0-7.66-3.28,7.83,7.83,0,0,0-5.19,2.17,13.46,13.46,0,0,0-3.36,5.19,31.63,31.63,0,0,0-1.78,10.11,75.39,75.39,0,0,0,.67,11.24c.19,1.75.4,3.5.58,5.25a.52.52,0,0,1-.18.41c-.09.07-.3,0-.43,0a1.07,1.07,0,0,1-.37-.3C60.3,629.49,56.92,626,54.05,622a61.4,61.4,0,0,1-11-25,64.26,64.26,0,0,1-.93-13.85A108,108,0,0,1,45,563.42c.23-1,.5-2,.68-3,1.2-6.92-4.26-11.72-10.1-11.82a9.76,9.76,0,0,0-5.84,1.9,15.43,15.43,0,0,0-5.3,6.68,35.9,35.9,0,0,0-2.44,9.5q-.84,6.3-1.05,12.67c-.09,3-.31,5.9-.49,8.86,0,.21-.13.54-.28.6-.4.16-.53-.25-.63-.51-2.83-7.56-6-15-7.63-23a62,62,0,0,1-1.06-19.81,52.84,52.84,0,0,1,6.85-20.32A104.46,104.46,0,0,1,28.2,510.32c2.24-2.72,4.51-5.4,6.8-8.08a29.37,29.37,0,0,0,7.07-15.5c1.2-9.41-1.08-17.8-7.84-24.68a84.13,84.13,0,0,1-7.65-8.59,44.69,44.69,0,0,1-6-10.61,28.6,28.6,0,0,1-1.67-11.07c0-.7.58-1,1.15-.66.87.56,1.72,1.17,2.56,1.78a66.37,66.37,0,0,0,10.68,6.4,36.73,36.73,0,0,0,11.91,3.49A15.5,15.5,0,0,0,54.46,441a8.12,8.12,0,0,0,1.72-13.2c-1.64-1.53-3.4-2.91-5.18-4.27-3.25-2.47-6.52-4.9-9.73-7.43a55.21,55.21,0,0,1-7.62-7.28,38.83,38.83,0,0,1-9-18.3q-.36-1.87-.63-3.78a.43.43,0,0,1,.61-.49,22.43,22.43,0,0,1,2.17,1A67.33,67.33,0,0,0,38,392.09a52.84,52.84,0,0,0,19.89,2.4c10.76-.81,20.4-4.46,28.42-11.88.7-.65,1.34-1.37,2-2.05a2,2,0,0,0,.49-2.21,10.12,10.12,0,0,0-1.26-2.58,15,15,0,0,0-3.3-3.45,31,31,0,0,0-5-3.23,11.58,11.58,0,0,1-6.14-7.6c-.51-1.85-1.07-3.68-1.58-5.53-.68-2.42-.67-2.44-3-3.26-3.92-1.38-7.79-2.88-11.61-4.54a121.38,121.38,0,0,1-26.51-15.32A74.9,74.9,0,0,1,1,282.12a108.18,108.18,0,0,1-.84-20.58,102.39,102.39,0,0,1,4-23.11A145.1,145.1,0,0,1,17.31,207.6a267.78,267.78,0,0,1,21.23-31.66C46.7,165.25,55.35,155,64,144.7c9.44-11.2,18.9-22.36,27.78-34A262.81,262.81,0,0,0,111,82.26,137.7,137.7,0,0,0,124.14,52a102.89,102.89,0,0,0,3.77-21.2,101.4,101.4,0,0,0-.47-17.25c-.38-3.81-.71-7.64-1-11.46C126.36,1.54,126.15,1,126.6.44ZM81,408.55c1.84-.14,3.65-.23,5.47-.46a37.13,37.13,0,0,0,17.6-7.09,33.88,33.88,0,0,0,10.1-11.39,19.76,19.76,0,0,0,2.4-7.25c.36-3.27,0-3.19-2.39-4.14l-12-4.86c-2.19-.89-2.18-.9-3.27,1.17a2.12,2.12,0,0,0-.11.21,43.52,43.52,0,0,1-17.38,18.08,53.62,53.62,0,0,1-32.3,6.87,64.91,64.91,0,0,1-14.73-3.15,13.38,13.38,0,0,0-1.37-.4c-.61-.14-1,.23-.77.78a18.13,18.13,0,0,0,.89,2,39.09,39.09,0,0,0,7.66,9.78A90.13,90.13,0,0,0,49,415.39c2.62,2,5.26,3.92,7.83,5.95a31.55,31.55,0,0,1,3.75,3.36,13.35,13.35,0,0,1-2.18,20.17A17.76,17.76,0,0,1,54.12,447a24.3,24.3,0,0,1-11.85.73A43.59,43.59,0,0,1,29,443.16c-.64-.32-1.28-.64-1.93-.93a.57.57,0,0,0-.46,0,.52.52,0,0,0-.18.64,21,21,0,0,0,2,3.81A55.89,55.89,0,0,0,37,457.27a33.17,33.17,0,0,1,4,4.44,34.72,34.72,0,0,1,5.59,29.41,34.2,34.2,0,0,1-7.1,14c-2.35,2.83-4.75,5.61-7.1,8.45a101.93,101.93,0,0,0-9.78,13.63,48.7,48.7,0,0,0-6.4,32.3,3.72,3.72,0,0,0,.72,2.18c.58-.28.63-.79.77-1.23.44-1.37.77-2.78,1.27-4.12a21.08,21.08,0,0,1,6.1-9.05,15.65,15.65,0,0,1,25.7,7.92,16.67,16.67,0,0,1-.24,7.6c-1,4.12-1.83,8.27-2.42,12.47a67.46,67.46,0,0,0-.39,17,53.39,53.39,0,0,0,7.73,22.23c.53.86.86,1.92,1.94,2.34,1.1-.82.65-2,.73-3.08a33.57,33.57,0,0,1,2-9.35A18.5,18.5,0,0,1,65.22,597a12.47,12.47,0,0,1,7.13-3.16,14.52,14.52,0,0,1,12.88,5A35.73,35.73,0,0,1,89.06,604a57.65,57.65,0,0,1,6.33,15.74c1.91,7.36,3,14.88,4.31,22.36,1.18,6.77,2.5,13.52,4.35,20.15a91.29,91.29,0,0,0,29.3,46.05c.53.45,1.09,1.35,1.75,1,.86-.44.31-1.44.17-2.17a76.36,76.36,0,0,1-1.3-16.94,35.19,35.19,0,0,1,1.09-7.58,19.69,19.69,0,0,1,5.21-9.57,14.32,14.32,0,0,1,9-4.08,25.07,25.07,0,0,1,12.37,2.25,52.15,52.15,0,0,1,10.32,6.07,89.71,89.71,0,0,1,12.85,11.86,141.9,141.9,0,0,1,15.83,21.38,208.82,208.82,0,0,1,19,40.8c.24.67.47,1.36.75,2a.94.94,0,0,0,.52.44c.24.08.43-.14.52-.36.3-.74.61-1.48.87-2.24A202.1,202.1,0,0,1,230.55,731,164.62,164.62,0,0,1,254,694.1a98.92,98.92,0,0,1,17.5-16.34,55.31,55.31,0,0,1,12.82-7,27.91,27.91,0,0,1,11.76-1.8,16.29,16.29,0,0,1,13,7.56,21.64,21.64,0,0,1,2.79,6.08,37.39,37.39,0,0,1,1.47,9.45,75,75,0,0,1-1.25,15.76c-.09.51-.45,1.16.22,1.49.5.24.87-.27,1.25-.54a3.57,3.57,0,0,0,.37-.31,81.17,81.17,0,0,0,22.69-31.1,106,106,0,0,0,6.63-26.93c.91-7.22,1.62-14.46,2.44-21.69a88.6,88.6,0,0,1,2.5-13.42,42.83,42.83,0,0,1,6.47-14.1,22.92,22.92,0,0,1,3.47-4c5.46-4.75,14.25-5.11,19.7.83a19.31,19.31,0,0,1,3.6,5.63,27.41,27.41,0,0,1,1.95,7.4c.21,1.74.34,3.5.51,5.25,0,.24.11.51.37.52a.84.84,0,0,0,.62-.24,6.09,6.09,0,0,0,.72-.95,53.68,53.68,0,0,0,8.52-23.46,67.91,67.91,0,0,0-.71-18.88c-.62-3.87-1.48-7.69-2.32-11.51a15.43,15.43,0,0,1-.14-6.2,15.58,15.58,0,0,1,18.63-12.07,17,17,0,0,1,10,6.66,25.1,25.1,0,0,1,4.07,8.36c.21.69.39,1.39.58,2.08.09.31.21.63.57.68s.51-.32.57-.61a39.65,39.65,0,0,0,.64-5.95,46.36,46.36,0,0,0-3.45-20.88,68.1,68.1,0,0,0-8.6-14.64c-3.44-4.63-7.23-9-10.95-13.37a35.29,35.29,0,0,1-8.31-29.71,32.21,32.21,0,0,1,7.6-16.31c1-1.08,2-2.08,3-3.09a53.85,53.85,0,0,0,8.85-11.31c.44-.76.81-1.56,1.18-2.35.12-.28.23-.66-.13-.85a.89.89,0,0,0-.68,0c-1.74.82-3.44,1.72-5.19,2.49a34.3,34.3,0,0,1-16.78,3.23,17.57,17.57,0,0,1-9.91-3.82,12.61,12.61,0,0,1-4.87-9.52,13.35,13.35,0,0,1,4.44-10.95c1.58-1.47,3.24-2.86,4.88-4.26,3-2.54,6-5,8.78-7.82a42.7,42.7,0,0,0,9-12.64,22.41,22.41,0,0,0,.85-2.24c.18-.55-.22-.9-.81-.75a11.7,11.7,0,0,0-1.15.35A64,64,0,0,1,389,399.73a46.12,46.12,0,0,1-15.24-.92c-14-3.18-24.34-11.24-30.88-24.08-.18-.35-.34-.72-.53-1.07-.53-.93-.79-1-1.72-.72-.31.1-.6.23-.9.35L328,378.06c-.59.24-1.16.53-1.75.77a1.49,1.49,0,0,0-1,1.49,14,14,0,0,0,.31,3.81,24.66,24.66,0,0,0,4.32,9,38,38,0,0,0,31.27,15.28c-1.41.8-2.8.7-4.12.89a33.83,33.83,0,0,1-9.32,0,43.09,43.09,0,0,1-7.69-1.77,7.16,7.16,0,0,0-3.07-.4,1.34,1.34,0,0,0-1.3,1.83,7.47,7.47,0,0,0,.91,1.94,23.73,23.73,0,0,0,1.95,2.42,61.85,61.85,0,0,1,7,9.39,41.85,41.85,0,0,1,6.15,22.13,51.39,51.39,0,0,1-.65,7.65,26.81,26.81,0,0,1-1.3,5.92,2.57,2.57,0,0,1-.19-1.69c0-2.64.08-5.28,0-7.92a44.15,44.15,0,0,0-2.73-14.06,47.45,47.45,0,0,0-11-17,86.59,86.59,0,0,1-8.43-9.83c-.35-.47-.64-1.36-1.39-1-.48.23-.2,1-.15,1.57,0,.16.06.32.08.48a54.42,54.42,0,0,1-.26,19.09,50.56,50.56,0,0,1-1.64,6.26,5.23,5.23,0,0,1-8.54,2.32c-.28-.28-.59-.54-.89-.81-2.4-2.13-2.58-2.07-3.24,1a180.42,180.42,0,0,1-7.67,26.47c-.29.74-.56,1.5-.82,2.25a1.18,1.18,0,0,0,.34,1.31c.46.44.94.87,1.42,1.29a52.6,52.6,0,0,1,8.19,9.06c.44.63.75,1.76,1.57,1.62,1-.18.79-1.43.95-2.21a81.51,81.51,0,0,1,3.43-12A49.87,49.87,0,0,1,324.2,454c.18-.27.29-.76.95-.56l-.67,1.53a63.44,63.44,0,0,0-3.56,10.93,73.29,73.29,0,0,0-1.27,21,21.41,21.41,0,0,0,1.42,6.52A57.63,57.63,0,0,1,324.75,511a68.55,68.55,0,0,1-1.63,18.34,150.42,150.42,0,0,1-6.71,21.5c-2.55,6.73-5.17,13.44-7.61,20.2-4.56,12.63-7.76,25.54-8.19,39a102.64,102.64,0,0,0,.95,17.7c.58,4,1.35,8,2,12.06.06.34.26.82-.44,1-.23-.29-.49-.58-.72-.9-1.47-2.1-2.93-4.2-4.41-6.29-10.49-14.82-15.41-31.45-16.12-49.45-.36-9,.3-17.92.62-26.86.26-7,.39-13.92.26-20.87,0-2.48-.28-5-.56-7.42a37.81,37.81,0,0,0-.9-4.7,12.65,12.65,0,0,0-1.75-4.19,5,5,0,0,0-6.24-2.2,13.26,13.26,0,0,0-3.62,1.83,35.87,35.87,0,0,0-4.77,4c-2.22,2.18-4.47,4.35-6.72,6.51a19.43,19.43,0,0,1-3.38,2.68,9,9,0,0,1-7.36,1.1,28.61,28.61,0,0,1-3.61-1.27c-1.84-.79-3.65-1.63-5.48-2.43a44.22,44.22,0,0,0-35.86.4c-1.53.68-3.06,1.39-4.6,2.05a28.06,28.06,0,0,1-3.61,1.27,9,9,0,0,1-7.35-1.15,19.92,19.92,0,0,1-3.38-2.68q-2.87-2.73-5.71-5.49a33.87,33.87,0,0,0-5-4.11,13.42,13.42,0,0,0-3.89-1.82,5.09,5.09,0,0,0-5.43,1.61,8.89,8.89,0,0,0-1.54,2.42,22.1,22.1,0,0,0-1.37,4.34,72.16,72.16,0,0,0-1.38,13.58c-.27,10.4.1,20.8.61,31.19a125,125,0,0,1-1.07,23.92A86,86,0,0,1,147.46,628c-2.63,4.4-5.71,8.5-8.63,12.7a.57.57,0,0,1-.68.33c.12-.92.22-1.87.38-2.8.92-5.35,1.91-10.69,2.38-16.12a103.5,103.5,0,0,0-.32-20.6,122.69,122.69,0,0,0-4.46-21.09c-2.17-7.29-4.86-14.39-7.59-21.48s-5.53-14.15-7.71-21.43a81.83,81.83,0,0,1-3.76-21.67,56.78,56.78,0,0,1,3-20.3,35.39,35.39,0,0,0,1.85-9.62c.73-11.1-.65-21.86-5.42-32.05-.13-.29-.48-.61,0-1a42.43,42.43,0,0,1,5.26,9.43,76.33,76.33,0,0,1,4.58,15.37c.12.61.07,1.53.67,1.71.86.25,1.11-.74,1.49-1.3a50.57,50.57,0,0,1,8.55-9.69c2.45-2.14,2.37-1.67,1.2-4.8a182,182,0,0,1-7.6-26c-.15-.7-.29-1.41-.47-2.1-.31-1.23-.8-1.38-1.85-.54-.74.6-1.45,1.26-2.17,1.89a5.19,5.19,0,0,1-8.16-2.07c-.21-.52-.39-1-.55-1.59a50,50,0,0,1-2.13-13,69.28,69.28,0,0,1,.67-12,7.76,7.76,0,0,0,0-1.18.24.24,0,0,0-.12-.19c-.15,0-.37-.07-.45,0a10.85,10.85,0,0,0-1.09,1.25,76.92,76.92,0,0,1-7.78,9.12c-.73.73-1.44,1.5-2.14,2.27-9.53,10.52-13.16,23-12.07,37,.06.79.1,1.58.15,2.43a1,1,0,0,1-.56-.83,60.39,60.39,0,0,1-1.69-13.53A41.15,41.15,0,0,1,96,423.31a59.7,59.7,0,0,1,7.26-9.83,35.82,35.82,0,0,0,2.24-2.81,3.72,3.72,0,0,0,.76-2,1.3,1.3,0,0,0-1.21-1.49,7.7,7.7,0,0,0-3.52.5,37.87,37.87,0,0,1-14.17,1.92A23.05,23.05,0,0,1,81,408.55Zm18.37-72.24h.23l.54,2.79a45.12,45.12,0,0,0,2.62,9,22.3,22.3,0,0,0,13.73,12.89c2.12.73,4.27,1.35,6.44,1.88a219,219,0,0,0,30.17,5.41c4.06.39,8.11.86,12.19.86a109.44,109.44,0,0,0,13.18-.4,38.56,38.56,0,0,0,5.68-.87c10.77-3,17.63-10,20.86-20.55a121.37,121.37,0,0,0,3.36-15.21c1-5.76,1.65-11.55,2.08-17.38.42-5.67.6-11.34.51-17-.08-4.87-.19-9.75-.56-14.62-.44-5.66-1-11.31-1.69-16.94-.86-6.9-2-13.76-3.24-20.61a73.06,73.06,0,0,0-3.87-14.08,48.85,48.85,0,0,0-5.34-10.17,29.62,29.62,0,0,0-6.27-6.57c-4.77-3.63-10.12-4.52-15.9-3.48a37,37,0,0,0-11.38,4.31,100.41,100.41,0,0,0-9.57,5.95A157.19,157.19,0,0,0,140,231.85c-7.34,6.48-14.26,13.33-19.52,21.68-.76,1.22-1.59,2.4-2.37,3.61A120.8,120.8,0,0,0,107,278.64,115.57,115.57,0,0,0,100.13,308c-.15,1.43-.33,2.86-.52,4.29,0,0-.11.08-.17.11-.28-.23-.25-.57-.25-.88.13-5.6.24-11.19.42-16.79.08-2.32.25-4.64.53-6.93a52.31,52.31,0,0,0,.28-8.39,19.9,19.9,0,0,0-1-5.4,8.37,8.37,0,0,0-1.69-3.15,4.5,4.5,0,0,0-5-1.48,12,12,0,0,0-2.83,1.28,15.44,15.44,0,0,0-5.57,6.15,117.93,117.93,0,0,0-6,13.83A100.22,100.22,0,0,0,72.41,318a104.86,104.86,0,0,0,1.4,26.53,48.49,48.49,0,0,0,3.9,12.31,17.31,17.31,0,0,0,3.36,4.93,8.3,8.3,0,0,0,4.79,2.55c3.92.53,9.5-1.53,11.57-6.07a19.26,19.26,0,0,0,2.08-8.78c-.11-3.59-.14-7.19-.19-10.79C99.31,337.86,99.38,337.08,99.41,336.31ZM342.5,316c-.62-5.26-1.13-10.51-2-15.72A107.32,107.32,0,0,0,333.18,275a141.48,141.48,0,0,0-17.94-29.71c-.34-.44-.72-.85-1.1-1.27a153.12,153.12,0,0,0-17.05-16.15,121.29,121.29,0,0,0-17.77-12.23,44.59,44.59,0,0,0-9.49-4,23.52,23.52,0,0,0-9.51-.65,18.59,18.59,0,0,0-9.44,4.42,31.16,31.16,0,0,0-6.63,7.84,57.54,57.54,0,0,0-5.39,12c-1.92,5.71-2.79,11.65-3.79,17.56q-1.94,11.35-3,22.81c-.62,6.46-1,12.92-1.21,19.39a196.67,196.67,0,0,0,.78,22.77,177.19,177.19,0,0,0,3,20.63,67.09,67.09,0,0,0,2.81,10.9c4,10.33,11.3,16.85,22.33,18.89a54.19,54.19,0,0,0,9.77.87c4.72,0,9.43,0,14.15-.38,3.74-.33,7.48-.69,11.2-1.2,6.8-.93,13.55-2.24,20.25-3.79a95.55,95.55,0,0,0,10.4-2.81,22.34,22.34,0,0,0,13.35-12.35,43.89,43.89,0,0,0,3-10.1c.15-.85.35-1.7.52-2.55a2.54,2.54,0,0,1,.21,1.24c0,3.84,0,7.68-.14,11.51a19.94,19.94,0,0,0,1.61,8.65,11.17,11.17,0,0,0,7.47,6.56c3.93,1.15,7.26.3,9.95-2.82a20.2,20.2,0,0,0,2.93-4.66,44,44,0,0,0,3.21-9.78,108.72,108.72,0,0,0,2-16.17,100,100,0,0,0-1-19.63,108.06,108.06,0,0,0-11-33.59,17.51,17.51,0,0,0-2.57-3.76,14.25,14.25,0,0,0-6.08-4.11,4.86,4.86,0,0,0-5.31,1.79,10.85,10.85,0,0,0-1.62,3.46,29,29,0,0,0-1,6.63,65,65,0,0,0,.44,6.69c.25,3.91.41,7.83.68,11.74C342.65,305.09,342.5,310.53,342.5,316ZM309.4,35.65a2.75,2.75,0,0,0-.91,1.91,121.67,121.67,0,0,0-1.56,15.49,124.9,124.9,0,0,0,2.8,30.49A178.49,178.49,0,0,0,320.68,117a349.83,349.83,0,0,0,17.07,33.82c5.78,10.24,11.68,20.41,17.46,30.64a261.18,261.18,0,0,1,13.89,27.62c4,9.57,7.06,19.36,7.79,29.79a48.64,48.64,0,0,1-1,14.3A33.08,33.08,0,0,1,364,271.83c-.62.51-1.26,1-1.88,1.49a1,1,0,0,0-.34,1.29c.21.51.45,1,.7,1.52,1.49,3,2.88,6.07,4.12,9.19a111.63,111.63,0,0,1,6.32,22.34A18.23,18.23,0,0,0,382.5,321a23.38,23.38,0,0,0,12.5,2.75,36.1,36.1,0,0,0,16.86-5c12.11-7.06,19.61-17.64,23.17-31.05a80,80,0,0,0,2-15.19,91.41,91.41,0,0,0-.8-18.42,108.44,108.44,0,0,0-6.64-25,163,163,0,0,0-13.93-27.32,325.53,325.53,0,0,0-22.12-30.75c-9.27-11.64-19-22.9-28.53-34.32-8.61-10.31-17.1-20.73-24.93-31.66a212.64,212.64,0,0,1-18.57-30.49A119.85,119.85,0,0,1,310,38.46,7.85,7.85,0,0,0,309.4,35.65ZM135,56.1a84.1,84.1,0,0,0-.61-10.94,66.63,66.63,0,0,0-1.27-8.54c-.08-.34,0-.9-.58-.8-.19,0-.35.48-.45.76a4.34,4.34,0,0,0-.18.94,103.24,103.24,0,0,1-4.25,18.93,149.67,149.67,0,0,1-14.36,31.07,301.89,301.89,0,0,1-22.58,32.19c-9,11.37-18.39,22.36-27.7,33.45C54,163.88,45.12,174.68,36.88,186a220.9,220.9,0,0,0-19,30.52C11,230.22,6.19,244.53,5,259.92a88.6,88.6,0,0,0,1.47,26A49.71,49.71,0,0,0,23.68,314.3c6.56,5.43,14,8.84,22.66,9.36a23.74,23.74,0,0,0,12.35-2.28,17.9,17.9,0,0,0,10.13-13.45q.3-1.65.63-3.3a113.71,113.71,0,0,1,9.67-28c.32-.64.62-1.29.92-1.95a1,1,0,0,0-.31-1.29c-.55-.46-1.13-.89-1.69-1.34A33.64,33.64,0,0,1,66,253.2a50,50,0,0,1-.89-16,81.58,81.58,0,0,1,4.09-18.7A177.54,177.54,0,0,1,80,193.69c5-9.74,10.55-19.2,16-28.7,6.63-11.5,13.22-23,19.1-34.94a218.35,218.35,0,0,0,14.37-36A134,134,0,0,0,135,56.1ZM286.47,577.63c-.05,3,.17,6.07.34,9.11a90.28,90.28,0,0,0,3.09,18.9,73.69,73.69,0,0,0,4.16,11.49c.3.65.65,1.28,1,1.9a.39.39,0,0,0,.7-.16c0-.64.07-1.27.06-1.91,0-3.92,0-7.83.32-11.75a123.65,123.65,0,0,1,2.78-17.75,189.8,189.8,0,0,1,7.56-24c2.76-7.34,5.74-14.58,8.26-22,2.63-7.74,4.73-15.59,5.24-23.82a55.75,55.75,0,0,0-1-14.07,64.15,64.15,0,0,0-8.07-20.42,43.76,43.76,0,0,0-9.85-11.69C290.87,463,279,458.79,265.82,458.17a53.61,53.61,0,0,0-22.68,4.26c-.3.12-.59.24-.88.38-1.15.54-1.21.93-.29,1.67.37.29.79.54,1.15.85a.78.78,0,0,1,0,1.25c-.29.28-.6.53-.91.79q-5.49,4.47-11,8.94a16.85,16.85,0,0,1-1.74,1.27,15.77,15.77,0,0,1-9.83,2.47,16.7,16.7,0,0,1-9.36-3.94c-3.43-2.87-6.93-5.67-10.4-8.5-.38-.31-.75-.61-1.1-.94-.65-.6-.67-1,.12-1.52,2.29-1.45,1.89-1.87-.32-2.76A54.4,54.4,0,0,0,170,458.68a60.9,60.9,0,0,0-20.18,6.63,47.47,47.47,0,0,0-18.3,16.88,73.86,73.86,0,0,0-5.53,10.9,56.7,56.7,0,0,0-3.37,31.07,103,103,0,0,0,3.79,15.1c2.42,7.46,5.38,14.72,8.17,22a212.56,212.56,0,0,1,8.13,25.08,117.1,117.1,0,0,1,3,18.2,102,102,0,0,1,.27,12.24c0,.71,0,1.43.06,2.14,0,.11.2.26.33.28a.49.49,0,0,0,.41-.15,23.53,23.53,0,0,0,1.11-2.11,85,85,0,0,0,7.21-30.16,171.42,171.42,0,0,0-1.07-29.7c-.4-3.49-.85-7-1.19-10.48-.47-5-.93-10-1.28-15.06a57.52,57.52,0,0,1,1.27-17.4,29.45,29.45,0,0,1,14.27-19.31A45.75,45.75,0,0,1,179,490a27,27,0,0,1,5.19-.88,42.69,42.69,0,0,1,10,.59,77.39,77.39,0,0,0,16.22,1.37,22.52,22.52,0,0,0,9.3-2,2.42,2.42,0,0,1,2.28,0,23.22,23.22,0,0,0,10,2,78.94,78.94,0,0,0,15.5-1.36,36.47,36.47,0,0,1,11.22-.5A41.75,41.75,0,0,1,276.53,496a28.68,28.68,0,0,1,11.63,15.13,41.69,41.69,0,0,1,2.09,11.28,122.2,122.2,0,0,1-.59,18.45c-.78,7.72-1.78,15.41-2.43,23.14C286.85,568.52,286.64,573.07,286.47,577.63ZM215.82,300.31c.17,4.37-.24,9.72-.6,15.06-.33,5-.93,10-1.73,15a170.33,170.33,0,0,1-3.87,18.29,33.44,33.44,0,0,1-5.46,11.14A32.78,32.78,0,0,1,182.88,373a87.83,87.83,0,0,1-15.55.89,160.39,160.39,0,0,1-22.21-1.79c-7.59-1.13-15.11-2.63-22.57-4.44q-9.08-2.21-18-4.89c-.57-.17-1.3-.54-1.73.12s.17,1.06.48,1.51a11.8,11.8,0,0,0,5,4c3,1.38,6,2.74,9,4,11,4.51,22.53,7.12,34.21,9.12,8.51,1.46,17.1,2.3,25.67,3.29,4.84.56,9.68,1.14,14.47,2A52.48,52.48,0,0,1,204.8,391a20.86,20.86,0,0,1,4.66,2.92,11,11,0,0,1,4,7.91c.11,1.76.3,3.51.39,5.27.39,7.67.72,15.34.58,23a121.91,121.91,0,0,1-1.5,17.91c-1,6.11-2.57,12.06-6.49,17.09-.58.73-.55,1.11.1,1.65,2.72,2.23,5.39,4.54,8.22,6.62a11,11,0,0,0,12.62-.18c2.68-2,5.25-4.2,7.83-6.34.79-.65.81-1,.15-1.83a32.14,32.14,0,0,1-5.5-12.4A85.42,85.42,0,0,1,227.69,437c-.45-8.32-.29-16.64,0-25,.14-3.51.5-7,.74-10.52a11,11,0,0,1,4.74-8.26,24,24,0,0,1,4.58-2.59,53.83,53.83,0,0,1,14.94-4.24c6.17-.9,12.35-1.67,18.54-2.37s12.22-1.44,18.3-2.4a195.37,195.37,0,0,0,22.46-4.9,129.16,129.16,0,0,0,21.25-8.14,14,14,0,0,0,4.64-3.35,4.81,4.81,0,0,0,1.23-2,.55.55,0,0,0-.48-.67,5.47,5.47,0,0,0-1.87.38c-3.92,1.1-7.83,2.23-11.77,3.26a238.72,238.72,0,0,1-23.65,5.1c-4,.63-8.06,1.23-12.1,1.75-2.14.28-4.29.44-6.45.55a152.07,152.07,0,0,1-18,0,39.61,39.61,0,0,1-10.37-1.71c-11.72-4-19.2-12.15-22.44-24a173.64,173.64,0,0,1-5.86-41.7A258,258,0,0,1,228,268.61c.86-7.07,1.88-14.11,3.14-21.11,2.3-12.83,5.13-25.55,8.39-38.17.6-2.32,1.18-4.65,1.8-7a4.33,4.33,0,0,0-1.13-4.41c-.11-.12-.21-.24-.32-.35a42.69,42.69,0,0,0-17.83-10.91,3.61,3.61,0,0,0-2.34,0,43.15,43.15,0,0,0-17.83,10.92,4.8,4.8,0,0,0-1.37,4.81c.1.39.22.77.31,1.16,1.74,7.06,3.54,14.11,5.2,21.19q3.83,16.35,6.35,33c1.15,7.67,2.09,15.37,2.63,23.11C215.44,287,215.82,293.15,215.82,300.31Zm58.71,119.41a61.54,61.54,0,0,1-9.81-1.72,45.8,45.8,0,0,1-21-13.3c-.71-.76-1.36-1.58-2.06-2.34-1-1-1.48-1.11-2.72-.44a5.77,5.77,0,0,0-2.33,2.34,10,10,0,0,0-1.07,2.92,24.66,24.66,0,0,0-.08,8.82c2,13.89,9.28,24.08,21.65,30.66a23.34,23.34,0,0,0,6.29,2.28,94.3,94.3,0,0,0,9.46,1.44,44.37,44.37,0,0,0,12.66-.21c6.28-1.15,11.35-4.17,14.75-9.71a25.74,25.74,0,0,0,3.19-7.73c.72-3.11,1.29-6.25,1.93-9.39a14.69,14.69,0,0,1,.41-1.86,2.31,2.31,0,0,1,3.18-1.61,18.33,18.33,0,0,1,1.78.71,45.69,45.69,0,0,1,6.08,3.38,18.16,18.16,0,0,0,1.61,1c1.16.61,2,.15,2.22-1.18a15.35,15.35,0,0,0,.12-1.92,51.88,51.88,0,0,0-1-11.92,57.54,57.54,0,0,0-6.18-17.56,12.16,12.16,0,0,0-1.78-2.55,6.62,6.62,0,0,0-8.33-1.22,12.14,12.14,0,0,0-1.93,1.42c-1.74,1.53-3.47,3.08-5.15,4.67a43.33,43.33,0,0,1-16.8,9.9,54.64,54.64,0,0,1-11.77,2.1,20.53,20.53,0,0,0-4.92,1c-2.74.95-3.07,2.49-1,4.6a16.74,16.74,0,0,0,3,2.37,51,51,0,0,0,7.44,3.87A5.44,5.44,0,0,1,274.53,419.72Zm-106.8-.45,2-.82a49.56,49.56,0,0,0,6.61-3.38,18.69,18.69,0,0,0,3.62-2.75q3-3.15-1-4.64a4.6,4.6,0,0,0-.68-.24c-1.33-.24-2.67-.51-4-.68-1.74-.23-3.5-.3-5.24-.58a43.36,43.36,0,0,1-23.92-11.75c-1.61-1.54-3.3-3-5-4.5a10.82,10.82,0,0,0-1.74-1.28,6.53,6.53,0,0,0-8.32,1.18,12.51,12.51,0,0,0-1.67,2.33,42.44,42.44,0,0,0-3.2,6.7A65.79,65.79,0,0,0,121,419.19a19,19,0,0,0,.27,4.77c.24,1.21,1,1.6,2.1,1.05a18.36,18.36,0,0,0,1.63-1,42.76,42.76,0,0,1,6.28-3.49,14.24,14.24,0,0,1,1.78-.69,2.25,2.25,0,0,1,2.81,1.17,5.34,5.34,0,0,1,.41,1.36c.47,2.43.92,4.87,1.39,7.3a33.73,33.73,0,0,0,3.29,9.72,20.12,20.12,0,0,0,12.07,10,30.55,30.55,0,0,0,8,1.36,74.55,74.55,0,0,0,14.31-1.13,30.8,30.8,0,0,0,9.57-3,39.72,39.72,0,0,0,18.38-19.51,36.66,36.66,0,0,0,3.28-17,13.81,13.81,0,0,0-1.28-5.33,6,6,0,0,0-2.74-2.91,1.49,1.49,0,0,0-2.14.31c-.44.46-.84,1-1.25,1.45a49.57,49.57,0,0,1-6,5.87A41.1,41.1,0,0,1,167.73,419.27Zm19.2,77.25a18.47,18.47,0,0,0-11.41,4.35,7.23,7.23,0,0,0-1.72,9.5,42.5,42.5,0,0,0,7.8,10.56,16,16,0,0,0,5,3.26,16.45,16.45,0,0,0,12.61.13c2.3-.9,4.56-1.93,6.85-2.87s4.73-1.92,7.13-2.79a20.11,20.11,0,0,1,5.35-1.24A24.86,24.86,0,0,1,229.81,519c2.74,1.1,5.46,2.26,8.2,3.37,1.92.78,3.81,1.66,5.79,2.28a15.77,15.77,0,0,0,15.35-2.83,33.59,33.59,0,0,0,9.26-12.38,6.7,6.7,0,0,0-1.28-7.78,14,14,0,0,0-4.43-3.23,18,18,0,0,0-12.36-1.35,52,52,0,0,1-17.37,1c-2.94-.29-5.89-.45-8.84-.67-5.29-.38-10.53.37-15.78.74a58.47,58.47,0,0,1-16.44-1A22.6,22.6,0,0,0,186.93,496.52Zm82.79-95.26a30.71,30.71,0,0,0,16.09-4.48c3.67-2.3,6.75-5.36,10.11-8a.85.85,0,0,0,.27-.62c0-.41-.41-.47-.71-.45-2.23.18-4.45.36-6.67.57l-7.38.74c-2.3.22-4.61.38-6.91.64-3.56.41-7.13.84-10.68,1.33a84.8,84.8,0,0,0-10.1,1.92,10.68,10.68,0,0,0-2.89,1.11.82.82,0,0,0-.12,1.4,13.84,13.84,0,0,0,3.84,2.4A42.33,42.33,0,0,0,269.72,401.26Zm-99,0A43.83,43.83,0,0,0,184,399a23.81,23.81,0,0,0,5.84-2.75,8.9,8.9,0,0,0,1.43-1.25.54.54,0,0,0-.13-.83,8.08,8.08,0,0,0-3.07-1.29,77.68,77.68,0,0,0-10.35-2c-3.17-.43-6.34-.78-9.52-1.14q-3.81-.44-7.63-.8c-4-.38-8.11-.73-12.17-1.1-.48,0-1-.16-1.42-.21a6.15,6.15,0,0,0-1,0c-.24,0-.52.08-.53.36a.92.92,0,0,0,.23.63c2.63,2.2,5.24,4.46,7.95,6.56A28.84,28.84,0,0,0,170.7,401.23Z"/></svg>