<?xml version="1.0" encoding="UTF-8" standalone="no"?>
<!-- Created with Inkscape (http://www.inkscape.org/) -->

<svg
   xmlns:dc="http://purl.org/dc/elements/1.1/"
   xmlns:cc="http://creativecommons.org/ns#"
   xmlns:rdf="http://www.w3.org/1999/02/22-rdf-syntax-ns#"
   xmlns:svg="http://www.w3.org/2000/svg"
   xmlns="http://www.w3.org/2000/svg"
   xmlns:sodipodi="http://sodipodi.sourceforge.net/DTD/sodipodi-0.dtd"
   xmlns:inkscape="http://www.inkscape.org/namespaces/inkscape"
   version="1.1"
   id="svg10"
   width="737.06665"
   height="737.06665"
   viewBox="0 0 737.06665 737.06665"
   sodipodi:docname="menu-barbaro.svg"
   inkscape:version="0.92.4 (5da689c313, 2019-01-14)">
  <metadata
     id="metadata16">
    <rdf:RDF>
      <cc:Work
         rdf:about="">
        <dc:format>image/svg+xml</dc:format>
        <dc:type
           rdf:resource="http://purl.org/dc/dcmitype/StillImage" />
        <dc:title></dc:title>
      </cc:Work>
    </rdf:RDF>
  </metadata>
  <defs
     id="defs14" />
  <sodipodi:namedview
     pagecolor="#ffffff"
     bordercolor="#666666"
     borderopacity="1"
     objecttolerance="10"
     gridtolerance="10"
     guidetolerance="10"
     inkscape:pageopacity="0"
     inkscape:pageshadow="2"
     inkscape:window-width="1366"
     inkscape:window-height="705"
     id="namedview12"
     showgrid="false"
     inkscape:zoom="0.72720696"
     inkscape:cx="198.70547"
     inkscape:cy="368.53333"
     inkscape:window-x="-8"
     inkscape:window-y="-8"
     inkscape:window-maximized="1"
     inkscape:current-layer="svg10" />
  <path
     style="fill:#ffffff;stroke-width:1.0666666"
     d="m 81.887211,735.59403 c -9.91534,-3.54324 -18.34244,-11.72195 -23.76109,-23.06071 -3.18122,-6.65685 -3.31335,-7.48632 -3.31335,-20.8 0,-15.62288 0.81493,-18.12832 8.86718,-27.2614 4.48749,-5.08983 18.9705,-14.3364 25.11086,-16.03184 2.17211,-0.59975 112.772919,-0.88129 280.802769,-0.71478 l 277.21918,0.27469 6.21251,2.50626 c 13.26361,5.35082 25.17244,17.53353 28.99003,29.65672 2.2143,7.03176 2.2143,18.24227 0,25.27403 -3.82431,12.14451 -16.04507,24.63153 -28.76338,29.39006 l -5.98586,2.23959 -280.75997,-0.0468 c -226.77038,-0.0379 -281.502049,-0.312 -284.618879,-1.4258 z m -1.06667,-115.2 c -9.91534,-3.54324 -18.34244,-11.72195 -23.76109,-23.06071 -3.18121,-6.65684 -3.31335,-7.48631 -3.31335,-20.8 0,-15.62288 0.81494,-18.12832 8.86718,-27.2614 4.4875,-5.08983 18.97051,-14.3364 25.11086,-16.03184 2.17211,-0.59975 112.772919,-0.88129 280.802769,-0.71478 l 277.21919,0.27469 6.21251,2.50626 c 13.2636,5.35083 25.17243,17.53353 28.99002,29.65672 2.21431,7.03176 2.21431,18.24228 0,25.27403 -3.82431,12.14451 -16.04506,24.63153 -28.76338,29.39006 l -5.98585,2.23959 -280.75998,-0.0468 c -226.77038,-0.0378 -281.502039,-0.312 -284.618879,-1.42581 z M 153.44135,505.175 c -0.85905,-0.82042 -7.43035,-3.89525 -14.60289,-6.83295 -48.244589,-19.75988 -74.154039,-47.1982 -83.094029,-87.99723 -2.28174,-10.4131 -3.1168,-36.25926 -1.55142,-48.01888 4.19362,-31.50394 18.34576,-62.94194 45.08086,-100.14408 10.313599,-14.35147 14.088609,-19.06499 46.383549,-57.9152 32.28486,-38.83806 40.98817,-50.03242 53.67227,-69.03425 18.22434,-27.30158 29.54095,-52.898107 33.61506,-76.032412 1.92653,-10.939535 2.18411,-31.385756 0.58455,-46.399999 -1.32435,-12.4310748 -1.31461,-11.7333338 -0.16391,-11.7333338 1.11884,0 9.54546,22.5981438 12.72797,34.1333328 C 260.08154,85.900901 251.52325,136.19621 218.05084,200 c -4.30883,8.21333 -15.12324,27.65333 -24.03201,43.19999 -28.8208,50.29511 -37.57638,70.79902 -40.62922,95.14592 -1.98462,15.82765 2.58256,30.76308 12.32353,40.29999 4.19824,4.11028 5.13938,4.59336 6.7239,3.45129 5.96848,-4.30192 9.23974,-5.87729 18.20892,-8.76906 13.08345,-4.21825 19.70333,-8.78674 29.89007,-20.62759 30.22316,-35.13081 65.67834,-59.46162 102.01007,-70.00358 6.76329,-1.96242 9.63962,-3.47306 13.86667,-7.28272 7.16421,-6.45681 14.50259,-11.03064 23.32223,-14.53616 7.25817,-2.88489 7.37014,-2.8948 12.8,-1.13223 8.71405,2.82863 17.70885,8.07069 24.27277,14.14587 5.44325,5.03794 7.34019,6.02319 18.17462,9.43963 22.54828,7.1102 46.56195,20.22091 65.96371,36.01408 9.4996,7.73276 24.04375,22.06314 35.75633,35.23081 10.20681,11.47482 15.00079,14.66774 28.24367,18.81103 5.57333,1.74372 12.16301,4.62733 14.64373,6.40804 3.56237,2.55712 4.93286,3.01153 6.52037,2.16192 3.58183,-1.91694 8.94084,-8.89357 12.22914,-15.92051 2.67419,-5.71461 3.29448,-8.58161 3.7034,-17.1172 1.18889,-24.81665 -7.90719,-48.27409 -41.61527,-107.31953 -21.02812,-36.83434 -27.95916,-49.94406 -35.81026,-67.73333 -8.14343,-18.45167 -14.46937,-37.48202 -18.07146,-54.36447 -2.58958,-12.13696 -2.85613,-15.53124 -2.89271,-36.835526 -0.0422,-24.567502 0.7785,-31.278925 5.99131,-48.997405 C 492.82199,22.868365 501.3226,-8.0468762e-7 502.15985,-8.0468762e-7 c 0.39543,0 0.0777,6.84000000468762 -0.70605,15.19999980468762 -3.07781,32.829561 1.02057,56.808939 14.63009,85.600001 13.49869,28.55657 28.61657,49.66869 76.80879,107.26348 36.35263,43.44523 52.07574,64.79926 65.61432,89.11275 16.73923,30.06143 25.30288,62.99544 23.68575,91.09043 -1.91254,33.22735 -11.5368,55.90143 -32.61441,76.83727 -13.98608,13.89201 -33.61219,25.86019 -57.69891,35.18534 -4.98667,1.93059 -9.59958,4.15528 -10.25092,4.94377 -1.80806,2.18875 -425.89476,2.13126 -428.18716,-0.058 z"
     id="path20"
     inkscape:connector-curvature="0" />
</svg>
