<?xml version="1.0" encoding="UTF-8" standalone="no"?>
<!-- Created with Inkscape (http://www.inkscape.org/) -->

<svg
   xmlns:dc="http://purl.org/dc/elements/1.1/"
   xmlns:cc="http://creativecommons.org/ns#"
   xmlns:rdf="http://www.w3.org/1999/02/22-rdf-syntax-ns#"
   xmlns:svg="http://www.w3.org/2000/svg"
   xmlns="http://www.w3.org/2000/svg"
   xmlns:sodipodi="http://sodipodi.sourceforge.net/DTD/sodipodi-0.dtd"
   xmlns:inkscape="http://www.inkscape.org/namespaces/inkscape"
   version="1.1"
   id="svg9096"
   width="610"
   height="90"
   viewBox="0 0 610 90"
   sodipodi:docname="cropped-CN_Logo_OK_Orizz.svg"
   inkscape:version="0.92.4 (5da689c313, 2019-01-14)">
  <metadata
     id="metadata9102">
    <rdf:RDF>
      <cc:Work
         rdf:about="">
        <dc:format>image/svg+xml</dc:format>
        <dc:type
           rdf:resource="http://purl.org/dc/dcmitype/StillImage" />
        <dc:title></dc:title>
      </cc:Work>
    </rdf:RDF>
  </metadata>
  <defs
     id="defs9100" />
  <sodipodi:namedview
     pagecolor="#ffffff"
     bordercolor="#666666"
     borderopacity="1"
     objecttolerance="10"
     gridtolerance="10"
     guidetolerance="10"
     inkscape:pageopacity="0"
     inkscape:pageshadow="2"
     inkscape:window-width="1366"
     inkscape:window-height="705"
     id="namedview9098"
     showgrid="false"
     inkscape:zoom="0.96326622"
     inkscape:cx="158.5886"
     inkscape:cy="-130.91825"
     inkscape:window-x="-8"
     inkscape:window-y="-8"
     inkscape:window-maximized="1"
     inkscape:current-layer="svg9096"
     showguides="true"
     inkscape:guide-bbox="true">
    <sodipodi:guide
       position="129.76683,20.243625"
       orientation="0,1"
       id="guide9739"
       inkscape:locked="false" />
  </sodipodi:namedview>
  <path
     style="fill:#687b54;fill-opacity:0.95294118"
     d="m 525.50977,20.107422 c -1.08561,-0.06824 -2.18789,0.23978 -4.02735,0.880859 -9.81871,3.421975 -11.46617,15.12556 -3.21289,22.835938 1.42725,1.333373 2.5957,2.929369 2.5957,3.546875 0,0.617506 -1.8,2.881054 -4,5.029297 -2.2,2.148243 -4,4.360812 -4,4.916015 0,0.555203 2.15377,-1.1113 4.78516,-3.703125 2.63139,-2.591824 5.10639,-4.71289 5.5,-4.71289 0.39361,0 0.71484,3.016809 0.71484,6.703125 0,6.184025 -0.24633,6.957432 -3.19531,10 -2.15054,2.218797 -2.69976,3.296875 -1.67578,3.296875 0.83702,0 2.58365,-1.128952 3.88086,-2.509766 l 2.35938,-2.511719 2.80468,2.6875 c 3.95664,3.790703 4.86712,2.003296 1.00782,-1.978515 -2.81189,-2.901132 -3.18165,-3.938258 -3.18165,-8.925782 0,-3.103857 0.3751,-5.876545 0.83399,-6.160156 0.45889,-0.28361 2.80335,1.490255 5.20898,3.941406 2.40562,2.451152 4.82677,4.457032 5.38086,4.457032 0.55409,0 3.15963,-2.121067 5.79102,-4.712891 l 4.78515,-4.712891 v 6.908203 c 0,6.127545 -0.30298,7.224421 -2.67773,9.703126 -3.4811,3.633487 -2.15526,4.987317 1.47656,1.507812 l 2.77735,-2.662109 2.68164,2.68164 c 1.47472,1.474724 3.00296,2.360323 3.39453,1.96875 0.39158,-0.391572 -0.72081,-2.188695 -2.4707,-3.99414 -2.81189,-2.901132 -3.18165,-3.938258 -3.18165,-8.925782 0,-3.103857 0.46535,-5.930295 1.03321,-6.28125 0.56785,-0.350954 3.26785,1.742247 6,4.652344 2.68436,2.859201 3.92147,4.289407 4.49023,5.933594 4.8e-4,-0.01178 -4.6e-4,-0.02358 0,-0.03516 0.008,-0.02046 0.014,-0.04176 0.0254,-0.06055 0.008,-0.013 0.0191,-0.0242 0.0312,-0.0332 0.006,-0.0048 0.021,-8.3e-5 0.0234,-0.0078 0.0186,-0.05971 -0.0146,-0.136342 0,-0.197266 V 59.26954 58.726571 58.335947 c -10e-6,-0.129757 10e-6,-0.258916 0,-0.388672 -2e-5,-0.129868 -1.6e-4,-0.258804 0,-0.388672 6e-5,-0.130461 -3.7e-4,-0.262117 0,-0.392578 10e-4,-0.123381 0.004,-0.245979 -0.006,-0.369141 -0.002,-0.09513 -10e-4,-0.188792 0.0137,-0.283203 0.005,-0.03121 0.0219,-0.08404 0.0215,-0.117188 -2.2e-4,-0.01832 -0.007,-0.03466 -0.01,-0.05273 -0.0567,-0.08863 -0.0235,-0.04297 -0.10156,-0.134766 -0.0515,-0.07988 -0.0358,-0.186942 -0.0977,-0.263672 -0.0116,-0.07477 -0.0457,-0.136069 -0.0625,-0.208984 -0.0145,-0.06287 -0.004,-0.121478 -0.0566,-0.171875 -0.0322,-0.06007 -0.0908,-0.06808 -0.10742,-0.146484 -0.009,-0.0432 -1.6e-4,-0.08871 0.002,-0.132813 0.007,-0.145903 0.0265,-0.279681 0.0449,-0.423828 -0.0247,0.02473 -0.0488,0.03906 -0.0742,0.03906 -0.42782,0 -2.31721,-1.589503 -4.19922,-3.53125 -2.49347,-2.572605 -3.15626,-3.898555 -2.44532,-4.886719 0.53663,-0.745845 2.23465,-2.938719 3.77344,-4.875 3.64657,-4.588564 4.41101,-9.410086 2.22461,-14.017578 -2.19683,-4.629485 -5.95454,-7.023438 -11.02344,-7.023438 -4.81609,0 -8.93434,2.434303 -10.64062,6.289063 l -1.23242,2.785156 -2.07617,-3.119141 c -1.14199,-1.716344 -3.83372,-3.981688 -5.98047,-5.033203 -1.77233,-0.868115 -2.84018,-1.312618 -3.92578,-1.380859 z"
     id="path9916" />
  <path
     style="fill:#eb633f;fill-opacity:0.95294118"
     d="m 487.08398,21.011719 c -2.21721,0.05393 -4.4729,0.377833 -6.71875,0.990234 -5.72858,1.562078 -13.70011,9.971315 -15.48046,16.330078 -0.78599,2.807277 -1.19595,3.895905 -1.58594,3.732422 0.003,0.01237 0.005,0.02485 0.006,0.03711 -0.002,0.162597 -0.006,0.323686 -0.004,0.486329 10e-4,0.150704 1.4e-4,0.302416 0,0.453125 2e-5,0.148522 2e-5,0.296791 0,0.445312 0,0.01932 -0.005,0.03997 0,0.05859 0.0112,0.04071 0.0459,0.0698 0.0606,0.109375 0.0274,0.07371 0.0208,0.142861 0.0117,0.21875 0.11717,0.07514 0.07,0.286865 0.0586,0.404297 -0.009,0.12279 -2.4e-4,0.244188 0,0.367187 -0.001,0.130025 -0.002,0.260596 -0.002,0.390625 1.6e-4,0.151502 0,0.303575 0,0.455078 0.11982,0.035 0.0761,0.308726 0.0645,0.402344 -0.008,0.125202 0.002,0.251542 0.002,0.376953 -0.002,0.129695 -0.002,0.258972 -0.002,0.388672 1.3e-4,0.15687 0,0.313832 0,0.470703 2e-5,0.123685 10e-6,0.247409 0,0.371094 v 0.261719 c 0,0.02146 0.007,0.0442 0,0.06445 -0.008,0.02182 -0.027,0.03628 -0.041,0.05469 -0.0554,0.03864 -0.0292,0.06692 -0.0391,0.123047 -0.0167,0.09473 -0.0322,0.06717 -0.0508,0.15625 -0.007,0.03118 -0.006,0.06404 -0.01,0.0957 9.1e-4,0.125502 0.012,0.249642 0.0117,0.375 0.34949,0.03663 0.88468,1.138772 1.39258,2.976563 4.12175,14.91389 21.34586,22.186329 34.97657,14.767578 11.68835,-6.361612 16.16678,-20.714208 10.12695,-32.451172 -4.27989,-8.316946 -13.16942,-13.145815 -22.77735,-12.912109 z"
     id="path9914" />
  <path
     style="fill:#b93d4c;fill-opacity:0.95294118"
     d="m 585.99609,21.017619 c -9.37158,-0.08709 -16.90714,4.366096 -21.45898,12.738281 -2.45273,4.511297 -2.82059,6.260523 -2.77539,13.173829 0.026,3.963841 -0.24015,7.266625 -0.60742,7.865234 0.011,0.0068 0.0214,0.017 0.0215,0.04297 3.9e-4,0.154191 -0.0791,0.422559 -0.0469,0.580078 0.004,0.01846 0.0791,0.08694 0.0957,0.111328 0.0574,0.05758 0.05,0.129723 0.0664,0.201172 0.0161,0.07047 0.048,0.132162 0.0605,0.205078 0.062,0.06987 0.0429,0.172891 0.0937,0.246094 0.0148,0.02125 0.0353,0.03745 0.0527,0.05664 0.015,0.02304 0.0299,0.04727 0.0449,0.07031 0.006,0.02536 0.0157,0.05016 0.0176,0.07617 0.004,0.05485 -0.0134,0.09003 -0.0215,0.142578 -0.0137,0.08908 -0.0138,0.177829 -0.0117,0.267578 0.0101,0.123868 0.007,0.248959 0.006,0.373047 -3.6e-4,0.130257 6e-5,0.260367 0,0.390625 -1.6e-4,0.129854 -2e-5,0.258817 0,0.388672 1e-5,0.12976 0,0.258913 0,0.388672 v 0.390624 0.542969 0.363281 c -0.0161,0.05973 0.0206,0.139109 0,0.197266 -0.0198,0.05597 -0.0686,0.06507 -0.082,0.123047 10e-4,0.08865 0.0111,0.14328 0,0.210937 0.3606,1.160814 0.41406,2.455619 0.41406,4.449219 v 5.28711 H 585.93359 610 L 609.68359,53.566443 C 609.36906,37.375743 609.33985,37.1913 606.33984,32.343787 602.23931,25.718004 595.57038,21.65096 587.89453,21.09574 c -0.64075,-0.04635 -1.27366,-0.07232 -1.89844,-0.07813 z"
     id="path9912" />
  <path
     style="fill:#5280ac;fill-opacity:0.95294118"
     d="m 390.20117,21.326213 c -0.68684,0.263565 -6.44427,4.379799 -12.79297,9.148437 l -11.54297,8.669922 v 15.378907 15.376953 h 25 25 V 59.677734 c 0,-5.883359 0.0493,-8.336183 0.42579,-8.863281 8.7e-4,-0.05995 -0.005,-0.118096 -0.0371,-0.177734 -10e-4,-0.08605 -0.0469,-0.115214 -0.0566,-0.1875 -0.002,-0.01695 0.004,-0.03379 0.006,-0.05078 0.002,-0.01604 0.003,-0.03278 0.004,-0.04883 7e-5,-0.02054 0.004,-0.04533 -0.008,-0.06445 -0.006,-0.01007 -0.018,-0.01592 -0.0254,-0.02539 -0.0407,-0.05255 -0.0238,-0.07285 -0.0117,-0.132813 0.0144,-0.08328 -0.0233,-0.09845 -0.0566,-0.171875 -0.0212,-0.04657 -0.0273,-0.09811 -0.0488,-0.144531 -0.004,-0.0893 -2.4e-4,-0.177778 0.0176,-0.265625 -0.0154,-0.125835 -0.11492,-0.22643 -0.0957,-0.359375 -0.009,-0.06842 6.6e-4,-0.05508 -0.0293,-0.105469 -0.009,-0.01466 -0.025,-0.02647 -0.0293,-0.04297 -0.0159,-0.06015 0.0117,-0.132122 0,-0.193359 v -0.310547 c 10e-6,-0.125209 7e-5,-0.24979 0,-0.375 0,-0.107105 3.3e-4,-0.215162 0,-0.322265 -7.2e-4,-0.092 -2.7e-4,-0.183454 0.004,-0.275391 8e-5,-0.08798 -0.0283,-0.176718 -0.002,-0.261719 0.0134,-0.0303 0.0405,-0.08597 0.0449,-0.117187 0.014,-0.09893 -0.0104,-0.203283 0,-0.302735 v -0.427734 c 0,-0.160428 -2e-5,-0.320041 0,-0.480469 1e-5,-0.0877 -5e-5,-0.175966 0,-0.263672 1.8e-4,-0.208445 -1.9e-4,-0.416559 -0.002,-0.625 -5.1e-4,-0.121888 0.008,-0.243384 0.004,-0.365234 -0.0129,-0.222684 -0.0601,-0.468854 0.0508,-0.673828 0.0246,-0.08781 0.0134,-0.03838 0.0293,-0.146485 0.0362,-0.132216 0.12761,-0.224385 0.10156,-0.378906 -9.7e-4,-0.183757 -9.3e-4,-0.367036 0.002,-0.550781 0,-0.159164 0.002,-0.215229 -0.002,-0.373047 -0.003,-0.102962 -0.0231,-0.245742 -0.0117,-0.349609 0.002,-0.01717 0.009,-0.03402 0.0137,-0.05078 0.004,-0.01008 0.0412,-0.103133 0.043,-0.113281 0.004,-0.02068 0,-0.04344 0,-0.06445 v -0.28321 -0.591797 -0.734375 -0.130859 c -0.18618,-0.160186 -0.3982,-0.414613 -0.66015,-0.761719 -2.24732,-2.977812 -24.0955,-18.662756 -25.33399,-18.1875 z"
     id="path9910" />
  <path
     style="fill:#f3d158;fill-opacity:0.95294118"
     d="m 439,21.451172 c -0.94615,0.03496 -1.89022,0.202787 -2.81445,0.507812 -4.72667,1.559942 -6.6958,4.924022 -6.08008,10.386719 0.49133,4.359072 0.47053,4.394457 -2.01563,3.449219 -3.23753,-1.230904 -8.85615,0.550018 -10.31054,3.267578 -0.68736,1.28433 -1.01627,1.654102 -1.53711,1.244141 v 0.09961 0.734375 0.591797 0.283203 c 0,0.02101 0.004,0.04376 0,0.06445 -0.005,0.02936 -0.0367,0.100597 -0.0488,0.13086 -0.003,0.01467 -0.008,0.02796 -0.01,0.04297 -0.009,0.09129 0.01,0.248607 0.0117,0.337891 0.004,0.158527 0.004,0.215147 0.004,0.375 -0.003,0.183665 -0.005,0.367105 -0.004,0.550781 0.0269,0.160154 -0.0662,0.257457 -0.10351,0.394531 -0.013,0.09944 -0.004,0.05238 -0.0293,0.142579 -0.10889,0.200811 -0.0615,0.439977 -0.0488,0.658203 0.004,0.122667 -0.002,0.246436 -0.002,0.36914 0.002,0.20852 1.8e-4,0.416476 0,0.625 -5e-5,0.08769 10e-6,0.175979 0,0.263672 -2e-5,0.160426 0,0.320043 0,0.480469 v 0.427734 c -0.0104,0.09943 0.0141,0.203829 0,0.302735 -0.007,0.04613 -0.0284,0.09235 -0.0469,0.134765 -0.0193,0.07903 0.004,0.162405 0.004,0.244141 -0.004,0.09182 -0.003,0.183512 -0.002,0.275391 3.3e-4,0.107222 0,0.21504 0,0.322265 7e-5,0.125211 10e-6,0.249789 0,0.375 v 0.310547 c 0.0104,0.06194 -0.0141,0.13225 0,0.193359 0.002,0.0074 0.0131,0.0076 0.0176,0.01367 0.0102,0.01422 0.0202,0.02818 0.0254,0.04492 0.008,0.02637 0.009,0.05484 0.0137,0.08203 -0.0148,0.138857 0.0763,0.226597 0.0957,0.361328 -0.0153,0.08968 -0.0194,0.178669 -0.0156,0.269532 0.0212,0.04207 0.0275,0.08817 0.0469,0.130859 0.0376,0.08275 0.0689,0.09784 0.0566,0.195313 -0.002,0.01028 -0.016,0.07673 -0.0137,0.08789 0.001,0.0056 0.011,0.0024 0.0156,0.0059 0.009,0.0067 0.0175,0.01413 0.0234,0.02344 0.0248,0.03901 0.019,0.05183 0.0215,0.09766 0.006,0.03533 -0.0165,0.07027 -0.0117,0.105469 0.004,0.03002 0.0281,0.05382 0.0391,0.08203 0.0182,0.04652 0.0152,0.04854 0.0176,0.09766 0.0268,0.04569 0.0379,0.09135 0.041,0.138672 0.2236,-0.209151 0.54922,0.142709 1.0293,0.828124 2.03225,2.901446 7.48663,4.633887 10.7207,3.404297 2.48616,-0.945238 2.50696,-0.909853 2.01563,3.449219 -0.63479,5.631895 1.46041,8.992669 6.4668,10.375 7.5548,2.085982 14.6915,-4.467117 12.53125,-11.505859 -0.99555,-3.243787 -0.97421,-3.274451 1.55078,-2.314453 4.70311,1.788118 10.84761,-1.227975 12.44726,-6.109375 0.0515,-0.157078 0.12163,-0.224045 0.19922,-0.25 0.002,-0.134744 -0.0123,-0.267539 -0.0117,-0.402344 0.005,-0.03591 0.006,-0.07199 0.0137,-0.107422 0.01,-0.04688 0.0386,-0.08955 0.0469,-0.136719 0.0115,-0.06538 -0.008,-0.125333 0.0566,-0.169922 0.008,-0.0031 0.0209,7.6e-5 0.0234,-0.0078 0.006,-0.02049 0,-0.04299 0,-0.06445 V 47.5 c 0,-0.123684 3e-5,-0.24741 0,-0.371094 0,-0.156828 1.2e-4,-0.313875 0,-0.470703 -2.5e-4,-0.129742 3.6e-4,-0.260888 0.002,-0.390625 1e-5,-0.128092 -0.0112,-0.254949 -0.002,-0.382812 0.0174,-0.138973 0.0442,-0.284931 -0.0645,-0.394532 10e-6,-0.151465 1.6e-4,-0.303613 0,-0.455078 -2.2e-4,-0.130025 -0.001,-0.260604 0,-0.390625 -2.3e-4,-0.12513 -0.007,-0.250087 0.002,-0.375 0.009,-0.09377 0.0373,-0.223664 0.002,-0.314453 -0.0131,-0.03373 -0.0661,-0.0435 -0.0606,-0.08984 0.0124,-0.09742 0.006,-0.155369 -0.0371,-0.24414 -0.0123,-0.02528 -0.0279,-0.04901 -0.0351,-0.07617 -0.005,-0.01865 -10e-6,-0.03928 0,-0.05859 2e-5,-0.148539 2e-5,-0.296773 0,-0.445312 1.4e-4,-0.150515 -4.6e-4,-0.300661 -0.002,-0.451172 -10e-4,-0.160854 0.003,-0.321617 0.006,-0.482422 -0.002,-0.03245 -0.012,-0.06382 -0.0176,-0.0957 -0.15142,-0.126555 -0.30287,-0.432789 -0.47657,-0.902344 -1.58125,-4.274533 -7.59716,-6.551045 -12.71679,-4.8125 -2.16443,0.735006 -2.24918,0.632249 -1.15821,-1.40625 1.46969,-2.746137 0.52745,-8.197402 -1.77734,-10.283203 -2.39796,-2.170127 -5.2553,-3.261118 -8.09375,-3.15625 z"
     id="path9908" />
  <path
     style="fill:#ffffff"
     d="m 585.92969,22.900391 c 9.45186,0 19.8726,8.147496 21.57617,16.871093 l 0.6582,3.373047 -9.75976,-5.123047 c -5.54298,-2.908791 -11.07883,-5.121093 -12.81055,-5.121093 -1.76491,0 -7.04557,2.154826 -12.53711,5.115234 l -9.48633,5.113281 0.65625,-3.363281 c 1.72698,-8.843884 12.04854,-16.865234 21.70313,-16.865234 z"
     id="path9906" />
  <path
     style="fill:#ffffff"
     d="m 522.38672,22.939451 c 1.02664,0.09612 1.47851,1.223263 1.47851,3.460938 0,1.925 -0.14704,3.5 -0.32617,3.5 -0.17912,0 -1.40369,-1.148767 -2.72265,-2.552735 -2.02212,-2.152449 -2.16849,-2.698485 -0.92579,-3.484375 1.05643,-0.668065 1.88011,-0.981498 2.4961,-0.923828 z"
     id="path9904" />
  <path
     style="fill:#ffffff"
     d="m 488.82422,23.007811 c 5.6923,0.0084 10.04764,1.857091 14.65234,6.101563 12.45929,11.48457 7.97313,31.534788 -8.35937,37.363281 -4.80222,1.713742 -8.75207,1.695794 -13.69336,-0.06445 -13.57365,-4.835392 -19.38099,-19.065277 -12.85156,-31.492187 3.66278,-6.971066 9.94822,-11.155905 17.72461,-11.800782 0.87236,-0.07234 1.71415,-0.108618 2.52734,-0.107422 z"
     id="path9902" />
  <path
     style="fill:#ffffff"
     d="m 441.41797,23.015611 c 0.18466,0.0087 0.39006,0.03074 0.61914,0.06445 1.19442,0.175753 2.30487,0.770313 2.4668,1.320313 0.16193,0.55 -0.81554,1.808698 -2.17188,2.796875 l -2.4668,1.796875 v -3.117188 c 0,-2.301056 0.26011,-2.922467 1.55274,-2.861328 z"
     id="path9900" />
  <path
     style="fill:#ffffff"
     d="m 437.52734,23.066391 c 0.48227,-0.0337 0.85082,0.01292 0.98828,0.150391 0.27495,0.274936 0.35468,1.70854 0.17579,3.185547 l -0.32618,2.685547 -2.33593,-2.498047 -2.33399,-2.5 2.16016,-0.685547 c 0.59424,-0.188604 1.18961,-0.304187 1.67187,-0.337891 z"
     id="path9898" />
  <path
     style="fill:#ffffff"
     d="m 546.52734,23.066391 c 0.48226,-0.0337 0.85083,0.01292 0.98828,0.150391 0.27495,0.274936 0.35468,1.70854 0.17579,3.185547 l -0.32618,2.685547 -2.33593,-2.498047 -2.33399,-2.5 2.16016,-0.685547 c 0.59424,-0.188604 1.18961,-0.304187 1.67187,-0.337891 z"
     id="path9896" />
  <path
     style="fill:#ffffff"
     d="m 389.86523,23.662094 v 5.892579 5.892578 l -5.97851,4.476562 -5.97852,4.476563 -0.0215,11.75 -0.0215,11.75 h -5 -5 V 54.021484 40.142578 l 7.75,-5.796875 c 4.2625,-3.188467 9.2125,-6.896782 11,-8.240234 z"
     id="path9894" />
  <path
     style="fill:#ffffff"
     d="m 391.86523,23.880844 11,8.244141 11,8.242188 v 13.767578 13.765625 h -5 -5 l -0.041,-11.75 -0.0391,-11.75 -5.96094,-4.447266 -5.95899,-4.445313 v -5.8125 z"
     id="path9892" />
  <path
     style="fill:#ffffff"
     d="m 530.08789,24.107407 c 0.19495,-0.0088 0.35915,0.04079 0.48047,0.162109 0.37996,0.379962 -0.52253,1.905338 -2.00586,3.388672 -1.97554,1.975535 -2.69727,2.276702 -2.69727,1.125 0,-1.66399 2.85805,-4.614468 4.22266,-4.675781 z"
     id="path9890" />
  <path
     style="fill:#ffffff"
     d="m 554.08789,24.107407 c 0.19495,-0.0088 0.35915,0.04079 0.48047,0.162109 0.37996,0.379962 -0.52253,1.905338 -2.00586,3.388672 -1.97554,1.975535 -2.69727,2.276702 -2.69727,1.125 0,-1.66399 2.85805,-4.614468 4.22266,-4.675781 z"
     id="path9888" />
  <path
     style="fill:#ffffff"
     d="m 432.77344,26.082016 c 0.6732,0.05985 1.67372,0.832797 3.40234,2.353516 2.26203,1.989977 2.74965,3.16659 2.5,6.029297 l -0.31055,3.55664 -3.84961,-3.957031 c -2.9264,-3.005995 -3.69128,-4.459008 -3.18359,-6.058594 0.42198,-1.329523 0.76821,-1.983677 1.44141,-1.923828 z"
     id="path9886" />
  <path
     style="fill:#ffffff"
     d="m 446.4082,26.218735 c 0.13674,0.01875 0.26201,0.06103 0.375,0.130859 1.9868,1.227908 1.11456,4.128489 -2.21484,7.355469 -4.04285,3.918487 -4.70313,3.971796 -4.70313,0.382813 0,-2.942854 4.49185,-8.150348 6.54297,-7.869141 z"
     id="path9884" />
  <path
     style="fill:#ffffff"
     d="m 517.28516,27.058579 c 0.92689,-0.03767 2.18819,0.86679 3.95312,2.708984 2.33342,2.43557 2.70097,3.573588 2.4375,7.552734 l -0.31055,4.685547 -4.35351,-4.445312 c -3.83718,-3.918513 -4.27151,-4.813727 -3.66992,-7.552735 0.42415,-1.931159 1.01646,-2.911549 1.94336,-2.949218 z"
     id="path9882" />
  <path
     style="fill:#eb633f;fill-opacity:0.95294118"
     d="m 488.14453,27.105449 c -14.36372,-0.06691 -23.2295,15.757177 -15.00391,27.841797 2.86544,4.209732 6.60537,6.950885 10.84766,7.949218 6.74936,1.588315 13.79588,-0.733324 18.23242,-6.005859 9.47326,-11.25833 2.07651,-28.61294 -12.66992,-29.728516 -0.4744,-0.03589 -0.9429,-0.05448 -1.40625,-0.05664 z"
     id="path9880" />
  <path
     style="fill:#ffffff"
     d="m 532.90625,27.234355 c 0.40384,-0.02777 0.69561,0.21482 0.98828,0.677734 0.51759,0.818643 0.94708,2.406311 0.95508,3.529297 0.008,1.122986 -2.00938,4.029956 -4.48438,6.458985 l -4.5,4.416015 v -4.511718 c 0,-3.854372 0.51586,-5.013281 3.54297,-7.947266 1.83681,-1.780305 2.82499,-2.576768 3.49805,-2.623047 z"
     id="path9878" />
  <path
     style="fill:#ffffff"
     d="m 541.71484,27.341777 c 0.82583,0.07085 1.88717,0.83443 3.31836,2.265625 2.57366,2.573691 2.91595,3.564269 2.64453,7.675781 l -0.3125,4.722656 -4.30664,-4.40039 c -3.61092,-3.687591 -4.20089,-4.828253 -3.64062,-7.060547 0.56255,-2.241387 1.23509,-3.294221 2.29687,-3.203125 z"
     id="path9876" />
  <path
     style="fill:#ffffff"
     d="m 557.21289,27.404277 c 0.8774,0.08043 1.45434,1.081083 2.04102,3.033203 0.46557,1.549129 -0.58736,3.218733 -4.38868,6.962891 l -5,4.923828 v -4.515625 c 0,-3.849071 0.51734,-5.017353 3.50196,-7.910156 1.78936,-1.734323 2.9683,-2.574567 3.8457,-2.494141 z"
     id="path9874" />
  <path
     style="fill:#ffffff"
     d="m 492.95508,28.787089 -0.29492,7.306641 -0.29493,7.306641 -3.5,0.261718 c -5.41719,0.403955 -6.14327,-0.581595 -5.80078,-7.853515 l 0.30078,-6.408203 4.79493,-0.306641 z"
     id="path9872" />
  <path
     style="fill:#000000"
     d="m 238.86523,30.900371 c -3.52381,0 -4,0.278429 -4,2.333984 0,1.283334 0.29935,2.633334 0.66602,3 0.36666,0.366667 2.16666,0.666016 4,0.666016 3.03703,0 3.33398,-0.266667 3.33398,-3 0,-2.833333 -0.22222,-3 -4,-3 z"
     id="path9870" />
  <path
     style="fill:#ffffff"
     d="m 480.04102,30.980451 c 0.15828,0.0057 0.29793,0.05965 0.4082,0.169922 0.29423,0.294258 0.39466,2.720961 0.22461,5.392578 l -0.3086,4.857422 -1.75,-2.472657 c -0.9625,-1.359879 -1.75,-3.216676 -1.75,-4.126953 0,-1.558088 2.06779,-3.860299 3.17579,-3.820312 z"
     id="path9868" />
  <path
     style="fill:#ffffff"
     d="m 495.94531,31.060531 c 0.53291,-0.04239 1.31667,0.408859 2.45899,1.244141 1.84611,1.349907 1.85398,1.546317 0.20703,5 -2.38343,4.998105 -3.7461,4.487667 -3.7461,-1.404297 0,-3.325875 0.19191,-4.769194 1.08008,-4.839844 z"
     id="path9866" />
  <path
     style="fill:#000000"
     d="m 131.24023,32.869125 c -3.13912,-0.0044 -6.1656,0.763126 -8.45312,2.304687 -5.70871,3.847098 -7.92188,8.123366 -7.92188,15.308594 0,9.601589 2.88218,15.064549 9.5,18.005859 8.81995,3.920058 20.5,-0.786716 20.5,-8.261719 0,-3.023817 -0.27009,-3.326171 -2.98046,-3.326171 -2.35399,0 -3.11452,0.530365 -3.61524,2.52539 -1.17438,4.679111 -7.25045,5.956847 -11.69726,2.458985 -8.23944,-6.481143 -4.64433,-23.00762 4.99609,-22.96875 4.70237,0.01896 5.80364,0.727358 6.67773,4.296875 0.57323,2.340896 1.1449,2.760511 3.4043,2.5 2.44475,-0.281883 2.71484,-0.708213 2.71484,-4.28125 0,-3.585321 -0.38594,-4.185627 -4,-6.232422 -2.73431,-1.548552 -5.98587,-2.325708 -9.125,-2.330078 z"
     id="path9864" />
  <path
     style="fill:#000000"
     d="m 254.64062,32.900375 c -5.41748,0 -5.77539,0.146812 -5.77539,2.382812 0,1.542364 0.70573,2.56779 2,2.90625 1.86572,0.487897 2,1.365553 2,13.050781 0,11.647973 -0.14023,12.569888 -2,13.160157 -1.95147,0.619374 -2.7051,3.460901 -1.29296,4.873047 0.38847,0.388474 3.87597,0.57532 7.75,0.416015 6.35307,-0.261246 7.07349,-0.501201 7.35156,-2.453125 0.20943,-1.470131 -0.35176,-2.374572 -1.75,-2.818359 -1.86985,-0.593466 -2.05769,-1.448267 -2.05469,-9.335938 l 0.002,-8.68164 7.05079,11.75 c 6.81857,11.363185 7.16513,11.75 10.49804,11.75 h 3.44531 V 54.466797 c 0,-14.554354 0.11382,-15.467755 2,-16.066406 1.27793,-0.405599 2,-1.514006 2,-3.06836 0,-2.360582 -0.22207,-2.43164 -7.5,-2.43164 -7.27793,0 -7.5,0.07106 -7.5,2.43164 0,1.554354 0.72207,2.662761 2,3.06836 1.7917,0.568663 2,1.512052 2,9.066406 0,4.637936 -0.17254,8.433594 -0.38281,8.433594 -0.21027,0 -3.46088,-5.175 -7.22461,-11.5 l -6.84375,-11.5 z"
     id="path9862" />
  <path
     style="fill:#ffffff"
     d="m 431.55078,33.115218 c 0.46314,-0.08416 1.82768,0.831584 3.96875,2.972657 1.97312,1.973125 3.4054,4.137289 3.18164,4.808593 -0.2353,0.705888 -2.00634,-0.549305 -4.19922,-2.976562 -2.65157,-2.934971 -3.54664,-4.696484 -2.95117,-4.804688 z"
     id="path9860" />
  <path
     style="fill:#ffffff"
     d="m 447.63672,33.638656 c 0.54074,0.135131 -0.35259,1.853689 -2.875,4.726562 -2.96308,3.374759 -4.89649,4.456286 -4.89649,2.738282 0,-0.438379 1.8,-2.554882 4,-4.703125 2.06247,-2.013943 3.35091,-2.866821 3.77149,-2.761719 z"
     id="path9858" />
  <path
     style="fill:#ffffff"
     d="m 585.64453,35.302718 c 2.92662,-0.115563 5.49487,1.135285 7.69336,3.748047 3.5586,4.229155 3.40826,9.121043 -0.39648,12.925781 -5.61763,5.617638 -15.58699,2.993201 -17.49414,-4.605468 -1.01545,-4.045898 1.84619,-9.332642 5.98632,-11.0625 1.47694,-0.617104 2.88066,-0.953331 4.21094,-1.00586 z"
     id="path9856" />
  <path
     style="fill:#ffffff"
     d="m 501.79297,35.484359 1.56836,3.751953 c 0.8622,2.063544 1.33889,4.122626 1.05859,4.576172 -0.28031,0.453546 -2.2876,1.109501 -4.46094,1.457031 -2.5221,0.4033 -5.24442,1.850618 -7.52343,4 l -3.57032,3.367188 V 49.34764 c 0,-2.771333 0.43257,-3.38626 2.75,-3.90625 3.64478,-0.81782 6.80753,-3.371378 8.66407,-6.998047 z"
     id="path9854" />
  <path
     style="fill:#000000"
     d="m 324.86523,35.900375 c -3.77778,0 -4,0.166667 -4,3 0,2.333333 -0.44444,3 -2,3 -1.55556,0 -2,0.666667 -2,3 0,2.333333 0.44444,3 2,3 1.84397,0 2,0.666133 2,8.544921 0,7.794575 0.22052,8.767384 2.51368,11.060547 1.95884,1.958837 3.33916,2.444293 6.25,2.203125 3.24055,-0.268483 3.77827,-0.673237 4.05273,-3.058593 0.27245,-2.367842 -0.0402,-2.75 -2.25,-2.75 -2.54132,0 -2.56641,-0.07812 -2.56641,-8 0,-7.333333 0.16667,-8 2,-8 1.55556,0 2,-0.666667 2,-3 0,-2.333333 -0.44444,-3 -2,-3 -1.55556,0 -2,-0.666667 -2,-3 0,-2.833333 -0.22222,-3 -4,-3 z"
     id="path9852" />
  <path
     style="fill:#ffffff"
     d="m 537.73828,36.802718 c 0.083,0.01543 0.12695,0.101361 0.12695,0.261719 0,0.855245 1.77627,3.572679 3.94727,6.039063 l 3.94727,4.484375 -4.23633,4.158203 -4.23828,4.158203 -4.25782,-4.339844 c -3.93151,-4.005917 -4.12629,-4.447766 -2.53906,-5.751953 0.94562,-0.776992 2.99277,-3.412242 4.54883,-5.857422 1.26431,-1.986708 2.34155,-3.219194 2.70117,-3.152344 z"
     id="path9850" />
  <path
     style="fill:#ffffff"
     d="m 427.62695,36.900378 c 1.43616,0 8.23828,5.865075 8.23828,7.103515 0,1.767122 -1.65679,0.83229 -5.5,-3.103515 -2.14824,-2.2 -3.38077,-4 -2.73828,-4 z"
     id="path9848" />
  <path
     style="fill:#ffffff"
     d="m 455.36523,36.900378 c 1.21569,0 1.5,1.611111 1.5,8.5 0,6.888889 -0.28431,8.5 -1.5,8.5 -1.21569,0 -1.5,-1.611111 -1.5,-8.5 0,-6.888889 0.28431,-8.5 1.5,-8.5 z"
     id="path9846" />
  <path
     style="fill:#ffffff"
     d="m 422.875,37.044922 c 1.34933,-0.105429 2.67998,0.977507 5.49023,3.855469 l 3.90625,4 h -3.51562 c -2.61327,0 -4.26553,-0.781853 -6.43555,-3.046875 -2.43799,-2.544708 -2.67542,-3.201624 -1.4375,-3.984375 0.76195,-0.481788 1.37886,-0.776297 1.99219,-0.824219 z"
     id="path9844" />
  <path
     style="fill:#ffffff"
     d="m 474.64258,37.072262 c 0.64657,0.06205 1.39835,1.026535 2.47265,2.914062 1.06284,1.867396 3.31977,3.691864 5.75,4.646484 3.55787,1.397571 4,1.94204 4,4.919922 0,3.921263 -0.10951,4.002613 -1.78711,1.316407 -1.68587,-2.699525 -7.149,-5.960144 -9.99414,-5.964844 -2.82586,-0.0046 -3.61089,-1.839942 -2.2832,-5.332031 0.65455,-1.721601 1.19523,-2.562055 1.8418,-2.5 z"
     id="path9842" />
  <path
     style="fill:#ffffff"
     d="m 515.36523,37.400387 4.25,3.953125 c 2.3375,2.174121 4.25,4.086621 4.25,4.25 0,0.756577 -0.87067,-6.67e-4 -4.54687,-3.953125 z"
     id="path9840" />
  <path
     style="fill:#ffffff"
     d="m 390.79297,37.900387 c 0.61159,0 3.32712,1.6875 6.03515,3.75 l 4.92383,3.75 0.0566,11.25 0.0566,11.25 h -5 -5 v -8.5 c 0,-5 -0.41176,-8.5 -1,-8.5 -0.58824,0 -1,3.5 -1,8.5 v 8.5 h -5 -5 l 0.043,-11.25 0.043,-11.25 4.86328,-3.75 c 2.67564,-2.0625 5.36694,-3.75 5.97852,-3.75 z"
     id="path9838" />
  <path
     style="fill:#ffffff"
     d="m 449.78125,38.115227 c 0.79885,-0.02723 1.08398,1.932503 1.08398,7.201172 0,4.542728 -0.41341,7.583985 -1.03125,7.583985 -1.62754,0 -2.10095,-2.275296 -1.77343,-8.533203 0.18452,-3.525644 0.79602,-5.970446 1.55468,-6.220704 0.0579,-0.0191 0.11276,-0.02943 0.16602,-0.03125 z"
     id="path9834" />
  <path
     style="fill:#ffffff"
     d="m 557.7832,38.37304 c 0.0535,0.01268 0.082,0.05234 0.082,0.121094 0,0.55 -1.8,2.758007 -4,4.90625 -2.2,2.148243 -4,3.45625 -4,2.90625 0,-0.55 1.8,-2.758007 4,-4.90625 1.925,-1.879713 3.54336,-3.116138 3.91797,-3.027344 z"
     id="path9832" />
  <path
     style="fill:#ffffff"
     d="m 541.17188,38.40038 c 0.54227,0.09768 2.07477,1.330044 3.69335,3 1.84981,1.908521 3.13829,3.695703 2.86329,3.970703 -0.275,0.275 -2.01348,-1.062182 -3.86329,-2.970703 -1.84981,-1.908521 -3.13828,-3.695704 -2.86328,-3.970703 0.0344,-0.03437 0.0925,-0.04325 0.16993,-0.0293 z"
     id="path9830" />
  <path
     style="fill:#ffffff"
     d="m 533.15039,38.935536 c 0.0855,0.03833 0.0663,0.189844 -0.0762,0.464844 -1.33074,2.568189 -7.20899,8.186847 -7.20899,6.890625 0,-0.541279 1.85573,-2.763379 4.12305,-4.9375 1.70048,-1.630592 2.90571,-2.53295 3.16211,-2.417969 z"
     id="path9828" />
  <path
     style="fill:#ffffff"
     d="m 585.32617,39.90038 c 0.72479,0 2.37084,0.852098 3.65821,1.894531 2.01187,1.629126 2.2015,2.296278 1.34374,4.75 -0.75396,2.156842 -1.72959,2.927442 -3.98632,3.15039 -3.47598,0.343402 -5.47657,-1.272966 -5.47657,-4.423828 0,-2.465285 2.41368,-5.371093 4.46094,-5.371093 z"
     id="path9826" />
  <path
     style="fill:#ffffff"
     d="m 597.49023,39.90038 c 0.0682,0 2.24433,1.185191 4.83789,2.634765 3.49673,1.954364 4.37033,2.869396 3.37696,3.539063 -0.7368,0.496701 -2.91485,1.738055 -4.83985,2.757812 l -3.5,1.853516 v -5.392578 c 0,-2.96603 0.0568,-5.392578 0.125,-5.392578 z"
     id="path9824" />
  <path
     style="fill:#ffffff"
     d="m 418.76172,39.99804 c 0.6474,-0.01469 1.44632,0.776342 2.51172,2.402344 1.62272,2.47659 1.60997,2.5 -1.38477,2.5 -3.07512,0 -3.49806,-0.598192 -2.41601,-3.417969 0.37383,-0.974189 0.78552,-1.472952 1.28906,-1.484375 z"
     id="path9822" />
  <path
     style="fill:#ffffff"
     d="m 573.4375,40.07031 v 5.416016 c 0,2.978178 -0.0174,5.369463 -0.0371,5.314453 -0.0196,-0.05501 -2.01333,-1.250478 -4.43164,-2.65625 -4.15129,-2.413156 -4.29096,-2.635672 -2.5,-3.976562 1.04331,-0.781129 3.037,-2.021551 4.43164,-2.757813 z"
     id="path9820" />
  <path
     style="fill:#ffffff"
     d="m 460.60742,40.394529 c 0.13076,0.02561 0.28203,0.131641 0.45703,0.306641 0.66,0.66 1.20117,2.774219 1.20117,4.699219 0,1.925 -0.54117,4.039218 -1.20117,4.699218 -0.93333,0.933333 -1.19922,-0.110329 -1.19922,-4.699218 0,-3.728473 0.17556,-5.116838 0.74219,-5.00586 z"
     id="path9818" />
  <path
     style="fill:#000000"
     d="m 242.86523,41.800779 -5.75,0.298828 c -5.02167,0.261916 -5.78934,0.574855 -6.05859,2.464844 -0.20943,1.470131 0.35176,2.374572 1.75,2.818359 1.84673,0.586129 2.05859,1.457271 2.05859,8.478516 0,6.033619 -0.34349,7.956596 -1.5,8.400391 -0.825,0.316583 -1.5,1.715161 -1.5,3.107422 0,2.467425 0.17686,2.53125 7,2.53125 6.82314,0 7,-0.06382 7,-2.53125 0,-1.392261 -0.675,-2.790839 -1.5,-3.107422 -1.20688,-0.463124 -1.5,-2.713033 -1.5,-11.517578 z"
     id="path9814" />
  <path
     style="fill:#000000"
     d="m 217.59375,41.941404 c -4.87988,-0.02209 -9.23669,2.108006 -11.21094,5.925782 -1.9476,3.766933 -1.94961,12.293655 -0.004,16.05664 0.83191,1.608744 2.74441,3.593233 4.25,4.410156 7.01227,3.804817 17.23632,-0.268078 17.23632,-6.867187 0,-2.468548 -6.20111,-2.074765 -7.80664,0.496094 -1.69682,2.717047 -5.2557,2.17392 -6.95703,-1.0625 -1.48415,-2.823283 -1.03455,-9.332324 0.79688,-11.539063 1.98705,-2.39425 5.88232,-1.813316 6.96679,1.039063 0.72472,1.906164 1.66834,2.5 3.97461,2.5 2.86856,0 3.02575,-0.208941 3.02539,-4.050782 0,-3.67738 -0.32073,-4.184672 -3.46875,-5.5 -2.25876,-0.943774 -4.5846,-1.398163 -6.80273,-1.408203 z"
     id="path9812" />
  <path
     style="fill:#000000"
     d="m 189.35352,41.962884 c -2.36028,0.0025 -4.61523,0.469164 -6.41602,1.40039 -3.13352,1.620407 -4.07227,3.339023 -4.07227,7.462891 0,3.597474 2.46941,5.72711 8.83399,7.617187 3.94407,1.171262 5.16601,1.998812 5.16601,3.496094 0,1.611652 -0.69168,1.960938 -3.88281,1.960938 -3.04237,0 -3.99651,-0.433131 -4.40625,-2 -0.35342,-1.351482 -1.36458,-2 -3.11719,-2 -2.30419,0 -2.59375,0.396515 -2.59375,3.548828 0,3.046753 0.45936,3.748011 3.25,4.960937 10.39532,4.518238 22.10121,-2.416954 17.625,-10.441406 -0.93847,-1.682381 -2.97695,-3.020064 -5.90429,-3.876953 -7.7414,-2.266064 -9.70626,-4.192217 -6.19336,-6.072266 2.56829,-1.374507 5.92671,-0.361537 6.53711,1.972657 0.32903,1.258186 1.38107,1.908203 3.09179,1.908203 2.30457,0 2.59375,-0.395508 2.59375,-3.550782 0,-3.106834 -0.4327,-3.732276 -3.46679,-5 -2.21871,-0.927034 -4.68465,-1.38918 -7.04492,-1.386718 z"
     id="path9810" />
  <path
     style="fill:#000000"
     d="m 301.97852,41.972684 c -4.40597,-0.02372 -8.65049,2.132881 -10.59571,5.894532 -2.04447,3.953564 -1.94815,12.494155 0.18164,16.099609 0.93426,1.581582 3.07176,3.554557 4.75,4.382812 3.87755,1.913678 8.65955,1.950209 13.08399,0.101563 3.81095,-1.592317 3.93061,-1.815991 2.44922,-4.583984 -0.83389,-1.55815 -1.4806,-1.728568 -3.56641,-0.935547 -5.27404,2.005188 -10.41602,0.225956 -10.41602,-3.603516 0,-1.120713 1.74822,-1.427734 8.11329,-1.427734 h 8.11328 l -0.71094,-4.75 c -0.91728,-6.11741 -1.9183,-7.890086 -5.49609,-9.740235 -1.86875,-0.966366 -3.90354,-1.426719 -5.90625,-1.4375 z"
     id="path9808" />
  <path
     style="fill:#000000"
     d="m 160.73633,42.041044 c -5.44132,-0.0093 -10.8711,2.426091 -10.8711,6.34375 0,2.207274 0.42788,2.515625 3.5,2.515625 2.44444,0 3.5,-0.452381 3.5,-1.5 0,-2.365888 5.69313,-1.942328 7.01172,0.521484 1.62076,3.028427 0.39865,3.978516 -5.11523,3.978516 -6.08313,0 -9.89649,3.082124 -9.89649,8 0,1.948373 0.90785,3.997684 2.45508,5.544921 2.83892,2.838916 7.92396,3.277885 11.22071,0.96875 1.88468,-1.320074 2.18657,-1.312966 2.71289,0.05859 0.43402,1.131031 1.73073,1.46197 4.85156,1.236328 3.54509,-0.256317 4.31362,-0.685995 4.58008,-2.5625 0.19203,-1.352279 -0.30819,-2.496017 -1.25,-2.857422 -1.25061,-0.479903 -1.57032,-2.276081 -1.57032,-8.822265 0,-7.46688 -0.22786,-8.431373 -2.49218,-10.558594 -2.10298,-1.975649 -5.37193,-2.861627 -8.63672,-2.867187 z"
     id="path9806" />
  <path
     style="fill:#ffffff"
     d="m 444.39648,43.287137 c 0.38036,-0.0041 0.46875,0.598245 0.46875,1.990235 0,2.985258 -0.29341,3.180371 -1.89062,1.255859 -0.86313,-1.040007 -0.7714,-1.66838 0.37891,-2.623047 0.48164,-0.39973 0.81475,-0.620577 1.04296,-0.623047 z"
     id="path9804" />
  <path
     style="fill:#ffffff"
     d="m 419.88867,45.900419 c 2.99474,0 3.00749,0.02341 1.38477,2.5 -1.89404,2.890669 -2.94631,3.144685 -3.80078,0.917968 -1.08205,-2.819777 -0.65911,-3.417968 2.41601,-3.417968 z"
     id="path9802" />
  <path
     style="fill:#ffffff"
     d="m 428.75586,45.900419 h 3.51562 l -3.90625,4 c -4.08764,4.186126 -5.04418,4.572971 -7.48242,3.03125 -1.23792,-0.782751 -1.00049,-1.439667 1.4375,-3.984375 2.17002,-2.265022 3.82228,-3.046875 6.43555,-3.046875 z"
     id="path9800" />
  <path
     style="fill:#ffffff"
     d="m 435.33594,46.209012 c 0.10692,-0.0055 0.1885,0.01662 0.24218,0.07031 0.42951,0.429509 -0.89861,2.320141 -2.95117,4.201172 -5.34006,4.893795 -7.04898,4.236484 -2.03125,-0.78125 2.02173,-2.021723 3.9918,-3.451803 4.74024,-3.490235 z"
     id="path9798" />
  <path
     style="fill:#ffffff"
     d="m 503.12109,46.54495 c 2.15283,-0.09729 1.00761,1.14782 -3.37695,2.705078 -5.05193,1.794288 -8.867,6.049831 -8.875,9.900391 -0.002,0.9625 -0.50248,1.75 -1.11133,1.75 -0.60884,0 -0.83384,-0.712049 -0.5,-1.582032 0.33385,-0.869984 0.60742,-2.203964 0.60742,-2.964843 0,-2.721159 5.93182,-8.19345 10.00196,-9.226563 1.45281,-0.368764 2.53629,-0.549602 3.2539,-0.582031 z"
     id="path9796" />
  <path
     style="fill:#ffffff"
     d="m 477.63281,47.328153 c 0.31091,-0.03823 0.78441,0.244707 1.57813,0.828125 1.11675,0.820866 1.70881,2.269124 1.5,3.667969 l -0.34571,2.310547 -1.83789,-2.042969 c -1.01071,-1.123451 -1.68571,-2.774484 -1.5,-3.667969 0.14526,-0.698874 0.29456,-1.057473 0.60547,-1.095703 z"
     id="path9794" />
  <path
     style="fill:#ffffff"
     d="m 301.79297,48.025419 c 1.74076,-0.018 3.51496,1.293863 3.89648,3.232421 0.25814,1.31162 -0.51355,1.642579 -3.82422,1.642579 -3.31067,0 -4.0804,-0.33096 -3.82226,-1.642579 0.17782,-0.903548 1.10976,-2.139955 2.07226,-2.746093 0.51998,-0.327459 1.09749,-0.48033 1.67774,-0.486328 z"
     id="path9792" />
  <path
     style="fill:#ffffff"
     d="m 564.63477,48.066439 c 0.42326,0.183333 4.02479,2.117356 8.0039,4.296875 l 7.23438,3.962891 -5.75391,2.61914 c -3.16487,1.440537 -6.37211,3.369667 -7.12695,4.28711 -2.52242,3.065764 -3.12696,1.726993 -3.12696,-6.916016 0,-4.720834 0.34628,-8.433334 0.76954,-8.25 z"
     id="path9790" />
  <path
     style="fill:#ffffff"
     d="m 607.49805,48.199252 c 0.24738,0.247419 0.31812,4.292377 0.1582,8.990234 l -0.29102,8.542969 -2.5,-2.0625 c -1.375,-1.133744 -4.8625,-3.153094 -7.75,-4.488281 -2.8875,-1.335187 -5.25,-2.578704 -5.25,-2.763672 0,-0.66878 15.19449,-8.657072 15.63282,-8.21875 z"
     id="path9788" />
  <path
     style="fill:#ffffff"
     d="m 440.37305,49.156283 c 1.15326,-0.195219 5.2663,3.48264 6.66601,6.080078 1.75539,3.257458 0.29187,2.725313 -3.67383,-1.335937 -2.12853,-2.179808 -3.56057,-4.273413 -3.18164,-4.652344 0.0489,-0.04891 0.11257,-0.07878 0.18946,-0.0918 z"
     id="path9786" />
  <path
     style="fill:#ffffff"
     d="m 438.5918,49.634799 c 0.17952,0.01014 0.27343,0.131557 0.27343,0.367187 0,0.82873 -1.48318,2.945229 -3.29687,4.703125 -1.81368,1.757892 -3.61368,3.195313 -4,3.195313 -1.57113,0 -0.49319,-1.799103 3.29687,-5.5 1.87656,-1.832412 3.18799,-2.796045 3.72657,-2.765625 z"
     id="path9784" />
  <path
     style="fill:#ffffff"
     d="m 502.81641,49.900424 c 2.40974,0 0.78727,1.930878 -2.54688,3.03125 -2.60821,0.860786 -3.98639,2.11949 -5.01367,4.578125 -1.56942,3.756133 -2.39063,4.310128 -2.39063,1.613281 0,-3.547816 6.12337,-9.222656 9.95118,-9.222656 z"
     id="path9782" />
  <path
     style="fill:#ffffff"
     d="m 474.67578,51.964877 c 1.13785,-0.201299 3.48336,1.31919 3.96289,2.757812 0.21607,0.648206 -0.26487,1.177735 -1.06836,1.177735 -1.79115,0 -4.25019,-2.786921 -3.29883,-3.738282 0.10427,-0.104261 0.24175,-0.168508 0.4043,-0.197265 z"
     id="path9780" />
  <path
     style="fill:#ffffff"
     d="m 483.53125,52.209017 c 0.27478,-0.03926 0.72793,0.748798 1.67383,2.509766 2.18137,4.061072 1.76532,6.058818 -0.69531,3.339844 -0.99627,-1.100861 -1.64347,-3.038617 -1.44532,-4.326172 0.14819,-0.962882 0.25309,-1.492904 0.4668,-1.523438 z"
     id="path9778" />
  <path
     style="fill:#ffffff"
     d="m 438.86523,52.429721 v 3.783203 c 0,2.873754 -0.66111,4.36457 -2.75,6.203125 -3.39879,2.991466 -3.9418,3.03304 -4.79101,0.357422 -0.5223,-1.645599 0.25615,-3.058889 3.43359,-6.236329 z"
     id="path9776" />
  <path
     style="fill:#ffffff"
     d="m 438.86523,52.429721 c 1.7153,0 7.3663,6.872481 7.03906,8.560547 -0.54453,2.808858 -2.22366,2.695043 -5.14062,-0.34961 -2.51399,-2.624033 -3.80572,-8.210937 -1.89844,-8.210937 z"
     id="path9774"
     inkscape:connector-curvature="0" />
  <path
     style="fill:#ffffff"
     d="m 500.05078,54.984408 c 0.14247,-0.0064 0.26171,0.02929 0.3457,0.113281 0.26508,0.265081 -0.42202,1.298337 -1.52539,2.296875 -1.10337,0.998538 -2.00586,1.351102 -2.00586,0.783203 0,-1.100968 2.1883,-3.148903 3.18555,-3.193359 z"
     id="path9772" />
  <path
     style="fill:#ffffff"
     d="m 162.44727,57.900424 c 2.78973,0 3.18958,2.085808 0.84765,4.427734 -2.74978,2.749783 -6.42969,1.898091 -6.42969,-1.488281 0,-1.920492 1.93626,-2.939453 5.58204,-2.939453 z"
     id="path9770" />
  <path
     style="fill:#ffffff"
     d="m 479.45898,57.994174 c 0.30184,0.0112 0.74184,0.05931 1.32813,0.126953 1.33192,0.153669 2.60756,0.841797 2.83398,1.529297 0.56018,1.700999 -0.96394,1.572646 -3.31445,-0.279297 -1.40983,-1.110798 -1.75317,-1.410564 -0.84766,-1.376953 z"
     id="path9768" />
  <path
     style="fill:#ffffff"
     d="m 585.80664,58.441439 c 1.17231,0.02328 2.30109,0.124386 3.28711,0.308594 5.14178,0.960589 13.08601,4.733664 15.4375,7.332031 1.58495,1.75135 0.90654,1.81836 -18.51172,1.81836 -11.20627,0 -20.1543,-0.398442 -20.1543,-0.896485 0,-1.629326 9.41849,-6.969078 14.16602,-8.03125 1.74468,-0.390339 3.82154,-0.570054 5.77539,-0.53125 z"
     id="path9766" />
  <path
     style="fill:#ffffff"
     d="m 438.86523,61.550814 v 3.175781 c 0,3.171202 -1.23881,3.944097 -3.75976,2.34375 -0.93728,-0.595 -0.6166,-1.406579 1.25,-3.160156 z"
     id="path9764" />
  <path
     style="fill:#ffffff"
     d="m 439.86523,61.806674 2.4668,1.796875 c 1.35634,0.988177 2.33381,2.246875 2.17188,2.796875 -0.16193,0.55 -1.27238,1.144559 -2.4668,1.320312 -1.83266,0.269668 -2.17188,-0.167096 -2.17188,-2.796875 z"
     id="path9649" />
  <style
     id="style9686"
     type="text/css">
	.st0{fill:#008F00;}
</style>
  <g
     id="g9712"
     transform="matrix(0.112351,0,0,0.112351,-2.5772115,-3.3460966)">
	<path
   id="path9688"
   d="m 383.6,459.2 c 0.1,-0.6 0.2,-1.3 0.4,-1.9 0.5,-1.5 1.7,-2.1 3.2,-1.6 0.6,0.2 1.2,0.4 1.8,0.7 2.1,1 4.1,2.1 6.1,3.4 0.5,0.3 1.1,0.7 1.6,1 1.2,0.6 2,0.1 2.2,-1.2 0.1,-0.6 0.1,-1.3 0.1,-1.9 0.1,-4 -0.2,-8 -1,-11.9 -1.2,-6.2 -3.1,-12.1 -6.2,-17.6 -0.5,-0.9 -1,-1.8 -1.8,-2.5 -2,-2 -5.1,-3.1 -8.3,-1.2 -0.7,0.4 -1.3,0.9 -1.9,1.4 -1.7,1.5 -3.5,3.1 -5.1,4.7 -4.8,4.6 -10.4,7.9 -16.8,9.9 -3.8,1.2 -7.8,1.8 -11.8,2.1 -1.7,0.1 -3.3,0.4 -4.9,1 -2.7,1 -3.1,2.5 -1,4.6 0.9,0.9 1.9,1.7 3,2.4 2.4,1.5 4.9,2.8 7.4,3.9 0.6,0.3 1.4,0.4 2.2,1.2 -3.6,-0.4 -6.7,-0.8 -9.8,-1.7 -8.3,-2.4 -15.2,-7 -21,-13.3 -0.7,-0.8 -1.4,-1.6 -2.1,-2.3 -0.9,-1 -1.5,-1.1 -2.7,-0.4 -1,0.5 -1.8,1.4 -2.3,2.3 -0.5,0.9 -0.8,1.9 -1.1,2.9 -0.6,2.9 -0.5,5.9 -0.1,8.8 2,13.9 9.3,24.1 21.7,30.7 2,1.1 4.1,1.8 6.3,2.3 3.1,0.7 6.3,1.1 9.5,1.4 4.2,0.5 8.5,0.6 12.7,-0.2 6.3,-1.1 11.3,-4.2 14.7,-9.7 1.5,-2.4 2.6,-5 3.2,-7.7 0.6,-3.3 1.1,-6.5 1.8,-9.6 z"
   class="st0"
   inkscape:connector-curvature="0"
   style="fill:#008f00" />

	<path
   id="path9690"
   d="m 218.3,425.8 c -0.5,-0.5 -1.1,-0.9 -1.7,-1.3 -3.3,-1.9 -6.3,-0.9 -8.3,1.2 -0.7,0.7 -1.2,1.5 -1.7,2.3 -1.3,2.1 -2.3,4.4 -3.2,6.7 -2.5,6.5 -3.9,13.3 -4.2,20.3 -0.1,1.6 -0.1,3.2 0.3,4.8 0.2,1.2 1,1.6 2.1,1 0.6,-0.3 1.1,-0.7 1.6,-1 2,-1.3 4.1,-2.5 6.3,-3.5 0.6,-0.3 1.2,-0.5 1.8,-0.7 1.2,-0.4 2.3,0.1 2.8,1.2 0.2,0.4 0.3,0.9 0.4,1.4 0.5,2.4 0.9,4.9 1.4,7.3 0.7,3.4 1.6,6.7 3.3,9.7 2.7,4.9 6.7,8.3 12.1,10 2.6,0.8 5.3,1.3 8,1.4 4.8,0.2 9.6,-0.4 14.3,-1.1 3.3,-0.5 6.5,-1.4 9.6,-3 8.4,-4.4 14.5,-10.9 18.4,-19.5 2.4,-5.4 3.6,-11.1 3.3,-17 -0.1,-1.9 -0.5,-3.6 -1.3,-5.3 -0.6,-1.3 -1.5,-2.3 -2.7,-2.9 -1,-0.5 -1.4,-0.4 -2.1,0.3 -0.4,0.5 -0.8,1 -1.3,1.4 -1.8,2.1 -3.8,4.1 -6,5.9 -7.4,6.1 -15.8,9.5 -25.4,9.8 0.7,-0.3 1.3,-0.5 2,-0.8 2.3,-1 4.5,-2.1 6.6,-3.4 1.3,-0.8 2.6,-1.7 3.6,-2.8 2,-2.1 1.7,-3.6 -1,-4.6 -0.2,-0.1 -0.4,-0.2 -0.7,-0.2 -1.3,-0.2 -2.7,-0.5 -4,-0.7 -1.7,-0.2 -3.5,-0.3 -5.2,-0.6 -9.2,-1.4 -17.2,-5.3 -23.9,-11.8 -1.8,-1.6 -3.5,-3 -5.2,-4.5 z"
   class="st0"
   inkscape:connector-curvature="0"
   style="fill:#008f00" />

	<path
   id="path9692"
   d="m 248.9,437.1 c 4.5,0 9.3,-0.9 13.3,-2.2 2.1,-0.7 4,-1.5 5.8,-2.7 0.5,-0.4 1,-0.8 1.4,-1.3 0.2,-0.3 0.2,-0.6 -0.1,-0.8 -0.9,-0.7 -2,-1 -3.1,-1.3 -3.4,-0.9 -6.9,-1.5 -10.3,-2 -3.2,-0.4 -6.3,-0.8 -9.5,-1.1 -2.5,-0.3 -5.1,-0.6 -7.6,-0.8 -4.1,-0.4 -8.1,-0.7 -12.2,-1.1 -0.5,0 -0.9,-0.2 -1.4,-0.2 -0.3,0 -0.6,0 -1,0 -0.2,0 -0.5,0.1 -0.5,0.4 0,0.2 0.1,0.5 0.2,0.6 2.6,2.2 5.2,4.5 8,6.6 5.3,4 11.4,5.8 17,5.9 z"
   class="st0"
   inkscape:connector-curvature="0"
   style="fill:#008f00" />

	<path
   id="path9694"
   d="m 347.9,437.1 c 6,-0.1 11.3,-1.5 16.1,-4.5 3.7,-2.3 6.7,-5.4 10.1,-8.1 0.2,-0.1 0.3,-0.4 0.3,-0.6 0,-0.4 -0.4,-0.5 -0.7,-0.5 -2.2,0.2 -4.5,0.4 -6.7,0.6 -2.5,0.2 -4.9,0.5 -7.4,0.7 -2.3,0.2 -4.6,0.4 -6.9,0.6 -3.6,0.4 -7.1,0.8 -10.7,1.3 -3.4,0.5 -6.8,1 -10.1,1.9 -1,0.3 -2,0.6 -2.9,1.1 -0.6,0.3 -0.6,0.9 -0.1,1.4 1.1,1 2.5,1.8 3.8,2.4 5,2.4 10.2,3.5 15.2,3.7 z"
   class="st0"
   inkscape:connector-curvature="0"
   style="fill:#008f00" />

	<path
   id="path9696"
   d="m 328.5,533 c -5.7,1.4 -11.5,1.6 -17.4,1 -2.9,-0.3 -5.9,-0.4 -8.8,-0.7 -5.3,-0.4 -10.5,0.4 -15.8,0.7 -5.5,0.4 -11,0.2 -16.4,-1 -1.6,-0.4 -3.3,-0.7 -5,-0.7 -4.2,0.3 -8.1,1.5 -11.4,4.3 -2.6,2.3 -3.8,5.6 -1.7,9.5 2.1,3.9 4.6,7.5 7.8,10.6 1.5,1.4 3.1,2.5 5,3.3 4.2,1.7 8.4,1.8 12.6,0.1 2.3,-0.9 4.6,-1.9 6.9,-2.9 2.4,-1 4.7,-1.9 7.1,-2.8 1.7,-0.6 3.5,-1.1 5.4,-1.2 3.9,-0.3 7.7,0.1 11.3,1.6 2.7,1.1 5.5,2.3 8.2,3.4 1.9,0.8 3.8,1.7 5.8,2.3 5.6,1.8 10.8,0.8 15.4,-2.8 4.1,-3.3 7.1,-7.6 9.3,-12.4 1.3,-2.8 0.8,-5.5 -1.3,-7.8 -1.3,-1.4 -2.8,-2.4 -4.4,-3.2 -4.2,-1.9 -8.3,-2.4 -12.6,-1.3 z"
   class="st0"
   inkscape:connector-curvature="0"
   style="fill:#008f00" />

	<path
   id="path9698"
   d="m 279,239.5 c 1.7,7.1 3.5,14.1 5.2,21.2 2.6,10.9 4.7,21.9 6.4,33 1.2,7.7 2.1,15.4 2.6,23.1 0.4,6.1 0.8,12.3 0.8,19.5 0.2,4.4 -0.2,9.7 -0.6,15.1 -0.3,5 -0.9,10 -1.7,15 -1,6.2 -2.2,12.3 -3.9,18.3 -1.1,4.1 -2.9,7.8 -5.5,11.1 -5.4,7.2 -12.5,11.7 -21.3,13.2 -5.1,0.9 -10.4,0.9 -15.5,0.9 -7.4,-0.1 -14.9,-0.7 -22.2,-1.8 -7.6,-1.1 -15.1,-2.6 -22.6,-4.4 -6.1,-1.5 -12.1,-3.1 -18,-4.9 -0.6,-0.2 -1.3,-0.5 -1.7,0.1 -0.3,0.5 0.2,1.1 0.5,1.5 1.3,1.8 3,3.1 5,4 3,1.4 6,2.7 9,4 11,4.5 22.5,7.1 34.2,9.1 8.5,1.5 17.1,2.3 25.7,3.3 4.8,0.6 9.7,1.1 14.5,2 4.6,0.8 9,2.1 13.2,4.2 1.7,0.8 3.3,1.7 4.7,2.9 2.4,2.1 3.8,4.7 4,7.9 0.1,1.8 0.3,3.5 0.4,5.3 0.4,7.7 0.7,15.3 0.6,23 -0.1,6 -0.5,12 -1.5,17.9 -1,6.1 -2.6,12.1 -6.5,17.1 -0.6,0.7 -0.5,1.1 0.1,1.7 2.7,2.2 5.4,4.5 8.2,6.6 3.5,2.5 9,2.6 12.6,-0.2 2.7,-2 5.2,-4.2 7.8,-6.3 0.8,-0.6 0.8,-1 0.1,-1.8 -2.9,-3.7 -4.4,-7.9 -5.5,-12.4 -1.3,-5.1 -1.9,-10.4 -2.2,-15.7 -0.5,-8.3 -0.3,-16.6 0,-25 0.1,-3.5 0.5,-7 0.7,-10.5 0.2,-3.5 2,-6.2 4.7,-8.3 1.4,-1.1 3,-1.9 4.6,-2.6 4.8,-2.2 9.8,-3.5 14.9,-4.2 6.2,-0.9 12.3,-1.7 18.5,-2.4 6.1,-0.7 12.2,-1.4 18.3,-2.4 7.6,-1.2 15.1,-2.8 22.5,-4.9 7.3,-2.1 14.4,-4.8 21.2,-8.1 1.7,-0.8 3.4,-1.9 4.6,-3.3 0.5,-0.6 1,-1.2 1.2,-2 0.1,-0.3 -0.2,-0.7 -0.5,-0.7 -0.7,0 -1.2,0.2 -1.9,0.4 -3.9,1.1 -7.8,2.2 -11.8,3.3 -7.8,2 -15.7,3.9 -23.7,5.1 -4,0.6 -8.1,1.2 -12.1,1.7 -2.1,0.3 -4.3,0.4 -6.4,0.5 -6,0.3 -12,0.4 -18,0 -3.5,-0.2 -7,-0.6 -10.4,-1.7 -11.7,-4 -19.2,-12.1 -22.4,-24 -3.7,-13.6 -5.5,-27.6 -5.9,-41.7 -0.3,-12.6 0.3,-25.1 1.8,-37.6 0.9,-7.1 1.9,-14.1 3.1,-21.1 2.3,-12.8 5.1,-25.5 8.4,-38.2 0.6,-2.3 1.2,-4.7 1.8,-7 0.5,-1.7 0.1,-3.2 -1.1,-4.4 -0.1,-0.1 -0.2,-0.2 -0.3,-0.4 -5,-5.2 -11,-8.7 -17.8,-10.9 -0.8,-0.3 -1.5,-0.2 -2.3,0 -6.8,2.2 -12.8,5.8 -17.8,10.9 -1.4,1.4 -1.8,3 -1.4,4.8 0.4,0.4 0.5,0.8 0.6,1.2 z"
   class="st0"
   inkscape:connector-curvature="0"
   style="fill:#008f00" />

	<path
   id="path9700"
   d="m 377.1,623.3 c 1.9,-8.2 4.6,-16.1 7.6,-24 2.8,-7.3 5.7,-14.6 8.3,-22 2.6,-7.7 4.7,-15.6 5.2,-23.8 0.3,-4.8 -0.1,-9.4 -1,-14.1 -1.4,-7.3 -4.3,-14 -8.1,-20.4 -2.6,-4.5 -5.9,-8.4 -9.9,-11.7 -10.2,-8.5 -22.1,-12.7 -35.3,-13.3 -7.9,-0.4 -15.4,1.3 -22.7,4.3 -0.3,0.1 -0.6,0.2 -0.9,0.4 -1.1,0.5 -1.2,0.9 -0.3,1.7 0.4,0.3 0.8,0.5 1.2,0.9 0.4,0.4 0.4,0.8 0,1.2 -0.3,0.3 -0.6,0.5 -0.9,0.8 -3.7,3 -7.3,6 -11,8.9 -0.6,0.5 -1.1,0.9 -1.7,1.3 -3,1.9 -6.3,2.8 -9.8,2.5 -3.5,-0.3 -6.6,-1.7 -9.4,-3.9 -3.4,-2.9 -6.9,-5.7 -10.4,-8.5 -0.4,-0.3 -0.7,-0.6 -1.1,-0.9 -0.6,-0.6 -0.7,-1 0.1,-1.5 2.3,-1.4 1.9,-1.9 -0.3,-2.8 -9.2,-3.7 -18.8,-5.2 -28.7,-3.7 -7.1,1.1 -13.9,3.2 -20.2,6.6 -7.5,4.1 -13.8,9.5 -18.3,16.9 -2.1,3.5 -4,7.1 -5.5,10.9 -4.1,10 -5.1,20.4 -3.4,31.1 0.9,5.1 2.2,10.2 3.8,15.1 2.4,7.5 5.4,14.7 8.2,22 3.1,8.2 6,16.5 8.1,25.1 1.5,6 2.5,12.1 3,18.2 0.3,4.1 0.4,8.1 0.3,12.2 0,0.7 0,1.4 0.1,2.1 0,0.1 0.2,0.3 0.3,0.3 0.1,0 0.4,0 0.4,-0.1 0.4,-0.7 0.8,-1.4 1.1,-2.1 4.3,-9.6 6.6,-19.7 7.2,-30.2 0.6,-9.9 0.1,-19.8 -1.1,-29.7 -0.4,-3.5 -0.8,-7 -1.2,-10.5 -0.5,-5 -0.9,-10 -1.3,-15.1 -0.4,-5.9 -0.1,-11.7 1.3,-17.4 2,-8.5 6.8,-14.9 14.3,-19.3 3.7,-2.2 7.7,-3.8 12,-4.9 1.7,-0.4 3.4,-0.8 5.2,-0.9 3.4,-0.2 6.7,0 10,0.6 5.4,1 10.8,1.5 16.2,1.4 3.2,-0.1 6.4,-0.6 9.3,-2 0.8,-0.4 1.5,-0.4 2.3,0 3.2,1.5 6.5,2 10,2 5.2,0.1 10.4,-0.4 15.5,-1.4 3.7,-0.7 7.5,-1 11.2,-0.5 6.4,0.9 12.4,3.2 17.8,6.8 5.6,3.7 9.5,8.8 11.6,15.1 1.2,3.7 1.9,7.4 2.1,11.3 0.3,6.2 0,12.3 -0.6,18.4 -0.8,7.7 -1.8,15.4 -2.4,23.1 -0.4,4.5 -0.6,9.1 -0.8,13.6 0,3 0.2,6.1 0.3,9.1 0.4,6.4 1.4,12.7 3.1,18.9 1.1,3.9 2.5,7.8 4.2,11.5 0.3,0.7 0.7,1.3 1,1.9 0.1,0.1 0.3,0.2 0.4,0.1 0.1,0 0.3,-0.2 0.3,-0.3 0,-0.6 0.1,-1.3 0.1,-1.9 0,-3.9 0,-7.8 0.3,-11.7 0.6,-5.9 1.6,-11.8 2.9,-17.7 z"
   class="st0"
   inkscape:connector-curvature="0"
   style="fill:#008f00" />

	<path
   id="path9702"
   d="m 421.1,410.6 c -0.2,-0.4 -0.3,-0.7 -0.5,-1.1 -0.5,-0.9 -0.8,-1 -1.7,-0.7 -0.3,0.1 -0.6,0.2 -0.9,0.4 -3.9,1.6 -7.9,3.2 -11.8,4.8 -0.6,0.2 -1.2,0.5 -1.8,0.8 -0.7,0.3 -1,0.8 -1,1.5 0,1.3 0,2.6 0.3,3.8 0.8,3.3 2.3,6.3 4.3,9 5.1,6.8 11.8,11.4 20,13.8 3.6,1.1 7.3,1.6 11.3,1.5 -1.4,0.8 -2.8,0.7 -4.1,0.9 -3.1,0.5 -6.2,0.4 -9.3,0 -2.6,-0.3 -5.2,-1 -7.7,-1.8 -1,-0.3 -2,-0.5 -3.1,-0.4 -1.1,0.1 -1.6,0.8 -1.3,1.8 0.2,0.7 0.5,1.4 0.9,1.9 0.6,0.9 1.3,1.7 2,2.4 2.6,2.9 5,6 7,9.4 4.1,6.8 6.2,14.2 6.1,22.1 0,2.6 -0.3,5.1 -0.6,7.6 -0.3,1.9 -0.5,3.9 -1.3,5.9 -0.4,-0.6 -0.2,-1.2 -0.2,-1.7 0,-2.6 0.1,-5.3 0,-7.9 -0.1,-4.8 -1.1,-9.5 -2.7,-14.1 -2.4,-6.5 -6.2,-12.1 -11,-17 -3,-3.1 -5.9,-6.3 -8.4,-9.8 -0.3,-0.5 -0.6,-1.4 -1.4,-1 -0.5,0.2 -0.2,1 -0.2,1.6 0,0.2 0.1,0.3 0.1,0.5 1,6.4 1,12.7 -0.3,19.1 -0.4,2.1 -1,4.2 -1.6,6.3 -1.4,4.3 -6.3,4.5 -8.5,2.3 -0.3,-0.3 -0.6,-0.5 -0.9,-0.8 -2.4,-2.1 -2.6,-2.1 -3.2,1 -1.9,9 -4.4,17.8 -7.7,26.5 -0.3,0.7 -0.6,1.5 -0.8,2.3 -0.2,0.5 0,1 0.3,1.3 0.5,0.4 0.9,0.9 1.4,1.3 3.1,2.7 5.8,5.7 8.2,9.1 0.4,0.6 0.8,1.8 1.6,1.6 1,-0.2 0.8,-1.4 1,-2.2 0.8,-4.1 2,-8.1 3.4,-12 1.4,-3.8 3.1,-7.4 5.4,-10.7 0.2,-0.3 0.3,-0.8 1,-0.6 -0.2,0.5 -0.4,1 -0.7,1.5 -1.5,3.5 -2.7,7.2 -3.6,10.9 -1.6,6.9 -1.7,14 -1.3,21 0.1,2.2 0.6,4.4 1.4,6.5 2.2,5.6 3.3,11.5 3.7,17.5 0.4,6.2 -0.3,12.3 -1.6,18.3 -1.6,7.4 -4.1,14.5 -6.7,21.5 -2.5,6.7 -5.2,13.4 -7.6,20.2 -4.6,12.6 -7.8,25.5 -8.2,39 -0.2,5.9 0.1,11.8 1,17.7 0.6,4 1.4,8 2,12.1 0.1,0.3 0.3,0.8 -0.4,1 -0.2,-0.3 -0.5,-0.6 -0.7,-0.9 -1.5,-2.1 -2.9,-4.2 -4.4,-6.3 -10.5,-14.8 -15.4,-31.5 -16.1,-49.5 -0.4,-9 0.3,-17.9 0.6,-26.9 0.3,-7 0.4,-13.9 0.3,-20.9 0,-2.5 -0.3,-5 -0.6,-7.4 -0.2,-1.6 -0.5,-3.2 -0.9,-4.7 -0.4,-1.5 -0.9,-2.9 -1.7,-4.2 -1.6,-2.3 -3.6,-3 -6.2,-2.2 -1.3,0.4 -2.5,1.1 -3.6,1.8 -1.7,1.2 -3.3,2.6 -4.8,4 -2.2,2.2 -4.5,4.4 -6.7,6.5 -1,1 -2.1,1.9 -3.4,2.7 -2.3,1.4 -4.7,1.8 -7.4,1.1 -1.2,-0.3 -2.4,-0.8 -3.6,-1.3 -1.8,-0.8 -3.6,-1.6 -5.5,-2.4 -5,-2.2 -10.3,-3.4 -15.8,-3.6 -7,-0.3 -13.7,1.1 -20,4 -1.5,0.7 -3.1,1.4 -4.6,2.1 -1.2,0.5 -2.4,0.9 -3.6,1.3 -2.6,0.7 -5.1,0.3 -7.4,-1.1 -1.2,-0.8 -2.3,-1.7 -3.4,-2.7 -1.9,-1.8 -3.8,-3.7 -5.7,-5.5 -1.6,-1.5 -3.2,-2.9 -5,-4.1 -1.2,-0.8 -2.5,-1.4 -3.9,-1.8 -2.1,-0.6 -3.9,0 -5.4,1.6 -0.7,0.7 -1.1,1.5 -1.5,2.4 -0.6,1.4 -1.1,2.8 -1.4,4.3 -1,4.5 -1.3,9 -1.4,13.6 -0.3,10.4 0.1,20.8 0.6,31.2 0.4,8 0.1,16 -1.1,23.9 -1.7,11.5 -5.4,22.2 -11.3,32.1 -2.6,4.4 -5.7,8.5 -8.6,12.7 -0.1,0.2 -0.3,0.4 -0.7,0.3 0.1,-0.9 0.2,-1.9 0.4,-2.8 0.9,-5.4 1.9,-10.7 2.4,-16.1 0.6,-6.9 0.5,-13.7 -0.3,-20.6 -0.8,-7.2 -2.4,-14.2 -4.5,-21.1 -2.2,-7.3 -4.9,-14.4 -7.6,-21.5 -2.7,-7.1 -5.5,-14.1 -7.7,-21.4 -2.1,-7.1 -3.6,-14.2 -3.8,-21.7 -0.1,-6.9 0.7,-13.7 3,-20.3 1.1,-3.1 1.6,-6.3 1.9,-9.6 0.7,-11.1 -0.7,-21.9 -5.4,-32.1 -0.1,-0.3 -0.5,-0.6 -0.1,-1 2.2,2.9 3.9,6.1 5.3,9.4 2.1,5 3.6,10.1 4.6,15.4 0.1,0.6 0.1,1.5 0.7,1.7 0.9,0.3 1.1,-0.7 1.5,-1.3 2.4,-3.6 5.3,-6.8 8.6,-9.7 2.4,-2.1 2.4,-1.7 1.2,-4.8 -3.2,-8.5 -5.7,-17.1 -7.6,-26 -0.1,-0.7 -0.3,-1.4 -0.5,-2.1 -0.3,-1.2 -0.8,-1.4 -1.8,-0.5 -0.7,0.6 -1.5,1.3 -2.2,1.9 -2.2,1.9 -6.6,1.8 -8.2,-2.1 -0.2,-0.5 -0.4,-1 -0.5,-1.6 -1.2,-4.2 -2,-8.5 -2.1,-13 -0.1,-4 0.1,-8 0.7,-12 0.1,-0.4 0,-0.8 0,-1.2 0,-0.1 -0.1,-0.2 -0.1,-0.2 -0.1,0 -0.4,-0.1 -0.4,0 -0.4,0.4 -0.8,0.8 -1.1,1.2 -2.3,3.2 -5,6.3 -7.8,9.1 -0.7,0.7 -1.4,1.5 -2.1,2.3 -9.5,10.5 -13.2,23 -12.1,37 0.1,0.8 0.1,1.6 0.2,2.4 -0.4,-0.2 -0.5,-0.5 -0.6,-0.8 -1,-4.5 -1.7,-8.9 -1.7,-13.5 0,-7.6 2,-14.7 5.8,-21.3 2.1,-3.5 4.5,-6.8 7.3,-9.8 0.8,-0.9 1.5,-1.8 2.2,-2.8 0.4,-0.6 0.7,-1.2 0.8,-2 0,-0.8 -0.4,-1.4 -1.2,-1.5 -1.2,-0.2 -2.4,0.1 -3.5,0.5 -4.6,1.5 -9.3,2.2 -14.2,1.9 -2.1,-0.1 -4.3,-0.3 -6.3,-1.1 1.8,-0.1 3.7,-0.2 5.5,-0.5 6.5,-0.8 12.3,-3.2 17.6,-7.1 4.2,-3.1 7.6,-6.8 10.1,-11.4 1.2,-2.3 2.1,-4.7 2.4,-7.2 0.4,-3.3 0,-3.2 -2.4,-4.1 -4,-1.6 -8,-3.2 -12,-4.9 -2.2,-0.9 -2.2,-0.9 -3.3,1.2 0,0.1 -0.1,0.1 -0.1,0.2 -4,7.8 -9.8,13.8 -17.4,18.1 -10,5.7 -20.8,7.9 -32.3,6.9 -5,-0.5 -9.9,-1.5 -14.7,-3.1 -0.5,-0.2 -0.9,-0.3 -1.4,-0.4 -0.6,-0.1 -1,0.2 -0.8,0.8 0.3,0.7 0.6,1.3 0.9,2 2,3.7 4.6,6.9 7.7,9.8 2.5,2.4 5.3,4.6 8.1,6.7 2.6,2 5.3,3.9 7.8,5.9 1.3,1 2.6,2.1 3.7,3.4 5.6,6.2 4.6,15.5 -2.2,20.2 -1.3,0.9 -2.7,1.6 -4.3,2.2 -3.9,1.4 -7.9,1.3 -11.8,0.7 -4.7,-0.7 -9.1,-2.5 -13.3,-4.6 -0.6,-0.3 -1.3,-0.6 -1.9,-0.9 -0.1,-0.1 -0.3,-0.1 -0.5,0 -0.2,0.1 -0.3,0.4 -0.2,0.6 0.5,1.4 1.2,2.6 2,3.8 2.4,3.9 5.3,7.4 8.6,10.6 1.4,1.4 2.9,2.8 4,4.4 6.3,8.9 8.1,18.8 5.6,29.4 -1.2,5.2 -3.7,9.9 -7.1,14 -2.3,2.8 -4.8,5.6 -7.1,8.5 -3.6,4.3 -6.9,8.8 -9.8,13.6 -5.9,10 -8,20.8 -6.4,32.3 0.1,0.8 0.2,1.6 0.7,2.2 0.6,-0.3 0.6,-0.8 0.8,-1.2 0.4,-1.4 0.8,-2.8 1.3,-4.1 1.3,-3.5 3.2,-6.6 6.1,-9.1 3.2,-2.8 6.9,-4.2 11.2,-4 6.8,0.3 13,5.3 14.5,11.9 0.6,2.6 0.3,5.1 -0.2,7.6 -1,4.1 -1.8,8.3 -2.4,12.5 -0.8,5.6 -1,11.3 -0.4,17 0.9,8 3.5,15.4 7.7,22.2 0.5,0.9 0.9,1.9 1.9,2.3 1.1,-0.8 0.6,-2 0.7,-3.1 0.3,-3.2 0.8,-6.3 2,-9.3 1.1,-2.9 2.7,-5.4 5.1,-7.5 2.1,-1.8 4.4,-2.9 7.1,-3.2 5.1,-0.5 9.4,1.2 12.9,5 1.4,1.6 2.7,3.4 3.8,5.2 3,4.9 4.9,10.2 6.3,15.7 1.9,7.4 3,14.9 4.3,22.4 1.2,6.8 2.5,13.5 4.4,20.1 5.1,18.3 14.8,33.7 29.3,46.1 0.5,0.4 1.1,1.4 1.7,1 0.9,-0.4 0.3,-1.4 0.2,-2.2 -1.1,-5.6 -1.5,-11.2 -1.3,-16.9 0.1,-2.6 0.5,-5.1 1.1,-7.6 0.9,-3.6 2.5,-6.9 5.2,-9.6 2.5,-2.4 5.5,-3.8 9,-4.1 4.3,-0.4 8.4,0.5 12.4,2.2 3.7,1.6 7.1,3.7 10.3,6.1 4.7,3.5 8.9,7.5 12.9,11.9 6,6.6 11.2,13.8 15.8,21.4 7.9,12.9 14,26.6 19,40.8 0.2,0.7 0.5,1.4 0.8,2 0.1,0.2 0.3,0.4 0.5,0.4 0.2,0.1 0.4,-0.1 0.5,-0.4 0.3,-0.7 0.6,-1.5 0.9,-2.2 2.4,-6.9 5.1,-13.6 8.3,-20.2 6.3,-13.3 13.9,-25.8 23.5,-36.9 5.2,-6.1 10.9,-11.7 17.5,-16.3 4,-2.8 8.2,-5.3 12.8,-7 3.8,-1.4 7.7,-2.1 11.8,-1.8 5.6,0.4 9.9,3 13,7.6 1.3,1.9 2.2,3.9 2.8,6.1 0.9,3.1 1.4,6.2 1.5,9.5 0.2,5.3 -0.3,10.5 -1.3,15.8 -0.1,0.5 -0.4,1.2 0.2,1.5 0.5,0.2 0.9,-0.3 1.2,-0.5 0.1,-0.1 0.2,-0.2 0.4,-0.3 10,-8.6 17.7,-18.8 22.7,-31.1 3.5,-8.7 5.5,-17.7 6.6,-26.9 0.9,-7.2 1.6,-14.5 2.4,-21.7 0.5,-4.5 1.3,-9 2.5,-13.4 1.4,-5 3.4,-9.8 6.5,-14.1 1,-1.4 2.1,-2.8 3.5,-4 5.5,-4.7 14.2,-5.1 19.7,0.8 1.5,1.7 2.7,3.6 3.6,5.6 1,2.4 1.6,4.8 1.9,7.4 0.2,1.7 0.3,3.5 0.5,5.2 0,0.2 0.1,0.5 0.4,0.5 0.2,0 0.5,-0.1 0.6,-0.2 0.3,-0.3 0.5,-0.6 0.7,-1 4.7,-7.2 7.5,-15 8.5,-23.5 0.7,-6.3 0.3,-12.6 -0.7,-18.9 -0.6,-3.9 -1.5,-7.7 -2.3,-11.5 -0.5,-2.1 -0.5,-4.2 -0.1,-6.2 1.6,-8.1 9.7,-14 18.6,-12.1 4.2,0.9 7.4,3.3 10,6.7 1.9,2.5 3.2,5.4 4.1,8.4 0.2,0.7 0.4,1.4 0.6,2.1 0.1,0.3 0.2,0.6 0.6,0.7 0.5,0.1 0.5,-0.3 0.6,-0.6 0.4,-2 0.5,-4 0.6,-6 0.5,-7.2 -0.7,-14.2 -3.5,-20.9 -2.2,-5.3 -5.2,-10.1 -8.6,-14.6 -3.4,-4.6 -7.2,-9 -10.9,-13.4 -7.3,-8.6 -10.1,-18.5 -8.3,-29.7 1,-6.1 3.5,-11.6 7.6,-16.3 0.9,-1.1 2,-2.1 3,-3.1 3.4,-3.4 6.4,-7.1 8.8,-11.3 0.4,-0.8 0.8,-1.6 1.2,-2.4 0.1,-0.3 0.2,-0.7 -0.1,-0.8 -0.2,-0.1 -0.5,-0.1 -0.7,0 -1.7,0.8 -3.4,1.7 -5.2,2.5 -5.3,2.4 -10.9,3.7 -16.8,3.2 -3.7,-0.3 -7,-1.5 -9.9,-3.8 -3,-2.4 -4.7,-5.6 -4.9,-9.5 -0.2,-4.4 1.3,-8 4.4,-11 1.6,-1.5 3.2,-2.9 4.9,-4.3 3,-2.5 6,-5 8.8,-7.8 3.7,-3.7 6.8,-7.8 9,-12.6 0.3,-0.7 0.6,-1.5 0.9,-2.2 0.2,-0.6 -0.2,-0.9 -0.8,-0.7 -0.4,0.1 -0.8,0.2 -1.1,0.3 -4.8,1.7 -9.6,2.8 -14.7,3.3 -5.2,0.6 -10.2,0.2 -15.2,-0.9 -14.6,-2.7 -24.9,-10.8 -31.4,-23.6 z"
   class="st0"
   inkscape:connector-curvature="0"
   style="fill:#008f00" />

	<path
   id="path9704"
   d="m 507.8,265 c -3.7,-9.6 -8.5,-18.6 -13.9,-27.3 -6.7,-10.7 -14.2,-20.9 -22.1,-30.8 -9.3,-11.6 -19,-22.9 -28.5,-34.3 -8.6,-10.3 -17.1,-20.7 -24.9,-31.7 -6.9,-9.7 -13.3,-19.7 -18.6,-30.5 C 394.1,99 390,87 388.2,74.3 c -0.1,-0.9 -0.1,-1.9 -0.6,-2.8 -0.8,1 -0.8,1 -0.9,1.9 -0.9,5.1 -1.4,10.3 -1.6,15.5 -0.4,10.3 0.7,20.4 2.8,30.5 2.5,11.5 6.3,22.6 11,33.4 5,11.6 10.8,22.8 17.1,33.8 5.8,10.2 11.7,20.4 17.5,30.6 5.1,9 9.9,18.1 13.9,27.6 4,9.6 7.1,19.4 7.8,29.8 0.3,4.8 0,9.6 -1,14.3 -1.7,7.6 -5.8,13.8 -11.9,18.7 -0.6,0.5 -1.3,1 -1.9,1.5 -0.4,0.3 -0.5,0.8 -0.3,1.3 0.2,0.5 0.5,1 0.7,1.5 1.5,3 2.9,6.1 4.1,9.2 2.9,7.2 5,14.7 6.3,22.3 1,6 4.3,10.4 9.6,13.4 3.9,2.2 8.1,2.9 12.5,2.8 6,-0.2 11.7,-1.9 16.9,-5 12.1,-7.1 19.6,-17.6 23.2,-31 1.3,-5 1.7,-10.1 2,-15.2 0.4,-6.2 0,-12.3 -0.8,-18.4 -1.3,-8.6 -3.7,-16.9 -6.8,-25 z"
   class="st0"
   inkscape:connector-curvature="0"
   style="fill:#008f00" />

	<path
   id="path9706"
   d="m 435.9,313.1 c -0.7,-1.4 -1.6,-2.6 -2.6,-3.8 -1.7,-1.9 -3.7,-3.3 -6.1,-4.1 -1.8,-0.6 -4.1,0.2 -5.3,1.8 -0.8,1.1 -1.3,2.2 -1.6,3.5 -0.6,2.2 -0.9,4.4 -1,6.6 -0.1,2.3 0.3,4.5 0.4,6.7 0.3,3.9 0.4,7.8 0.7,11.7 0.4,5.4 0.2,10.9 0.2,16.3 -0.6,-5.3 -1.1,-10.5 -2,-15.7 -1.4,-8.7 -3.8,-17.2 -7.3,-25.3 -4.6,-10.7 -10.9,-20.5 -17.9,-29.7 -0.3,-0.4 -0.7,-0.9 -1.1,-1.3 -5.3,-5.8 -10.9,-11.2 -17.1,-16.2 -5.6,-4.5 -11.4,-8.8 -17.8,-12.2 -3,-1.7 -6.2,-3 -9.5,-4 -3.1,-0.9 -6.3,-1.1 -9.5,-0.6 -3.6,0.5 -6.7,2.1 -9.4,4.4 -2.7,2.2 -4.8,4.9 -6.6,7.8 -2.3,3.8 -4,7.8 -5.4,12 -1.9,5.7 -2.8,11.7 -3.8,17.6 -1.3,7.6 -2.3,15.2 -3,22.8 -0.6,6.5 -1,12.9 -1.2,19.4 -0.2,7.6 0.1,15.2 0.8,22.8 0.6,6.9 1.6,13.8 3,20.6 0.8,3.7 1.4,7.4 2.8,10.9 4,10.3 11.3,16.9 22.3,18.9 3.2,0.6 6.5,0.9 9.8,0.9 4.7,0 9.4,0 14.1,-0.4 3.7,-0.3 7.5,-0.7 11.2,-1.2 6.8,-0.9 13.6,-2.2 20.3,-3.8 3.5,-0.8 7,-1.6 10.4,-2.8 6.2,-2.2 10.7,-6.3 13.3,-12.3 1.4,-3.2 2.3,-6.6 3,-10.1 0.2,-0.9 0.3,-1.7 0.5,-2.6 0.2,0.4 0.2,0.8 0.2,1.2 0,3.8 0,7.7 -0.1,11.5 -0.1,3 0.4,5.9 1.6,8.6 1.5,3.4 3.9,5.5 7.5,6.6 3.9,1.2 7.3,0.3 10,-2.8 1.2,-1.4 2.1,-3 2.9,-4.7 1.5,-3.1 2.5,-6.4 3.2,-9.8 1.1,-5.3 1.7,-10.7 2,-16.2 0.3,-6.6 0,-13.1 -1,-19.6 -1.7,-11.6 -5.5,-22.8 -10.9,-33.4 z"
   class="st0"
   inkscape:connector-curvature="0"
   style="fill:#008f00" />

	<path
   id="path9708"
   d="m 175.6,394.1 c 1.3,-2.8 2.2,-5.7 2.1,-8.8 -0.1,-3.6 -0.1,-7.2 -0.2,-10.8 0,-0.8 0.1,-1.5 0.1,-2.3 0.1,0 0.2,0 0.2,0 0.2,0.9 0.4,1.9 0.5,2.8 0.6,3.1 1.4,6.1 2.6,9 2.7,6.3 7.2,10.7 13.7,12.9 2.1,0.7 4.3,1.4 6.4,1.9 9.9,2.4 20,4.4 30.2,5.4 4.1,0.4 8.1,0.9 12.2,0.9 4.4,0 8.8,0.1 13.2,-0.4 1.9,-0.2 3.8,-0.4 5.7,-0.9 10.8,-3 17.6,-10 20.9,-20.6 1.5,-5 2.5,-10.1 3.4,-15.2 1,-5.8 1.7,-11.5 2.1,-17.4 0.4,-5.7 0.6,-11.3 0.5,-17 -0.1,-4.9 -0.2,-9.8 -0.6,-14.6 -0.4,-5.7 -1,-11.3 -1.7,-16.9 -0.9,-6.9 -2,-13.8 -3.2,-20.6 -0.9,-4.8 -2.1,-9.5 -3.9,-14.1 -1.4,-3.6 -3.1,-7 -5.3,-10.2 -1.8,-2.5 -3.8,-4.7 -6.3,-6.6 -4.8,-3.6 -10.1,-4.5 -15.9,-3.5 -4.1,0.7 -7.8,2.3 -11.4,4.3 -3.3,1.8 -6.5,3.8 -9.6,5.9 -4.6,3.2 -9,6.7 -13.2,10.4 -7.3,6.5 -14.3,13.3 -19.5,21.7 -0.8,1.2 -1.6,2.4 -2.4,3.6 -4.4,6.8 -8.2,13.9 -11.1,21.5 -3.7,9.5 -5.8,19.3 -6.9,29.3 -0.2,1.4 -0.3,2.9 -0.5,4.3 0,0 -0.1,0.1 -0.2,0.1 -0.3,-0.2 -0.3,-0.6 -0.2,-0.9 0.1,-5.6 0.2,-11.2 0.4,-16.8 0.1,-2.3 0.2,-4.6 0.5,-6.9 0.3,-2.8 0.4,-5.6 0.3,-8.4 -0.1,-1.9 -0.5,-3.6 -1,-5.4 -0.4,-1.1 -0.9,-2.2 -1.7,-3.1 -1.4,-1.5 -3,-2.1 -5,-1.5 -1,0.3 -1.9,0.7 -2.8,1.3 -2.4,1.5 -4.3,3.6 -5.6,6.1 -2.3,4.5 -4.3,9.1 -6.1,13.8 -3.2,8.8 -5.2,18 -5.9,27.3 -0.6,8.9 -0.2,17.7 1.4,26.5 0.8,4.3 2,8.4 3.9,12.3 0.9,1.8 1.9,3.5 3.4,4.9 1.3,1.3 2.9,2.3 4.8,2.6 4.1,0.7 9.6,-1.4 11.7,-5.9 z"
   class="st0"
   inkscape:connector-curvature="0"
   style="fill:#008f00" />

	<path
   id="path9710"
   d="m 158.2,310.5 c 0.2,-0.5 0.1,-0.9 -0.3,-1.3 -0.6,-0.5 -1.1,-0.9 -1.7,-1.3 -6.1,-4.9 -10.3,-11.1 -12.1,-18.8 -1.3,-5.3 -1.3,-10.6 -0.9,-16 0.6,-6.4 2.1,-12.6 4.1,-18.7 2.9,-8.6 6.7,-16.8 10.8,-24.8 5,-9.7 10.5,-19.2 16,-28.7 6.6,-11.5 13.2,-23 19.1,-34.9 5.7,-11.6 10.8,-23.6 14.4,-36 3.5,-12 5.5,-24.3 5.5,-37.9 0.1,-3 -0.2,-7 -0.6,-10.9 -0.3,-2.9 -0.6,-5.7 -1.3,-8.5 -0.1,-0.3 0,-0.9 -0.6,-0.8 -0.2,0 -0.4,0.5 -0.5,0.8 -0.1,0.3 -0.1,0.6 -0.2,0.9 -0.8,6.5 -2.3,12.7 -4.3,18.9 -3.5,11 -8.5,21.2 -14.4,31.1 -6.7,11.3 -14.5,21.9 -22.6,32.2 -9,11.4 -18.4,22.4 -27.7,33.5 -9,10.7 -17.9,21.5 -26.1,32.8 -7.1,9.7 -13.6,19.8 -19,30.5 -6.9,13.7 -11.7,28 -12.9,43.4 -0.7,8.8 -0.4,17.5 1.5,26 2.5,11.4 8.3,20.9 17.3,28.4 6.6,5.4 14,8.8 22.7,9.4 4.3,0.3 8.5,-0.3 12.3,-2.3 5.5,-2.8 9,-7.2 10.1,-13.4 0.2,-1.1 0.4,-2.2 0.6,-3.3 2,-9.8 5.2,-19.1 9.7,-28 0.5,-1 0.8,-1.6 1.1,-2.3 z"
   class="st0"
   inkscape:connector-curvature="0"
   style="fill:#008f00" />

</g>
  <text
     xml:space="preserve"
     style="font-style:normal;font-weight:normal;font-size:40px;line-height:1.25;font-family:sans-serif;letter-spacing:0px;word-spacing:0px;fill:#000000;fill-opacity:1;stroke:none"
     x="76.82196"
     y="69.923019"
     id="text9737"><tspan
       sodipodi:role="line"
       id="tspan9735"
       x="76.82196"
       y="69.923019">x</tspan></text>
  <path
     style="opacity:0.95;fill:#b93d4c;fill-opacity:0.95294118;stroke-width:0.12976682"
     d="m 583.48761,48.248853 c -0.73493,-0.225232 -1.18648,-0.633887 -1.53033,-1.384959 -0.26908,-0.587741 -0.31259,-0.838602 -0.25521,-1.471427 0.19152,-2.112121 2.08615,-4.212347 4.04181,-4.480399 1.9051,-0.261124 3.60543,1.577344 3.62751,3.922236 0.0153,1.624044 -0.71537,2.574888 -2.44268,3.178756 -0.89637,0.313371 -2.76922,0.441703 -3.4411,0.235793 z"
     id="path9920"
     inkscape:connector-curvature="0" />
  <path
     style="opacity:0.95;fill:#b93d4c;fill-opacity:0.95294118;stroke-width:0.12976682"
     d="m 584.13169,51.578515 c -2.79701,-0.370973 -4.61897,-2.066129 -5.2027,-4.840619 -0.35908,-1.706697 0.006,-3.659551 0.95959,-5.135193 0.59958,-0.927663 1.78192,-2.023599 2.90072,-2.688735 2.69961,-1.604946 4.79022,-1.246075 7.30928,1.2547 1.36944,1.359504 2.01315,2.482592 2.34646,4.093939 0.38015,1.837705 -0.18472,3.686523 -1.59014,5.204536 -1.47182,1.589751 -4.19892,2.446173 -6.72321,2.111372 z m 4.00341,-2.485602 c 1.14771,-0.565016 1.7135,-1.355578 2.27566,-3.179729 0.32831,-1.065331 0.35097,-2.023715 0.0622,-2.632201 -0.28097,-0.592108 -1.7705,-1.937927 -2.86653,-2.589971 -1.77485,-1.055878 -2.62418,-1.197329 -3.7677,-0.62749 -0.91826,0.457588 -2.04049,1.705727 -2.61471,2.908066 -0.43965,0.920547 -0.46619,1.050453 -0.46456,2.273989 10e-4,1.119513 0.0475,1.395763 0.33519,2.012176 0.81578,1.74795 2.0555,2.362176 4.62203,2.290005 1.47079,-0.04136 1.64508,-0.07414 2.4184,-0.454845 z"
     id="path9922"
     inkscape:connector-curvature="0" />
</svg>
