<?xml version="1.0" encoding="UTF-8" standalone="no"?><!DOCTYPE svg PUBLIC "-//W3C//DTD SVG 1.1//EN" "http://www.w3.org/Graphics/SVG/1.1/DTD/svg11.dtd"><svg width="100%" height="100%" viewBox="0 0 800 800" version="1.1" xmlns="http://www.w3.org/2000/svg" xmlns:xlink="http://www.w3.org/1999/xlink" xml:space="preserve" xmlns:serif="http://www.serif.com/" style="fill-rule:evenodd;clip-rule:evenodd;stroke-linejoin:round;stroke-miterlimit:2;"><g><path d="M275.52,690.49l0,-4.35c-7.369,0 -10.376,0.346 -15.365,0.346c-5.323,0 -8.88,-0.346 -15.366,-0.346l-34.582,84.057l-34.941,-84.057c-6.525,0 -9.045,0.346 -15.711,0.346c-6.704,0 -9.877,-0.346 -15.698,-0.346l0,4.35l7.024,0.179c6.141,0.141 6.998,0.499 6.998,4.35l0,102.916l5.348,0l0,-97.926l38.28,91.913l4.989,0l38.293,-91.913l0,80.884c0,14.701 4.67,18.577 14.867,18.577l1.816,0l0,-104.451c0,-4.209 1.382,-4.209 7.024,-4.35l7.024,-0.179Z" style="fill:#fff;fill-rule:nonzero;"/><path d="M314.026,799.24l0,-75.895c0,-1.343 -0.319,-1.676 -1.97,-1.676c-1.522,0 -14.048,0.986 -25.217,0.986l0,4.017l9.519,0.179c1.996,0 2.52,0.819 2.52,2.815l0,53.581c0,9.519 3.455,15.993 12.347,15.993l2.801,0Z" style="fill:#fff;fill-rule:nonzero;"/><path d="M555.665,799.39l0,-57.548c0,-12.666 -10.069,-22.044 -24.884,-22.044c-12.155,0 -21.021,6.32 -25.345,16.517l0,-12.82c0,-1.369 -0.346,-1.676 -2.047,-1.676c-1.472,0 -13.997,0.985 -25.166,0.985l0,4.018l9.519,0.179c1.983,0 2.482,0.793 2.482,2.814l0,68.078l15.212,0l0,-46.059c0,-13.012 8.674,-25.332 20.662,-25.332c8.508,0 14.355,5.169 14.355,17.336l0,39.533c0,9.519 3.493,16.019 12.334,16.019l2.878,0Z" style="fill:#fff;fill-rule:nonzero;"/><path d="M365.928,783.247l0,-96.275c0,-1.356 -0.32,-1.65 -1.97,-1.65c-1.523,0 -14.048,0.997 -25.217,0.997l0,3.967l9.519,0.179c1.995,0 2.494,0.844 2.494,2.853l0,105.922l2.828,0c8.853,0 12.346,-6.474 12.346,-15.993" style="fill:#fff;fill-rule:nonzero;"/><path d="M455.886,799.24c0,-3.646 -0.998,-11.489 -0.998,-15.993l0,-44.05c0,-12.525 -11.822,-19.549 -26.51,-19.549c-19.37,0 -31.396,10.875 -31.396,15.698c0,4.824 2.827,6.346 6.678,6.346c10.99,0 6.845,-17.694 22.684,-17.694c8.675,0 13.703,4.503 13.703,13.191l0,14.022c0,2.303 -0.179,2.469 -2.534,2.469l-4.618,0.205c-23.541,0.832 -41.581,11.195 -41.581,25.166c0,13.869 9.544,20.688 29.708,20.688c10.504,0 17.528,-7.344 19.165,-13.524c0.858,10.031 5.847,13.025 13.229,13.025l2.47,0Zm-15.839,-27.188c0,11.016 -6.871,23.183 -17.375,23.183c-9.493,0 -14.841,-4.49 -14.841,-16.338c0,-11.348 8.994,-20.01 26.036,-20.867l3.646,-0.166c2.355,-0.179 2.534,0.166 2.534,2.52l0,11.668Z" style="fill:#fff;"/><path d="M656.143,758.708c0,-20.688 -15.672,-39.06 -38.228,-39.06c-21.814,0 -38.19,18.372 -38.19,39.06c0,23.362 15.327,41.031 38.19,41.031c22.888,0 38.228,-17.669 38.228,-41.031m-17.195,0c0,22.863 -3.646,36.514 -21.033,36.514c-17.17,0 -20.995,-13.651 -20.995,-36.514c0,-19.012 3.326,-34.531 20.995,-34.531c18.385,0 21.033,15.519 21.033,34.531" style="fill:#fff;"/><path d="M629.93,652.583l0,-51.88c0,-0.64 -0.179,-0.793 -0.973,-0.793c-0.652,0 -6.448,0.473 -11.617,0.473l0,1.868l4.414,0.051c0.909,0 1.152,0.41 1.152,1.331l0,18.359c-1.024,-2.699 -4.273,-6.269 -10.146,-6.269c-9.787,0 -17.195,8.598 -17.195,18.117c0,10.849 5.949,18.948 16.67,18.948c5.553,0 9.327,-2.751 11.029,-7.702c0,4.618 1.574,7.497 5.693,7.497l0.973,0Zm-6.973,-18.743c0,9.697 -3.224,16.414 -9.724,16.414c-7.612,0 -9.736,-6.947 -9.736,-16.414c0,-8.739 1.791,-15.545 9.736,-15.545c7.255,0 9.724,7.727 9.724,15.545" style="fill:#fff;"/><path d="M651.52,652.583l0,-35.133c0,-0.627 -0.128,-0.806 -0.896,-0.806c-0.704,0 -6.474,0.486 -11.668,0.486l0,1.868l4.363,0.052c0.934,0 1.177,0.396 1.177,1.343l0,24.769c0,4.401 1.625,7.421 5.719,7.421l1.305,0Z" style="fill:#fff;"/><path d="M203.929,643.113l0,-5.425c-5.425,7.28 -14.368,12.794 -24.911,12.794c-15.647,0 -20.969,-10.171 -20.969,-36.476c0,-22.325 5.194,-34.569 21.788,-34.569c12.193,0 20.241,7.049 21.149,17.668l2.943,0c0,-2.341 -0.231,-5.77 -0.231,-8.367c0,-2.943 0.231,-5.642 0.231,-8.367c-2.623,0 -12.475,-4.325 -24.092,-4.325c-18.27,0 -34.48,13.741 -34.48,37.96c0,27.213 14.611,40.327 33.661,40.327c9.839,0 19.038,-3.979 24.911,-11.22" style="fill:#fff;fill-rule:nonzero;"/><path d="M268.698,626.47c0,-14.048 -10.644,-26.535 -25.959,-26.535c-14.841,0 -25.972,12.487 -25.972,26.535c0,15.865 10.453,27.866 25.972,27.866c15.545,0 25.959,-12.001 25.959,-27.866m-11.668,0c0,15.519 -2.495,24.808 -14.291,24.808c-11.693,0 -14.278,-9.289 -14.278,-24.808c0,-12.922 2.277,-23.439 14.278,-23.439c12.462,0 14.291,10.517 14.291,23.439" style="fill:#fff;"/><path d="M364.078,654.008l0,-39.111c0,-8.598 -6.371,-14.969 -16.172,-14.969c-8.073,0 -14.137,5.028 -16.785,11.22c-0.896,-3.8 -5.08,-11.22 -15.967,-11.22c-7.549,0 -13.6,4.324 -16.543,11.22l0,-8.687c0,-0.909 -0.23,-1.126 -1.356,-1.126c-1.049,0 -9.519,0.652 -17.119,0.652l0,2.713l6.474,0.128c1.331,0 1.676,0.55 1.676,1.932l0,46.25l10.325,0l0,-31.269c0,-8.866 6.243,-17.259 13.37,-17.259c5.693,0 9.071,3.519 9.071,11.771l0,26.855c0,6.473 2.392,10.9 8.393,10.9l1.919,0l0,-32.267c0,-8.738 6.102,-17.259 13.395,-17.259c5.655,0 9.045,3.519 9.045,11.771l0,26.855c0,6.473 2.38,10.9 8.381,10.9l1.893,0Z" style="fill:#fff;fill-rule:nonzero;"/><path d="M431.097,654.008l0,-52.021l-10.325,0l0,30.604c0,8.853 -5.667,17.221 -13.715,17.221c-5.642,0 -9.416,-3.506 -9.416,-11.771l0,-35.58c0,-0.909 -0.231,-1.126 -1.382,-1.126c-0.972,0 -9.493,0.652 -17.067,0.652l0,2.713l6.448,0.128c1.382,0 1.702,0.55 1.702,1.932l0,32.65c0,8.572 6.576,14.918 16.542,14.918c8.176,0 13.971,-4.273 16.888,-11.22c0,6.473 2.38,10.9 8.381,10.9l1.944,0Z" style="fill:#fff;fill-rule:nonzero;"/><path d="M498.716,654.008l0,-39.111c0,-8.598 -6.768,-14.969 -16.837,-14.969c-8.329,0 -14.303,4.324 -17.246,11.22l0,-8.687c0,-0.909 -0.256,-1.126 -1.356,-1.126c-1.024,0 -9.545,0.652 -17.08,0.652l0,2.713l6.435,0.128c1.356,0 1.676,0.55 1.676,1.932l0,46.25l10.325,0l0,-31.269c0,-8.866 5.872,-17.259 14.048,-17.259c5.796,0 9.762,3.519 9.762,11.771l0,26.855c0,6.473 2.354,10.9 8.354,10.9l1.919,0Z" style="fill:#fff;fill-rule:nonzero;"/><path d="M563.935,624.771c0,-12.218 -9.339,-24.833 -22.786,-24.833c-13.05,0 -23.912,12.244 -23.912,26.535c0,16.095 8.495,27.865 24.68,27.865c10.529,0 17.016,-4.529 20.163,-8.354l0,-4.875c-4.989,6.679 -11.694,9.979 -19.434,9.979c-10.824,0 -13.971,-8.853 -13.971,-21.698c0,-1.689 0.23,-1.894 1.932,-1.894l31.704,0c1.023,0 1.624,-0.575 1.624,-2.725m-11.489,-2.252c0,1.676 0,1.907 -1.676,1.907l-20.163,0c-1.702,0 -1.702,0 -1.702,-1.676c0,-11.118 3.723,-19.716 12.244,-19.716c8.163,0 11.297,8.687 11.297,19.485" style="fill:#fff;"/><path d="M251.519,89.72c8.06,12.397 5.053,31.358 -2.828,42.911c-3.403,4.798 -6.998,9.762 -11.77,13.293c-7.971,7.817 -17.119,15.634 -21.315,26.087c-0.077,0.09 -0.371,0.294 -0.576,0.09l-0.179,-0.295c2.316,-9.569 5.156,-18.96 9.237,-27.865c3.89,-10.811 11.86,-18.935 17.106,-28.71c0.793,-2.072 1.957,-4.196 1.266,-6.55c-0.281,-0.397 -0.767,-0.397 -1.266,-0.397c-3.992,2.623 -6.704,7.318 -9.724,10.849c-4.657,6.845 -9.621,13.792 -13.229,21.315l0.103,0.371l-0.384,0.103c-4.005,8.316 -7.395,17.016 -9.826,26.01c-0.294,0.371 0.192,1.356 -0.486,1.356c-0.781,-7.523 -4.376,-13.869 -5.361,-21.289c3.608,-16.62 11.771,-32.766 26.074,-42.438c6.513,-4.875 13.14,-11.412 16.441,-18.667c0.575,-0.767 1.727,-0.767 2.712,-0.678c1.958,0.985 2.815,2.828 4.005,4.504" style="fill:#fff;fill-rule:nonzero;"/><path d="M197.818,119.906c0.87,1.369 -0.281,2.853 -0.205,4.299c-4.938,13.69 -2.52,30.309 2.06,43.41c2.521,9.762 3.007,21.405 0.768,31.461c-0.269,0.294 -0.768,-0.077 -0.857,-0.486c-0.896,-1.651 -2.047,-3.122 -2.738,-4.965c-6.308,-10.171 -10.99,-21.123 -12.449,-33.341c-0.691,-5.297 0.883,-10.465 -0.089,-15.545c-0.09,-0.499 -0.499,-0.972 -0.87,-1.266c-1.766,-0.307 -1.945,1.765 -2.815,2.725c-6.333,18.385 2.034,36.348 10.683,51.227c2.034,3.813 4.375,7.421 5.732,11.643c4.964,11.323 8.482,24.04 6.908,37.525c0,2.533 -0.972,4.798 -1.548,7.126l-0.204,0c-2.214,-4.9 -5.156,-10.069 -9.813,-12.999l-2.137,-0.87c-0.397,-6.473 -1.957,-12.32 -3.697,-18.193c-3.327,-12.896 -11.387,-23.067 -15.66,-35.58c-0.397,-0.205 -0.397,-0.576 -0.397,-1.075c-3.608,-9.467 -5.361,-20.521 -3.314,-31.243c2.725,-13.817 10.696,-25.933 23.068,-33.252c2.137,-0.703 5.642,-3.428 7.574,-0.601" style="fill:#fff;fill-rule:nonzero;"/><path d="M258.503,146.992c5.45,16.223 0.704,34.007 -8.265,46.903c-6.704,10.85 -18.475,17.221 -27.034,26.586c-4.376,4.504 -8.662,8.88 -11.566,14.176c-0.588,-0.499 -0.102,-1.855 -0.384,-2.827c-0.102,-4.299 -1.369,-8.124 -2.239,-12.116c1.241,-1.177 1.843,-2.649 2.828,-3.928c8.636,-11.617 21.967,-18.666 29.452,-30.987c3.505,-5.374 6.73,-10.747 7.689,-17.195c-0.294,-0.973 0.192,-2.239 -0.959,-2.751c-2.06,0.128 -3.045,2.277 -4.184,3.633c-5.463,11.144 -14.406,20.343 -23.644,28.16c-5.066,4.9 -10.222,9.25 -13.715,15.34l-0.294,0c-0.294,-1.868 0.294,-3.825 0.205,-5.668c2.917,-21.212 17.886,-38.51 34.032,-50.434c4.657,-4.196 8.751,-8.892 10.696,-14.764c0.499,-0.576 0.857,-1.279 1.752,-1.177c3.404,0.384 4.376,4.299 5.63,7.049" style="fill:#fff;fill-rule:nonzero;"/><path d="M165.833,192.322c0.678,0.998 1.049,2.379 1.049,3.544c0.806,10.555 4.005,20.125 7.792,29.311c0.396,0.576 0.678,1.177 0.882,1.855c4.76,9.57 11.195,18.091 14.573,28.262c1.075,2.418 1.663,4.977 2.546,7.421c1.254,4.977 3.006,9.864 3.006,15.237l-0.281,0c-7.305,-8.597 -17.336,-14.866 -22.671,-24.539c-4.785,-7.42 -7.971,-15.915 -9.442,-24.91c-0.678,-2.75 -0.576,-5.667 -1.548,-8.213c-0.397,-0.781 -0.883,-1.459 -1.651,-1.958c-1.855,0.397 -1.752,2.725 -2.226,4.197c-1.087,7.919 0.857,15.647 2.802,22.862c0.883,1.485 1.075,3.225 1.945,4.798c4.196,10.773 12.551,19.37 21.008,27.162c5.642,5.31 10.798,11.348 15.173,18.001c-2.712,5.169 -4.759,10.671 -6.512,16.21l-0.192,0.205c-2.034,-3.493 -4.273,-7.024 -6.614,-10.35c-6.999,-10.671 -15.942,-17.682 -24.398,-27.277c-9.929,-11.63 -15.686,-26.663 -15.776,-43.283c0.295,-14.367 5.655,-27.264 15.072,-37.064c1.279,-1.548 3.685,-3.019 5.463,-1.471" style="fill:#fff;fill-rule:nonzero;"/><path d="M253.456,211.788c1.663,2.047 -0.09,4.593 -0.589,6.742c-4.171,10.747 -1.753,24.04 -5.924,34.787c-4.669,15.75 -15.57,27.188 -24.705,40.455c-0.691,1.779 -2.226,3.352 -3.109,5.297c-4.375,8.598 -7.983,17.694 -8.265,28.16l-0.205,0.076c-3.006,-3.889 -6.806,-8.495 -12.154,-9.467c-0.384,-0.576 0.077,-1.177 0.192,-1.868c3.877,-12.973 10.12,-24.718 18.385,-35.261c10.018,-12.627 20.317,-26.112 22.466,-43.039c0.103,-1.74 0.397,-3.889 -1.177,-4.861c-2.226,0.499 -3.019,3.121 -3.799,4.989c-1.728,5.655 -4.35,10.824 -6.986,16.121c-2.712,3.991 -4.951,8.29 -7.983,12.218c-4.849,7.126 -11.272,13.575 -15.942,20.918c-0.077,0.103 -0.499,0.371 -0.499,0c-1.65,-26.79 12.078,-49.449 30.655,-65.697c4.362,-3.698 9.032,-6.819 14.201,-9.468c1.651,-0.499 3.774,-1.279 5.438,-0.102" style="fill:#fff;fill-rule:nonzero;"/><path d="M161.161,284.704c6.026,13.792 16.721,25.217 28.581,33.712c10.504,9.199 20.228,19.844 25,32.932c-0.397,0.397 -1.062,-0.179 -1.561,-0.294c-17.988,-8.304 -36.361,-18.641 -45.994,-36.834c-1.28,-1.753 -1.958,-3.8 -4.261,-4.197c-1.279,0.768 -0.895,2.623 -0.704,3.89c2.726,11.45 10.901,19.472 19.844,26.688c12.167,10.274 28.109,13.971 40.749,23.771c7.894,5.745 15.276,12.884 19.946,21.584c0,0.397 -0.588,0.397 -0.78,0.307c-2.035,-1.177 -4.478,-1.881 -6.717,-2.456c-3.301,-0.602 -6.794,-0.768 -9.826,0.473l-0.473,-0.102c-5.272,-5.847 -12.36,-10.837 -19.358,-14.739c-3.416,-2.047 -6.998,-3.928 -10.709,-5.374c-7.19,-3.62 -14.789,-7.139 -20.905,-12.423c-16.735,-13.382 -26.752,-34.8 -21.686,-57.266c0.678,-4.094 1.74,-8.329 4.376,-11.348c0.678,-0.678 1.458,-0.768 2.43,-0.576c0.973,0.473 1.446,1.471 2.048,2.252" style="fill:#fff;fill-rule:nonzero;"/><path d="M251.718,284.704c6.397,16.888 2.508,37.729 -5.066,52.878c-4.107,9.762 -8.38,19.933 -6.909,31.46c-1.369,-0.678 -2.239,-2.047 -3.518,-3.122c-2.828,-2.251 -5.719,-4.874 -8.841,-7.023c0.601,-1.075 0.396,-2.546 0.78,-3.724c0.883,-3.531 1.651,-7.151 3.212,-10.376c0.192,-1.74 1.253,-3.019 1.765,-4.669c2.316,-5.668 5.438,-11.042 7.574,-16.812c2.533,-7.024 5.527,-14.777 3.698,-22.696c-0.192,-0.371 -0.474,-0.678 -0.883,-0.87c-1.446,-0.282 -1.83,1.471 -2.52,2.341c-1.958,6.947 -4.082,13.702 -7.191,20.151c-4.49,9.186 -9.941,17.962 -11.591,28.428c-0.384,0 -0.384,-0.601 -0.589,-0.87c-1.829,-5.578 -2.802,-11.451 -3.019,-17.592c-0.269,-13.293 5.565,-24.245 12.845,-33.93c4.491,-6.448 9.046,-13.677 10.517,-21.89c0.396,-0.781 1.062,-1.357 1.957,-1.651c4.453,0.973 6.193,6.167 7.779,9.967" style="fill:#fff;fill-rule:nonzero;"/><path d="M187.124,368.665c8.559,9.071 20.713,14.265 31.908,19.242c4.081,1.471 7.868,3.518 11.668,5.502c1.164,0.268 2.022,1.049 3.019,1.548c5.425,3.224 10.594,7.024 15.648,11.514c0.87,1.177 2.354,2.252 3.019,3.621c-3.685,-0.371 -7.485,-1.075 -11.272,-1.177c-0.882,-0.192 -1.867,0 -2.635,-0.371c-14.202,-1.868 -27.06,-7.92 -37.256,-17.31c-1.459,-0.883 -2.828,-2.252 -4.683,-1.856c-1.152,1.753 0.601,3.429 1.177,4.977c9.647,12.615 24.91,18.795 40.455,21.213c8.777,0.972 17.233,2.546 25.306,5.092c0.666,0.384 0.371,1.151 0.666,1.753c1.369,4.9 3.608,9.57 5.859,14.073c-0.703,0.294 -1.369,-0.102 -1.97,-0.576c-10.875,-4.03 -22.543,-6.371 -34.416,-8.226c-4.862,-0.973 -9.519,-2.239 -14.125,-3.89c-13.702,-5.475 -24.871,-14.969 -32.368,-27.763c-3.596,-6.448 -5.745,-13.792 -6.615,-21.494c-0.192,-2.942 -0.499,-6.653 2.06,-8.226c2.124,-0.87 3.377,1.279 4.555,2.354" style="fill:#fff;fill-rule:nonzero;"/><path d="M263.951,336.105c1.266,2.853 0.972,6.346 1.765,9.391c2.239,9.672 8.649,17.669 10.389,27.571c3.326,14.637 3.902,30.181 7.894,44.472c2.226,7.805 5.923,15.328 10.389,21.789c-3.391,-0.794 -6.896,-2.15 -10.683,-1.766c-1.446,0.102 -2.828,0.499 -4.082,0.896c-10.516,-14.867 -12.065,-34.135 -13.421,-53.07c-0.895,-7.83 -2.354,-15.468 -4.183,-22.889c-0.487,-1.279 -0.985,-2.827 -2.137,-3.633c-1.753,-0.166 -1.561,1.676 -2.239,2.648c-1.075,9.481 2.137,18.065 2.316,27.469c0.806,6.947 0.396,14.061 1.484,20.918c-0.409,-0.179 -0.678,-0.575 -0.896,-0.985c-1.445,-1.446 -2.52,-2.917 -3.492,-4.388c-7.587,-11.349 -11.873,-24.949 -10.108,-39.764c0.768,-5.693 2.226,-10.965 4.069,-16.044c0.499,-0.396 0.499,-0.972 0.703,-1.574c2.316,-4.094 4.35,-8.188 8.163,-11.246c1.075,-0.767 3.403,-1.266 4.069,0.205" style="fill:#fff;fill-rule:nonzero;"/><path d="M248.983,439.232c9.237,3.403 19.46,4.977 29.848,5.271c10.99,1.574 21.993,4.401 30.54,10.849l-0.282,0.294c-16.235,-1.266 -33.648,3.033 -48.323,-3.121c-1.382,-0.397 -3.032,-1.292 -4.388,-0.397c-0.192,0.294 -0.499,0.601 -0.41,0.972c1.676,2.623 4.478,3.621 7.011,5.054c9.929,4.145 21.686,4.248 32.881,3.646c16.901,-0.473 32.97,2.546 47.261,9.494l0,0.192c-7.1,1.458 -13.804,3.505 -20.227,6.358c-8.559,-2.149 -17.988,-2.955 -27.226,-2.751c-1.561,-0.102 -3.224,0.295 -4.861,0c-3.8,0.103 -7.395,-0.678 -11.106,-0.882c-3.684,-0.691 -7.484,-1.574 -10.977,-2.815c-14.189,-4.798 -26.637,-15.57 -32.574,-29.542c-0.703,-1.842 -1.279,-4.094 -0.601,-6.141c0.32,-0.703 0.972,-0.985 1.561,-1.279c4.388,0.678 7.791,3.224 11.873,4.798" style="fill:#fff;fill-rule:nonzero;"/><path d="M295.186,393.403c14.278,3.097 25,15.046 30.936,27.636c8.546,16.517 18.858,34.211 34.902,44.177c1.075,0.41 1.625,0.883 2.533,1.485c-0.294,0.562 -1.369,0.767 -2.239,0.767c-16.146,2.047 -28.21,-10.069 -34.927,-22.185c-4.184,-7.727 -7.485,-15.916 -12.052,-23.362c-2.828,-3.902 -5.54,-9.007 -10.108,-11.425c-0.703,0 -0.985,0.371 -1.266,0.87c-0.192,2.354 1.356,4.197 2.136,6.18c7.894,11.118 10.504,25.281 19.153,35.951c0,0.205 0,0.384 -0.192,0.473c-12.065,-3.889 -21.596,-12.883 -26.074,-25.012c-4.261,-10.542 -4.849,-22.684 -10.888,-32.356c-0.192,-0.972 -0.588,-2.252 0.384,-3.019c2.073,-1.574 4.964,-0.781 7.408,-0.384l0.294,0.204Z" style="fill:#fff;fill-rule:nonzero;"/><path d="M551.791,393.154c0.115,-1.97 0.115,-4.222 0,-6.167c0.985,0.064 2.047,-0.205 2.725,-1.1c5.067,-6.474 1.664,-16.377 5.758,-23.247c0.78,-1.97 2.725,-3.416 4.938,-3.416c3.032,0.742 5.169,3.889 6.538,6.538c0.499,1.382 1.254,3.032 2.7,3.326c0.204,-0.192 0.601,-0.192 0.78,0c4.785,-2.546 5.642,-8.15 7.305,-12.768c0.973,-3.723 2.137,-7.344 3.992,-10.798c1.356,-2.15 2.917,-4.018 5.361,-4.696c0.371,-0.499 1.062,0.077 1.446,-0.102c2.507,0.883 3.505,3.633 3.607,6.077c0.192,0.768 0.87,1.548 1.536,1.945c2.917,0.473 4.478,-2.239 6.256,-3.915c3.582,-6.397 8.342,-12.973 15.941,-14.649c2.227,-0.103 4.657,0.473 5.63,2.469c3.211,5.949 -0.486,12.32 -2.239,17.924c-0.282,1.369 -0.576,3.416 0.486,4.593c1.753,0.576 3.787,0.103 5.655,0.678c1.279,0.499 2.418,1.868 2.418,3.327c-0.678,6.474 -6.806,10.414 -11.463,13.536c-3.698,2.482 -8.086,4.056 -10.607,8.175c-0.089,0.602 0,1.177 0,1.779c0.678,0.972 1.843,0.767 2.725,1.164c2.035,0.179 3.979,1.356 4.555,3.326c0.512,3.903 -3.39,5.771 -5.616,7.754c-5.259,2.84 -11.208,4.35 -16.94,6.09c-2.712,1.305 -5.54,2.379 -7.497,4.925c-0.179,0.576 -0.576,1.472 0,2.073c1.663,1.855 4.785,0.678 6.832,1.83c2.034,0.499 4.465,1.867 4.644,4.324c-0.473,4.491 -5.245,6.461 -8.943,7.945c-0.576,0.192 -1.151,0.294 -1.753,0.601c-1.445,0.499 -3.006,0.794 -4.567,0.973c-2.828,0.601 -6.013,0.691 -8.943,0.422c2.06,-5.502 1.753,-13.05 -2.444,-17.144l-2.61,-2.073c6.218,-5.296 12.039,-10.99 17.784,-16.594c0,-0.499 0.78,-0.793 1.087,-1.177c3.186,-3.646 6.513,-7.267 9.609,-10.811c1.471,-1.484 2.456,-3.134 3.608,-4.503c2.047,-2.444 3.697,-5.22 5.629,-7.945c0,-0.397 0.397,-0.806 0.601,-0.998c2.035,-3.045 3.903,-6.269 4.657,-9.928c-0.102,-0.371 0.103,-0.973 -0.268,-1.344c-0.307,-0.396 -0.793,-0.601 -1.28,-0.396c-2.239,0.998 -3.889,3.249 -5.36,5.117c-13.498,17.566 -30.028,32.113 -46.584,46.455c-0.972,0.205 -2.047,0.397 -3.019,0.679c-2.047,0 -3.48,1.189 -5.335,1.496c-1.267,-3.045 -0.499,-6.972 0.384,-10.017l0.281,-1.753Z" style="fill:#fff;fill-rule:nonzero;"/><path d="M580.491,216.835c3.429,-1.305 9.621,4.094 10.018,-2.38c-1.165,-7.842 -7.869,-13.037 -10.223,-20.086c-1.241,-2.546 -2.047,-5.796 -1.343,-8.623c0.179,-0.973 0.985,-1.74 1.765,-2.316c1.229,-0.96 4.619,-0.205 5.335,0.115c1.664,0.78 3.212,0.908 3.788,0.499c0.78,-0.473 1.074,-1.343 0.985,-2.341c-0.985,-4.03 -3.89,-6.653 -5.745,-10.3c-1.753,-3.991 -4.478,-8.789 -2.06,-13.318c0.41,-0.691 0.883,-0.998 1.651,-1.203c1.573,-0.422 2.853,-0.32 4.196,0.256c1.651,0.729 3.979,2.073 5.937,-1.1c3.224,-5.271 -0.282,-12.27 0.767,-18.462c0.589,-3.454 1.958,-7.549 5.463,-8.828c1.357,-0.499 2.905,0.077 3.979,0.678c6.321,3.8 7.011,11.745 11.668,17.042c0.691,0.78 1.753,1.446 2.841,1.548c2.226,-1.177 3.48,-3.928 6.307,-4.12c1.561,-0.204 3.007,1.075 3.8,2.444c4.069,9.698 -1.753,19.319 -1.075,29.311c0.282,1.28 0.589,2.648 1.855,3.327c1.344,0.601 2.316,-0.397 3.289,-1.075c1.381,-1.868 3.531,-3.352 6.141,-3.25c1.356,0.397 2.047,1.382 2.52,2.649c1.356,9.122 -5.066,15.8 -8.06,23.541c-0.282,1.573 -0.96,3.62 0.089,5.002c0.781,0.768 2.06,0.972 3.109,0.473c1.856,-0.882 4.286,-1.957 6.321,-0.499c2.354,2.15 1.177,6.065 0.204,8.636c-0.882,2.06 -1.944,4.031 -3.211,5.783c-3.992,-2.43 -10.21,-2.072 -13.805,0.819c-6.729,5.003 -9.634,12.641 -10.325,20.611c-1.752,-0.972 -3.697,-1.663 -5.629,-2.072c1.075,-6.372 1.663,-13.14 2.712,-19.69c-0.179,-0.295 -0.179,-0.602 0,-0.896c0.397,-5.693 0.883,-12.039 0.986,-17.937c0,-12.449 -0.781,-25.588 -3.212,-37.64c-1.369,-3.148 -1.369,-7.242 -4.67,-9.122c-1.164,0.204 -1.266,1.381 -1.573,2.277c-0.282,3.928 1.19,12.538 1.19,12.538c1.637,15.199 0.959,31.563 -0.781,46.455c-0.691,3.557 -0.883,7.472 -1.663,11.106c-2.047,13.612 -4.772,26.854 -7.587,40.199c-0.102,0.102 -0.294,0.204 -0.499,0.204c-1.638,-1.074 -3.889,-1.356 -5.936,-1.65c-0.179,-1.177 -0.077,-2.546 -0.269,-3.826c-1.062,-9.698 -3.211,-19.012 -8.175,-26.957c-2.137,-4.209 -4.082,-8.623 -3.787,-13.805c0.281,-1.573 1.074,-3.543 2.712,-4.017" style="fill:#fff;fill-rule:nonzero;"/><path d="M602.88,283.854c-0.396,-0.294 0.18,-0.601 0.077,-0.998c0.295,-2.93 -0.371,-5.501 -0.883,-8.149c1.28,0.498 2.828,1.778 4.402,0.895c0.665,-0.499 0.959,-1.292 1.062,-2.073c0.78,-1.944 0,-4.222 -0.295,-6.166c-1.382,-4.593 -3.032,-9.225 -2.827,-14.214c0.115,-2.457 0.972,-5.4 3.595,-6.18c3.902,-0.601 5.642,2.52 8.29,4.67c0.858,0.205 1.843,0.601 2.7,-0.09c3.314,-2.75 3.889,-6.883 4.785,-10.875c1.343,-5.399 3.493,-11.194 8.457,-14.342c1.842,-0.601 3.979,-0.972 5.629,0.371c4.389,3.352 4.683,9.327 4.964,14.701c-0.192,0.69 -0.192,1.765 -0.192,2.546c-0.089,1.676 0.295,3.441 1.664,4.516c2.034,0.678 2.917,-1.574 4.58,-1.574c0.755,-0.691 1.945,-0.499 2.994,-0.499c2.251,0.384 2.814,2.751 3.211,4.696c0,9.531 -6.333,16.504 -10.888,23.95c-0.499,1.267 -1.266,3.148 -0.294,4.414c1.74,1.459 4.005,-0.025 5.732,0.179c0.793,-0.102 1.561,0.294 2.239,0.576c1.458,0.998 1.765,2.751 1.561,4.516c-0.589,2.853 -2.239,5.399 -4.197,7.446c-1.036,1.779 -2.815,2.956 -3.979,4.427c-0.563,0.397 -1.062,0.973 -1.65,1.28c-2.917,3.544 -7.677,5.591 -8.547,10.414c0,0.678 0.474,1.382 1.075,1.574c2.418,0.383 4.759,-0.794 7.472,-0.423c1.573,0.397 3.122,0.806 4.094,2.252c1.637,4.401 -2.521,7.843 -5.45,10.415c-3.109,2.354 -6.628,3.927 -10.018,5.501c-0.307,0.102 -0.601,-0.205 -0.601,-0.371c-2.815,-3.659 -7.178,-5.003 -11.758,-4.606c-3.314,0.678 -6.602,1.778 -9.135,4.03c-0.678,-2.252 -2.239,-4.401 -4.273,-5.68c3.684,-5.195 7.574,-10.786 10.785,-15.993c1.842,-2.444 3.211,-5.489 4.964,-7.945c2.034,-4.721 4.772,-8.943 6.512,-13.843c0.781,-2.546 2.035,-5.092 2.738,-7.843c1.651,-6.768 3.595,-14.125 2.316,-21.571c-0.205,-0.793 -0.371,-1.765 -1.254,-2.264c-1.561,0.089 -1.957,1.97 -2.546,3.045c-1.164,4.017 -1.74,8.239 -3.198,12.167c-3.8,11.668 -8.956,22.76 -15.468,33.162c-0.973,-3.25 -3.787,-5.77 -7.114,-6.346c-1.151,-0.205 -2.52,-0.205 -3.672,0c-0.396,-1.075 0.665,-1.881 0.768,-2.955c0.767,-2.15 1.369,-4.414 1.573,-6.743" style="fill:#fff;fill-rule:nonzero;"/><path d="M541.121,111.26c1.548,-0.972 4.081,-0.601 5.732,-0.397c0.499,0.103 1.369,0.103 1.957,-0.204c3.135,-0.819 3.595,-4.952 2.764,-7.05c-1.689,-4.388 -7.92,-9.122 -7.037,-14.688c0.473,-1.778 1.65,-3.249 3.39,-3.953c7.088,-2.763 15.046,6.755 20.586,10.376c2.329,1.343 4.452,3.416 7.497,2.828c2.047,-1.485 2.137,-4.53 4.657,-5.31c2.521,-0.217 4.67,1.254 5.847,3.301c3.672,6.576 4.555,14.227 5.335,21.967c0.295,2.956 0.384,5.898 0.487,8.828c-1.446,2.546 -2.726,5.489 -3.212,8.611c-0.78,4.529 0,9.122 0.486,13.344c-1.266,-0.09 -2.622,-0.576 -4.273,-0.371c-3.019,-14.112 -8.521,-27.763 -16.594,-39.508c-1.663,-1.945 -3.505,-4.798 -6.23,-4.99c-0.678,0.397 -0.678,1.19 -0.576,1.766c0.205,0.972 0.281,1.983 0.87,2.648c0.089,0.883 0.665,1.471 0.87,2.354c6.819,12.346 11.732,26.458 14.739,40.583c0.102,1.343 -1.331,1.945 -1.753,3.25c-0.576,1.842 -0.755,3.799 -1.062,5.667l-0.281,0.205c-4.581,-6.755 -16.594,-7.907 -21.162,-14.777c-1.151,-1.267 -1.753,-3.518 -1.062,-5.374c1.344,-2.469 4.555,-1.471 6.896,-2.175c0.666,-0.396 1.164,-1.074 1.164,-1.868c-1.164,-3.723 -4.964,-5.974 -8.06,-7.919c-5.463,-2.93 -11.489,-6.947 -13.331,-13.216c-0.397,-1.459 0,-3.122 1.356,-3.928" style="fill:#fff;fill-rule:nonzero;"/><path d="M542.783,152.041c1.471,-0.998 3.224,-0.499 4.977,-0.397c0.665,0.167 1.369,0.474 1.945,0.666c5.923,2.725 16.849,12.256 23.477,13.497c1.164,0.307 2.136,-0.396 2.917,-0.972c0.78,3.224 1.957,6.167 3.8,8.892c0.371,0.307 0.562,0.806 0.767,1.203c-2.917,0.678 -5.732,2.827 -6.998,5.667l-0.589,1.075c-2.917,-4.388 -8.341,-8.815 -11.655,-10.286c-0.537,-0.256 -1.51,0.473 -1.523,0.997c-0.102,3.724 3.212,6.525 5.118,9.289c5.872,8.546 10.581,18.846 12.73,28.045c-1.561,0.895 -3.301,1.97 -4.375,3.646c-3.301,5.399 -2.15,12.947 0.383,18.321c1.459,3.339 3.8,6.461 5.054,9.89c2.431,5.501 3.8,11.374 4.772,17.361c-0.089,2.534 -0.294,5.182 0,7.626c-0.396,0.204 -0.089,0.703 -0.499,0.806c-0.473,-0.41 -0.268,-0.973 -0.665,-1.382c-3.506,-11.771 -21.52,-23.516 -29.119,-32.51c-3.698,-5.297 -7.766,-11.067 -6.321,-17.937c0.576,-1.651 2.047,-2.751 3.787,-2.751c1.856,-0.205 3.992,0.678 5.937,0.576c0.959,-0.205 1.842,-0.601 2.252,-1.471c0.754,-3.058 -1.395,-5.476 -2.828,-7.754c-2.354,-3.121 -5.361,-5.271 -8.073,-8.316c-0.294,-0.179 -0.294,-0.678 -0.588,-0.78c-2.828,-3.224 -6.014,-5.949 -4.773,-10.747c1.062,-2.073 3.416,-1.868 5.361,-2.162c0.665,-0.499 1.356,-1.011 1.548,-1.881c0.103,-5.77 -4.171,-9.698 -6.525,-14.189c-1.625,-3.147 -3.122,-6.678 -2.61,-10.696c0.563,-1.177 0.985,-2.546 2.316,-3.326" style="fill:#fff;fill-rule:nonzero;"/><path d="M539.497,330.958c0.282,-2.252 0.384,-4.619 0.96,-6.666c0.691,-2.354 1.548,-5.002 4.273,-5.706c3.519,-0.396 6.423,6.372 9.238,1.753c1.356,-3.224 0.204,-6.973 -0.563,-10.094c-0.973,-3.532 -2.943,-6.679 -3.698,-10.376c-1.663,-3.148 -2.149,-6.871 -2.52,-10.492c0.179,-1.867 0.371,-4.004 2.034,-5.194c1.65,-1.778 3.787,0.473 5.629,-0.704c0.87,0.103 1.28,-0.703 1.753,-1.177c1.164,-6.269 -3.007,-11.067 -2.137,-17.438c0.103,-3.544 1.357,-7.075 4.286,-8.943c3.301,-2.098 8.393,-0.179 10.428,2.469c2.571,3.352 4.759,7.075 6.473,10.875c2.444,5.45 3.787,10.389 10.159,5.949c1.945,-1.381 3.531,-3.556 6.333,-3.454c1.65,0.294 2.815,1.65 3.314,3.327c0.767,3.825 0.46,8.047 -0.781,11.668c-0.691,2.546 -1.663,5.015 -1.753,7.74c-0.307,2.149 0,3.531 0.487,5.399c0.473,0.576 0.665,1.382 1.445,1.471c1.561,0.077 2.738,-1.368 4.274,-1.599c1.573,-0.767 3.62,-0.87 5.271,-0.089c1.266,0.895 1.548,2.443 1.548,3.915c-0.781,7.369 -7.677,11.604 -10.594,17.975c-0.294,0.973 -0.499,1.945 -0.102,2.943c0.294,0.576 0.768,0.78 1.369,0.87c0.102,-0.294 0.384,-0.192 0.588,0c0.755,-0.294 1.728,-0.192 2.508,-0.691c2.047,0 4.491,0.192 5.553,2.149c1.369,3.915 -1.753,7.063 -3.992,9.724l-0.384,0c-2.341,-2.955 -5.834,-4.03 -9.531,-3.736c-9.929,2.482 -13.038,12.922 -15.712,23.439c-0.703,-1.139 -2.098,-2.789 -3.825,-3.762c7.612,-24.475 7.126,-42.565 2.994,-62.473c-0.973,-3.928 -1.382,-8.15 -4.491,-10.977c-0.576,0 -1.151,0.281 -1.446,0.78c-0.87,1.868 -0.319,4.12 -0.383,6.269c3.364,28.736 1.42,46.327 -3.967,64.649c-1.586,0 -4.183,0.575 -5.744,1.842c-5.591,4.58 -7.792,11.77 -7.293,19.345c-0.115,2.354 -0.435,3.851 -1.497,5.821c-4.49,-12.398 -10.631,-13.69 -15.033,-11.349c6.922,-10.81 5.092,-22.108 4.529,-35.452" style="fill:#fff;fill-rule:nonzero;"/><path d="M485.398,404.923c2.124,-2.38 5.105,-5.552 8.278,-3.825c3.083,1.65 1.061,6.243 4.094,8.022c3.249,1.88 5.053,-4.12 6.166,-7.293c2.06,-5.872 2.674,-11.898 5.028,-16.121c1.472,-2.699 2.892,-5.718 6.577,-4.644c2.661,0.768 2.302,7.216 6.256,6.743c5.361,-0.653 7.791,-15.788 15.621,-14.087c3.839,0.845 7.447,7.562 7.574,16.39c0.077,5.719 -2.277,11.438 -0.601,16.837c0.282,0.383 0.678,0.806 0.678,1.356c-2.136,1.97 -4.58,3.748 -6.909,5.514c-0.678,-1.574 -1.65,-3.544 -3.211,-4.695c-0.972,-0.87 -2.341,-1.574 -3.403,-2.252c1.97,-4.325 3.557,-9.941 3.058,-13.792c-0.295,-0.474 -1.344,-0.717 -1.843,-0.422c-2.891,2.2 -4.682,8.751 -7.74,13.843c-9.135,2.072 -14.176,9.723 -18.065,17.489c-0.41,-0.128 -0.307,-0.691 -0.589,-0.998c-2.354,-2.648 -5.847,-4.401 -9.736,-3.492c-9.736,1.944 -14.688,12.141 -20.291,20.56c-1.472,-4.018 -4.402,-4.619 -8.073,-5.847c8.546,-10.389 10.35,-21.609 17.131,-29.286" style="fill:#fff;fill-rule:nonzero;"/><path d="M451.538,456.449c4.555,-5.719 7.638,-12.193 13.549,-15.647c1.113,-0.64 3.327,-0.794 4.517,-0.116c1.919,1.049 2.111,6.039 5.194,5.873c4.145,-0.282 9.966,-7.856 12.794,-11.975c2.559,-3.723 5.732,-7.447 10.325,-8.444c1.535,-0.205 2.994,0.191 3.774,1.471c1.561,2.546 -0.294,6.678 2.137,8.725c2.533,0.167 4.081,-1.778 5.552,-3.454c1.945,-1.97 3.02,-4.9 4.657,-6.87c0.103,-0.87 0.781,-1.676 1.28,-2.444c3.109,-4.324 6.614,-8.969 11.949,-10.12c1.753,-0.307 3.416,0.371 4.184,1.945c0.691,1.177 0.857,2.75 0.857,4.119c-0.371,0.307 0.218,0.602 0,0.96c0.128,0.895 0.512,1.791 1.28,1.97c1.957,0.601 3.902,-0.205 5.565,-0.972c7.088,-2.674 10.977,-9.545 18.462,-11.4c2.93,-0.998 7.101,-1.023 9.634,0.845c2.725,2.059 2.418,6.281 1.65,9.224c-0.486,0.205 -0.102,0.678 -0.307,0.972c-1.842,4.798 -5.143,9.02 -7.28,13.652c0.192,0.665 -0.281,1.074 -0.384,1.74c0,1.484 0,2.955 1.075,3.927c0.678,0.499 1.74,0.807 2.418,1.075c1.663,0.704 3.096,1.676 3.89,3.327c0.486,2.75 -1.664,4.823 -3.787,6.192c-7.984,5.028 -18.667,3.173 -27.137,7.101c-2.341,0.703 -5.552,1.97 -6.038,4.618c-0.179,1.177 0.588,1.779 1.266,2.354c1.561,0.679 3.723,2.047 3.902,4.018c0.09,3.429 -3.313,4.9 -5.923,5.975c-0.691,0.204 -1.484,0.396 -2.239,0.703c-12.845,2.866 -26.855,-1.33 -39.79,0.947c-3.224,0.499 -6.614,0.998 -9.531,2.277c-1.075,0.09 -1.753,-0.678 -2.713,-0.882c-5.053,-1.843 -10.03,-3.89 -15.468,-4.965c3.493,-0.806 7.075,-1.573 10.491,-2.277c0.487,-0.32 1.267,-0.205 1.766,-0.371c2.521,-1.1 5.143,-0.908 7.485,-2.098c1.062,0.089 1.829,-0.781 2.802,-0.678c3.889,-1.408 7.881,-2.572 11.975,-3.851c3.211,-1.369 6.601,-2.674 10.017,-3.851c0.384,-0.499 1.062,-0.499 1.357,-0.576c0.78,-0.294 1.356,-0.896 2.239,-0.896c1.151,-0.703 2.622,-1.177 3.876,-1.778c5.067,-2.444 10.415,-4.721 15.097,-7.664c1.459,-0.601 3.212,-1.676 4.657,-2.546c6.423,-4.324 13.421,-8.38 17.899,-15.045c0.294,-0.576 0.691,-1.574 0.102,-2.15c-1.356,-0.78 -2.904,0.192 -4.286,0.602c-6.896,4.721 -13.318,8.546 -20.521,12.295c-3.8,1.765 -7.382,3.518 -11.169,5.296c-0.998,0.397 -2.047,0.691 -3.033,1.101c-3.799,1.74 -7.778,3.147 -11.655,4.618c-2.751,0.87 -5.745,1.676 -8.47,2.546c-1.842,0.602 -3.595,1.152 -5.437,1.702c-11.668,3.352 -28.096,7.318 -37.64,9.173c-3.263,0.627 -6.628,1.395 -9.928,1.766c-0.205,-0.064 0,-0.294 0.102,-0.474c6.794,-3.518 10.21,-8.162 12.96,-11.565" style="fill:#fff;fill-rule:nonzero;"/><path d="M378.109,469.793c8.086,-2.879 15.264,-6.896 21.891,-12.295c7.101,6.448 16.236,10.069 24.987,13.498l0,0.166c-7.677,7.472 -16.031,13.574 -25.089,18.398c-0.678,0 -0.87,-0.499 -1.446,-0.704c-7.101,-4.094 -14.713,-8.892 -20.739,-14.867c-1.049,-0.678 -2.022,-1.842 -3.007,-2.827c1.075,-0.589 2.341,-0.793 3.403,-1.369" style="fill:#fff;"/><path d="M326.283,485.711c0.691,-0.576 1.753,-0.396 2.533,-0.972c8.265,-2.776 16.633,-4.555 25.192,-6.423c4.184,-1.074 8.457,-2.175 12.538,-3.454c2.648,3.032 5.361,5.105 8.176,7.548c-3.109,1.446 -6.602,2.252 -9.929,3.224c-10.887,3.544 -22.658,4.952 -33.443,8.7c-7.485,2.674 -14.777,5.924 -20.164,11.912c-2.597,2.456 -4.439,5.68 -5.898,9.045c-2.341,-3.237 -3.889,-6.794 -6.32,-9.813c5.924,-9.992 17.221,-15.622 27.315,-19.767" style="fill:#fff;fill-rule:nonzero;"/><path d="M416.342,488.21c0.102,-0.397 0.512,-0.601 0.806,-0.397c2.124,1.19 4.67,1.74 6.883,2.623c6.73,2.546 13.907,4.094 21.008,5.745c1.855,0.102 3.518,0.87 5.45,0.972c4.67,1.075 9.736,2.047 14.099,3.506c0.909,0.614 2.06,0.396 2.828,1.164c9.032,3.134 17.502,9.583 21.187,18.5l0.32,1.075c-2.534,3.723 -4.581,7.062 -7.012,10.887c-0.69,-0.575 -0.383,-1.74 -0.793,-2.648c-3.096,-13.792 -17.975,-18.961 -30.143,-21.967c-15.365,-2.943 -30.334,-6.935 -44.254,-13.268c3.403,-1.663 6.525,-4.145 9.621,-6.192" style="fill:#fff;fill-rule:nonzero;"/><path d="M432.009,474.641c11.285,3.902 23.733,5.053 35.018,8.776c9.941,2.994 19.089,7.792 26.752,14.432c1.945,2.354 4.273,4.529 5.348,7.357c-1.177,1.074 -1.561,2.443 -2.533,3.646c-1.267,1.842 -2.444,4.12 -3.787,5.975c-0.294,-0.205 -0.205,-0.678 -0.397,-0.883c-2.136,-4.99 -6.026,-9.02 -10.094,-12.513c-0.41,-0.102 -0.794,-0.601 -1.293,-0.908c-12.627,-8.495 -28.773,-9.839 -43.653,-13.639c-4.657,-1.343 -9.352,-2.52 -13.805,-4.401c2.713,-2.52 5.719,-5.092 8.444,-7.842" style="fill:#fff;fill-rule:nonzero;"/><path d="M317.625,510.249c8.099,-7.267 19.076,-10.35 29.772,-12.525c0.576,-0.371 1.267,-0.192 1.945,-0.474c1.075,-0.089 2.239,-0.499 3.416,-0.691c3.186,-0.908 6.704,-1.407 9.903,-2.379c6.333,-1.792 12.551,-3.749 18.589,-6.321c3.109,2.252 6.218,4.696 9.634,6.666c-14.892,6.602 -30.757,11.029 -47.184,13.997c-7.613,2.277 -15.161,5.22 -21.11,10.824c-3.404,3.748 -5.54,8.149 -6.397,13.062l-0.218,0c-2.137,-3.544 -4.376,-7.241 -6.525,-10.491c1.279,-4.401 4.772,-8.418 8.175,-11.668" style="fill:#fff;fill-rule:nonzero;"/><path d="M369.564,424.489c-1.023,-1.049 -9.275,-3.8 -14.815,-3.8c7.906,10.491 20.777,27.444 31.332,37.205c3.097,-1.445 5.425,-2.993 8.061,-5.245c-8.764,-8.815 -16.927,-18.193 -24.578,-28.16" style="fill:#fff;fill-rule:nonzero;"/><path d="M343.864,417.892c-1.101,-1.599 -8.01,-3.249 -13.78,-3.249c10.236,15.89 26.177,37.461 39.061,50.626c3.39,-1.1 6.448,-2.303 9.531,-3.8c-16.108,-17.31 -23.886,-27.789 -34.812,-43.577" style="fill:#fff;fill-rule:nonzero;"/><path d="M430.397,424.489c1.037,-1.049 9.289,-3.8 14.829,-3.8c-7.92,10.491 -20.778,27.444 -31.32,37.205c-3.109,-1.445 -5.463,-2.993 -8.073,-5.245c8.751,-8.815 16.939,-18.193 24.564,-28.16" style="fill:#fff;fill-rule:nonzero;"/><path d="M456.098,417.892c1.113,-1.599 8.022,-3.249 13.779,-3.249c-10.235,15.89 -26.189,37.461 -39.047,50.626c-3.416,-1.1 -6.461,-2.303 -9.532,-3.8c16.121,-17.31 23.887,-27.789 34.8,-43.577" style="fill:#fff;fill-rule:nonzero;"/><path d="M399.987,402.975c-1.548,-1.919 -4.03,-3.698 -7.689,-5.796c-14.061,-7.6 -37.18,-9.404 -49.961,-11.323c-31.588,-4.772 -53.095,-26.867 -53.095,-57.778l0,-1.765l0,-215.657l221.503,0l0,217.422c0,30.911 -21.519,53.006 -53.121,57.778c-12.781,1.919 -35.887,3.723 -49.948,11.323c-3.646,2.098 -6.154,3.877 -7.689,5.796m0,-11.72c16.505,-10.171 37.052,-11.45 56.435,-14.342c25.831,-3.902 45.316,-21.468 45.316,-48.528l0,-1.778l0,-206.931l-203.502,0l0,208.709c0,27.06 19.473,44.626 45.317,48.528c19.383,2.892 39.904,4.171 56.434,14.342" style="fill:#fff;"/><rect x="314.593" y="19.1" width="8.994" height="18.423" style="fill:#fff;"/><path d="M387.306,0.261l9.007,0l0,9.417l7.344,0l0,-9.417l8.994,0l0,18.436l-25.345,0l0,-18.436Z" style="fill:#fff;fill-rule:nonzero;"/><path d="M330.931,30.797l0,-21.11l8.982,0l0,18.436l9.02,13.843l0,28.659l-9.02,0l0,-25.959l-8.982,-13.869Z" style="fill:#fff;fill-rule:nonzero;"/><path d="M356.283,19.103l7.343,0l0,9.02l-16.35,0l0,-18.436l9.007,0l0,9.416Z" style="fill:#fff;fill-rule:nonzero;"/><path d="M371.801,86.97l-64.559,0l0,-32.906l-9.007,-13.843l0,-21.123l9.007,0l0,18.449l8.994,13.843l0,26.586l55.565,0l0,8.994Z" style="fill:#fff;fill-rule:nonzero;"/><rect x="476.374" y="19.1" width="9.007" height="18.423" style="fill:#fff;"/><path d="M469.055,30.797l0,-21.11l-9.02,0l0,18.436l-9.02,13.843l0,28.659l9.02,0l0,-25.959l9.02,-13.869Z" style="fill:#fff;fill-rule:nonzero;"/><path d="M443.692,19.103l-7.344,0l0,9.02l16.338,0l0,-18.436l-8.994,0l0,9.416Z" style="fill:#fff;fill-rule:nonzero;"/><path d="M307.243,103.313l0,-8.994l71.89,0l0,-16.325c0,-11.54 9.34,-20.88 20.854,-20.88c11.515,0 20.842,9.34 20.842,20.88l0,16.325l71.89,0l0,8.994l-80.884,0l0,-25.319c0,-6.563 -5.31,-11.86 -11.848,-11.86c-6.55,0 -11.847,5.297 -11.847,11.86l0,25.319l-80.897,0Z" style="fill:#fff;fill-rule:nonzero;"/><path d="M428.174,86.97l64.546,0l0,-32.906l9.02,-13.843l0,-21.123l-9.02,0l0,18.449l-8.982,13.843l0,26.586l-55.564,0l0,8.994Z" style="fill:#fff;fill-rule:nonzero;"/><path d="M388.142,52.362l0,-21.084l-8.188,-12.577l0,-18.436l-8.994,0l0,21.11l8.175,12.59l0,25.025c2.521,-2.777 5.553,-5.028 9.007,-6.628" style="fill:#fff;fill-rule:nonzero;"/><path d="M411.832,52.362l0,-21.084l8.175,-12.577l0,-18.436l9.007,0l0,21.11l-8.188,12.59l0,25.025c-2.52,-2.777 -5.552,-5.028 -8.994,-6.628" style="fill:#fff;fill-rule:nonzero;"/><path d="M369.376,372.114c10.85,1.919 21.277,3.173 30.335,8.726c9.148,-5.604 19.344,-6.858 30.296,-8.777l1.062,-0.128c2.738,-0.448 3.634,-0.691 5.937,-1.075c0.844,-0.14 1.42,-0.192 2.673,-0.371c0.768,-0.128 2.367,-0.371 3.122,-0.422c21.149,-1.727 50.652,-10.12 50.588,-46.903l0,-46.954l-0.141,-148.36l-186.857,0l0.141,195.314c0.281,35.875 29.17,44.421 50.216,46.929c0.269,0.025 0.576,0.076 0.858,0.102c0.844,0.064 5.757,1.023 6.563,1.075l5.207,0.844Z" style="fill:#fff;fill-rule:nonzero;"/><path d="M369.564,215.387l-63.074,0l0,60.644l63.074,0l0,96.083c10.85,1.919 21.085,3.173 30.143,8.726c9.148,-5.604 19.537,-6.858 30.488,-8.777l0,-96.032l63.203,0l0,-60.644l-63.203,0l0,-87.511l-60.631,0l0,87.511Z" style="fill:#d6002d;fill-rule:nonzero;"/></g></svg>