<?xml version="1.0" encoding="UTF-8" standalone="no"?><!DOCTYPE svg PUBLIC "-//W3C//DTD SVG 1.1//EN" "http://www.w3.org/Graphics/SVG/1.1/DTD/svg11.dtd"><svg width="100%" height="100%" viewBox="0 0 800 800" version="1.1" xmlns="http://www.w3.org/2000/svg" xmlns:xlink="http://www.w3.org/1999/xlink" xml:space="preserve" xmlns:serif="http://www.serif.com/" style="fill-rule:evenodd;clip-rule:evenodd;stroke-linejoin:round;stroke-miterlimit:2;"><g><g><path d="M121.166,621.929l-15.694,0l0,-51.458l15.84,0c16.36,0 26.132,9.581 26.132,25.638c0,12.825 -9.027,25.82 -26.278,25.82Zm0,-80.194l-45.94,0c-1.523,0 -2.75,1.222 -2.75,2.757l0,103.424c0,1.504 1.227,2.736 2.75,2.736l46.086,0c36.211,0 59.614,-21.401 59.614,-54.543c0,-33.036 -23.462,-54.374 -59.76,-54.374Z" style="fill:#0078ae;fill-rule:nonzero;"/><path d="M384.584,569.826c-12.685,0 -22.991,6.966 -27.596,13.879c-3.37,-9.211 -11.019,-13.879 -22.697,-13.879c-12.925,0 -22.713,6.538 -26.132,10.932l0,-6.228c0,-1.525 -1.227,-2.744 -2.746,-2.744l-23.899,0c-1.516,0 -2.743,1.219 -2.743,2.744l0,73.386c0,1.502 1.227,2.736 2.743,2.736l23.899,0c1.519,0 2.746,-1.234 2.746,-2.736l0,-45.929l0.007,-0.019c1.73,-1.998 5.322,-6.186 11.915,-6.186c5.792,0 8.987,3.143 8.987,8.824l0,43.31c0,1.502 1.234,2.736 2.746,2.736l23.899,0c1.516,0 2.753,-1.234 2.753,-2.736l0,-45.929c1.722,-2.015 5.32,-6.205 12.068,-6.205c5.717,0 8.993,3.219 8.993,8.824l0,43.31c0,1.502 1.219,2.736 2.746,2.736l23.893,0c1.511,0 2.746,-1.234 2.746,-2.736l0,-54.411c0,-15.271 -8.631,-23.679 -24.328,-23.679Z" style="fill:#0078ae;fill-rule:nonzero;"/><path d="M447.533,571.786l-23.9,0c-1.523,0 -2.753,1.228 -2.753,2.744l0,73.386c0,1.502 1.23,2.736 2.753,2.736l23.9,0c1.515,0 2.753,-1.234 2.753,-2.736l0,-73.386c0,-1.516 -1.238,-2.744 -2.753,-2.744Z" style="fill:#0078ae;fill-rule:nonzero;"/><path d="M436.303,533.081c-9.091,0 -16.506,7.401 -16.506,16.484c0,9.109 7.415,16.5 16.506,16.5c9.082,0 16.492,-7.391 16.492,-16.5c0,-9.083 -7.41,-16.484 -16.492,-16.484Z" style="fill:#0078ae;fill-rule:nonzero;"/><path d="M519.23,569.826c-15.236,0 -23.522,6.848 -27.097,10.932l0,-6.228c0,-1.525 -1.238,-2.744 -2.754,-2.744l-23.899,0c-1.508,0 -2.742,1.219 -2.742,2.744l0,73.386c0,1.502 1.234,2.736 2.742,2.736l23.899,0c1.516,0 2.754,-1.234 2.754,-2.736l0,-45.929c1.9,-2.161 5.467,-6.205 12.567,-6.205c7.596,0 11.44,3.794 11.44,11.254l0,40.88c0,1.502 1.226,2.736 2.75,2.736l23.891,0c1.524,0 2.746,-1.234 2.746,-2.736l0,-53.264c0,-15.55 -9.823,-24.826 -26.297,-24.826Z" style="fill:#0078ae;fill-rule:nonzero;"/><path d="M228.314,624.713c-7.846,0 -14.197,-6.355 -14.197,-14.227c0,-7.842 6.351,-14.186 14.197,-14.186c7.848,0 14.208,6.344 14.208,14.186c0,7.872 -6.36,14.227 -14.208,14.227Zm0,-55.251c-22.993,0 -41.637,18.644 -41.637,41.611c0,23.019 18.644,41.651 41.637,41.651c23,0 41.635,-18.632 41.635,-41.651c0,-22.967 -18.635,-41.611 -41.635,-41.611Z" style="fill:#0078ae;fill-rule:nonzero;"/><path d="M595.877,624.84c-7.845,0 -14.197,-6.376 -14.197,-14.231c0,-7.827 6.352,-14.18 14.197,-14.18c7.857,0 14.206,6.353 14.206,14.18c0,7.855 -6.349,14.231 -14.206,14.231Zm0,-55.251c-22.984,0 -41.628,18.636 -41.628,41.624c0,23.006 18.644,41.646 41.628,41.646c22.996,0 41.65,-18.64 41.65,-41.646c0,-22.988 -18.654,-41.624 -41.65,-41.624Z" style="fill:#0078ae;fill-rule:nonzero;"/><path d="M660.48,546.29l0,-0.014c-0.004,-0.005 -0.004,-0.011 -0.004,-0.017c-0.017,-0.066 -0.029,-0.143 -0.048,-0.21l-0.007,0.008c-1.838,-8.209 -10.766,-14.142 -19.571,-12.32c-8.889,1.84 -14.725,10.112 -12.999,18.442c1.423,6.871 7.543,11.651 14.632,12.089c-0.451,2.812 -2.933,5.327 -5.004,6.489c-1.385,0.779 -0.554,2.267 -0.554,2.267l1.83,2.712c0.528,0.91 1.33,1.377 2.276,0.986c18.234,-7.47 21.345,-23.022 19.449,-30.432Z" style="fill:#0078ae;fill-rule:nonzero;"/><path d="M681.676,595.248c-0.073,-2.942 3.745,-4.246 8.524,-4.246c9.515,0 14.933,2.715 20.998,6.716c0.632,0.427 1.404,0.562 2.152,0.386c0.734,-0.178 1.37,-0.655 1.741,-1.321l8.067,-14.032c0.736,-1.295 0.301,-2.939 -0.975,-3.704c-6.631,-3.959 -16.344,-9.07 -33.21,-9.07c-24.324,0 -37.344,11.449 -35.168,27.909c3.825,28.928 48.807,19.015 48.105,28.884c-0.159,2.284 -4.141,3.985 -11.029,3.985c-8.9,0 -19.017,-4.458 -25.4,-8.408c-0.628,-0.393 -1.408,-0.512 -2.117,-0.321c-0.729,0.185 -1.338,0.647 -1.706,1.302l-9.323,15.54c-0.706,1.257 -0.349,2.839 0.849,3.641c8.951,6.041 23.4,10.106 35.948,10.106c24.35,0 38.388,-10.463 38.392,-27.652c0.007,-31.715 -45.651,-21.876 -45.848,-29.715Z" style="fill:#0078ae;fill-rule:nonzero;"/><path d="M642.117,141.555l-132.879,-132.876c-5.607,-5.607 -13.061,-8.697 -20.992,-8.697c-7.933,0 -15.391,3.09 -20.998,8.697l-111.423,111.433l-185.473,185.469c-11.576,11.582 -11.576,30.419 0,41.995l132.877,132.898c5.609,5.609 13.065,8.695 20.996,8.695c7.933,0 15.387,-3.086 20.998,-8.695l166.233,-166.271l130.658,-130.658c11.576,-11.574 11.576,-30.411 0.003,-41.99Z" style="fill:#fff;fill-rule:nonzero;"/><path d="M515.862,189.418c-7.521,7.511 -17.401,11.263 -27.217,11.263c-9.833,-0.004 -19.694,-3.752 -27.222,-11.263c-7.504,-7.508 -11.285,-17.38 -11.288,-27.211c0.003,-9.85 3.784,-19.727 11.288,-27.219c7.528,-7.507 17.374,-11.292 27.222,-11.29c9.816,0 19.696,3.755 27.217,11.294c7.492,7.488 11.284,17.367 11.28,27.215c0.004,9.819 -3.788,19.7 -11.28,27.211Zm116.856,-38.416l-132.876,-132.874c-6.403,-6.404 -16.791,-6.404 -23.199,0l-143.654,143.666l156.061,156.069l143.668,-143.664c6.406,-6.406 6.406,-16.79 0,-23.197Z" style="fill:#e41837;fill-rule:nonzero;"/><path d="M353.34,300.373c7.511,-7.53 17.376,-11.282 27.211,-11.282c9.846,0 19.707,3.752 27.201,11.282c7.543,7.507 11.302,17.342 11.302,27.217c0,9.835 -3.759,19.696 -11.302,27.188c-7.494,7.485 -17.355,11.262 -27.201,11.271c-9.843,0 -19.7,-3.783 -27.211,-11.271c-7.519,-7.513 -11.281,-17.376 -11.281,-27.188c0,-9.846 3.762,-19.708 11.281,-27.217Zm-58.521,52.876c-7.532,7.477 -17.393,11.231 -27.226,11.231c-9.858,-0.001 -19.708,-3.752 -27.226,-11.231c-7.524,-7.5 -11.254,-17.369 -11.254,-27.201c0,-9.849 3.749,-19.71 11.258,-27.249c7.514,-7.5 17.364,-11.247 27.222,-11.252c9.833,0.005 19.711,3.752 27.226,11.257c7.511,7.534 11.254,17.395 11.245,27.228c0,9.841 -3.734,19.725 -11.245,27.217Zm-115.068,-38.27c-6.407,6.409 -6.407,16.793 0,23.199l132.876,132.9c3.2,3.2 7.401,4.801 11.598,4.801c4.199,0 8.399,-1.601 11.599,-4.801l143.588,-143.621l-156.063,-156.072l-143.598,143.594Z" style="fill:#0078ae;fill-rule:nonzero;"/><path d="M345.941,794.982c0,1.518 1.224,2.739 2.738,2.739l62.869,0c1.611,0 2.754,-1.221 2.754,-2.739l0,-19.896c0,-1.501 -1.232,-2.733 -2.754,-2.733l-26.594,0c0,0 22.861,-26.064 26.929,-30.791c1.123,-1.297 2.585,-2.623 2.585,-6.037l0,-13.65c0,-1.51 -1.226,-2.74 -2.757,-2.74l-63.032,0c-1.506,0 -2.738,1.22 -2.738,2.74l0,19.902c0,1.51 1.224,2.733 2.738,2.733l27.018,0c0,0 -27.618,31.571 -28.099,32.137c-1.116,1.283 -1.657,3.088 -1.657,5.017l0,13.318Z" style="fill:#0078ae;fill-rule:nonzero;"/><path d="M424.292,794.982c0,1.518 1.222,2.739 2.75,2.739l62.85,0c1.601,0 2.733,-1.221 2.733,-2.739l0,-19.896c0,-1.501 -1.221,-2.733 -2.748,-2.733l-26.306,0c0,0 22.555,-26.085 26.656,-30.791c1.13,-1.291 2.564,-2.623 2.564,-6.037c0,-0.695 0.008,-13.65 0.008,-13.65c0,-1.51 -1.221,-2.74 -2.742,-2.74l-63.015,0c-1.526,0 -2.75,1.22 -2.75,2.74l0,19.902c0,1.51 1.222,2.733 2.75,2.733l26.993,0c0,0 -27.601,31.571 -28.085,32.137c-1.119,1.283 -1.658,3.088 -1.658,5.017l0,13.318Z" style="fill:#0078ae;fill-rule:nonzero;"/><path d="M584.838,718.93l-23.882,0c-1.508,0 -2.744,1.23 -2.744,2.748l0,4.635c-6.423,-5.916 -14.655,-9.474 -23.623,-9.474c-20.521,0 -37.152,18.618 -37.152,41.586c0,22.989 16.631,41.593 37.152,41.593c8.968,0 17.2,-3.554 23.623,-9.462l0,4.43c0,1.514 1.236,2.735 2.744,2.735l23.882,0c1.512,0 2.748,-1.221 2.748,-2.735l0,-73.308c0,-1.518 -1.236,-2.748 -2.748,-2.748Zm-42.335,54.485c-8.679,0 -15.703,-7.044 -15.703,-15.741c0,-8.649 7.024,-15.677 15.703,-15.677c8.682,0 15.709,7.028 15.709,15.677c0,8.697 -7.027,15.741 -15.709,15.741Z" style="fill:#0078ae;fill-rule:nonzero;"/><path d="M333.26,719.135l-23.828,0c-1.5,0 -2.736,1.23 -2.736,2.734l0,73.129c0,1.502 1.236,2.726 2.736,2.726l23.828,0c1.51,0 2.736,-1.224 2.736,-2.726l0,-73.129c0,-1.504 -1.226,-2.734 -2.736,-2.734Z" style="fill:#0078ae;fill-rule:nonzero;"/><path d="M321.345,680.577c-9.053,0 -16.441,7.365 -16.441,16.432c0,9.068 7.388,16.435 16.441,16.435c9.057,0 16.434,-7.367 16.434,-16.435c0,-9.067 -7.377,-16.432 -16.434,-16.432Z" style="fill:#0078ae;fill-rule:nonzero;"/><path d="M282.571,697.366c-10.062,-6.966 -20.411,-8.61 -36.661,-8.61l-30.512,0.121c-1.43,0 -2.59,1.152 -2.59,2.591l0,103.66c0,1.435 1.16,2.593 2.596,2.593l27.8,0c1.432,0 2.604,-1.155 2.604,-2.6l-0.012,-3.157l0.012,-22.898c14.251,0 28.704,-0.142 39.415,-9.419c7.471,-6.451 13.071,-16.869 13.071,-30.942c0,-10.91 -5.572,-24.32 -15.723,-31.339Zm-30.757,44.466l-6.006,0l0,-24.758l6.195,0c12.276,0 15.775,6.027 15.775,11.568c0,6.807 -3.043,13.19 -15.964,13.19Z" style="fill:#0078ae;fill-rule:nonzero;"/><path d="M376.02,476.653l0,-7.201l-2.587,0l0,-1.657l7.063,0l0,1.657l-2.576,0l0,7.201l-1.9,0Z" style="fill:#0078ae;fill-rule:nonzero;"/><path d="M389.398,476.653l0,-6.389l-2.498,6.389l-0.821,0l-2.497,-6.389l0,6.389l-1.883,0l0,-8.858l2.64,0l2.152,5.535l2.148,-5.535l2.657,0l0,8.858l-1.898,0Z" style="fill:#0078ae;fill-rule:nonzero;"/><path d="M597.765,722.414l-1.83,0l0,2.419l1.83,0c0.591,0 1.238,-0.477 1.238,-1.183c0,-0.759 -0.647,-1.236 -1.238,-1.236Zm1.122,5.99l-1.769,-2.701l-1.183,0l0,2.701l-0.954,0l0,-6.836l2.784,0c1.153,0 2.22,0.814 2.22,2.082c0,1.521 -1.347,2.025 -1.739,2.025l1.824,2.729l-1.183,0Zm-1.629,-8.493c-2.812,0 -5.064,2.219 -5.064,5.064c0,2.783 2.252,5.06 5.064,5.06c2.812,0 5.06,-2.277 5.06,-5.06c0,-2.845 -2.248,-5.064 -5.06,-5.064Zm0,11.023c-3.293,0 -5.961,-2.668 -5.961,-5.959c0,-3.322 2.668,-5.963 5.961,-5.963c3.319,0 5.963,2.641 5.963,5.963c0,3.291 -2.644,5.959 -5.963,5.959Z" style="fill:#0078ae;fill-rule:nonzero;"/></g></g></svg>