<?xml version="1.0" encoding="UTF-8" standalone="no"?>
<svg
   xmlns:dc="http://purl.org/dc/elements/1.1/"
   xmlns:cc="http://creativecommons.org/ns#"
   xmlns:rdf="http://www.w3.org/1999/02/22-rdf-syntax-ns#"
   xmlns:svg="http://www.w3.org/2000/svg"
   xmlns="http://www.w3.org/2000/svg"
   xmlns:sodipodi="http://sodipodi.sourceforge.net/DTD/sodipodi-0.dtd"
   xmlns:inkscape="http://www.inkscape.org/namespaces/inkscape"
   width="100%"
   height="100%"
   viewBox="0 0 800 800"
   version="1.1"
   xml:space="preserve"
   style="fill-rule:evenodd;clip-rule:evenodd;stroke-linejoin:round;stroke-miterlimit:2;"
   id="svg110"
   sodipodi:docname="Dominos.svg"
   inkscape:version="0.92.4 (5da689c313, 2019-01-14)"><metadata
     id="metadata116"><rdf:RDF><cc:Work
         rdf:about=""><dc:format>image/svg+xml</dc:format><dc:type
           rdf:resource="http://purl.org/dc/dcmitype/StillImage" /></cc:Work></rdf:RDF></metadata><defs
     id="defs114" /><sodipodi:namedview
     pagecolor="#ffffff"
     bordercolor="#666666"
     borderopacity="1"
     objecttolerance="10"
     gridtolerance="10"
     guidetolerance="10"
     inkscape:pageopacity="0"
     inkscape:pageshadow="2"
     inkscape:window-width="1366"
     inkscape:window-height="705"
     id="namedview112"
     showgrid="false"
     inkscape:zoom="0.67"
     inkscape:cx="400"
     inkscape:cy="353.80563"
     inkscape:window-x="-8"
     inkscape:window-y="-8"
     inkscape:window-maximized="1"
     inkscape:current-layer="g108"
     showguides="true"
     inkscape:guide-bbox="true"><sodipodi:guide
       position="792.53731,289.55224"
       orientation="0,1"
       id="guide139"
       inkscape:locked="false" /></sodipodi:namedview><g
     id="g108"><path
       inkscape:connector-curvature="0"
       id="path64"
       style="fill:#ffffff;fill-rule:nonzero"
       d="M 115.19585,620.43646 H 99.501851 v -51.458 h 15.839999 c 16.36,0 26.132,9.581 26.132,25.638 0,12.825 -9.027,25.82 -26.278,25.82 z m 0,-80.194 H 69.255851 c -1.523,0 -2.75,1.222 -2.75,2.757 v 103.424 c 0,1.504 1.227,2.736 2.75,2.736 h 46.085999 c 36.211,0 59.614,-21.401 59.614,-54.543 0,-33.036 -23.462,-54.374 -59.76,-54.374 z" /><path
       inkscape:connector-curvature="0"
       id="path66"
       style="fill:#ffffff;fill-rule:nonzero"
       d="m 378.61385,568.33346 c -12.685,0 -22.991,6.966 -27.596,13.879 -3.37,-9.211 -11.019,-13.879 -22.697,-13.879 -12.925,0 -22.713,6.538 -26.132,10.932 v -6.228 c 0,-1.525 -1.227,-2.744 -2.746,-2.744 h -23.899 c -1.516,0 -2.743,1.219 -2.743,2.744 v 73.386 c 0,1.502 1.227,2.736 2.743,2.736 h 23.899 c 1.519,0 2.746,-1.234 2.746,-2.736 v -45.929 l 0.007,-0.019 c 1.73,-1.998 5.322,-6.186 11.915,-6.186 5.792,0 8.987,3.143 8.987,8.824 v 43.31 c 0,1.502 1.234,2.736 2.746,2.736 h 23.899 c 1.516,0 2.753,-1.234 2.753,-2.736 v -45.929 c 1.722,-2.015 5.32,-6.205 12.068,-6.205 5.717,0 8.993,3.219 8.993,8.824 v 43.31 c 0,1.502 1.219,2.736 2.746,2.736 h 23.893 c 1.511,0 2.746,-1.234 2.746,-2.736 v -54.411 c 0,-15.271 -8.631,-23.679 -24.328,-23.679 z" /><path
       inkscape:connector-curvature="0"
       id="path68"
       style="fill:#ffffff;fill-rule:nonzero"
       d="m 441.56285,570.29346 h -23.9 c -1.523,0 -2.753,1.228 -2.753,2.744 v 73.386 c 0,1.502 1.23,2.736 2.753,2.736 h 23.9 c 1.515,0 2.753,-1.234 2.753,-2.736 v -73.386 c 0,-1.516 -1.238,-2.744 -2.753,-2.744 z" /><path
       inkscape:connector-curvature="0"
       id="path70"
       style="fill:#ffffff;fill-rule:nonzero"
       d="m 430.33285,531.58846 c -9.091,0 -16.506,7.401 -16.506,16.484 0,9.109 7.415,16.5 16.506,16.5 9.082,0 16.492,-7.391 16.492,-16.5 0,-9.083 -7.41,-16.484 -16.492,-16.484 z" /><path
       inkscape:connector-curvature="0"
       id="path72"
       style="fill:#ffffff;fill-rule:nonzero"
       d="m 513.25985,568.33346 c -15.236,0 -23.522,6.848 -27.097,10.932 v -6.228 c 0,-1.525 -1.238,-2.744 -2.754,-2.744 h -23.899 c -1.508,0 -2.742,1.219 -2.742,2.744 v 73.386 c 0,1.502 1.234,2.736 2.742,2.736 h 23.899 c 1.516,0 2.754,-1.234 2.754,-2.736 v -45.929 c 1.9,-2.161 5.467,-6.205 12.567,-6.205 7.596,0 11.44,3.794 11.44,11.254 v 40.88 c 0,1.502 1.226,2.736 2.75,2.736 h 23.891 c 1.524,0 2.746,-1.234 2.746,-2.736 v -53.264 c 0,-15.55 -9.823,-24.826 -26.297,-24.826 z" /><path
       inkscape:connector-curvature="0"
       id="path74"
       style="fill:#ffffff;fill-rule:nonzero"
       d="m 222.34385,623.22046 c -7.846,0 -14.197,-6.355 -14.197,-14.227 0,-7.842 6.351,-14.186 14.197,-14.186 7.848,0 14.208,6.344 14.208,14.186 0,7.872 -6.36,14.227 -14.208,14.227 z m 0,-55.251 c -22.993,0 -41.637,18.644 -41.637,41.611 0,23.019 18.644,41.651 41.637,41.651 23,0 41.635,-18.632 41.635,-41.651 0,-22.967 -18.635,-41.611 -41.635,-41.611 z" /><path
       inkscape:connector-curvature="0"
       id="path76"
       style="fill:#ffffff;fill-rule:nonzero"
       d="m 589.90685,623.34746 c -7.845,0 -14.197,-6.376 -14.197,-14.231 0,-7.827 6.352,-14.18 14.197,-14.18 7.857,0 14.206,6.353 14.206,14.18 0,7.855 -6.349,14.231 -14.206,14.231 z m 0,-55.251 c -22.984,0 -41.628,18.636 -41.628,41.624 0,23.006 18.644,41.646 41.628,41.646 22.996,0 41.65,-18.64 41.65,-41.646 0,-22.988 -18.654,-41.624 -41.65,-41.624 z" /><path
       inkscape:connector-curvature="0"
       id="path78"
       style="fill:#ffffff;fill-rule:nonzero"
       d="m 654.50985,544.79746 v -0.014 c -0.004,-0.005 -0.004,-0.011 -0.004,-0.017 -0.017,-0.066 -0.029,-0.143 -0.048,-0.21 l -0.007,0.008 c -1.838,-8.209 -10.766,-14.142 -19.571,-12.32 -8.889,1.84 -14.725,10.112 -12.999,18.442 1.423,6.871 7.543,11.651 14.632,12.089 -0.451,2.812 -2.933,5.327 -5.004,6.489 -1.385,0.779 -0.554,2.267 -0.554,2.267 l 1.83,2.712 c 0.528,0.91 1.33,1.377 2.276,0.986 18.234,-7.47 21.345,-23.022 19.449,-30.432 z" /><path
       inkscape:connector-curvature="0"
       id="path80"
       style="fill:#ffffff;fill-rule:nonzero"
       d="m 675.70585,593.75546 c -0.073,-2.942 3.745,-4.246 8.524,-4.246 9.515,0 14.933,2.715 20.998,6.716 0.632,0.427 1.404,0.562 2.152,0.386 0.734,-0.178 1.37,-0.655 1.741,-1.321 l 8.067,-14.032 c 0.736,-1.295 0.301,-2.939 -0.975,-3.704 -6.631,-3.959 -16.344,-9.07 -33.21,-9.07 -24.324,0 -37.344,11.449 -35.168,27.909 3.825,28.928 48.807,19.015 48.105,28.884 -0.159,2.284 -4.141,3.985 -11.029,3.985 -8.9,0 -19.017,-4.458 -25.4,-8.408 -0.628,-0.393 -1.408,-0.512 -2.117,-0.321 -0.729,0.185 -1.338,0.647 -1.706,1.302 l -9.323,15.54 c -0.706,1.257 -0.349,2.839 0.849,3.641 8.951,6.041 23.4,10.106 35.948,10.106 24.35,0 38.388,-10.463 38.392,-27.652 0.007,-31.715 -45.651,-21.876 -45.848,-29.715 z" /><path
       inkscape:connector-curvature="0"
       id="path84"
       style="fill:#ffffff;fill-rule:nonzero"
       d="m 509.89185,187.92546 c -7.521,7.511 -17.401,11.263 -27.217,11.263 -9.833,-0.004 -19.694,-3.752 -27.222,-11.263 -7.504,-7.508 -11.285,-17.38 -11.288,-27.211 0.003,-9.85 3.784,-19.727 11.288,-27.219 7.528,-7.507 17.374,-11.292 27.222,-11.29 9.816,0 19.696,3.755 27.217,11.294 7.492,7.488 11.284,17.367 11.28,27.215 0.004,9.819 -3.788,19.7 -11.28,27.211 z m 116.856,-38.416 -132.876,-132.873997 c -6.403,-6.404 -16.791,-6.404 -23.199,0 l -143.654,143.665997 156.061,156.069 143.668,-143.664 c 6.406,-6.406 6.406,-16.79 0,-23.197 z" /><path
       inkscape:connector-curvature="0"
       id="path86"
       style="fill:#ffffff;fill-rule:nonzero"
       d="m 347.36985,298.88046 c 7.511,-7.53 17.376,-11.282 27.211,-11.282 9.846,0 19.707,3.752 27.201,11.282 7.543,7.507 11.302,17.342 11.302,27.217 0,9.835 -3.759,19.696 -11.302,27.188 -7.494,7.485 -17.355,11.262 -27.201,11.271 -9.843,0 -19.7,-3.783 -27.211,-11.271 -7.519,-7.513 -11.281,-17.376 -11.281,-27.188 0,-9.846 3.762,-19.708 11.281,-27.217 z m -58.521,52.876 c -7.532,7.477 -17.393,11.231 -27.226,11.231 -9.858,-10e-4 -19.708,-3.752 -27.226,-11.231 -7.524,-7.5 -11.254,-17.369 -11.254,-27.201 0,-9.849 3.749,-19.71 11.258,-27.249 7.514,-7.5 17.364,-11.247 27.222,-11.252 9.833,0.005 19.711,3.752 27.226,11.257 7.511,7.534 11.254,17.395 11.245,27.228 0,9.841 -3.734,19.725 -11.245,27.217 z m -115.068,-38.27 c -6.407,6.409 -6.407,16.793 0,23.199 l 132.876,132.9 c 3.2,3.2 7.401,4.801 11.598,4.801 4.199,0 8.399,-1.601 11.599,-4.801 l 143.588,-143.621 -156.063,-156.072 z" /><path
       inkscape:connector-curvature="0"
       id="path88"
       style="fill:#ffffff;fill-rule:nonzero"
       d="m 339.97085,793.48946 c 0,1.518 1.224,2.739 2.738,2.739 h 62.869 c 1.611,0 2.754,-1.221 2.754,-2.739 v -19.896 c 0,-1.501 -1.232,-2.733 -2.754,-2.733 h -26.594 c 0,0 22.861,-26.064 26.929,-30.791 1.123,-1.297 2.585,-2.623 2.585,-6.037 v -13.65 c 0,-1.51 -1.226,-2.74 -2.757,-2.74 h -63.032 c -1.506,0 -2.738,1.22 -2.738,2.74 v 19.902 c 0,1.51 1.224,2.733 2.738,2.733 h 27.018 c 0,0 -27.618,31.571 -28.099,32.137 -1.116,1.283 -1.657,3.088 -1.657,5.017 z" /><path
       inkscape:connector-curvature="0"
       id="path90"
       style="fill:#ffffff;fill-rule:nonzero"
       d="m 418.32185,793.48946 c 0,1.518 1.222,2.739 2.75,2.739 h 62.85 c 1.601,0 2.733,-1.221 2.733,-2.739 v -19.896 c 0,-1.501 -1.221,-2.733 -2.748,-2.733 h -26.306 c 0,0 22.555,-26.085 26.656,-30.791 1.13,-1.291 2.564,-2.623 2.564,-6.037 0,-0.695 0.008,-13.65 0.008,-13.65 0,-1.51 -1.221,-2.74 -2.742,-2.74 h -63.015 c -1.526,0 -2.75,1.22 -2.75,2.74 v 19.902 c 0,1.51 1.222,2.733 2.75,2.733 h 26.993 c 0,0 -27.601,31.571 -28.085,32.137 -1.119,1.283 -1.658,3.088 -1.658,5.017 z" /><path
       inkscape:connector-curvature="0"
       id="path92"
       style="fill:#ffffff;fill-rule:nonzero"
       d="m 578.86785,717.43746 h -23.882 c -1.508,0 -2.744,1.23 -2.744,2.748 v 4.635 c -6.423,-5.916 -14.655,-9.474 -23.623,-9.474 -20.521,0 -37.152,18.618 -37.152,41.586 0,22.989 16.631,41.593 37.152,41.593 8.968,0 17.2,-3.554 23.623,-9.462 v 4.43 c 0,1.514 1.236,2.735 2.744,2.735 h 23.882 c 1.512,0 2.748,-1.221 2.748,-2.735 v -73.308 c 0,-1.518 -1.236,-2.748 -2.748,-2.748 z m -42.335,54.485 c -8.679,0 -15.703,-7.044 -15.703,-15.741 0,-8.649 7.024,-15.677 15.703,-15.677 8.682,0 15.709,7.028 15.709,15.677 0,8.697 -7.027,15.741 -15.709,15.741 z" /><path
       inkscape:connector-curvature="0"
       id="path94"
       style="fill:#ffffff;fill-rule:nonzero"
       d="m 327.28985,717.64246 h -23.828 c -1.5,0 -2.736,1.23 -2.736,2.734 v 73.129 c 0,1.502 1.236,2.726 2.736,2.726 h 23.828 c 1.51,0 2.736,-1.224 2.736,-2.726 v -73.129 c 0,-1.504 -1.226,-2.734 -2.736,-2.734 z" /><path
       inkscape:connector-curvature="0"
       id="path96"
       style="fill:#ffffff;fill-rule:nonzero"
       d="m 315.37485,679.08446 c -9.053,0 -16.441,7.365 -16.441,16.432 0,9.068 7.388,16.435 16.441,16.435 9.057,0 16.434,-7.367 16.434,-16.435 0,-9.067 -7.377,-16.432 -16.434,-16.432 z" /><path
       inkscape:connector-curvature="0"
       id="path98"
       style="fill:#ffffff;fill-rule:nonzero"
       d="m 276.60085,695.87346 c -10.062,-6.966 -20.411,-8.61 -36.661,-8.61 l -30.512,0.121 c -1.43,0 -2.59,1.152 -2.59,2.591 v 103.66 c 0,1.435 1.16,2.593 2.596,2.593 h 27.8 c 1.432,0 2.604,-1.155 2.604,-2.6 l -0.012,-3.157 0.012,-22.898 c 14.251,0 28.704,-0.142 39.415,-9.419 7.471,-6.451 13.071,-16.869 13.071,-30.942 0,-10.91 -5.572,-24.32 -15.723,-31.339 z m -30.757,44.466 h -6.006 v -24.758 h 6.195 c 12.276,0 15.775,6.027 15.775,11.568 0,6.807 -3.043,13.19 -15.964,13.19 z" /><path
       inkscape:connector-curvature="0"
       id="path100"
       style="fill:#ffffff;fill-rule:nonzero"
       d="m 370.04985,475.16046 v -7.201 h -2.587 v -1.657 h 7.063 v 1.657 h -2.576 v 7.201 z" /><path
       inkscape:connector-curvature="0"
       id="path102"
       style="fill:#ffffff;fill-rule:nonzero"
       d="m 383.42785,475.16046 v -6.389 l -2.498,6.389 h -0.821 l -2.497,-6.389 v 6.389 h -1.883 v -8.858 h 2.64 l 2.152,5.535 2.148,-5.535 h 2.657 v 8.858 z" /><path
       inkscape:connector-curvature="0"
       id="path104"
       style="fill:#ffffff;fill-rule:nonzero"
       d="m 591.79485,720.92146 h -1.83 v 2.419 h 1.83 c 0.591,0 1.238,-0.477 1.238,-1.183 0,-0.759 -0.647,-1.236 -1.238,-1.236 z m 1.122,5.99 -1.769,-2.701 h -1.183 v 2.701 h -0.954 v -6.836 h 2.784 c 1.153,0 2.22,0.814 2.22,2.082 0,1.521 -1.347,2.025 -1.739,2.025 l 1.824,2.729 z m -1.629,-8.493 c -2.812,0 -5.064,2.219 -5.064,5.064 0,2.783 2.252,5.06 5.064,5.06 2.812,0 5.06,-2.277 5.06,-5.06 0,-2.845 -2.248,-5.064 -5.06,-5.064 z m 0,11.023 c -3.293,0 -5.961,-2.668 -5.961,-5.959 0,-3.322 2.668,-5.963 5.961,-5.963 3.319,0 5.963,2.641 5.963,5.963 0,3.291 -2.644,5.959 -5.963,5.959 z" /></g></svg>