<?xml version="1.0" encoding="UTF-8" standalone="no"?><!DOCTYPE svg PUBLIC "-//W3C//DTD SVG 1.1//EN" "http://www.w3.org/Graphics/SVG/1.1/DTD/svg11.dtd"><svg width="100%" height="100%" viewBox="0 0 800 800" version="1.1" xmlns="http://www.w3.org/2000/svg" xmlns:xlink="http://www.w3.org/1999/xlink" xml:space="preserve" xmlns:serif="http://www.serif.com/" style="fill-rule:evenodd;clip-rule:evenodd;stroke-linejoin:round;stroke-miterlimit:2;"><path d="M565.97,354.886c-0.724,-10.662 -6.832,-20.494 -18.942,-20.494c-10.454,0 -18.527,8.797 -19.46,20.494l38.402,0Zm-17.699,25.362c8.178,0 13.767,-3.624 18.114,-8.283l3.519,3.107c-5.382,5.797 -11.697,9.936 -21.842,9.936c-13.868,0 -25.876,-11.075 -25.876,-27.533l0,-0.208c0,-15.319 10.765,-27.533 25.048,-27.533c14.804,0 24.222,12.008 24.222,27.637l0,0.206c0,0.727 0,1.035 -0.104,1.863l-43.784,0c0.933,13.147 10.352,20.808 20.703,20.808m-45.781,3.519l0,-31.365c0,-10.869 -6.108,-18.01 -16.768,-18.01c-10.352,0 -18.323,7.867 -18.323,18.838l0,30.537l-5.071,0l0,-52.792l5.071,0l0,9.834c3.519,-6.21 9.421,-11.075 19.047,-11.075c13.353,0 21.115,9.108 21.115,21.738l0,32.295l-5.071,0Zm-59.27,-26.396c0,-12.732 -9.523,-22.874 -21.737,-22.874c-12.526,0 -21.529,10.247 -21.529,22.668l0,0.206c0,12.732 9.521,22.877 21.735,22.877c12.525,0 21.531,-10.25 21.531,-22.671l0,-0.206Zm-21.737,27.637c-15.629,0 -27.015,-12.627 -27.015,-27.431l0,-0.206c0,-14.803 11.488,-27.637 27.221,-27.637c15.632,0 27.018,12.63 27.018,27.431l0,0.206c0,14.801 -11.491,27.637 -27.224,27.637m-44.39,-54.033l5.071,0l0,52.789l-5.071,0l0,-52.789Zm-0.619,-20.7l6.312,0l0,6.934l-6.312,0l0,-6.934Zm-61.1,73.492l0,-2.898l38.09,-45.337l-36.643,0l0,-4.557l44.199,0l0,2.9l-38.09,45.335l38.09,0l0,4.557l-45.646,0Zm-21.506,-25.774c-4.452,-1.139 -10.351,-2.38 -17.907,-2.38c-11.18,0 -17.39,4.966 -17.39,12.316l0,0.206c0,7.661 7.248,12.113 15.321,12.113c10.764,0 19.976,-6.626 19.976,-16.251l0,-6.004Zm-0.104,25.774l0,-8.8c-3.621,5.072 -10.143,10.041 -20.183,10.041c-9.834,0 -20.392,-5.589 -20.392,-16.562l0,-0.206c0,-10.973 9.419,-17.184 23.083,-17.184c7.349,0 12.421,0.933 17.492,2.278l0,-2.278c0,-10.66 -6.521,-16.146 -17.388,-16.146c-6.419,0 -11.697,1.758 -16.561,4.243l-1.863,-4.452c5.795,-2.689 11.488,-4.552 18.735,-4.552c13.56,0 22.046,7.036 22.046,20.701l0,32.917l-4.969,0Zm-60.246,-26.5c0,-13.56 -10.558,-22.668 -21.529,-22.668c-11.49,0 -20.702,8.384 -20.702,22.566l0,0.206c0,13.871 9.625,22.772 20.702,22.772c10.971,0 21.529,-9.212 21.529,-22.668l0,-0.208Zm-0.311,26.5l0,-11.802c-4.554,6.935 -11.281,13.043 -21.737,13.043c-12.732,0 -25.67,-10.247 -25.67,-27.431l0,-0.206c0,-17.184 12.938,-27.637 25.67,-27.637c10.56,0 17.39,6.004 21.737,12.63l0,-34.161l5.074,0l0,75.564l-5.074,0Zm-65.246,0l0,-31.365c0,-10.869 -6.108,-18.01 -16.768,-18.01c-10.351,0 -18.32,7.867 -18.32,18.838l0,30.537l-5.074,0l0,-52.792l5.074,0l0,9.834c3.517,-6.21 9.419,-11.075 19.044,-11.075c13.353,0 21.116,9.108 21.116,21.738l0,32.295l-5.072,0Zm-59.269,-26.396c0,-12.732 -9.521,-22.874 -21.735,-22.874c-12.526,0 -21.531,10.247 -21.531,22.668l0,0.206c0,12.732 9.523,22.877 21.737,22.877c12.525,0 21.529,-10.25 21.529,-22.671l0,-0.206Zm-21.735,27.637c-15.632,0 -27.016,-12.627 -27.016,-27.431l0,-0.206c0,-14.803 11.488,-27.637 27.222,-27.637c15.629,0 27.015,12.63 27.015,27.431l0,0.206c0,14.801 -11.488,27.637 -27.221,27.637m-81.189,-71.996l0,32.973l40.991,0l0,4.969l-40.991,0l0,32.813l-5.382,0l0,-75.722l51.031,0l0,4.967l-45.649,0Zm793.846,-101.229l-133.906,133.906l34.043,34.044c-17.647,21.979 -28.203,49.882 -28.203,80.179c0,70.671 57.415,128.165 128.066,128.305l0,-28.203c-55.098,-0.14 -99.863,-44.983 -99.863,-100.102c0,-22.543 7.474,-43.353 20.086,-60.093l79.777,79.774l0,-39.887l-59.833,-59.83c16.681,-12.571 37.41,-20.025 59.833,-20.087l0,-28.202c-30.198,0.061 -58.001,10.616 -79.917,28.202l-14.103,-14.1l94.02,-94.019l0,-39.887Zm-273.893,211.356c-17.461,0 -29.648,13.947 -29.648,31.159c0,17.212 12.436,31.406 29.9,31.406c17.462,0 29.648,-13.945 29.648,-31.156c0,-17.212 -12.436,-31.409 -29.9,-31.409m0,76.762c-27.01,0 -45.855,-20.479 -45.855,-45.353c0,-24.875 19.097,-45.603 46.107,-45.603c27.01,0 45.855,20.476 45.855,45.353c0,24.875 -19.097,45.603 -46.107,45.603m-112.694,-89.45l15.453,0l0,73.872l44.22,0l0,14.072l-59.673,0l0,-87.944Zm-54.54,14.072l-17.963,0l0,31.658l17.963,0c11.684,0 18.97,-6.406 18.97,-15.828c0,-10.428 -7.41,-15.83 -18.97,-15.83m-0.502,45.603l-17.461,0l0,28.269l-15.453,0l0,-87.944l34.673,0c20.478,0 33.419,11.559 33.419,29.525c0,19.849 -15.831,30.15 -35.178,30.15m-56.41,28.269l-15.454,0l0,-87.942l15.454,0l0,87.942Zm-71.245,-73.872l-22.487,0l0,29.523l22.612,0c11.057,0 18.091,-5.78 18.091,-14.824c0,-9.674 -6.784,-14.699 -18.216,-14.699m18.468,73.872l-21.608,-30.654l-19.347,0l0,30.654l-15.453,0l0,-87.944l39.196,0c20.227,0 32.665,10.68 32.665,27.892c0,14.574 -8.669,23.366 -20.98,26.76l23.743,33.292l-18.216,0Zm-115.586,-70.103l-15.074,35.178l30.275,0l-15.201,-35.178Zm46.107,70.103l-16.332,0l-8.919,-21.233l-41.584,0l-9.045,21.233l-15.83,0l38.694,-88.571l14.322,0l38.694,88.571Zm-134.051,1.506c-25.629,0 -44.724,-19.974 -44.724,-45.353c0,-25.127 18.718,-45.603 45.353,-45.603c16.205,0 26.006,5.652 34.424,13.695l-9.926,11.432c-7.036,-6.534 -14.574,-10.933 -24.625,-10.933c-16.834,0 -29.021,13.822 -29.021,31.159c0,17.336 12.187,31.406 29.021,31.406c10.805,0 17.714,-4.396 25.252,-11.432l9.926,10.051c-9.172,9.548 -19.223,15.578 -35.68,15.578" style="fill:#fff;fill-rule:nonzero;"/></svg>