<?xml version="1.0" encoding="UTF-8"?>
<!DOCTYPE svg PUBLIC "-//W3C//DTD SVG 1.1//EN" "http://www.w3.org/Graphics/SVG/1.1/DTD/svg11.dtd">
<!-- Creator: CorelDRAW X6 -->
<svg xmlns="http://www.w3.org/2000/svg" xml:space="preserve" width="3.93055in" height="1.84722in" version="1.1" style="shape-rendering:geometricPrecision; text-rendering:geometricPrecision; image-rendering:optimizeQuality; fill-rule:evenodd; clip-rule:evenodd"
viewBox="0 0 3931 1847"
 xmlns:xlink="http://www.w3.org/1999/xlink">
 <defs>
  <style type="text/css">
   <![CDATA[
    .fil0 {fill:#FEFEFE;fill-rule:nonzero}
   ]]>
  </style>
 </defs>
 <g id="Layer_x0020_1">
  <metadata id="CorelCorpID_0Corel-Layer"/>
  <path class="fil0" d="M2786 698c-4,-53 -34,-101 -93,-101 -52,0 -91,43 -96,101l189 0zm1151 1149l0 -139c-271,-1 -492,-222 -492,-493 0,-111 37,-214 99,-296l393 393 0 -196 -295 -295c82,-62 184,-99 295,-99l0 -139c-149,0 -286,52 -394,139l-69 -69 463 -463 0 -196 0 0 -659 659 168 168c-87,108 -139,246 -139,395 0,348 283,631 631,632zm-3937 -1380l0 373 27 0 0 -162 202 0 0 -24 -202 0 0 -162 225 0 0 -24 -251 0zm2699 356c40,0 68,-18 89,-41l17 15c-27,29 -58,49 -108,49 -68,0 -127,-55 -127,-136l0 -1c0,-75 53,-136 123,-136 73,0 119,59 119,136l0 1c0,4 0,5 -1,9l-216 0c5,65 51,102 102,102zm-226 17l0 -155c0,-54 -30,-89 -83,-89 -51,0 -90,39 -90,93l0 150 -25 0 0 -260 25 0 0 48c17,-31 46,-55 94,-55 66,0 104,45 104,107l0 159 -25 0zm-292 -130c0,-63 -47,-113 -107,-113 -62,0 -106,50 -106,112l0 1c0,63 47,113 107,113 62,0 106,-50 106,-112l0 -1zm-107 136c-77,0 -133,-62 -133,-135l0 -1c0,-73 57,-136 134,-136 77,0 133,62 133,135l0 1c0,73 -57,136 -134,136zm-219 -6l0 -260 25 0 0 260 -25 0zm-3 -328l0 -34 31 0 0 34 -31 0zm-301 328l0 -14 188 -223 -181 0 0 -22 218 0 0 14 -188 223 188 0 0 22 -225 0zm-106 -127c-22,-6 -51,-12 -88,-12 -55,0 -86,24 -86,61l0 1c0,38 36,60 75,60 53,0 98,-33 98,-80l0 -30zm-1 127l0 -43c-18,25 -50,49 -99,49 -48,0 -100,-28 -100,-82l0 -1c0,-54 46,-85 114,-85 36,0 61,5 86,11l0 -11c0,-53 -32,-80 -86,-80 -32,0 -58,9 -82,21l-9 -22c29,-13 57,-22 92,-22 67,0 109,35 109,102l0 162 -24 0zm-297 -131c0,-67 -52,-112 -106,-112 -57,0 -102,41 -102,111l0 1c0,68 47,112 102,112 54,0 106,-45 106,-112l0 -1zm-2 131l0 -58c-22,34 -56,64 -107,64 -63,0 -126,-50 -126,-135l0 -1c0,-85 64,-136 126,-136 52,0 86,30 107,62l0 -168 25 0 0 372 -25 0zm-321 0l0 -155c0,-54 -30,-89 -83,-89 -51,0 -90,39 -90,93l0 150 -25 0 0 -260 25 0 0 48c17,-31 46,-55 94,-55 66,0 104,45 104,107l0 159 -25 0zm-292 -130c0,-63 -47,-113 -107,-113 -62,0 -106,50 -106,112l0 1c0,63 47,113 107,113 62,0 106,-50 106,-112l0 -1zm-107 136c-77,0 -133,-62 -133,-135l0 -1c0,-73 57,-136 134,-136 77,0 133,62 133,135l0 1c0,73 -57,136 -134,136zm2161 188c-86,0 -146,69 -146,153 0,85 61,155 147,155 86,0 146,-69 146,-153 0,-85 -61,-155 -147,-155zm0 378c-133,0 -226,-101 -226,-223 0,-123 94,-225 227,-225 133,0 226,101 226,223 0,123 -94,225 -227,225zm-555 -441l76 0 0 364 218 0 0 69 -294 0 0 -433zm-269 69l-89 0 0 156 89 0c58,0 93,-32 93,-78 0,-51 -37,-78 -93,-78zm-2 225l-86 0 0 139 -76 0 0 -433 171 0c101,0 165,57 165,145 0,98 -78,149 -173,149zm-278 -294l0 433 -76 0 0 -433 76 0zm-351 69l-111 0 0 145 111 0c54,0 89,-28 89,-73 0,-48 -33,-72 -90,-72zm91 364l-106 -151 -95 0 0 151 -76 0 0 -433 193 0c100,0 161,53 161,137 0,72 -43,115 -103,132l117 164 -90 0zm-569 -345l-74 173 149 0 -75 -173zm227 345l-80 0 -44 -105 -205 0 -45 105 -78 0 191 -436 71 0 191 436zm-660 7c-126,0 -220,-98 -220,-223 0,-124 92,-225 223,-225 80,0 128,28 170,67l-49 56c-35,-32 -72,-54 -121,-54 -83,0 -143,68 -143,153 0,85 60,155 143,155 53,0 87,-22 124,-56l49 50c-45,47 -95,77 -176,77z"/>
 </g>
</svg>
