<?xml version="1.0" encoding="UTF-8" standalone="no"?><!DOCTYPE svg PUBLIC "-//W3C//DTD SVG 1.1//EN" "http://www.w3.org/Graphics/SVG/1.1/DTD/svg11.dtd"><svg width="100%" height="100%" viewBox="0 0 800 800" version="1.1" xmlns="http://www.w3.org/2000/svg" xmlns:xlink="http://www.w3.org/1999/xlink" xml:space="preserve" xmlns:serif="http://www.serif.com/" style="fill-rule:evenodd;clip-rule:evenodd;stroke-linejoin:round;stroke-miterlimit:2;"><g><g id="layer101"><path d="M380.086,684.11c-6.523,-7.21 -7.553,-16.48 -2.403,-19.57c1.717,-1.03 2.403,-6.523 1.03,-12.017c-3.777,-19.227 15.107,-28.153 28.497,-13.39c4.807,5.494 5.493,8.24 2.403,13.047c-2.746,4.463 -2.403,7.553 1.03,12.36c6.181,8.583 6.181,10.644 -2.06,18.884c-8.583,8.583 -21.286,8.926 -28.497,0.686Zm19.914,-10.987c0,-5.493 -2.06,-8.926 -5.837,-9.613c-4.806,-1.03 -6.18,1.03 -6.18,9.613c0,8.584 1.374,10.644 6.18,9.614c3.777,-0.687 5.837,-4.12 5.837,-9.614Zm-1.717,-25.75c0,-8.927 -4.806,-11.33 -8.583,-5.15c-3.09,4.807 0.343,13.734 5.15,13.734c1.717,0 3.433,-3.777 3.433,-8.584Z" style="fill:#fff;fill-rule:nonzero;"/><path d="M394.163,595.186c-13.733,-3.433 -6.866,-25.064 8.24,-25.064c3.434,0 6.18,-2.403 6.18,-5.15c0,-6.18 -1.716,-6.523 -10.3,-1.03c-8.24,5.15 -12.703,1.374 -6.866,-5.836c5.15,-6.18 17.51,-6.867 23.346,-1.03c5.837,5.836 5.494,38.11 0,36.05c-2.403,-0.687 -6.866,-0.343 -9.613,1.03c-2.747,1.03 -7.553,1.717 -10.987,1.03Zm13.734,-14.077c0.686,-2.403 -1.03,-4.12 -4.12,-4.12c-3.09,0 -5.494,2.403 -5.494,5.494c0,5.836 7.554,4.806 9.614,-1.374Z" style="fill:#fff;fill-rule:nonzero;"/><path d="M478.968,590.036c-15.451,-12.017 -7.897,-37.08 11.33,-37.08c15.106,0 25.063,19.57 16.48,32.273c-7.21,11.33 -17.51,13.047 -27.81,4.807Zm18.196,-15.45c-1.373,-15.45 -10.986,-19.914 -14.42,-6.524c-2.746,11.33 0.687,19.227 8.927,19.227c5.493,0 6.523,-2.06 5.493,-12.703Z" style="fill:#fff;fill-rule:nonzero;"/><path d="M281.549,568.062c0,-16.136 -1.374,-25.063 -3.434,-23.69c-1.716,1.03 -3.433,-0.343 -3.433,-3.09c0,-3.777 3.09,-5.493 9.613,-5.493c8.927,0 10.644,2.06 16.481,19.227l6.523,18.883l8.24,-18.883c7.21,-16.824 9.27,-19.227 17.854,-19.227c5.493,0 9.956,1.716 9.956,3.433c0,2.06 -2.403,3.433 -5.15,3.433c-4.12,0 -5.15,5.15 -5.15,25.751c0,20.6 -1.03,25.75 -5.15,25.75c-3.776,0 -5.15,-4.463 -5.15,-17.854l-0.343,-18.196l-7.21,16.48c-3.777,8.927 -8.584,15.793 -10.644,15.107c-1.716,-0.344 -6.18,-7.897 -9.613,-16.137l-6.18,-15.45l0,18.196c-0.344,9.614 -1.717,17.854 -3.777,17.854c-2.06,0 -3.433,-10.987 -3.433,-26.094Z" style="fill:#fff;fill-rule:nonzero;"/><path d="M346.783,576.989c0,-9.27 -1.374,-17.167 -3.434,-17.167c-1.716,0 -3.433,-1.373 -3.433,-3.433c0,-1.717 3.777,-3.09 8.583,-2.747c8.241,0.687 8.584,2.06 8.584,20.6c0,15.451 -1.03,19.914 -5.15,19.914c-3.777,0 -5.15,-4.12 -5.15,-17.167Z" style="fill:#fff;fill-rule:nonzero;"/><path d="M367.383,570.466c0,-13.047 -1.03,-26.094 -2.06,-29.184c-1.717,-4.12 0,-5.493 6.867,-5.493c8.926,0 8.926,0.343 8.926,23.69c0,26.78 -2.06,34.677 -8.926,34.677c-3.777,0 -4.807,-5.837 -4.807,-23.69Z" style="fill:#fff;fill-rule:nonzero;"/><path d="M429.184,576.989c0,-9.27 -1.374,-17.167 -3.434,-17.167c-1.716,0 -3.433,-1.373 -3.433,-3.09c0,-4.12 31.587,-3.776 37.08,0.344c6.18,5.15 5.494,37.08 -1.03,37.08c-3.776,0 -5.15,-3.777 -5.15,-14.764c0,-8.24 -1.03,-16.136 -2.403,-17.166c-4.807,-4.807 -11.33,5.836 -11.33,18.54c0,9.613 -1.374,13.39 -5.15,13.39c-3.777,0 -5.15,-4.12 -5.15,-17.167Z" style="fill:#fff;fill-rule:nonzero;"/><path d="M346.783,544.715c0,-7.21 7.21,-10.643 10.3,-5.15c1.717,2.404 2.06,5.837 1.373,7.21c-3.09,4.807 -11.673,3.091 -11.673,-2.06Z" style="fill:#fff;fill-rule:nonzero;"/><path d="M480.684,133.054c0,-16.136 -0.686,-31.587 -2.06,-34.333c-1.373,-3.777 2.404,-5.494 16.137,-7.21c15.45,-2.06 18.884,-1.374 25.75,5.15c10.987,10.3 10.644,25.063 -0.686,36.393c-5.837,5.837 -11.331,8.24 -16.824,7.21c-7.21,-1.373 -8.24,-0.343 -9.27,8.927c-0.687,6.867 -3.09,10.987 -6.867,11.674c-5.493,1.03 -6.18,-2.06 -6.18,-27.811Zm32.617,-17.853c0,-11.33 -1.373,-14.077 -7.553,-14.764c-8.584,-1.373 -13.047,8.927 -9.957,21.974c1.717,6.523 4.12,8.583 9.957,7.553c6.18,-1.03 7.553,-3.09 7.553,-14.763Z" style="fill:#fff;fill-rule:nonzero;"/><path d="M199.835,110.051c0.686,-23.004 0,-30.901 -3.09,-30.901c-2.404,0 -4.464,-1.373 -4.464,-3.433c0,-1.717 5.15,-3.433 11.674,-3.433c10.986,0 12.016,1.03 20.256,21.63l8.584,21.287l9.27,-21.287c8.583,-19.227 10.643,-21.63 19.227,-21.63c5.493,0 9.957,1.716 9.957,3.433c0,2.06 -1.374,3.433 -3.434,3.433c-2.06,0 -3.433,12.704 -3.433,30.901c0,24.033 -1.03,30.9 -4.807,30.9c-6.523,0 -8.927,-7.553 -8.927,-28.497l-0.343,-17.853l-8.24,18.883c-4.463,10.3 -9.957,18.884 -12.36,18.884c-2.404,0 -7.897,-8.584 -12.017,-18.884l-7.897,-18.883l-0.343,23.347c0,18.54 -1.03,23.003 -5.493,23.003c-4.464,0 -5.15,-4.463 -4.12,-30.9Z" style="fill:#fff;fill-rule:nonzero;"/><path d="M283.609,133.398c-2.404,-4.464 -5.494,-15.107 -6.524,-24.034c-1.373,-15.45 -1.03,-16.48 6.524,-16.48c7.553,0 8.24,1.373 8.24,18.884c0,14.42 1.373,18.883 5.15,18.883c6.867,0 12.703,-12.36 11.33,-25.064c-0.687,-8.24 0.343,-11.33 5.15,-12.016c5.15,-1.03 5.837,1.716 5.837,23.003c0,24.034 -1.717,28.154 -9.27,20.6c-2.747,-2.746 -4.464,-2.746 -5.837,0c-4.12,6.524 -15.45,4.12 -20.6,-3.776Z" style="fill:#fff;fill-rule:nonzero;"/><path d="M333.049,120.694c0,-11.673 -1.373,-20.943 -3.433,-20.943c-1.717,0 -3.433,-1.717 -3.433,-3.777c0,-2.403 4.12,-3.09 10.3,-2.403c5.836,1.03 11.33,0.343 12.36,-1.374c2.746,-4.463 14.077,-3.09 19.913,2.747c7.21,7.21 7.897,46.007 0.687,46.007c-6.18,0 -8.927,-7.553 -8.927,-26.093c0,-11.331 -1.373,-15.107 -5.15,-15.107c-6.867,0 -9.613,7.553 -9.957,25.407c-0.343,10.3 -1.716,14.42 -6.18,15.106c-5.493,1.03 -6.18,-1.716 -6.18,-19.57Z" style="fill:#fff;fill-rule:nonzero;"/><path d="M388.67,136.831c-2.403,-2.403 -4.12,-11.673 -4.12,-20.6c0,-8.927 -1.374,-16.48 -3.434,-16.48c-1.716,0 -3.433,-1.374 -3.433,-3.434c0,-1.716 4.807,-3.433 10.3,-3.433l10.3,0l0,24.034c0,24.033 -1.716,27.81 -9.613,19.913Z" style="fill:#fff;fill-rule:nonzero;"/><path d="M417.854,136.831c-18.541,-14.42 -9.271,-47.037 13.39,-47.38c6.523,0 18.54,9.613 18.54,14.763c0,4.12 -7.897,2.403 -14.077,-3.09c-8.927,-7.897 -13.39,-3.09 -13.39,14.42c0,13.734 0.687,15.107 8.24,15.107c4.807,0 9.613,-1.373 10.643,-3.433c3.09,-5.15 8.584,-4.12 8.584,1.716c0,5.15 -12.704,12.017 -21.974,12.017c-2.403,0 -6.866,-2.06 -9.956,-4.12Z" style="fill:#fff;fill-rule:nonzero;"/><path d="M460.771,136.831c-2.404,-2.403 -4.12,-11.673 -4.12,-20.6c0,-8.927 -1.374,-16.48 -3.434,-16.48c-1.716,0 -3.433,-1.374 -3.433,-3.434c0,-1.716 4.807,-3.433 10.3,-3.433l10.3,0l0,24.034c0,24.033 -1.717,27.81 -9.613,19.913Z" style="fill:#fff;fill-rule:nonzero;"/><path d="M541.455,138.548c-1.374,-1.03 -2.404,-10.3 -2.404,-20.6c0,-9.957 -1.373,-18.197 -3.433,-18.197c-1.717,0 -3.433,-1.374 -3.433,-3.434c0,-1.716 3.776,-3.433 8.24,-3.433c7.897,0 8.583,1.373 9.613,24.034c1.03,22.66 -1.716,28.84 -8.583,21.63Z" style="fill:#fff;fill-rule:nonzero;"/><path d="M568.578,133.741c-11.673,-9.27 -12.36,-26.437 -1.03,-36.737c13.047,-12.017 27.124,-8.583 36.394,8.927c7.554,14.077 -5.493,35.02 -21.287,35.02c-2.746,0 -8.926,-3.09 -14.077,-7.21Zm23.004,-11.33c4.12,-12.36 -2.06,-27.124 -10.643,-25.407c-7.554,1.373 -10.301,29.527 -3.434,33.99c6.524,4.464 10.644,2.06 14.077,-8.583Z" style="fill:#fff;fill-rule:nonzero;"/><path d="M386.267,82.584c-2.747,-4.807 1.03,-10.3 7.21,-10.3c2.746,0 4.806,3.09 4.806,6.866c0,7.211 -8.24,9.614 -12.016,3.434Z" style="fill:#fff;fill-rule:nonzero;"/><path d="M458.367,82.584c-2.746,-4.807 1.03,-10.3 7.21,-10.3c2.747,0 4.807,3.09 4.807,6.866c0,7.211 -8.24,9.614 -12.017,3.434Z" style="fill:#fff;fill-rule:nonzero;"/><path d="M537.335,82.584c-1.374,-2.403 -1.03,-5.494 1.03,-7.554c4.807,-4.806 15.45,-0.686 13.733,5.151c-2.06,5.493 -11.673,7.21 -14.763,2.403Z" style="fill:#fff;fill-rule:nonzero;"/></g><g id="layer102"><path d="M364.636,789.858c-87.207,-35.364 -161.711,-110.211 -219.735,-220.079c-9.27,-17.853 -22.317,-45.32 -28.497,-61.457c-6.18,-16.137 -12.36,-30.557 -14.077,-32.274c-1.374,-2.06 -2.747,-109.868 -2.747,-239.649l0,-236.216l600.84,0l0,242.053c0,146.948 -1.373,244.455 -3.434,248.232c-1.716,3.09 -6.523,15.794 -10.643,28.154c-26.094,77.594 -88.581,163.085 -157.248,214.929c-35.021,26.437 -113.301,66.607 -128.752,66.264c-5.836,0 -21.973,-4.464 -35.707,-9.957Zm104.375,-36.05c53.217,-29.871 117.078,-88.581 149.695,-137.678c21.63,-32.274 44.633,-79.311 55.62,-112.958l8.927,-27.124l0,-230.379l0,-230.036l-283.253,1.03l-283.253,0.687l0,222.826c0,252.696 -2.403,228.319 30.9,298.359c59.054,123.945 136.305,203.599 231.409,239.306l20.601,7.554l24.033,-9.957c13.047,-5.15 33.647,-15.107 45.321,-21.63Z" style="fill:#fff;fill-rule:nonzero;"/><path d="M288.759,494.245c-41.201,-12.704 -75.878,-57.337 -71.071,-91.671c5.837,-43.604 54.247,-78.624 98.194,-71.071c15.794,2.747 16.824,4.807 6.524,14.077c-17.167,15.45 -22.317,52.874 -10.3,76.564c8.926,17.167 27.81,33.304 44.977,38.454c7.553,2.403 13.733,6.18 13.733,8.583c0,2.404 -7.21,9.27 -15.793,15.45c-17.51,12.017 -45.321,16.137 -66.264,9.614Z" style="fill:#fff;fill-rule:nonzero;"/><path d="M454.934,491.498c-12.704,-5.837 -32.274,-23.003 -28.84,-25.407c0.686,-0.343 9.613,-4.806 19.57,-9.27c23.347,-10.643 36.737,-25.75 43.947,-49.784c6.523,-23.003 4.12,-41.2 -7.897,-58.71c-10.643,-15.794 -6.523,-19.571 17.51,-17.167c36.737,4.12 69.011,28.497 77.595,59.054c6.18,21.63 2.403,40.514 -12.017,61.457c-26.781,38.797 -74.504,56.307 -109.868,39.827Z" style="fill:#fff;fill-rule:nonzero;"/><path d="M374.593,413.561c-14.42,-18.197 -13.39,-49.097 1.717,-63.518c6.523,-6.18 12.703,-8.24 24.377,-8.24c22.317,0 31.93,12.017 31.93,39.484c0,17.51 -1.373,21.974 -9.613,31.244c-10.644,12.017 -17.854,10.986 -17.854,-2.404c0,-5.836 -1.717,-8.24 -6.867,-8.24c-5.493,0 -6.866,2.404 -6.866,10.3c0,13.047 -7.211,13.391 -16.824,1.374Z" style="fill:#fff;fill-rule:nonzero;"/><path d="M300.432,320.516c-88.581,-19.226 -128.408,-63.517 -100.254,-111.584c16.823,-28.84 46.007,-42.231 91.671,-42.231c29.527,0 34.677,1.03 53.217,10.301c10.987,5.836 20.6,12.016 21.287,13.733c0.343,2.06 -7.21,8.24 -17.167,13.733c-14.077,8.241 -19.913,14.077 -27.123,28.841c-14.421,28.153 -12.017,51.157 8.24,76.907l9.956,12.704l-16.48,-0.344c-8.927,-0.343 -19.57,-1.03 -23.347,-2.06Z" style="fill:#fff;fill-rule:nonzero;"/><path d="M455.964,320.86c-4.807,-1.374 -3.433,-4.12 7.553,-15.107c32.961,-32.96 23.347,-86.178 -19.227,-106.091c-15.793,-7.554 -16.136,-8.24 -9.956,-13.047c37.08,-28.497 105.747,-28.497 142.828,0c43.26,32.96 38.797,77.937 -10.987,108.151c-30.9,18.884 -88.924,32.274 -110.211,26.094Z" style="fill:#fff;fill-rule:nonzero;"/><path d="M379.743,297.169c-8.583,-9.27 -13.733,-31.243 -10.3,-41.887c2.747,-7.553 15.107,-21.63 19.227,-21.63c1.373,0 2.747,3.777 2.747,8.584c0,6.18 1.716,8.583 6.866,8.583c4.464,0 6.867,-2.403 6.867,-6.523c0,-10.301 5.15,-11.331 12.704,-2.747c15.45,16.823 12.36,49.784 -5.837,59.054c-14.077,7.21 -23.347,6.523 -32.274,-3.434Z" style="fill:#fff;fill-rule:nonzero;"/></g><path id="layer103" d="M359.143,461.971c-35.02,-14.42 -53.561,-38.797 -53.561,-69.697c0,-21.63 6.524,-36.737 23.347,-53.904l13.39,-14.077l-10.986,-12.703c-19.914,-23.004 -23.691,-48.754 -10.644,-76.565c18.884,-40.857 75.878,-58.023 120.855,-36.737c45.32,21.287 55.964,73.475 22.317,107.122l-13.047,13.046l9.27,5.837c13.047,7.554 29.87,33.647 32.617,50.127c3.09,18.197 -6.18,48.411 -18.884,62.831c-13.733,16.137 -47.38,30.557 -73.474,31.93c-16.48,1.03 -25.407,-0.686 -41.2,-7.21Zm64.891,-50.47c12.36,-14.42 12.36,-46.007 0.343,-60.084c-11.33,-13.047 -35.02,-13.734 -48.067,-1.374c-15.107,14.421 -16.137,45.321 -1.717,63.518c6.18,7.896 9.613,8.926 24.034,8.583c14.42,-0.687 18.54,-2.403 25.407,-10.643Zm-12.017,-110.898c17.51,-8.927 21.63,-44.977 6.523,-58.711c-9.613,-8.583 -32.617,-8.583 -40.514,0c-8.926,10.3 -10.986,17.854 -8.583,33.304c2.747,15.45 15.107,30.557 25.407,30.557c4.12,0 11.673,-2.403 17.167,-5.15Z" style="fill:#2c2a70;fill-rule:nonzero;"/></g></svg>