<?xml version="1.0" encoding="UTF-8" standalone="no"?><!DOCTYPE svg PUBLIC "-//W3C//DTD SVG 1.1//EN" "http://www.w3.org/Graphics/SVG/1.1/DTD/svg11.dtd"><svg width="100%" height="100%" viewBox="0 0 800 800" version="1.1" xmlns="http://www.w3.org/2000/svg" xmlns:xlink="http://www.w3.org/1999/xlink" xml:space="preserve" xmlns:serif="http://www.serif.com/" style="fill-rule:evenodd;clip-rule:evenodd;stroke-linejoin:round;stroke-miterlimit:2;"><g><path d="M126.432,798.827c-5.797,-1.388 -10.94,-4.654 -15.267,-9.552c-6.041,-6.94 -6.286,-8.327 -6.286,-39.595l0,-27.268l11.429,0l0,25.961c0,25.472 0.082,25.962 1.96,29.962c1.061,2.286 2.939,5.062 4.163,6.368c3.021,2.939 10.042,4.98 14.777,4.245c7.756,-1.143 11.185,-3.674 14.368,-10.613c1.797,-3.919 1.878,-4.98 2.123,-29.962l0.245,-25.961l11.43,0l-0.245,28.002l-0.245,27.921l-2.286,4.654c-6.45,13.144 -20.982,19.511 -36.166,15.838Z" style="fill:#b1b3b4;fill-rule:nonzero;"/><path d="M301.956,798.745c-6.776,-1.47 -12.082,-4.327 -18.042,-9.797c-12.246,-11.021 -15.593,-29.635 -8.246,-45.555c1.96,-4.245 3.919,-6.857 8.328,-10.939c6.612,-6.123 9.878,-7.919 16.981,-9.634c10.613,-2.53 21.716,-1.143 30.941,3.756c7.511,4 7.756,4.572 3.919,8.735c-1.797,1.878 -3.674,3.429 -4.246,3.429c-0.571,0 -2.041,-0.735 -3.429,-1.633c-3.347,-2.286 -12.082,-4.898 -16.246,-4.898c-1.796,0 -6.041,0.816 -9.388,1.796c-7.674,2.286 -12.654,6.776 -16.083,14.532c-1.96,4.49 -2.368,6.368 -2.368,12.246c0,6.204 0.327,7.592 2.858,12.98c4.326,9.307 10.939,13.716 22.777,15.267c5.143,0.653 14.205,-1.633 18.614,-4.654c1.877,-1.306 3.755,-2.367 4.163,-2.367c0.49,0 2.286,1.714 3.919,3.755l3.102,3.756l-2.041,1.551c-9.225,7.347 -23.185,10.368 -35.513,7.674Z" style="fill:#b1b3b4;fill-rule:nonzero;"/><path d="M479.277,798.99c-9.715,-1.796 -21.471,-10.042 -26.37,-18.451c-6.531,-11.021 -6.694,-27.186 -0.571,-38.533c2.939,-5.307 10.123,-12.41 15.756,-15.43c20.002,-10.613 46.29,-3.511 56.331,15.348c3.348,6.286 4.246,10.531 4.246,18.777c0,12.328 -4.001,21.716 -12.409,28.819c-10.287,8.735 -23.431,12.082 -36.983,9.47Zm20.41,-12.164c5.959,-2.205 11.837,-8.001 14.858,-14.451c1.796,-3.837 2.123,-5.796 2.204,-11.592c0,-6.287 -0.245,-7.511 -2.694,-12.41c-6.857,-13.96 -21.797,-19.511 -37.064,-13.715c-14.287,5.388 -21.145,23.186 -14.695,37.881c1.878,4.163 7.266,10.286 11.185,12.735c6.776,4.164 17.47,4.817 26.206,1.552Z" style="fill:#b1b3b4;fill-rule:nonzero;"/><path d="M585.735,798.745c-9.715,-2.776 -17.553,-10.45 -20.002,-19.593c-0.98,-3.838 -1.225,-10.042 -1.225,-30.779l0,-25.961l11.348,0l0.245,26.37c0.245,25.716 0.327,26.369 2.204,30.125c2.695,5.551 6.368,8.49 12.001,9.633c9.144,1.878 16.818,-1.551 20.982,-9.307c1.714,-3.184 1.796,-4.408 2.041,-30.043l0.245,-26.778l11.429,0l-0.245,28.819l-0.245,28.737l-2.449,4.327c-3.184,5.796 -9.143,11.103 -14.94,13.225c-6.123,2.368 -15.511,2.858 -21.389,1.225Z" style="fill:#b1b3b4;fill-rule:nonzero;"/><path d="M738.645,798.745c-10.041,-2.204 -20.981,-9.96 -25.798,-18.369c-6.449,-11.348 -6.286,-28.737 0.49,-40.166c10.287,-17.39 35.595,-23.757 55.188,-13.879c5.307,2.612 13.471,10.613 16.002,15.675c5.959,11.756 5.959,25.798 0.081,37.39c-2.531,4.899 -11.103,13.226 -16.736,16.002c-8.409,4.245 -19.267,5.47 -29.227,3.347Zm19.92,-11.43c8.409,-2.53 16.246,-12.082 18.206,-22.205c1.796,-9.879 -2.939,-21.39 -11.43,-27.513c-10.205,-7.429 -26.614,-6.694 -35.839,1.633c-8.001,7.184 -11.512,18.695 -8.654,28.574c4.817,16.899 20.001,24.818 37.717,19.511Z" style="fill:#b1b3b4;fill-rule:nonzero;"/><path d="M47.241,793.683c-1.632,-3.102 -4.163,-7.592 -5.633,-10.041c-2.694,-4.654 -6.857,-12.654 -12.572,-24.084c-1.715,-3.592 -4.164,-8.164 -5.307,-10.205l-2.122,-3.674l0,52.658l-5.307,0l-5.307,0l0,-37.963l0,-37.962l5.225,0c6.123,0 5.225,-1.061 13.716,15.512c8.735,17.062 20.655,39.105 21.063,39.187c0.245,0 4.408,-7.43 9.307,-16.573c4.898,-9.062 11.674,-21.39 15.021,-27.268l6.123,-10.858l10.368,0l0,75.925l-5.306,0l-5.307,0l0,-26.288l0,-26.37l-9.796,18.206c-5.307,10.042 -11.022,20.328 -12.573,22.859c-1.551,2.531 -3.592,6.368 -4.653,8.572c-1.062,2.123 -2.368,3.837 -2.939,3.837c-0.49,0 -2.368,-2.449 -4.001,-5.47Z" style="fill:#b1b3b4;fill-rule:nonzero;"/><path d="M177.538,760.374l0,-37.962l9.715,0l4.898,6.776c2.694,3.674 11.43,16.083 19.43,27.513l14.532,20.818l0.245,-27.513l0.163,-27.594l10.614,0l0,76.006l-5.062,-0.244l-5.062,-0.245l-4.735,-6.532c-2.531,-3.592 -11.184,-15.838 -19.185,-27.267l-14.532,-20.737l-0.245,27.431l-0.163,27.513l-5.307,0l-5.306,0l0,-37.963Z" style="fill:#b1b3b4;fill-rule:nonzero;"/><path d="M250.197,760.374l0,-37.962l11.429,0l0,75.925l-5.714,0l-5.715,0l0,-37.963Z" style="fill:#b1b3b4;fill-rule:nonzero;"/><path d="M346.531,760.374l0,-37.962l10.613,0l0,75.925l-5.306,0l-5.307,0l0,-37.963Z" style="fill:#b1b3b4;fill-rule:nonzero;"/><path d="M371.023,760.374l0,-37.962l10.94,0c16.817,0 23.757,1.96 29.635,8.409c4.572,5.143 6.286,9.715 6.368,17.308c0,5.551 -0.327,7.265 -2.286,11.184c-2.694,5.552 -8.164,10.613 -13.471,12.491c-2.122,0.816 -7.51,1.551 -12.164,1.796l-8.409,0.49l0,24.247l-5.306,0l-5.307,0l0,-37.963Zm27.431,1.307c1.796,-0.817 4.082,-2.531 5.062,-3.756c5.469,-6.939 3.673,-19.348 -3.348,-23.022c-1.714,-0.898 -5.306,-1.47 -10.531,-1.714l-8.001,-0.327l0,30.37l6.776,0c4.735,0 7.674,-0.49 10.042,-1.551Z" style="fill:#b1b3b4;fill-rule:nonzero;"/><path d="M426.538,760.374l0,-37.962l11.429,0l0,75.925l-5.714,0l-5.715,0l0,-37.963Z" style="fill:#b1b3b4;fill-rule:nonzero;"/><path d="M637.984,760.374l0,-37.962l5.143,0c5.062,0 5.225,0.082 6.45,2.694c0.653,1.388 4,6.287 7.347,10.777c3.347,4.49 11.348,15.838 17.879,25.145l11.756,17.062l0.245,-27.839l0.163,-27.839l11.43,0l0,75.925l-5.552,0l-5.551,0l-4.49,-6.205c-15.757,-21.961 -31.268,-44.412 -32.411,-46.861c-1.306,-2.694 -1.388,-1.633 -1.633,25.145l-0.163,27.921l-5.307,0l-5.306,0l0,-37.963Z" style="fill:#b1b3b4;fill-rule:nonzero;"/><path d="M95.49,664.612c-16.164,-7.92 -37.227,-18.206 -46.779,-22.778l-17.389,-8.409l0.326,-63.025c0.408,-72.17 0.245,-70.292 7.593,-96.906c5.551,-19.92 13.307,-36.983 24.492,-54.046c12.409,-18.858 29.716,-39.35 29.716,-35.186c0,0.408 -2.367,4.898 -5.306,10.042c-2.939,5.143 -5.715,10.613 -6.287,12.164c-0.489,1.551 -2.53,6.286 -4.49,10.531c-9.552,20.573 -17.144,47.351 -21.144,74.455c-1.225,8.001 -1.47,18.614 -1.715,75.027l-0.326,65.72l7.184,3.51c3.919,1.96 11.593,6.041 16.981,9.062c5.388,3.102 18.614,10.287 29.39,16.001c22.451,11.92 30.615,16.655 30.615,17.635c0,0.408 -3.021,0.734 -6.695,0.734l-6.776,-0.081l-29.39,-14.45Z" style="fill:#b1b3b4;fill-rule:nonzero;"/><path d="M138.677,675.225c-3.51,-2.123 -16.327,-9.552 -28.492,-16.41c-12.082,-6.858 -24.247,-13.879 -26.941,-15.593c-2.694,-1.714 -7.592,-4.572 -10.776,-6.45l-5.96,-3.428l0,-57.393c0,-31.839 0.408,-62.046 0.817,-67.924c3.102,-38.697 15.674,-78.619 35.023,-111.193c7.674,-12.98 11.838,-18.532 28.329,-38.288c0.979,-1.143 2.204,-1.96 2.694,-1.797c0.571,0.245 -1.715,5.797 -5.878,14.287c-15.92,32.819 -26.859,67.353 -32.493,102.784c-3.265,20.982 -3.428,23.921 -3.755,92.09c-0.245,37.635 -0.082,66.699 0.327,66.699c0.653,0 11.429,6.041 60.249,33.717c10.777,6.123 19.675,11.511 19.839,12.001c0.163,0.49 -4.409,0.816 -13.144,0.816l-13.389,0l-6.45,-3.918Z" style="fill:#b1b3b4;fill-rule:nonzero;"/><path d="M160.802,666.652c-12.654,-6.857 -24.41,-13.388 -26.125,-14.45c-1.796,-1.143 -10.042,-5.796 -18.369,-10.286l-15.103,-8.246l0,-53.392c0,-37.799 0.327,-56.331 1.061,-63.597c3.429,-33.309 11.511,-66.618 22.778,-94.212c10.531,-25.553 11.511,-27.921 14.123,-33.145c8.328,-16.492 36.493,-58.781 39.187,-58.781c1.388,0 0.98,0.98 -4.408,12.491c-12.981,27.186 -20.084,45.392 -27.513,70.292c-8.898,30.124 -12.572,50.126 -15.838,87.435c-0.898,10.695 -1.224,27.349 -1.224,72.823l0,58.862l26.369,13.715c14.45,7.511 27.594,14.45 29.145,15.43c1.551,0.98 9.226,5.061 16.981,8.98c7.674,4.001 14.042,7.593 14.042,7.919c0,0.408 -7.266,0.653 -16.083,0.653l-16.164,0l-22.859,-12.491Z" style="fill:#b1b3b4;fill-rule:nonzero;"/><path d="M208.561,667.469c-10.532,-6.45 -22.125,-13.552 -25.717,-15.838c-3.592,-2.368 -11.674,-7.266 -17.96,-11.021l-11.43,-6.858l-0.245,-86.538c-0.245,-94.13 -0.081,-98.62 4.409,-120.091c5.47,-26.778 11.593,-43.024 27.594,-73.476c8.49,-16.164 19.593,-30.86 35.84,-47.351c5.959,-6.041 9.633,-8.572 8.49,-5.714c-0.245,0.489 -3.102,7.021 -6.286,14.45c-14.205,32.329 -23.594,65.801 -30.37,107.355c-1.796,11.348 -1.796,12.001 -2.041,110.622l-0.163,99.192l21.797,14.45c32.493,21.553 46.617,31.186 46.698,31.921c0,0.326 -7.102,0.571 -15.675,0.571l-15.756,-0.081l-19.185,-11.593Z" style="fill:#b1b3b4;fill-rule:nonzero;"/><path d="M253.136,668.775c-7.021,-5.796 -19.512,-15.92 -27.758,-22.696l-15.103,-12.246l0,-74.7c-0.081,-77.149 0.163,-85.394 3.592,-113.478c2.939,-24.41 9.389,-55.27 16.491,-80.007c2.939,-10.123 6.205,-21.308 7.185,-24.9c2.286,-8.245 10.123,-29.063 16.736,-44.493c5.878,-13.797 19.512,-40.575 30.125,-59.189c10.205,-17.879 12.409,-19.757 7.429,-6.531c-1.388,3.592 -3.021,8.735 -3.674,11.429c-0.735,2.695 -3.265,10.94 -5.715,18.369c-10.776,33.228 -20.246,75.68 -25.226,113.479c-4.899,37.146 -4.817,34.697 -5.143,150.87l-0.327,107.192l22.859,22.778c12.654,12.49 22.941,23.103 22.941,23.593c0,0.653 -5.062,0.898 -15.838,0.898l-15.838,0l-12.736,-10.368Z" style="fill:#b1b3b4;fill-rule:nonzero;"/><path d="M301.14,666.652c-5.388,-6.776 -10.695,-13.715 -11.756,-15.266c-1.062,-1.551 -4.654,-6.205 -8.001,-10.368l-5.96,-7.429l0.327,-116.255c0.327,-123.52 0.163,-120.091 4.245,-148.828c2.694,-18.859 5.225,-32.248 11.185,-59.189c6.368,-28.9 20.655,-66.128 40.248,-104.907c13.307,-26.369 19.349,-37.146 20.9,-37.146c0.979,0 1.388,-2.041 -4.082,19.676c-8.899,35.186 -15.185,73.965 -19.43,119.111c-1.143,12.573 -1.388,33.228 -1.633,170.382l-0.327,156.013l6.368,9.878c3.511,5.47 9.96,15.43 14.369,22.288c4.49,6.776 8.245,12.817 8.49,13.47c0.327,0.898 -3.674,1.061 -22.287,1.061l-22.778,0l-9.878,-12.491Z" style="fill:#b1b3b4;fill-rule:nonzero;"/><path d="M378.779,678.164c-0.245,-0.572 -3.837,-10.777 -8.164,-22.614l-7.756,-21.553l0,-165.402c0,-162.87 0.163,-176.83 2.858,-221.324c3.673,-60.495 12.001,-132.501 22.124,-191.036c2.041,-11.919 4.082,-24.165 4.408,-27.349c1.307,-10.695 5.062,-29.064 5.96,-28.737c1.061,0.326 3.184,10.694 9.062,44.248c14.858,84.497 23.186,163.197 26.614,250.225c0.409,11.838 0.817,89.15 0.817,179.606l0,158.789l-8.327,23.104l-8.328,23.022l-19.43,0c-14.858,0 -19.593,-0.245 -19.838,-0.979Z" style="fill:#b1b3b4;fill-rule:nonzero;"/><path d="M441.233,678.409c0,-1.47 4.735,-9.226 16.899,-27.758l12.573,-19.103l-0.327,-153.156c-0.245,-133.399 -0.49,-155.033 -1.633,-167.85c-4.326,-47.841 -9.551,-79.109 -20.164,-121.888c-2.695,-10.94 -4.736,-20.247 -4.409,-20.655c0.653,-1.143 2.694,1.715 9.715,13.961c14.287,24.818 31.268,61.637 38.615,83.68c16.818,50.453 25.88,96.008 28.738,144.502c0.489,7.919 0.816,58.698 0.816,118.458l0,104.662l-12.328,15.348c-6.776,8.491 -14.858,18.859 -17.96,23.022l-5.633,7.511l-22.451,0c-12.328,0 -22.451,-0.326 -22.451,-0.734Z" style="fill:#b1b3b4;fill-rule:nonzero;"/><path d="M498.952,678.572c-0.245,-0.408 10.205,-10.94 23.104,-23.512l23.512,-22.859l0.082,-94.702c0.081,-54.372 -0.245,-101.151 -0.735,-109.805c-2.694,-49.718 -9.797,-94.212 -22.451,-141.236c-3.429,-12.981 -14.287,-46.779 -18.614,-58.127c-1.306,-3.429 -1.796,-5.715 -1.306,-6.042c1.061,-0.653 0.49,-1.387 7.021,9.471c12.246,20.328 28.819,52.739 33.962,66.372c1.633,4.164 5.225,13.797 8.164,21.39c19.43,50.78 31.023,104.172 34.86,160.258c0.49,7.184 0.816,42.779 0.816,83.027l0,70.537l-20.164,16.409c-11.185,8.98 -23.758,19.267 -28.003,22.859l-7.756,6.45l-16.082,0.081c-8.818,0 -16.247,-0.245 -16.41,-0.571Z" style="fill:#b1b3b4;fill-rule:nonzero;"/><path d="M538.547,678.327c0.408,-1.143 6.858,-5.633 38.452,-26.615l29.145,-19.43l0,-92.905c0,-104.254 0.164,-99.845 -6.122,-137.399c-5.225,-31.023 -13.634,-58.862 -26.86,-88.987c-2.939,-6.695 -5.388,-12.491 -5.388,-12.818c0,-4.98 22.369,19.92 34.533,38.371c17.553,26.614 27.839,49.637 34.779,77.721c6.449,26.124 6.041,18.123 6.368,123.275l0.245,94.293l-19.757,11.838c-10.858,6.531 -22.533,13.634 -25.961,15.838c-3.348,2.204 -11.185,7.103 -17.39,10.858l-11.266,6.776l-15.511,0c-9.471,0 -15.43,-0.326 -15.267,-0.816Z" style="fill:#b1b3b4;fill-rule:nonzero;"/><path d="M581.816,678.245c0.163,-0.49 4.245,-3.02 9.062,-5.551c4.817,-2.531 20.655,-10.777 35.105,-18.451c14.45,-7.592 29.88,-15.674 34.288,-17.96l8.001,-4.082l-0.327,-62.046c-0.326,-68.577 -0.571,-72.904 -5.959,-104.907c-7.429,-44.575 -19.104,-81.149 -38.779,-122.377c-3.102,-6.45 -5.633,-11.92 -5.633,-12.083c0,-3.102 11.103,10.858 22.288,27.921c14.695,22.532 31.431,58.127 40.003,84.905c5.878,18.369 10.858,40.33 13.715,60.903c1.715,11.756 1.796,16.409 2.123,70.944l0.326,58.372l-18.124,9.797c-10.041,5.388 -20.981,11.43 -24.328,13.389c-3.429,1.878 -13.797,7.674 -23.104,12.817l-16.899,9.307l-16.002,0c-11.429,0 -16.001,-0.245 -15.756,-0.898Z" style="fill:#b1b3b4;fill-rule:nonzero;"/><path d="M625.901,678.164c0.163,-0.49 5.307,-3.756 11.348,-7.103c6.041,-3.429 12.409,-7.103 14.205,-8.246c1.796,-1.143 14.45,-8.327 28.166,-16.001l24.9,-14.042l0.49,-55.351c0.49,-65.475 -0.164,-83.354 -4.164,-110.948c-4.163,-28.084 -17.879,-69.557 -32.247,-97.396c-3.348,-6.531 -6.123,-12.001 -6.123,-12.083c0,-2.775 11.919,9.96 21.716,23.349c14.858,20.084 31.023,55.515 38.207,83.272c7.429,29.064 7.837,34.779 7.837,108.173l-0.081,62.045l-12.328,6.94c-6.776,3.837 -14.45,8.245 -16.899,9.878c-2.531,1.551 -14.695,8.654 -27.186,15.675l-22.533,12.817l-12.817,0c-9.47,0 -12.736,-0.245 -12.491,-0.979Z" style="fill:#b1b3b4;fill-rule:nonzero;"/><path d="M657.577,678.409c0,-0.327 8.572,-5.225 19.022,-10.777c10.368,-5.47 21.88,-11.756 25.472,-13.797c3.592,-2.041 14.123,-7.756 23.43,-12.736l16.981,-8.898l0.164,-50.617c0.163,-27.839 0.163,-56.086 0.081,-62.862c-0.735,-43.922 -12.981,-87.109 -36.003,-127.194c-5.551,-9.552 -4,-10.042 4.164,-1.306c18.042,19.185 36.656,49.636 41.718,68.087c0.653,2.286 2.449,8.327 4,13.47c5.47,17.553 7.919,33.799 8.164,53.474c0.081,6.286 0.081,33.309 -0.082,60.005l-0.245,48.575l-14.45,7.103c-7.919,3.919 -28.819,14.124 -46.371,22.614l-31.839,15.593l-7.103,0c-3.919,0 -7.103,-0.326 -7.103,-0.734Z" style="fill:#b1b3b4;fill-rule:nonzero;"/><path d="M126.432,798.827c-5.797,-1.388 -10.94,-4.654 -15.267,-9.552c-6.041,-6.94 -6.286,-8.327 -6.286,-39.595l0,-27.268l11.429,0l0,25.961c0,25.472 0.082,25.962 1.96,29.962c1.061,2.286 2.939,5.062 4.163,6.368c3.021,2.939 10.042,4.98 14.777,4.245c7.756,-1.143 11.185,-3.674 14.368,-10.613c1.797,-3.919 1.878,-4.98 2.123,-29.962l0.245,-25.961l11.43,0l-0.245,28.002l-0.245,27.921l-2.286,4.654c-6.45,13.144 -20.982,19.511 -36.166,15.838Z" style="fill:#fff;fill-rule:nonzero;"/><path d="M301.956,798.745c-6.776,-1.47 -12.082,-4.327 -18.042,-9.797c-12.246,-11.021 -15.593,-29.635 -8.246,-45.555c1.96,-4.245 3.919,-6.857 8.328,-10.939c6.612,-6.123 9.878,-7.919 16.981,-9.634c10.613,-2.53 21.716,-1.143 30.941,3.756c7.511,4 7.756,4.572 3.919,8.735c-1.797,1.878 -3.674,3.429 -4.246,3.429c-0.571,0 -2.041,-0.735 -3.429,-1.633c-3.347,-2.286 -12.082,-4.898 -16.246,-4.898c-1.796,0 -6.041,0.816 -9.388,1.796c-7.674,2.286 -12.654,6.776 -16.083,14.532c-1.96,4.49 -2.368,6.368 -2.368,12.246c0,6.204 0.327,7.592 2.858,12.98c4.326,9.307 10.939,13.716 22.777,15.267c5.143,0.653 14.205,-1.633 18.614,-4.654c1.877,-1.306 3.755,-2.367 4.163,-2.367c0.49,0 2.286,1.714 3.919,3.755l3.102,3.756l-2.041,1.551c-9.225,7.347 -23.185,10.368 -35.513,7.674Z" style="fill:#fff;fill-rule:nonzero;"/><path d="M479.277,798.99c-9.715,-1.796 -21.471,-10.042 -26.37,-18.451c-6.531,-11.021 -6.694,-27.186 -0.571,-38.533c2.939,-5.307 10.123,-12.41 15.756,-15.43c20.002,-10.613 46.29,-3.511 56.331,15.348c3.348,6.286 4.246,10.531 4.246,18.777c0,12.328 -4.001,21.716 -12.409,28.819c-10.287,8.735 -23.431,12.082 -36.983,9.47Zm20.41,-12.164c5.959,-2.205 11.837,-8.001 14.858,-14.451c1.796,-3.837 2.123,-5.796 2.204,-11.592c0,-6.287 -0.245,-7.511 -2.694,-12.41c-6.857,-13.96 -21.797,-19.511 -37.064,-13.715c-14.287,5.388 -21.145,23.186 -14.695,37.881c1.878,4.163 7.266,10.286 11.185,12.735c6.776,4.164 17.47,4.817 26.206,1.552Z" style="fill:#fff;fill-rule:nonzero;"/><path d="M585.735,798.745c-9.715,-2.776 -17.553,-10.45 -20.002,-19.593c-0.98,-3.838 -1.225,-10.042 -1.225,-30.779l0,-25.961l11.348,0l0.245,26.37c0.245,25.716 0.327,26.369 2.204,30.125c2.695,5.551 6.368,8.49 12.001,9.633c9.144,1.878 16.818,-1.551 20.982,-9.307c1.714,-3.184 1.796,-4.408 2.041,-30.043l0.245,-26.778l11.429,0l-0.245,28.819l-0.245,28.737l-2.449,4.327c-3.184,5.796 -9.143,11.103 -14.94,13.225c-6.123,2.368 -15.511,2.858 -21.389,1.225Z" style="fill:#fff;fill-rule:nonzero;"/><path d="M738.645,798.745c-10.041,-2.204 -20.981,-9.96 -25.798,-18.369c-6.449,-11.348 -6.286,-28.737 0.49,-40.166c10.287,-17.39 35.595,-23.757 55.188,-13.879c5.307,2.612 13.471,10.613 16.002,15.675c5.959,11.756 5.959,25.798 0.081,37.39c-2.531,4.899 -11.103,13.226 -16.736,16.002c-8.409,4.245 -19.267,5.47 -29.227,3.347Zm19.92,-11.43c8.409,-2.53 16.246,-12.082 18.206,-22.205c1.796,-9.879 -2.939,-21.39 -11.43,-27.513c-10.205,-7.429 -26.614,-6.694 -35.839,1.633c-8.001,7.184 -11.512,18.695 -8.654,28.574c4.817,16.899 20.001,24.818 37.717,19.511Z" style="fill:#fff;fill-rule:nonzero;"/><path d="M47.241,793.683c-1.632,-3.102 -4.163,-7.592 -5.633,-10.041c-2.694,-4.654 -6.857,-12.654 -12.572,-24.084c-1.715,-3.592 -4.164,-8.164 -5.307,-10.205l-2.122,-3.674l0,52.658l-5.307,0l-5.307,0l0,-37.963l0,-37.962l5.225,0c6.123,0 5.225,-1.061 13.716,15.512c8.735,17.062 20.655,39.105 21.063,39.187c0.245,0 4.408,-7.43 9.307,-16.573c4.898,-9.062 11.674,-21.39 15.021,-27.268l6.123,-10.858l10.368,0l0,75.925l-5.306,0l-5.307,0l0,-26.288l0,-26.37l-9.796,18.206c-5.307,10.042 -11.022,20.328 -12.573,22.859c-1.551,2.531 -3.592,6.368 -4.653,8.572c-1.062,2.123 -2.368,3.837 -2.939,3.837c-0.49,0 -2.368,-2.449 -4.001,-5.47Z" style="fill:#fff;fill-rule:nonzero;"/><path d="M177.538,760.374l0,-37.962l9.715,0l4.898,6.776c2.694,3.674 11.43,16.083 19.43,27.513l14.532,20.818l0.245,-27.513l0.163,-27.594l10.614,0l0,76.006l-5.062,-0.244l-5.062,-0.245l-4.735,-6.532c-2.531,-3.592 -11.184,-15.838 -19.185,-27.267l-14.532,-20.737l-0.245,27.431l-0.163,27.513l-5.307,0l-5.306,0l0,-37.963Z" style="fill:#fff;fill-rule:nonzero;"/><path d="M250.197,760.374l0,-37.962l11.429,0l0,75.925l-5.714,0l-5.715,0l0,-37.963Z" style="fill:#fff;fill-rule:nonzero;"/><path d="M346.531,760.374l0,-37.962l10.613,0l0,75.925l-5.306,0l-5.307,0l0,-37.963Z" style="fill:#fff;fill-rule:nonzero;"/><path d="M371.023,760.374l0,-37.962l10.94,0c16.817,0 23.757,1.96 29.635,8.409c4.572,5.143 6.286,9.715 6.368,17.308c0,5.551 -0.327,7.265 -2.286,11.184c-2.694,5.552 -8.164,10.613 -13.471,12.491c-2.122,0.816 -7.51,1.551 -12.164,1.796l-8.409,0.49l0,24.247l-5.306,0l-5.307,0l0,-37.963Zm27.431,1.307c1.796,-0.817 4.082,-2.531 5.062,-3.756c5.469,-6.939 3.673,-19.348 -3.348,-23.022c-1.714,-0.898 -5.306,-1.47 -10.531,-1.714l-8.001,-0.327l0,30.37l6.776,0c4.735,0 7.674,-0.49 10.042,-1.551Z" style="fill:#fff;fill-rule:nonzero;"/><path d="M426.538,760.374l0,-37.962l11.429,0l0,75.925l-5.714,0l-5.715,0l0,-37.963Z" style="fill:#fff;fill-rule:nonzero;"/><path d="M637.984,760.374l0,-37.962l5.143,0c5.062,0 5.225,0.082 6.45,2.694c0.653,1.388 4,6.287 7.347,10.777c3.347,4.49 11.348,15.838 17.879,25.145l11.756,17.062l0.245,-27.839l0.163,-27.839l11.43,0l0,75.925l-5.552,0l-5.551,0l-4.49,-6.205c-15.757,-21.961 -31.268,-44.412 -32.411,-46.861c-1.306,-2.694 -1.388,-1.633 -1.633,25.145l-0.163,27.921l-5.307,0l-5.306,0l0,-37.963Z" style="fill:#fff;fill-rule:nonzero;"/><path d="M231.665,633.67l-21.471,-0.245l0,-74.536c0,-76.823 0.326,-85.314 3.673,-113.234c2.939,-24.41 9.389,-55.27 16.491,-80.007c2.939,-10.123 6.205,-21.308 7.185,-24.9c2.286,-8.245 10.123,-29.063 16.736,-44.493c5.878,-13.797 19.512,-40.575 30.125,-59.189c10.205,-17.879 12.409,-19.757 7.429,-6.531c-1.388,3.592 -3.021,8.735 -3.674,11.429c-0.735,2.695 -3.265,10.94 -5.715,18.369c-10.776,33.228 -20.246,75.68 -25.226,113.479c-4.899,37.146 -4.817,34.697 -5.143,150.87c-0.245,81.312 -0.082,107.519 0.653,108.417c0.489,0.653 0.816,1.061 0.653,0.979c-0.164,-0.163 -9.96,-0.326 -21.716,-0.408Z" style="fill:#fff;fill-rule:nonzero;"/><path d="M31.648,570.4c0.408,-72.17 0.245,-70.292 7.593,-96.906c5.551,-19.92 13.307,-36.983 24.492,-54.046c12.409,-18.858 29.716,-39.35 29.716,-35.186c0,0.408 -2.367,4.898 -5.306,10.042c-2.939,5.143 -5.715,10.613 -6.287,12.164c-0.489,1.551 -2.53,6.286 -4.49,10.531c-9.552,20.573 -17.144,47.351 -21.144,74.455c-1.225,8.001 -1.47,18.614 -1.715,75.68l-0.326,66.291l-11.43,0l-11.429,0l0.326,-63.025Z" style="fill:#fff;fill-rule:nonzero;"/><path d="M66.508,575.951c0,-31.839 0.408,-62.046 0.817,-67.924c3.102,-38.697 15.674,-78.619 35.023,-111.193c7.674,-12.98 11.838,-18.532 28.329,-38.288c0.979,-1.143 2.204,-1.96 2.694,-1.797c0.571,0.245 -1.715,5.797 -5.878,14.287c-15.92,32.819 -26.859,67.353 -32.493,102.784c-3.265,21.063 -3.428,23.921 -3.755,92.498l-0.327,67.107l-12.245,0l-12.165,0l0,-57.474Z" style="fill:#fff;fill-rule:nonzero;"/><path d="M101.042,578.155c0.326,-43.35 0.653,-57.637 1.632,-66.046c3.919,-32.656 11.593,-63.27 22.37,-89.64c10.531,-25.553 11.511,-27.921 14.123,-33.145c8.328,-16.492 36.493,-58.781 39.187,-58.781c1.388,0 0.98,0.98 -4.408,12.491c-12.981,27.186 -20.084,45.392 -27.513,70.292c-7.592,25.716 -10.858,41.309 -13.797,67.434c-0.816,7.837 -1.796,15.756 -2.122,17.552c-0.245,1.796 -0.735,32.819 -0.98,68.985l-0.572,65.72l-14.123,0.245l-14.205,0.163l0.408,-55.27Z" style="fill:#fff;fill-rule:nonzero;"/><path d="M153.046,546.724c0,-94.048 0.163,-98.457 4.572,-119.601c5.47,-26.778 11.593,-43.106 27.594,-73.476c8.49,-16.164 19.593,-30.86 35.84,-47.351c5.959,-6.041 9.633,-8.572 8.49,-5.714c-0.245,0.489 -3.102,7.021 -6.286,14.45c-14.205,32.329 -23.594,65.801 -30.37,107.355c-1.796,11.348 -1.796,12.083 -2.041,111.275l-0.327,99.763l-18.695,0l-18.777,0l0,-86.701Z" style="fill:#fff;fill-rule:nonzero;"/><path d="M275.75,517.334c0.327,-123.52 0.163,-120.091 4.245,-148.828c2.694,-18.859 5.225,-32.248 11.185,-59.189c6.368,-28.9 20.655,-66.128 40.248,-104.907c13.307,-26.369 19.349,-37.146 20.9,-37.146c0.979,0 1.388,-2.041 -4.082,19.676c-8.817,35.186 -15.348,74.945 -19.43,119.111c-1.225,13.389 -1.47,32.575 -1.797,171.035l-0.489,155.931l-25.553,0.245l-25.554,0.163l0.327,-116.091Z" style="fill:#fff;fill-rule:nonzero;"/><path d="M362.859,468.35c0,-162.625 0.163,-176.585 2.858,-221.079c3.673,-60.495 12.001,-132.501 22.124,-191.036c2.041,-11.919 4.082,-24.165 4.408,-27.349c1.307,-10.695 5.062,-29.064 5.96,-28.737c1.061,0.326 3.184,10.694 9.062,44.248c14.858,84.497 23.186,163.197 26.614,250.225c0.409,11.838 0.817,89.15 0.817,179.851l0,158.952l-35.922,0l-35.921,0l0,-165.075Z" style="fill:#fff;fill-rule:nonzero;"/><path d="M470.215,481.739c0,-116.254 -0.245,-154.625 -1.061,-164.666c-3.919,-49.31 -9.471,-83.844 -20.573,-128.419c-2.695,-10.94 -4.736,-20.247 -4.409,-20.655c0.653,-1.143 2.694,1.715 9.715,13.961c14.287,24.818 31.268,61.637 38.615,83.68c16.818,50.453 25.88,96.008 28.738,144.502c0.489,7.919 0.816,58.78 0.816,118.622l0,104.661l-25.88,0l-25.961,0l0,-151.686Z" style="fill:#fff;fill-rule:nonzero;"/><path d="M545.731,538.152c0,-53.8 -0.326,-101.967 -0.816,-110.458c-2.694,-49.718 -9.797,-94.212 -22.451,-141.236c-3.429,-12.981 -14.287,-46.779 -18.614,-58.127c-1.306,-3.429 -1.796,-5.715 -1.306,-6.042c1.061,-0.653 0.49,-1.387 7.021,9.471c12.246,20.328 28.819,52.739 33.962,66.372c1.633,4.164 5.225,13.797 8.164,21.39c19.43,50.78 31.023,104.172 34.86,160.258c0.49,7.184 0.816,42.779 0.816,83.109l0,70.536l-20.818,0l-20.818,0l0,-95.273Z" style="fill:#fff;fill-rule:nonzero;"/><path d="M606.716,632.854c-0.327,-0.245 -0.572,-42.371 -0.572,-93.477c0,-104.254 0.164,-99.845 -6.122,-137.399c-5.225,-31.023 -13.634,-58.862 -26.86,-88.987c-2.939,-6.695 -5.388,-12.491 -5.388,-12.818c0,-4.98 22.369,19.92 34.533,38.371c17.553,26.614 27.839,49.637 34.779,77.721c6.449,26.043 6.041,18.123 6.368,123.112l0.326,94.048l-18.287,0c-10.042,0 -18.532,-0.245 -18.777,-0.571Z" style="fill:#fff;fill-rule:nonzero;"/><path d="M667.945,570.808c-0.326,-69.312 -0.571,-73.476 -5.959,-105.56c-7.429,-44.575 -19.104,-81.149 -38.779,-122.377c-3.102,-6.45 -5.633,-11.92 -5.633,-12.083c0,-3.102 11.103,10.858 22.288,27.921c14.695,22.532 31.431,58.127 40.003,84.905c5.878,18.369 10.858,40.33 13.715,60.903c1.715,11.756 1.796,16.491 2.123,70.781l0.326,58.127l-13.878,0l-13.879,0l-0.327,-62.617Z" style="fill:#fff;fill-rule:nonzero;"/><path d="M705.01,577.584c0.49,-65.638 -0.164,-83.435 -4.164,-111.111c-4.163,-28.084 -17.879,-69.557 -32.247,-97.396c-3.348,-6.531 -6.123,-12.001 -6.123,-12.083c0,-2.775 11.919,9.96 21.716,23.349c14.858,20.084 31.023,55.515 38.207,83.272c7.429,29.064 7.837,34.779 7.837,108.009l0,61.883l-12.817,-0.163l-12.899,-0.164l0.49,-55.596Z" style="fill:#fff;fill-rule:nonzero;"/><path d="M742.89,632.609c-0.326,-0.49 -0.408,-29.064 -0.326,-63.516c0.082,-54.126 -0.082,-64.168 -1.225,-74.046c-4.408,-36.575 -15.919,-70.945 -34.615,-103.519c-5.551,-9.552 -4,-10.042 4.164,-1.306c18.042,19.185 36.656,49.636 41.718,68.087c0.653,2.286 2.449,8.327 4,13.47c5.47,17.553 7.919,33.799 8.164,53.474c0.081,6.286 0.081,33.227 0,59.842l-0.245,48.33l-10.532,0c-6.286,0 -10.776,-0.326 -11.103,-0.816Z" style="fill:#fff;fill-rule:nonzero;"/></g></svg>