<?xml version="1.0" encoding="UTF-8" standalone="no"?>
<svg
   xmlns:dc="http://purl.org/dc/elements/1.1/"
   xmlns:cc="http://creativecommons.org/ns#"
   xmlns:rdf="http://www.w3.org/1999/02/22-rdf-syntax-ns#"
   xmlns:svg="http://www.w3.org/2000/svg"
   xmlns="http://www.w3.org/2000/svg"
   xmlns:sodipodi="http://sodipodi.sourceforge.net/DTD/sodipodi-0.dtd"
   xmlns:inkscape="http://www.inkscape.org/namespaces/inkscape"
   width="100%"
   height="100%"
   viewBox="0 0 800 800"
   version="1.1"
   xml:space="preserve"
   style="fill-rule:evenodd;clip-rule:evenodd;stroke-linejoin:round;stroke-miterlimit:2;"
   id="svg205"
   sodipodi:docname="QuantaClubWhite.svg"
   inkscape:version="0.92.4 (5da689c313, 2019-01-14)"><metadata
     id="metadata211"><rdf:RDF><cc:Work
         rdf:about=""><dc:format>image/svg+xml</dc:format><dc:type
           rdf:resource="http://purl.org/dc/dcmitype/StillImage" /><dc:title></dc:title></cc:Work></rdf:RDF></metadata><defs
     id="defs209" /><sodipodi:namedview
     pagecolor="#ffffff"
     bordercolor="#666666"
     borderopacity="1"
     objecttolerance="10"
     gridtolerance="10"
     guidetolerance="10"
     inkscape:pageopacity="0"
     inkscape:pageshadow="2"
     inkscape:window-width="1366"
     inkscape:window-height="705"
     id="namedview207"
     showgrid="false"
     inkscape:zoom="0.295"
     inkscape:cx="400"
     inkscape:cy="400"
     inkscape:window-x="-8"
     inkscape:window-y="-8"
     inkscape:window-maximized="1"
     inkscape:current-layer="svg205" /><g
     id="g203"
     style="fill:#ffffff"><path
       d="M50.099,403.026c16.89,-1.125 32.368,-4.12 45.74,-9.364c-55.944,-7.485 -95.696,-25.47 -95.696,-46.446c0,-27.717 68.248,-50.195 151.981,-50.195l0.713,0l0,13.112c-53.837,0 -97.102,16.482 -97.102,36.705c0,20.606 43.265,37.083 97.102,37.083l0,24.351c-26.748,-1.125 -54.539,0.742 -78.814,7.866l-23.924,-13.112Zm102.738,-106.005c83.021,0.375 151.285,22.854 151.285,50.195c0,23.225 -48.917,43.068 -114.349,48.311c24.629,7.122 58.047,6.374 82.327,-1.487l33.075,11.231c-33.771,8.619 -72.479,12.366 -115.402,6.369c-11.964,-1.873 -24.272,-2.998 -36.936,-3.368l0,-24.351c53.47,0 96.752,-16.477 96.752,-37.083c0,-20.223 -43.282,-36.705 -96.752,-36.705l0,-13.112Z"
       style="fill:#ffffff;fill-rule:nonzero"
       id="path177" /><path
       d="M408.263,332.601c-0.71,0.75 -1.064,1.875 -1.064,3.003l0,38.203c0,6.368 -2.452,11.62 -7.031,15.359c-7.035,6 -18.654,8.989 -34.839,8.989c-12.661,0 -22.511,-1.87 -29.543,-5.99c-3.869,-2.251 -6.337,-4.879 -8.092,-7.867c-1.761,-3 -2.466,-7.115 -2.466,-11.614l0,-37.08c-0.353,-1.128 -0.702,-2.253 -1.05,-3.003l33.418,0c-0.702,0.75 -0.702,1.875 -1.048,3.003l0,38.956c0,4.12 1.399,7.491 4.558,9.738c2.817,2.246 7.042,3.371 13.029,3.371c4.22,0 8.438,-0.751 11.959,-2.242c2.463,-1.506 4.215,-3.002 5.273,-4.871c1.064,-1.876 1.766,-4.131 1.766,-7.127l0,-37.825c0,-1.497 -0.359,-2.62 -1.055,-3.003l16.185,0Z"
       style="fill:#ffffff;fill-rule:nonzero"
       id="path179" /><path
       d="M432.53,380.926l-6.332,13.106c-0.699,1.131 -1.054,1.881 -1.054,2.251c0,0.372 0.355,0.372 0.355,0.748l-16.893,0c1.058,-0.748 1.763,-1.868 2.816,-2.999l29.203,-58.43c0.704,-1.123 1.05,-1.87 1.05,-2.621l-0.346,-0.38l4.575,0l0,20.236l-8.095,18.353l8.095,0l0,9.736l-13.374,0Zm13.374,-48.325l22.165,0c-0.35,0 -0.35,0.38 -0.35,0.38c0,0.37 0.35,1.498 1.05,2.621l30.259,58.43c0.702,1.131 1.766,2.251 2.819,2.999l-35.889,0l0,-0.748c0,-0.37 -0.353,-1.497 -0.705,-2.251l-6.337,-13.106l-13.012,0l0,-9.736l8.452,0l-8.098,-18.728l-0.354,0.375l0,-20.236Z"
       style="fill:#ffffff;fill-rule:nonzero"
       id="path181" /><path
       d="M520.838,358.82l0,35.213c0,1.131 0.359,2.251 1.052,2.998l-16.171,0c0.697,-0.747 1.053,-1.867 1.053,-2.998l0,-58.431c0,-1.5 -0.356,-2.62 -1.053,-3l27.089,0c0.346,0.747 1.052,1.876 2.819,3l39.401,35.958l0,-35.958c0,-1.124 -0.348,-2.253 -1.069,-3l15.839,0c-0.348,0.38 -0.702,0.747 -0.702,0.747l0,60.684c0,0.751 0.354,1.876 0.702,2.998l-27.45,0c-0.332,-0.747 -1.048,-1.867 -2.806,-2.998l-38.704,-35.213Z"
       style="fill:#ffffff;fill-rule:nonzero"
       id="path183" /><path
       d="M595.078,332.601l75.293,0l0,10.864c-1.766,-0.375 -3.519,-0.375 -5.285,-0.375l-16.525,0l0,50.95c0,1.126 0.34,2.245 0.702,2.99l-33.42,0c0.702,-0.745 1.042,-1.864 1.042,-2.99l0,-50.95l-15.475,0c-1.758,0 -3.864,0 -6.332,0.375l0,-10.864Z"
       style="fill:#ffffff;fill-rule:nonzero"
       id="path185" /><path
       d="M685.498,380.926l-6.685,13.106c-0.359,1.131 -0.697,1.881 -0.697,2.251l0,0.748l-16.901,0c1.059,-0.748 2.118,-1.868 2.828,-2.999l29.203,-58.43c0.688,-1.123 1.05,-1.87 1.05,-2.621c0,0 0,-0.38 -0.362,-0.38l4.939,0l0,20.236l-8.446,18.353l8.446,0l0,9.736l-13.375,0Zm13.375,-48.325l21.807,0l0,0.38c0,0.37 0.343,1.498 0.702,2.621l30.258,58.43c0.699,1.131 1.747,2.251 2.806,2.999l-35.883,0l0,-0.748c0,-0.37 0,-1.497 -0.694,-2.251l-5.981,-13.106l-13.015,0l0,-9.736l8.085,0l-8.085,-18.728l0,0.375l0,-20.236Z"
       style="fill:#ffffff;fill-rule:nonzero"
       id="path187" /><path
       d="M278.91,190.707c22.544,49.81 86.501,45.235 116.558,4.944c9.529,-12.973 50.209,-84.198 132.501,-22.329c-13.929,-37.534 -63.771,-65.362 -122.972,-65.362c-65.064,0 -118.95,33.879 -125.712,77.276c-0.193,1.654 -0.193,3.645 -0.375,5.471"
       style="fill:#ffffff;fill-rule:nonzero"
       id="path189" /><path
       d="M426.628,191.251c-53.889,88.254 -114.357,57.868 -139.832,34.066c17.962,32.593 64.324,55.837 118.201,55.837c70.012,0 126.828,-38.813 126.828,-86.603c0,-4.934 -0.552,-9.696 -1.649,-14.449c-64.147,-44.847 -101.167,7.14 -103.548,11.149"
       style="fill:#ffffff;fill-rule:nonzero"
       id="path191" /><path
       d="M770.506,529.248c-198.395,60.845 -306.112,81.742 -495.555,162.599c-4.06,1.713 85.722,-8.499 89.837,-10.261c188.825,-80.588 208.327,-84.41 406.894,-143.749c61.532,-18.398 3.847,-10.133 -1.176,-8.589"
       style="fill:#ffffff;fill-rule:nonzero"
       id="path193" /><path
       d="M484.217,526.114l1.173,7.01c-15.499,16.414 -29.938,30.228 -43.318,41.445c-13.382,11.218 -26.753,20.361 -40.119,27.436c-13.372,7.067 -26.656,11.711 -39.862,13.918c-11.409,1.902 -21.469,1.991 -30.171,0.266c-8.705,-1.726 -15.641,-5.206 -20.803,-10.446c-5.17,-5.235 -8.43,-11.919 -9.788,-20.046c-1.072,-6.401 -0.702,-13.432 1.113,-21.09c1.812,-7.657 4.961,-15.61 9.445,-23.865c4.482,-8.252 10.221,-16.955 17.217,-26.11c6.99,-9.152 15.371,-18.937 25.137,-29.366c10.139,-10.788 20.321,-20.345 30.55,-28.668c10.228,-8.322 19.629,-15.085 28.206,-20.288c8.578,-5.202 16.649,-9.358 24.221,-12.47c7.564,-3.11 13.94,-5.099 19.116,-5.964c5.282,-0.883 9.915,-0.77 13.902,0.34c3.987,1.11 7.26,3.15 9.823,6.124c2.558,2.97 4.202,6.615 4.923,10.933c1.358,8.126 -1.194,17.848 -7.663,29.17c-6.468,11.321 -15.001,22.633 -25.595,33.935c-10.599,11.307 -20.928,20.81 -30.985,28.518c-10.056,7.704 -17.521,11.96 -22.378,12.773c-3.273,0.546 -6.46,0.171 -9.551,-1.123c-3.094,-1.291 -4.827,-3.055 -5.203,-5.284c-0.686,-4.104 1.679,-9.597 7.1,-16.491c5.415,-6.892 11.491,-13.397 18.234,-19.512c6.74,-6.114 10.849,-9.296 12.328,-9.544c0.741,-0.123 1.146,0.03 1.22,0.461c0.106,0.648 -0.262,1.858 -1.105,3.624c-0.844,1.767 -1.238,2.832 -1.176,3.191c0.096,0.577 0.461,0.81 1.095,0.704c1.795,-0.301 6.424,-4.435 13.885,-12.411c7.465,-7.971 14.101,-16.49 19.916,-25.555c5.812,-9.07 8.299,-16.118 7.456,-21.153c-0.351,-2.087 -1.279,-3.577 -2.784,-4.473c-1.51,-0.889 -3.583,-1.12 -6.223,-0.68c-7.393,1.234 -17.934,7.195 -31.625,17.867c-13.687,10.679 -27.374,23.644 -41.056,38.9c-13.681,15.263 -24.68,30.5 -32.993,45.71c-8.313,15.214 -11.614,27.929 -9.907,38.139c0.987,5.898 3.104,10.611 6.353,14.131c3.252,3.525 7.568,5.947 12.945,7.268c5.377,1.318 11.608,1.389 18.685,0.209c15.317,-2.557 32.015,-9.521 50.096,-20.896c18.076,-11.367 37.467,-26.915 58.166,-46.637"
       style="fill:#ffffff;fill-rule:nonzero"
       id="path195" /><path
       d="M507.78,501.441c4.876,-4.585 9.485,-9.641 13.831,-15.169c4.34,-5.53 8.338,-11.335 11.989,-17.419c3.651,-6.077 6.419,-11.456 8.297,-16.133c1.877,-4.676 2.637,-8.093 2.274,-10.251c-0.277,-1.652 -1.259,-2.34 -2.949,-2.054c-0.632,0.102 -1.782,0.704 -3.445,1.793c-5.842,4.673 -11.905,12.908 -18.18,24.716c-6.28,11.805 -10.218,23.313 -11.817,34.517m50.626,11.511l1.338,7.986c-18.748,23.607 -35.039,36.566 -48.879,38.877c-7.501,1.253 -13.856,-0.552 -19.067,-5.411c-5.21,-4.861 -8.574,-11.822 -10.089,-20.884c-1.228,-7.334 -0.15,-16.483 3.227,-27.434c3.382,-10.948 8.454,-22.332 15.219,-34.145c6.767,-11.81 14.068,-22.347 21.916,-31.601c7.842,-9.259 15.415,-16.085 22.719,-20.485c2.952,-1.824 5.324,-2.884 7.12,-3.186c2.218,-0.37 3.807,0.049 4.773,1.256c0.958,1.206 1.712,3.427 2.253,6.665c1.674,9.997 -2.242,23.275 -11.741,39.834c-9.503,16.557 -23.655,34.204 -42.452,52.94c-0.43,3.919 -0.479,6.885 -0.142,8.899c0.771,4.602 2.846,8.097 6.235,10.489c3.384,2.392 7.664,3.156 12.843,2.292c2.639,-0.441 5.374,-1.618 8.204,-3.532c2.83,-1.913 5.761,-4.196 8.792,-6.846c3.031,-2.648 8.942,-7.886 17.731,-15.714"
       style="fill:#ffffff;fill-rule:nonzero"
       id="path197" /><path
       d="M630.588,494.585c-13.007,16.366 -23.013,28.129 -30.011,35.281c-7.007,7.159 -13.04,11.161 -18.112,12.005c-4.014,0.672 -7.899,0.155 -11.66,-1.546c-3.761,-1.699 -6.884,-4.319 -9.377,-7.858c-2.492,-3.539 -4.103,-7.502 -4.838,-11.889c-0.482,-2.876 -0.52,-5.534 -0.111,-7.97c0.405,-2.435 1.488,-5.215 3.243,-8.357c1.755,-3.14 4.185,-6.632 7.287,-10.479c3.103,-3.843 6.95,-8.257 11.548,-13.237c2.752,-3.044 5.059,-5.613 6.94,-7.7c1.874,-2.088 3.792,-3.61 5.752,-4.567c1.959,-0.951 5.26,-1.821 9.907,-2.595c3.38,-0.566 6.653,-0.795 9.821,-0.697c3.162,0.1 4.803,0.476 4.911,1.124c0.215,1.29 -0.952,3.889 -3.502,7.793c-2.552,3.899 -6.885,8.852 -12.988,14.861c-6.108,6.013 -13.312,12.115 -21.613,18.301c-1.301,4.581 -1.764,7.984 -1.388,10.215c0.517,3.093 2.519,4.346 6.005,3.765c1.269,-0.212 3.255,-1.3 5.965,-3.27c2.713,-1.963 7.23,-5.64 13.554,-11.02c6.319,-5.384 12.008,-10.157 17.064,-14.329c3.714,-3.132 7.883,-7.578 12.512,-13.343c4.625,-5.763 8.427,-10.15 11.398,-13.159c6.879,-6.915 11.603,-11.456 14.172,-13.626c2.571,-2.16 5.175,-3.465 7.817,-3.905c2.534,-0.422 4.341,-0.174 5.421,0.755c1.078,0.933 1.893,3.047 2.449,6.358c0.253,1.511 0.242,2.772 -0.022,3.775c-0.267,1.005 -0.936,2.357 -2.011,4.05c-1.075,1.696 -3.287,4.854 -6.637,9.479c-3.357,4.628 -7.328,10.095 -11.916,16.405c-2.478,3.373 -4.538,6.953 -6.187,10.74c-1.647,3.783 -2.324,6.54 -2.038,8.265c0.629,3.744 3.104,5.249 7.439,4.529c3.59,-0.601 7.597,-2.305 12.014,-5.113c4.416,-2.807 11.097,-7.657 20.041,-14.547l1.211,7.227c-11.061,9.832 -19.255,17.005 -24.58,21.517c-5.331,4.512 -10.008,8.032 -14.035,10.548c-4.033,2.521 -8.003,4.107 -11.911,4.76c-8.873,1.481 -13.91,-1.372 -15.115,-8.565c-0.458,-2.734 0.247,-6.637 2.114,-11.72c1.861,-5.08 5.018,-12.498 9.467,-22.261"
       style="fill:#ffffff;fill-rule:nonzero"
       id="path199" /><path
       d="M703.78,473.493c4.948,-4.151 9.829,-8.902 14.638,-14.254c4.806,-5.349 11.776,-13.476 20.92,-24.398c8.778,-10.481 15.61,-19.144 20.492,-25.985c4.882,-6.838 8.477,-12.449 10.79,-16.828c2.302,-4.376 3.338,-7.281 3.096,-8.725c-0.18,-1.076 -0.694,-1.546 -1.538,-1.405c-2.327,0.389 -6.721,3.8 -13.192,10.242c-6.47,6.44 -13.646,14.974 -21.532,25.607c-10.9,14.683 -18.726,25.675 -23.477,32.974c-4.751,7.3 -8.152,14.892 -10.197,22.772m83.204,2.748l1.173,7.012c-10.194,6.581 -18.457,10.4 -24.795,11.457c-3.488,0.584 -7.251,0.807 -11.293,0.666c-8.136,9.785 -15.29,17.154 -21.466,22.103c-6.177,4.947 -12.699,7.997 -19.565,9.145c-7.921,1.32 -14.498,-0.504 -19.728,-5.472c-5.23,-4.967 -8.547,-11.658 -9.953,-20.074c-1.914,-11.435 1.068,-24.739 8.957,-39.92c7.883,-15.178 18.001,-29.842 30.346,-43.99c12.345,-14.15 24.585,-26.189 36.716,-36.129c12.125,-9.932 20.571,-15.297 25.325,-16.091c4.539,-0.759 7.167,0.987 7.878,5.23c3.153,18.844 -26.845,57.634 -89.99,116.377c0.002,1.335 0.327,3.901 0.966,7.714c1.657,9.927 6.398,14.238 14.215,12.933c3.061,-0.511 6.011,-1.872 8.844,-4.085c2.832,-2.207 7.077,-6.23 12.729,-12.05c-3.187,-3.46 -4.936,-6.122 -5.249,-7.996c-0.662,-3.954 0.998,-8.627 4.982,-14.028c3.984,-5.395 8.732,-10.274 14.25,-14.632c5.514,-4.359 9.644,-6.765 12.39,-7.224c4.332,-0.72 6.854,1.039 7.564,5.283c0.539,3.235 -0.054,7.324 -1.776,12.271c-1.723,4.947 -4.474,10.731 -8.257,17.349c1.966,0.707 3.513,1.204 4.651,1.495c1.133,0.294 2.756,0.261 4.871,-0.092c4.857,-0.81 10.266,-3.23 16.215,-7.252"
       style="fill:#ffffff;fill-rule:nonzero"
       id="path201" /></g></svg>