<?xml version="1.0" encoding="UTF-8" standalone="no"?><!DOCTYPE svg PUBLIC "-//W3C//DTD SVG 1.1//EN" "http://www.w3.org/Graphics/SVG/1.1/DTD/svg11.dtd"><svg width="100%" height="100%" viewBox="0 0 800 800" version="1.1" xmlns="http://www.w3.org/2000/svg" xmlns:xlink="http://www.w3.org/1999/xlink" xml:space="preserve" xmlns:serif="http://www.serif.com/" style="fill-rule:evenodd;clip-rule:evenodd;stroke-linejoin:round;stroke-miterlimit:2;"><g id="Livello1"><path d="M6.581,512.656c6.185,6.159 11.052,6.345 20.46,6.345l184.458,0c9.413,0 14.296,-0.186 20.454,-6.345c6.142,-6.179 6.35,-11.056 6.35,-20.459l0,-184.485c0,-9.36 -0.208,-14.29 -6.35,-20.427c-6.158,-6.185 -11.041,-6.35 -20.454,-6.35l-182.484,0c-9.408,0 -14.771,0.688 -21.43,7.337c-6.671,6.649 -7.322,12.017 -7.322,21.43l0,182.495c0,9.403 0.182,14.28 6.318,20.459Z" style="fill:#fff;"/></g><path d="M95.537,409.133c3.634,9.328 -1.014,19.75 -10.299,23.362c-13.069,5.07 -19.579,19.792 -14.504,32.845c5.096,13.122 19.819,19.595 32.898,14.547c13.085,-5.086 19.584,-19.771 14.477,-32.883c-3.607,-9.306 1.025,-19.77 10.31,-23.346c9.322,-3.676 19.792,0.993 23.373,10.267c5.069,13.101 19.771,19.606 32.86,14.51c13.085,-5.075 19.574,-19.814 14.52,-32.882c-5.08,-13.101 -19.76,-19.553 -32.844,-14.531c-9.301,3.65 -19.798,-0.971 -23.378,-10.31c-3.64,-9.221 1.008,-19.707 10.32,-23.314c13.058,-5.085 19.541,-19.803 14.483,-32.861c-5.091,-13.111 -19.819,-19.594 -32.92,-14.53c-13.058,5.107 -19.552,19.803 -14.493,32.855c3.618,9.307 -1.009,19.792 -10.278,23.384c-9.317,3.618 -19.765,-1.009 -23.357,-10.294c-5.053,-13.09 -19.797,-19.573 -32.871,-14.52c-13.095,5.117 -19.611,19.803 -14.531,32.893c5.07,13.1 19.798,19.562 32.877,14.488c9.301,-3.597 19.787,0.992 23.357,10.32Z" style="fill:#007a33;"/><g><path d="M318.171,339.335c0,-2.668 -0.955,-4.942 -2.844,-6.841c-1.9,-1.905 -4.152,-2.855 -6.767,-2.855l-26.355,0l0,19.344l26.355,0c2.615,0 4.867,-0.95 6.767,-2.855c1.889,-1.9 2.844,-4.168 2.844,-6.793Zm-0.987,48.805l-16.804,-29.109l-18.175,0l0,29.109l-10.048,0l0,-68.411l36.403,0c5.321,0 9.926,1.948 13.821,5.827c3.88,3.896 5.833,8.501 5.833,13.827c0,4.797 -1.585,9.029 -4.76,12.684c-3.132,3.693 -7.039,5.945 -11.708,6.724l17.05,29.349l-11.612,0Z" style="fill:#fff;fill-rule:nonzero;"/><path d="M381.566,357.457c-1.147,-3.522 -3.191,-6.356 -6.126,-8.496c-2.876,-2.209 -6.164,-3.303 -9.851,-3.303c-3.687,0 -6.974,1.094 -9.851,3.303c-2.967,2.242 -5.01,5.064 -6.115,8.496l31.943,0Zm10.827,4.909c0,1.665 -0.155,3.335 -0.437,4.989l-42.333,0c1.137,3.506 3.175,6.329 6.115,8.474c2.941,2.162 6.222,3.256 9.851,3.256c5.939,0 10.747,-2.775 14.403,-8.309l8.431,5.544c-5.646,8.432 -13.266,12.642 -22.834,12.642c-7.348,0 -13.655,-2.572 -18.906,-7.732c-5.23,-5.23 -7.839,-11.527 -7.839,-18.864c0,-7.359 2.609,-13.634 7.839,-18.864c5.251,-5.277 11.558,-7.892 18.906,-7.892c7.348,0 13.656,2.615 18.917,7.892c5.251,5.251 7.887,11.548 7.887,18.864Z" style="fill:#fff;fill-rule:nonzero;"/><path d="M446.583,362.366c0,-4.536 -1.66,-8.463 -4.952,-11.766c-3.293,-3.293 -7.241,-4.942 -11.809,-4.942c-4.573,0 -8.506,1.649 -11.809,4.942c-3.261,3.26 -4.899,7.187 -4.899,11.766c0,4.595 1.638,8.538 4.899,11.798c3.265,3.272 7.214,4.921 11.809,4.921c4.605,0 8.548,-1.649 11.809,-4.921c3.292,-3.292 4.952,-7.225 4.952,-11.798Zm10.048,20.086c0,7.22 -2.652,13.442 -7.946,18.666c-5.261,5.294 -11.547,7.94 -18.863,7.94c-4.515,0 -8.805,-1.158 -12.882,-3.479c-3.96,-2.327 -7.273,-5.422 -9.952,-9.312l8.474,-5.533c3.666,5.517 8.452,8.276 14.36,8.276c4.962,0 8.933,-1.638 11.905,-4.899c2.78,-3.063 4.365,-7.065 4.749,-11.995c-4.963,4.567 -10.795,6.846 -17.487,6.846c-7.214,0 -13.34,-2.615 -18.378,-7.834c-5.032,-5.235 -7.545,-11.489 -7.545,-18.762c0,-7.316 2.513,-13.602 7.545,-18.81c5.038,-5.299 11.164,-7.946 18.378,-7.946c6.692,0 12.556,2.369 17.594,7.108l0,-6.281l10.048,0l0,46.015Z" style="fill:#fff;fill-rule:nonzero;"/><path d="M475.682,388.14l0,-51.703l10.048,0l0,51.703l-10.048,0Zm0,-58.501l0,-9.91l10.048,0l0,9.91l-10.048,0Z" style="fill:#fff;fill-rule:nonzero;"/><path d="M544.076,362.366c0,-4.536 -1.649,-8.463 -4.941,-11.766c-3.303,-3.293 -7.247,-4.942 -11.809,-4.942c-4.579,0 -8.517,1.649 -11.82,4.942c-3.266,3.26 -4.888,7.187 -4.888,11.766c0,4.595 1.622,8.538 4.888,11.798c3.271,3.272 7.209,4.921 11.82,4.921c4.594,0 8.538,-1.649 11.809,-4.921c3.292,-3.292 4.941,-7.225 4.941,-11.798Zm10.049,0c0,7.316 -2.631,13.602 -7.893,18.864c-5.251,5.16 -11.569,7.732 -18.906,7.732c-7.359,0 -13.666,-2.572 -18.917,-7.732c-5.235,-5.23 -7.839,-11.527 -7.839,-18.864c0,-7.359 2.604,-13.634 7.839,-18.864c5.251,-5.277 11.558,-7.892 18.917,-7.892c7.337,0 13.655,2.615 18.906,7.892c5.262,5.251 7.893,11.548 7.893,18.864Z" style="fill:#fff;fill-rule:nonzero;"/><path d="M604.099,388.14l0,-29.942c0,-3.399 -1.244,-6.339 -3.725,-8.82c-2.439,-2.482 -5.374,-3.72 -8.794,-3.72c-3.389,0 -6.329,1.238 -8.805,3.72c-2.471,2.481 -3.714,5.421 -3.714,8.82l0,29.942l-10.043,0l0,-51.703l10.043,0l0,4.856c4.077,-3.794 8.821,-5.683 14.237,-5.683c5.971,0 10.977,2.316 15.022,6.953c3.874,4.387 5.827,9.589 5.827,15.635l0,29.942l-10.048,0Z" style="fill:#fff;fill-rule:nonzero;"/><path d="M671.757,357.457c-1.142,-3.522 -3.175,-6.356 -6.126,-8.496c-2.865,-2.209 -6.158,-3.303 -9.851,-3.303c-3.676,0 -6.969,1.094 -9.834,3.303c-2.983,2.242 -5.027,5.064 -6.132,8.496l31.943,0Zm10.833,4.909c0,1.665 -0.15,3.335 -0.438,4.989l-42.338,0c1.137,3.506 3.181,6.329 6.132,8.474c2.935,2.162 6.211,3.256 9.834,3.256c5.956,0 10.748,-2.775 14.408,-8.309l8.432,5.544c-5.652,8.432 -13.261,12.642 -22.84,12.642c-7.348,0 -13.639,-2.572 -18.906,-7.732c-5.23,-5.23 -7.834,-11.527 -7.834,-18.864c0,-7.359 2.604,-13.634 7.834,-18.864c5.267,-5.277 11.558,-7.892 18.906,-7.892c7.359,0 13.656,2.615 18.917,7.892c5.267,5.251 7.893,11.548 7.893,18.864Z" style="fill:#fff;fill-rule:nonzero;"/><path d="M272.157,477.368l0,-68.416l10.048,0l0,58.522l33.458,0l0,9.894l-43.506,0Z" style="fill:#fff;fill-rule:nonzero;"/><path d="M365.642,451.594c0,-4.536 -1.648,-8.453 -4.952,-11.761c-3.303,-3.304 -7.23,-4.947 -11.809,-4.947c-4.573,0 -8.516,1.643 -11.809,4.947c-3.266,3.265 -4.893,7.182 -4.893,11.761c0,4.605 1.627,8.532 4.893,11.809c3.266,3.26 7.204,4.904 11.809,4.904c4.605,0 8.538,-1.644 11.809,-4.904c3.304,-3.298 4.952,-7.236 4.952,-11.809Zm10.038,0c0,7.326 -2.631,13.596 -7.882,18.863c-5.261,5.171 -11.569,7.743 -18.917,7.743c-7.348,0 -13.661,-2.572 -18.911,-7.743c-5.23,-5.235 -7.839,-11.515 -7.839,-18.863c0,-7.348 2.609,-13.635 7.839,-18.869c5.25,-5.262 11.563,-7.887 18.911,-7.887c7.348,0 13.656,2.625 18.917,7.887c5.251,5.256 7.882,11.553 7.882,18.869Z" style="fill:#fff;fill-rule:nonzero;"/><path d="M450.74,477.368l0,-31.602c0,-2.844 -0.961,-5.368 -2.876,-7.598c-1.905,-2.199 -4.285,-3.282 -7.119,-3.282c-3.106,0 -5.566,1.008 -7.401,3.031c-1.761,2.033 -2.647,4.648 -2.647,7.849l0,31.602l-10.038,0l0,-31.602c0,-2.844 -0.966,-5.368 -2.887,-7.598c-1.883,-2.199 -4.274,-3.282 -7.139,-3.282c-3.063,0 -5.502,1.008 -7.327,3.031c-1.793,2.001 -2.69,4.605 -2.69,7.849l0,31.602l-10.043,0l0,-51.698l10.043,0l0,3.245c3.389,-2.722 7.3,-4.077 11.697,-4.077c5.427,0 9.91,2.23 13.474,6.659c3.923,-4.429 8.901,-6.659 14.969,-6.659c5.619,0 10.357,2.075 14.205,6.232c3.89,4.168 5.827,9.067 5.827,14.696l0,31.602l-10.048,0Z" style="fill:#fff;fill-rule:nonzero;"/><path d="M523.34,451.594c0,-4.536 -1.633,-8.453 -4.936,-11.761c-3.287,-3.304 -7.204,-4.947 -11.729,-4.947c-4.574,0 -8.501,1.643 -11.804,4.947c-3.287,3.308 -4.942,7.225 -4.942,11.761c0,4.573 1.655,8.511 4.942,11.809c3.26,3.26 7.188,4.904 11.804,4.904c4.557,0 8.474,-1.644 11.729,-4.904c3.303,-3.298 4.936,-7.236 4.936,-11.809Zm10.059,0c0,7.262 -2.541,13.506 -7.599,18.757c-5.022,5.234 -11.121,7.849 -18.298,7.849c-6.788,0 -12.642,-2.316 -17.573,-6.964l0,6.132l-10.026,0l0,-68.416l10.026,0l0,22.994c4.931,-4.734 10.785,-7.108 17.573,-7.108c7.15,0 13.244,2.657 18.298,7.94c5.058,5.358 7.599,11.633 7.599,18.816Z" style="fill:#fff;fill-rule:nonzero;"/><path d="M587.588,451.594c0,-4.536 -1.649,-8.453 -4.941,-11.761c-3.303,-3.304 -7.241,-4.947 -11.82,-4.947c-4.573,0 -8.501,1.643 -11.809,4.947c-3.261,3.265 -4.893,7.182 -4.893,11.761c0,4.605 1.632,8.532 4.893,11.809c3.276,3.26 7.204,4.904 11.809,4.904c4.611,0 8.538,-1.644 11.82,-4.904c3.292,-3.298 4.941,-7.236 4.941,-11.809Zm0,25.774l0,-6.132c-4.93,4.648 -10.795,6.964 -17.583,6.964c-7.23,0 -13.34,-2.615 -18.372,-7.849c-5.038,-5.219 -7.557,-11.473 -7.557,-18.757c0,-7.316 2.519,-13.592 7.557,-18.816c5.032,-5.283 11.142,-7.94 18.372,-7.94c6.788,0 12.653,2.374 17.583,7.108l0,-6.276l10.048,0l0,51.698l-10.048,0Z" style="fill:#fff;fill-rule:nonzero;"/><path d="M640.118,434.886c-3.607,0 -6.745,1.184 -9.413,3.575c-2.647,2.353 -3.97,5.347 -3.97,8.97l0,29.937l-10.037,0l0,-51.698l10.037,0l0,4.515c3.655,-3.565 8.117,-5.347 13.383,-5.347l0,10.048Z" style="fill:#fff;fill-rule:nonzero;"/><path d="M692.184,451.594c0,-4.536 -1.643,-8.453 -4.946,-11.761c-3.298,-3.304 -7.226,-4.947 -11.799,-4.947c-4.584,0 -8.517,1.643 -11.82,4.947c-3.26,3.265 -4.888,7.182 -4.888,11.761c0,4.605 1.628,8.532 4.888,11.809c3.271,3.26 7.215,4.904 11.82,4.904c4.595,0 8.533,-1.644 11.799,-4.904c3.303,-3.298 4.946,-7.236 4.946,-11.809Zm0,25.774l0,-6.132c-4.936,4.648 -10.795,6.964 -17.588,6.964c-7.215,0 -13.341,-2.615 -18.378,-7.849c-5.032,-5.219 -7.535,-11.473 -7.535,-18.757c0,-7.316 2.503,-13.592 7.535,-18.816c5.037,-5.283 11.163,-7.94 18.378,-7.94c6.793,0 12.652,2.374 17.588,7.108l0,-22.994l10.049,0l0,68.416l-10.049,0Z" style="fill:#fff;fill-rule:nonzero;"/><path d="M721.288,477.368l0,-51.698l10.043,0l0,51.698l-10.043,0Zm0,-58.502l0,-9.914l10.043,0l0,9.914l-10.043,0Z" style="fill:#fff;fill-rule:nonzero;"/><path d="M789.689,451.594c0,-4.536 -1.649,-8.453 -4.953,-11.761c-3.292,-3.304 -7.23,-4.947 -11.809,-4.947c-4.573,0 -8.5,1.643 -11.804,4.947c-3.276,3.265 -4.898,7.182 -4.898,11.761c0,4.605 1.622,8.532 4.898,11.809c3.272,3.26 7.199,4.904 11.804,4.904c4.611,0 8.538,-1.644 11.809,-4.904c3.304,-3.298 4.953,-7.236 4.953,-11.809Zm0,25.774l0,-6.132c-4.931,4.648 -10.796,6.964 -17.583,6.964c-7.231,0 -13.341,-2.615 -18.373,-7.849c-5.038,-5.219 -7.556,-11.473 -7.556,-18.757c0,-7.316 2.518,-13.592 7.556,-18.816c5.032,-5.283 11.142,-7.94 18.373,-7.94c6.787,0 12.652,2.374 17.583,7.108l0,-6.276l10.048,0l0,51.698l-10.048,0Z" style="fill:#fff;fill-rule:nonzero;"/></g></svg>