<?xml version="1.0" encoding="UTF-8" standalone="no"?>
<svg
   xmlns:dc="http://purl.org/dc/elements/1.1/"
   xmlns:cc="http://creativecommons.org/ns#"
   xmlns:rdf="http://www.w3.org/1999/02/22-rdf-syntax-ns#"
   xmlns:svg="http://www.w3.org/2000/svg"
   xmlns="http://www.w3.org/2000/svg"
   xmlns:sodipodi="http://sodipodi.sourceforge.net/DTD/sodipodi-0.dtd"
   xmlns:inkscape="http://www.inkscape.org/namespaces/inkscape"
   width="100%"
   height="100%"
   viewBox="0 0 800 800"
   version="1.1"
   xml:space="preserve"
   style="fill-rule:evenodd;clip-rule:evenodd;stroke-linejoin:round;stroke-miterlimit:2;"
   id="svg521"
   sodipodi:docname="RipetizioniENonSoloWhite.svg"
   inkscape:version="0.92.4 (5da689c313, 2019-01-14)"><metadata
     id="metadata527"><rdf:RDF><cc:Work
         rdf:about=""><dc:format>image/svg+xml</dc:format><dc:type
           rdf:resource="http://purl.org/dc/dcmitype/StillImage" /><dc:title></dc:title></cc:Work></rdf:RDF></metadata><defs
     id="defs525" /><sodipodi:namedview
     pagecolor="#ffffff"
     bordercolor="#666666"
     borderopacity="1"
     objecttolerance="10"
     gridtolerance="10"
     guidetolerance="10"
     inkscape:pageopacity="0"
     inkscape:pageshadow="2"
     inkscape:window-width="1366"
     inkscape:window-height="705"
     id="namedview523"
     showgrid="false"
     inkscape:zoom="0.295"
     inkscape:cx="400"
     inkscape:cy="400"
     inkscape:window-x="-8"
     inkscape:window-y="-8"
     inkscape:window-maximized="1"
     inkscape:current-layer="svg521" /><g
     id="g519"
     style="fill:#ffffff"><path
       d="M4.01,502.787c-0.2,-3.065 -0.666,-12.727 -1.066,-21.523c-0.4,-8.796 -1.066,-20.191 -1.399,-25.322c-0.333,-5.131 -0.8,-18.925 -1.066,-30.72l-0.4,-21.39l1.599,-0.4c0.866,-0.2 9.996,-0.533 20.258,-0.8c10.262,-0.2 24.522,-0.666 31.652,-0.999c7.13,-0.334 19.925,-0.933 28.321,-1.333c8.463,-0.4 21.057,-1 27.987,-1.4c6.997,-0.333 22.724,-0.932 34.985,-1.266c12.261,-0.399 28.454,-0.999 35.984,-1.332c29.986,-1.533 39.848,-1.933 60.639,-2.666c27.854,-0.866 41.582,-1.466 91.959,-3.998c7.53,-0.4 26.988,-1.133 43.314,-1.666c16.326,-0.533 35.651,-1.266 42.981,-1.666c40.182,-1.999 43.514,-2.132 96.29,-3.998c18.925,-0.666 32.852,-1.266 59.307,-2.666c6.797,-0.333 18.258,-0.799 25.455,-1.066l13.128,-0.466l-2.466,-1.866c-7.463,-5.797 -12.061,-12.461 -15.593,-22.59c-2.066,-6.197 -2.132,-6.597 -2.199,-17.659c0,-11.061 0.067,-11.461 2.199,-17.659c2.133,-6.33 4.332,-10.861 5.931,-12.527c0.466,-0.467 0.866,-1.2 0.866,-1.533c0,-1.333 6.53,-7.13 10.995,-9.796l4.598,-2.798l7.597,0c6.93,0 7.996,0.2 11.261,1.732c1.933,1 3.532,1.999 3.532,2.333c0,0.333 0.4,0.599 0.866,0.599c1.466,0 8.263,7.73 10.796,12.328c1.332,2.399 2.865,5.931 3.465,7.863c2.798,10.062 2.998,11.329 2.665,21.124c-0.333,12.195 -1.466,16.526 -7.13,27.121c-1.466,2.733 -6.53,8.397 -8.796,9.863c-1.066,0.599 -1.866,1.399 -1.866,1.732c0,0.733 7.663,0.8 16.859,0.133l6.464,-0.399l0,-3.132l0,-3.132l3.465,-0.4c5.931,-0.733 5.531,1.599 5.531,-33.785l0,-31.186l-1.599,-1.733c-1.266,-1.332 -2.266,-1.732 -4.532,-1.732l-2.865,0l0,-4.665l0,-4.664l20.591,0l1.133,2.199c0.599,1.133 1.466,2.599 1.932,3.132c0.467,0.533 1.066,1.732 1.333,2.599c0.266,0.866 1.466,3.331 2.732,5.464c1.266,2.066 2.266,4.265 2.266,4.864c0,0.6 0.2,1.066 0.533,1.066c0.4,0 3.465,5.398 4.398,7.997c0.266,0.533 1.133,2.199 2.065,3.665c0.933,1.466 1.866,3.132 2.066,3.665c0.2,0.533 0.8,1.932 1.4,2.999c0.599,1.132 2.132,3.931 3.331,6.33c2.133,4.132 2.799,5.331 4.732,8.33c0.666,1.066 0.799,-2.599 0.799,-19.525l0,-20.791l-2.132,-1.332c-1.2,-0.733 -3.199,-1.333 -4.331,-1.333l-2.199,0l0,-4.665l0,-4.664l27.987,0l0,9.329l-2.466,0c-1.399,0 -3.465,0.6 -4.598,1.266c-1.665,1 -2.132,1.799 -2.465,4.398c-0.267,1.733 -0.467,17.526 -0.467,35.051l0,31.919l6.864,0c3.798,0 9.196,-0.2 11.995,-0.4c4.798,-0.466 5.131,-0.533 5.131,-1.999c0,-1.599 0.133,-1.599 6.863,-1.599c4.865,0 7.264,-0.267 8.197,-0.933c1.199,-0.933 1.266,-2.066 1.266,-32.585c0,-25.989 -0.2,-31.92 -0.933,-33.319c-0.933,-1.799 -1.066,-1.799 -8.196,-1.799l-7.197,0l0,-4.665l0,-4.664l23.722,0.133l23.723,0.2l0.133,8.663l-7.263,0.2c-5.597,0.133 -7.53,0.466 -8.463,1.266c-1.133,0.999 -1.199,3.198 -1.199,33.651l0,32.519l1.732,0.667c0.933,0.399 4.665,0.666 8.33,0.666c4.398,0 6.597,0.266 6.597,0.733c0,0.4 0.533,0.6 1.266,0.4c1.133,-0.267 1.266,0.266 1.666,5.464c0.267,3.132 0.733,13.527 1.066,23.056c0.4,9.529 1,24.523 1.333,33.319c0.333,8.796 0.666,21.457 0.666,28.121l0,12.061l-5.464,0.4c-3.065,0.2 -9.662,0.533 -14.66,0.799l-9.196,0.4l-0.067,-1.866l-0.066,-1.932l-0.667,1.866c-0.666,1.799 -0.666,1.799 -6.996,1.799c-3.466,0 -10.596,0.266 -15.793,0.666c-5.131,0.333 -15.993,0.933 -24.056,1.333c-8.063,0.4 -19.325,0.999 -24.989,1.333c-10.062,0.599 -25.522,1.266 -60.973,2.665c-9.529,0.4 -28.72,1.266 -42.648,1.999c-13.927,0.733 -34.318,1.666 -45.313,1.999c-10.995,0.334 -25.855,0.933 -32.985,1.333c-26.988,1.466 -36.85,1.933 -55.642,2.666c-25.788,0.932 -48.845,2.065 -83.629,3.998c-6.797,0.4 -21.59,0.999 -32.985,1.333c-11.328,0.399 -25.922,0.999 -32.319,1.332c-12.328,0.667 -30.786,1.6 -51.644,2.666c-6.93,0.4 -21.657,0.933 -32.652,1.332c-10.995,0.334 -25.255,0.933 -31.652,1.333c-6.397,0.333 -17.926,0.933 -25.655,1.333c-7.664,0.333 -16.393,0.8 -19.325,0.999c-2.932,0.2 -14.794,0.667 -26.322,1c-11.528,0.4 -26.654,0.933 -33.651,1.333c-55.709,2.932 -64.705,3.332 -75.767,3.332l-10.395,0l-0.4,-5.465Zm134.207,-31.452l12.994,-0.733l0.2,-2.799l0.2,-2.865l7.263,0l0,-5.331c0,-6.131 -1.266,-9.996 -3.198,-9.996c-2.266,0 -3.599,1.599 -3.932,4.798c-0.266,2.199 -0.733,3.265 -1.799,3.798c-1.666,0.867 -16.992,1.999 -17.459,1.266c-0.2,-0.266 -0.533,-2.065 -0.733,-3.931c-0.333,-2.866 -0.2,-3.599 0.8,-4.332c0.733,-0.533 1.799,-0.932 2.465,-0.932c0.933,0 1.2,0.533 1.2,2.665c0,1.932 0.266,2.665 0.999,2.665c0.733,0 1,-0.733 1,-2.665c0,-2.999 0.067,-3.065 2.266,-1.666c1.199,0.8 1.999,0.866 3.331,0.4c1.933,-0.8 2.133,-2.199 1.267,-10.862l-0.4,-4.531l-2.066,0c-2.532,0 -3.732,0.999 -3.732,3.132c0,1.399 -0.266,1.532 -3.998,1.532l-3.998,0l0,-4.598l0,-4.531l6.664,-0.466c9.062,-0.667 9.196,-0.6 9.462,4.398c0.133,2.532 0.533,4.198 1.066,4.398c0.533,0.133 0.8,-0.467 0.8,-1.866c0,-2.132 0.067,-2.132 2.399,-1.733c3.665,0.733 4.265,-0.2 4.265,-6.53c0,-8.663 0.2,-8.396 -6.597,-8.396c-8.597,0 -26.788,1.332 -28.854,2.132c-1.6,0.6 -2.066,1.266 -1.999,3.199c0,0.2 0.2,0.999 0.466,1.865c0.333,1.267 0.2,1.466 -1.266,1.466c-1.133,0 -1.733,0.334 -1.733,1.067c0,0.933 0.467,1.066 2.866,0.733l2.932,-0.4l0.466,11.128c0.2,6.131 0.6,12.528 0.8,14.327c0.333,2.266 0.2,3.132 -0.4,3.132c-1.066,0 -2.599,1.999 -2.665,3.465c0,0.6 0.733,1.666 1.666,2.399c1.999,1.599 2.199,3.465 0.399,3.465c-2.065,0 -4.864,1.266 -4.398,1.999c0.467,0.8 3.932,0.733 20.991,-0.266Zm81.23,-3.665c0.933,-0.267 1.733,-0.8 1.933,-1.266c0.2,-0.6 -0.933,-0.8 -3.865,-0.8c-3.865,0 -4.065,-0.067 -3.865,-1.466c0.2,-1.466 0.533,-1.533 6.197,-1.733c6.464,-0.199 8.33,-1.066 8.33,-3.798c0,-1.999 -1.2,-2.865 -4.332,-3.132c-2.132,-0.133 -2.665,-0.533 -3.065,-1.866c-0.666,-2.265 -0.733,-11.994 -0.067,-11.994c0.6,0.066 10.796,15.593 10.796,16.526c0,0.333 0.466,0.999 0.999,1.466c0.6,0.466 1.866,2.332 2.866,4.065c1.466,2.665 2.132,3.265 3.665,3.265c1.666,0 1.799,-0.2 1.799,-2.999l0,-2.999l6.73,0l-0.533,-8.462c-0.267,-4.732 -0.533,-12.995 -0.533,-18.526c0,-9.862 0,-9.995 1.533,-10.195c2.065,-0.333 3.132,-2.532 2.199,-4.598c-0.733,-1.666 -0.8,-1.666 -8.663,-1.466c-9.463,0.333 -10.396,0.8 -9.729,4.998c0.4,2.732 0.333,2.865 -1.466,3.132c-1,0.133 -0.133,0.333 1.932,0.4l3.799,0.066l0.333,3.532c0.2,1.866 0.466,5.797 0.533,8.663c0.2,4.998 -0.267,6.53 -1.133,3.798c-0.2,-0.733 -0.733,-1.333 -1.066,-1.333c-0.333,0 -1.999,-2.199 -3.665,-4.797c-1.733,-2.666 -3.399,-4.932 -3.665,-5.065c-0.333,-0.133 -0.6,-0.6 -0.6,-1.066c0,-0.467 -1.066,-2.199 -2.332,-3.798c-1.266,-1.6 -2.333,-3.199 -2.333,-3.466c0,-0.333 -0.466,-0.999 -0.999,-1.532c-0.533,-0.533 -1.2,-1.4 -1.466,-1.933c-0.467,-0.733 -1.599,-0.866 -6.131,-0.399c-3.398,0.333 -5.797,0.932 -6.197,1.466c-0.333,0.533 -0.4,2.065 -0.2,3.465c0.333,2.265 0.2,2.465 -1.333,2.465c-0.932,0 -1.665,0.267 -1.665,0.6c0,0.666 2.265,1.399 4.398,1.399c1.266,0 1.466,0.533 1.799,4.532c0.733,7.13 0.533,23.989 -0.2,24.455c-1.066,0.667 -0.733,3.199 0.666,4.998c2.066,2.666 1.4,3.998 -2.066,3.998c-0.666,0 -1.266,0.467 -1.266,1c0,0.8 1,0.999 5.198,0.933c2.799,-0.067 5.864,-0.267 6.73,-0.533Zm56.309,-2.199c2.332,-0.667 5.997,-3.199 8.729,-5.931c6.464,-6.53 8.796,-9.862 9.929,-14.394c1.333,-5.064 1.333,-7.596 0,-13.26c-1,-4.465 -3.465,-8.463 -6.73,-11.129c-0.867,-0.666 -2,-1.666 -2.533,-2.265c-1.199,-1.2 -7.13,-2.866 -10.195,-2.866c-3.998,0 -8.396,1.533 -11.462,3.932c-1.666,1.333 -3.132,2.665 -3.198,2.932c-0.134,0.266 -1,1.399 -1.866,2.466c-2.332,2.732 -6.264,15.059 -6.264,19.591c0,6.264 2.865,12.794 7.463,17.192c4.532,4.265 9.996,5.531 16.127,3.732Zm32.252,-1.733c4.664,-0.6 4.464,-1.732 -0.333,-2.132c-2.932,-0.267 -3.932,-0.6 -4.065,-1.466c-0.134,-0.866 0.4,-1.2 2.665,-1.466c1.6,-0.2 4.798,-0.6 7.197,-0.867l4.331,-0.533l0,-2.665l0,-2.666l-3.465,-0.533c-3.265,-0.533 -3.531,-0.733 -3.531,-2.332c0,-0.999 -0.2,-3.798 -0.467,-6.264c-0.333,-3.665 -0.2,-4.531 0.533,-4.531c0.866,0 4.865,5.531 7.197,9.862c0.533,0.933 1.466,2.266 2.066,2.999c0.666,0.666 1.866,2.532 2.665,4.198c2.399,4.531 5.531,7.93 6.93,7.397c1,-0.4 1.133,-0.933 0.733,-3.132l-0.466,-2.666l7.663,0l-0.466,-15.793c-0.267,-8.729 -0.667,-16.925 -0.8,-18.192c-0.333,-2.199 -0.2,-2.465 1.999,-3.531c3.665,-1.733 3.265,-4.998 -0.799,-5.998c-2.333,-0.533 -14.327,0.8 -14.994,1.733c-0.266,0.466 -0.333,1.932 -0.133,3.332c0.267,2.132 0.2,2.465 -0.933,2.465c-0.733,0 -1.533,0.333 -1.732,0.667c-0.267,0.399 0.399,0.666 1.532,0.666c1.066,0 2.932,0.2 4.065,0.4l2.066,0.466l0,7.863c0,4.399 -0.2,7.93 -0.467,7.93c-0.599,0 -4.198,-4.398 -4.198,-5.064c0,-0.333 -0.733,-1.266 -1.599,-2.199c-0.933,-1 -2.066,-2.466 -2.532,-3.399c-1.866,-3.465 -7.13,-11.061 -8.463,-12.261c-1.133,-1.066 -2.133,-1.199 -6.331,-0.933c-2.798,0.2 -5.464,0.733 -6.064,1.2c-1.199,0.999 -1.332,3.731 -0.133,4.464c0.533,0.334 0.133,0.6 -1.133,0.867c-2.865,0.466 -3.065,1.999 -0.266,1.999c1.199,0 2.532,0.266 2.998,0.533c0.533,0.333 1.067,4.998 1.6,13.994c0.733,12.261 0.733,13.594 -0.267,14.66c-1.533,1.666 -1.399,3.132 0.267,5.464c1.732,2.266 1.266,3.998 -1.067,3.998c-1.066,0 -1.665,0.4 -1.665,1c0,1.066 3.265,1.266 9.862,0.466Zm461.66,-6.664c-0.866,-0.866 -1.133,0.6 -0.666,3.332l0.599,2.866l0.2,-2.932c0.134,-1.533 0.067,-3.066 -0.133,-3.266Zm-376.898,1.2c0,-2.199 1.266,-2.666 2.665,-0.933c1.6,1.866 5.398,2.932 10.662,2.932c4.865,0 5.331,-0.133 8.73,-2.466c3.465,-2.398 5.064,-3.798 10.262,-8.729c4.931,-4.665 4.198,-11.328 -1.866,-16.726c-1.133,-0.999 -3.399,-1.666 -12.994,-3.731c-6.93,-1.533 -9.063,-2.866 -9.329,-5.865c-0.2,-1.932 0.133,-2.598 1.532,-3.531c3.465,-2.266 10.929,0.466 13.328,4.864c1.799,3.265 3.265,3.732 2.865,0.933c-0.333,-2.465 0.267,-3.198 1.466,-1.732c1,1.199 3.399,1.332 4.531,0.2c1,-1 1.067,-7.264 0.134,-10.662c-0.8,-2.866 -2.266,-3.599 -4.398,-2.199c-1.466,0.932 -1.8,0.932 -3.599,0c-1.199,-0.6 -3.731,-1 -6.664,-1c-7.396,0 -13.46,3.732 -15.326,9.529c-0.4,1.333 -1,2.466 -1.266,2.466c-1,0 -2.066,3.465 -2.066,6.597c0,2.732 0.333,3.598 2.266,5.664c1.266,1.333 2.732,2.399 3.265,2.399c0.466,0 2.199,0.4 3.865,0.933c1.599,0.466 5.064,1.266 7.597,1.732c5.131,0.933 6.597,1.533 8.862,3.532c2.466,2.266 1.933,3.598 -2.132,4.731c-4.665,1.4 -5.264,1.333 -10.262,-0.4c-3.599,-1.266 -4.265,-1.732 -4.598,-3.398c-0.467,-2.266 -2.932,-3.532 -4.865,-2.466c-0.933,0.533 -1.332,1.533 -1.466,4.198c-0.2,3.132 -0.333,3.466 -1.666,3.332c-1.466,-0.2 -1.532,0 -1.532,4.732c0,2.732 0.2,5.397 0.4,5.997c0.666,1.732 1.599,1.199 1.599,-0.933Zm65.371,-1.733c1.266,-0.733 4.864,-3.865 8.063,-7.063c7.73,-7.73 9.462,-11.262 9.462,-19.525c0,-5.464 -0.2,-6.397 -2.066,-10.062c-2.265,-4.398 -7.196,-9.329 -11.328,-11.328c-1.399,-0.667 -4.265,-1.333 -6.33,-1.466c-3.266,-0.267 -4.465,0 -7.464,1.532c-5.664,2.866 -7.996,5.198 -10.928,10.796c-3.199,6.33 -4.798,11.594 -4.798,16.126c0,10.728 5.131,18.658 14.327,22.19c2.199,0.8 8.529,0.133 11.062,-1.2Zm54.042,-1.999c2.266,-0.4 2.466,-0.599 2.666,-2.865c0.2,-2.399 0.266,-2.399 3.398,-2.599l3.265,-0.2l-0.466,-8.463c-0.467,-8.729 -1,-10.129 -3.665,-10.129c-1.799,0 -2.666,1.466 -2.666,4.465c0,2.532 -0.266,2.999 -1.732,3.532c-1.4,0.533 -1.666,0.999 -1.333,2.266c0.4,1.532 0.333,1.532 -6.464,1.932c-3.731,0.2 -6.93,0.267 -6.997,0.133c-0.466,-0.466 -1.399,-13.993 -1.466,-20.524c0,-8.063 0.8,-9.795 4.732,-9.795c4.398,0 6.13,-4.732 2.065,-5.798c-2.865,-0.666 -20.79,0.267 -21.923,1.2c-0.733,0.599 -0.866,1.532 -0.6,3.331c0.333,2.199 0.2,2.533 -1.066,2.733c-0.8,0.133 -1.533,0.599 -1.733,1.066c-0.2,0.599 1,0.799 4.465,0.799l4.731,0l0,4.532c0,2.465 0.2,8.729 0.467,13.993l0.4,9.463l-1.866,0c-1.066,0 -2.466,0.466 -3.132,1.133c-2.532,2.265 -0.733,5.531 3.198,5.531c1.933,0 2.266,0.199 2.266,1.599c0,1.399 -0.333,1.599 -4.131,1.999c-2.266,0.2 -4.465,0.733 -4.865,1.133c-0.466,0.599 3.332,0.666 14.66,0.333c8.463,-0.2 16.459,-0.6 17.792,-0.8Zm34.651,-1.599c5.265,-2.532 6.597,-3.398 7.33,-5.064c0.4,-0.867 1,-1.6 1.267,-1.6c0.333,0 1.199,-0.733 2.065,-1.599c6.797,-7.13 8.063,-9.929 8.13,-17.725c0.067,-6.797 -1.466,-12.328 -4.331,-15.26c-1.067,-1.133 -1.933,-2.333 -1.933,-2.599c0,-0.333 -2.199,-1.799 -4.864,-3.332c-4.265,-2.465 -5.398,-2.799 -8.996,-2.799c-3.399,0 -4.865,0.4 -7.997,2.133c-2.066,1.133 -4.531,2.732 -5.331,3.465c-4.131,3.665 -9.462,16.859 -9.462,23.323c0,3.332 1.133,8.196 2.132,9.396c0.267,0.333 0.533,1.066 0.533,1.665c0,0.667 0.6,1.866 1.4,2.733c0.799,0.866 1.932,2.199 2.532,2.932c0.6,0.733 1.866,1.799 2.732,2.332c6.53,3.798 9.929,4.265 14.793,1.999Zm43.781,-3.065c0.799,-1 1.399,-2.133 1.399,-2.599c0,-0.467 0.866,-1.2 1.933,-1.533c2.399,-0.866 3.265,-3.598 1.732,-5.864c-2.132,-3.265 -7.13,-2.665 -8.529,1.066c-0.4,1.133 -1.4,2.199 -2.133,2.399c-1.866,0.667 -2.932,2.266 -2.998,4.665c0,2.732 1.066,3.598 4.398,3.598c2.265,0 3.132,-0.333 4.198,-1.732Zm44.18,-0.733c0.533,-0.667 1.266,-1.999 1.733,-2.999c0.399,-1.066 1.132,-1.866 1.532,-1.866c1.6,0 3.265,-2.199 3.265,-4.265c0,-3.198 -0.866,-3.931 -4.398,-3.931c-2.465,0 -3.398,0.333 -4.398,1.466c-0.666,0.866 -1.199,1.932 -1.199,2.465c0,0.534 -0.4,0.933 -0.866,0.933c-1.533,0 -3.799,2.666 -3.799,4.465c0,3.932 5.731,6.53 8.13,3.732Zm45.247,-2.599c0.599,-0.533 1.332,-1.733 1.532,-2.599c0.2,-0.866 1,-1.799 1.733,-1.999c1.932,-0.6 3.332,-2.199 3.332,-3.865c0,-1.999 -2.599,-4.465 -4.665,-4.465c-2.199,0 -5.331,2.333 -5.331,3.932c0,0.666 -1,1.732 -2.266,2.399c-3.198,1.732 -3.665,3.998 -1.266,6.464c1.533,1.599 2.266,1.865 3.799,1.599c1.066,-0.267 2.465,-0.866 3.132,-1.466Zm88.627,-4.598l-0.6,-3.998l-0.067,3.065c0,1.733 0.133,4.131 0.4,5.331c0.8,3.532 1,0.267 0.267,-4.398Zm-0.733,-16.992l-0.467,-4.332l-0.067,4.998c-0.066,2.665 0.134,4.664 0.4,4.331c0.333,-0.4 0.4,-2.599 0.134,-4.997Zm-1.267,-20.791l-0.599,-2.199l-0.067,3.065c-0.067,1.733 0.133,4.132 0.467,5.331c0.466,2.266 0.466,2.199 0.666,-0.866c0.133,-1.666 -0.067,-4.065 -0.467,-5.331Zm-54.842,-30.187c0.267,-0.266 -2.332,-5.531 -4.331,-8.996c-0.533,-0.933 -1.866,-3.598 -2.999,-5.997c-1.199,-2.399 -2.265,-4.465 -2.532,-4.665c-0.2,-0.199 -1.533,-2.598 -2.932,-5.331c-1.333,-2.732 -4.665,-9.195 -7.397,-14.326c-2.732,-5.132 -5.864,-11.129 -6.93,-13.328l-1.999,-3.998l0,24.656c0,19.324 0.133,24.922 0.866,25.788c0.533,0.733 2.266,1.333 4.598,1.599l3.799,0.467l0,4.798l9.795,-0.2c5.464,-0.134 9.996,-0.333 10.062,-0.467Zm-80.897,-4.331c2.866,-1.333 6.797,-5.531 8.929,-9.662c1.466,-2.866 3.532,-9.53 4.465,-14.327c3.132,-16.06 -2.266,-35.518 -11.995,-42.915c-3.131,-2.398 -8.596,-2.465 -12.261,-0.066c-2.599,1.732 -8.063,8.463 -8.063,9.929c0,0.466 -0.599,2.065 -1.332,3.598c-2.866,5.864 -3.532,10.395 -3.199,21.79c0.2,6.597 0.666,11.395 1.199,12.661c0.467,1.133 1.067,2.599 1.4,3.332c2.932,6.997 4.065,9.329 4.998,9.929c0.533,0.4 1.332,1.533 1.799,2.399c0.999,1.999 5.93,4.598 8.862,4.598c1.133,0.067 3.466,-0.533 5.198,-1.266Z"
       style="fill:#ffffff;fill-rule:nonzero"
       id="path371" /><path
       d="M125.556,468.07c0,-1.533 0.2,-1.6 7.53,-2c4.065,-0.266 9.462,-0.466 11.995,-0.466c4.264,0 4.464,0.067 4.464,1.599c0,1.333 -0.4,1.6 -3.065,1.999c-1.733,0.2 -7.13,0.4 -11.995,0.4c-8.929,0 -8.929,0 -8.929,-1.532Z"
       style="fill:#ffffff;fill-rule:nonzero"
       id="path373" /><path
       d="M236.173,462.006c0,-0.933 -6.13,-10.462 -8.129,-12.661c-0.667,-0.733 -1.2,-1.533 -1.2,-1.866c0,-0.267 -0.866,-1.733 -1.932,-3.199c-1,-1.399 -2.733,-4.265 -3.732,-6.33c-1.533,-2.932 -1.733,-3.865 -1.066,-4.532c0.666,-0.599 0.999,-0.533 1.732,0.533c0.533,0.733 1.2,1.666 1.533,2c0.8,0.999 6.997,10.195 7.863,11.728c0.4,0.733 1.333,1.999 2.132,2.798c3.865,4.199 6.398,12.462 3.799,12.462c-0.533,0 -1,-0.4 -1,-0.933Z"
       style="fill:#ffffff;fill-rule:nonzero"
       id="path375" /><path
       d="M263.294,462.006c-4.531,-3.132 -7.596,-7.664 -8.196,-12.128c-0.466,-3.999 0,-5.331 1,-2.866c1.266,3.066 4.731,7.597 7.196,9.396c4.732,3.399 6.331,3.998 10.996,4.198c2.532,0.067 4.797,0.333 4.997,0.533c0.2,0.2 -0.666,1 -1.866,1.733c-1.665,1.066 -3.398,1.399 -6.597,1.399c-3.798,-0.066 -4.731,-0.333 -7.53,-2.265Z"
       style="fill:#ffffff;fill-rule:nonzero"
       id="path377" /><path
       d="M268.692,452.143c-4.665,-3.265 -6.73,-7.13 -7.063,-13.26c-0.2,-4.132 0,-5.531 1.199,-8.13c2.066,-4.465 4.065,-5.797 8.396,-5.797c1.933,0 3.732,0.333 3.932,0.666c0.2,0.4 0.933,0.666 1.599,0.666c1.733,0 6.597,5.664 8.063,9.396c0.733,1.733 1.466,5.131 1.733,7.397c0.4,3.865 0.266,4.398 -1.266,6.197c-2.466,2.932 -6.731,4.998 -10.396,4.998c-2.399,0 -3.798,-0.467 -6.197,-2.133Z"
       style="fill:#ffffff;fill-rule:nonzero"
       id="path379" /><path
       d="M285.818,432.952c-1.266,-2.865 -5.864,-7.53 -8.663,-8.796c-2.066,-0.933 -1.799,-2.266 0.4,-1.933c3.798,0.533 11.261,8.663 11.261,12.195c0,2.132 -1.732,1.266 -2.998,-1.466Z"
       style="fill:#ffffff;fill-rule:nonzero"
       id="path381" /><path
       d="M326.799,458.141c0,-0.4 -0.599,-1.4 -1.266,-2.133c-0.733,-0.799 -1.732,-2.132 -2.199,-3.065c-0.466,-0.933 -2.932,-4.731 -5.397,-8.463c-2.466,-3.665 -4.465,-6.93 -4.465,-7.13c0,-0.2 -0.733,-1.466 -1.666,-2.799c-1.666,-2.399 -2.266,-5.597 -1.066,-5.597c0.333,0 1.732,1.599 3.132,3.531c1.399,1.866 2.732,3.599 2.998,3.799c0.2,0.2 0.8,1.133 1.333,2.066c1.666,3.131 7.197,11.195 8.596,12.594c1,0.999 1.333,2.199 1.333,4.664c0,1.866 -0.266,3.332 -0.666,3.332c-0.333,0 -0.667,-0.333 -0.667,-0.799Z"
       style="fill:#ffffff;fill-rule:nonzero"
       id="path383" /><path
       d="M398.634,456.941c-1.399,-0.733 -2.532,-1.599 -2.532,-1.866c0.066,-0.266 1.133,-0.999 2.465,-1.599c2.133,-0.999 2.666,-0.999 4.732,-0.133c1.266,0.533 4.398,1.133 6.863,1.333c2.532,0.266 4.598,0.666 4.598,0.932c0,1.067 -3.998,2.199 -8.663,2.466c-4.065,0.2 -5.464,0 -7.463,-1.133Z"
       style="fill:#ffffff;fill-rule:nonzero"
       id="path385" /><path
       d="M419.425,442.148c-0.067,-1.066 -4.931,-4.198 -7.664,-4.798c-1.066,-0.267 -4.064,-0.733 -6.663,-1c-5.731,-0.666 -8.996,-2.132 -10.529,-4.664c-1.199,-2.066 -1.533,-5.398 -0.533,-5.398c0.4,0 1.133,0.8 1.733,1.866c0.599,1 2.132,2.466 3.398,3.332c3.332,2.199 6.864,3.265 16.126,4.798c1.933,0.333 3.932,1.066 4.531,1.599c1.267,1.333 1.533,4.465 0.467,4.865c-0.467,0.199 -0.866,-0.067 -0.866,-0.6Z"
       style="fill:#ffffff;fill-rule:nonzero"
       id="path387" /><path
       d="M412.628,418.225c-2.466,-1.199 -3.665,-3.198 -1.466,-2.332c0.599,0.2 1.866,0.6 2.798,0.866c1.733,0.4 2.799,1.266 2.799,2.399c0,0.733 -1.466,0.4 -4.131,-0.933Z"
       style="fill:#ffffff;fill-rule:nonzero"
       id="path389" /><path
       d="M446.946,455.675c-2.066,-0.533 -7.53,-4.864 -8.13,-6.33c-0.133,-0.4 -0.8,-1.466 -1.399,-2.399c-1.133,-1.6 -2.133,-4.398 -2.932,-8.13c-0.733,-3.265 1.199,-2.132 3.198,1.866c1.999,3.931 5.864,7.93 9.329,9.662c3.599,1.733 8.13,2.732 10.329,2.266c2.466,-0.533 2.732,0.533 0.533,1.932c-1.866,1.266 -8.063,1.866 -10.928,1.133Z"
       style="fill:#ffffff;fill-rule:nonzero"
       id="path391" /><path
       d="M450.677,445.08c-2.798,-1.266 -6.597,-5.398 -7.53,-8.13c-2.065,-5.931 -0.866,-14.927 2.399,-18.458c1.2,-1.333 2.133,-1.533 6.198,-1.533c4.398,0 4.997,0.2 7.263,2.132c4.931,4.199 8.396,11.395 8.396,17.326c0,2.199 -0.533,3.132 -2.932,5.731c-2.932,3.065 -2.932,3.132 -7.863,3.265c-2.665,0.067 -5.331,-0.067 -5.931,-0.333Z"
       style="fill:#ffffff;fill-rule:nonzero"
       id="path393" /><path
       d="M466.803,425.222c-0.932,-2.066 -6.796,-8.263 -7.796,-8.263c-0.733,0 -2.932,-2.132 -2.932,-2.865c0,-0.733 4.198,0.866 6.864,2.532c1.799,1.266 3.065,2.865 4.198,5.397c0.866,2 1.599,3.932 1.599,4.265c0,1.266 -1.133,0.667 -1.933,-1.066Z"
       style="fill:#ffffff;fill-rule:nonzero"
       id="path395" /><path
       d="M491.392,451.877c0,-1.666 1,-1.799 14.861,-2.532l6.463,-0.334l0,1.6c0,1.399 -0.333,1.599 -3.465,1.932c-1.932,0.2 -6.73,0.467 -10.662,0.6c-7.063,0.266 -7.197,0.2 -7.197,-1.266Z"
       style="fill:#ffffff;fill-rule:nonzero"
       id="path397" /><path
       d="M535.24,450.677c-5.198,-2.265 -9.863,-9.329 -9.863,-14.86l0,-3.198l2.599,4.331c1.466,2.399 3.599,5.264 4.865,6.331c3.265,2.998 8.463,4.997 12.794,4.997c2.599,0 3.732,0.267 3.732,0.867c0,2.199 -10.196,3.332 -14.127,1.532Z"
       style="fill:#ffffff;fill-rule:nonzero"
       id="path399" /><path
       d="M541.503,441.082c-5.197,-1.533 -9.462,-8.397 -9.462,-15.327c0,-4.864 2.199,-10.595 4.798,-12.394c1.866,-1.333 6.53,-1.4 9.462,-0.134c5.531,2.333 10.462,10.263 10.929,17.593c0.266,4.131 0.266,4.264 -2.266,6.863c-3.398,3.532 -8.529,4.798 -13.461,3.399Z"
       style="fill:#ffffff;fill-rule:nonzero"
       id="path401" /><path
       d="M555.564,419.358c-2.199,-3.598 -5.331,-6.464 -7.997,-7.33c-1.532,-0.467 -2.199,-2.399 -0.866,-2.399c1.333,0 6.997,2.999 8.13,4.331c3.398,3.865 5.531,8.996 3.731,8.996c-0.466,0 -1.865,-1.599 -2.998,-3.598Z"
       style="fill:#ffffff;fill-rule:nonzero"
       id="path403" /><path
       d="M14.939,374.378l0,-4.531l2.732,-0.4c5.198,-0.666 4.931,1 5.131,-31.986c0.133,-16.192 0,-30.453 -0.2,-31.652c-0.533,-2.866 -2.732,-4.798 -5.464,-4.798l-2.199,0l0,-4.731l0,-4.665l23.523,0.2c17.192,0.133 23.856,0.4 24.988,1.066c1.8,1 3.932,2.066 6.331,3.332c2.665,1.333 7.13,6.331 8.663,9.662c1.866,3.932 1.866,11.529 0.133,16.726c-1.733,5.131 -6.064,9.729 -11.995,12.795c-2.465,1.199 -4.931,2.265 -5.397,2.265c-0.533,0 -0.933,0.267 -0.933,0.533c0,0.733 5.397,11.062 5.997,11.462c0.267,0.2 0.733,1.066 1,1.932c0.266,0.933 1.532,3.199 2.732,5.131c1.266,1.933 2.265,3.799 2.265,4.132c0,0.533 3.599,5.731 5.065,7.263c0.466,0.467 2.799,1 5.198,1.266l4.398,0.467l0,9.129l-9.663,0c-8.996,0 -9.662,-0.067 -10.995,-1.466c-0.733,-0.8 -1.333,-1.799 -1.333,-2.266c0,-0.399 -0.466,-1.132 -0.999,-1.599c-0.533,-0.466 -1,-1.266 -1,-1.799c0,-0.533 -0.666,-1.866 -1.399,-2.999c-0.8,-1.066 -2.332,-3.665 -3.399,-5.731c-1.066,-2.065 -3.398,-6.33 -5.197,-9.462c-1.799,-3.132 -4.198,-7.53 -5.398,-9.796l-2.066,-4.198l-4.664,0l-4.665,0l0.267,13.194c0.133,8.93 0.466,13.594 1.066,14.594c0.6,1.133 1.666,1.599 4.132,1.932l3.331,0.467l0,9.129l-14.993,0l-14.993,0l0,-4.598Zm32.052,-44.78c4.798,-0.6 8.596,-1.799 13.927,-4.531c0.533,-0.333 1.999,-2.133 3.132,-4.132c4.332,-7.13 2.599,-12.527 -5.397,-16.592c-4.465,-2.266 -4.798,-2.333 -12.528,-2.333c-7.13,0 -8.063,0.134 -8.93,1.267c-0.733,1.066 -0.932,4.131 -0.932,14.193l0,12.861l2.532,0c1.466,0 5.131,-0.333 8.196,-0.733Z"
       style="fill:#ffffff;fill-rule:nonzero"
       id="path405" /><path
       d="M98.901,374.378l0,-4.598l7.663,-0.266c5.065,-0.134 7.864,-0.467 8.463,-1.067c0.667,-0.666 0.867,-7.53 0.867,-32.718c0,-30.453 -0.067,-31.986 -1.266,-33.319c-1.133,-1.266 -2,-1.399 -8.53,-1.399l-7.197,0l0,-4.665l0,-4.664l47.979,0l0,9.329l-7.53,0c-4.998,0 -7.797,0.266 -8.33,0.8c-0.6,0.599 -0.799,9.062 -0.799,33.918l0,33.118l1.532,0.4c0.8,0.2 4.532,0.4 8.33,0.4l6.797,0l0,9.329l-23.989,0l-23.99,0l0,-4.598Z"
       style="fill:#ffffff;fill-rule:nonzero"
       id="path407" /><path
       d="M162.873,374.378l0,-4.531l2.732,-0.4c5.131,-0.666 4.931,0.866 5.131,-30.653c0.133,-15.46 0.066,-29.653 -0.2,-31.519c-0.533,-4.265 -2.199,-6.264 -5.331,-6.264l-2.332,0l0,-4.731l0,-4.732l23.856,0.267l23.789,0.267l4.665,2.398c5.53,2.866 9.795,7.131 11.728,11.595c1.133,2.732 1.332,4.198 1.066,8.93c-0.533,8.996 -0.8,9.729 -6.064,14.926c-2.666,2.732 -5.731,5.065 -7.064,5.531c-1.266,0.4 -4.131,1.4 -6.33,2.199c-3.265,1.2 -5.864,1.533 -14.26,1.866l-10.196,0.267l0.267,13.593c0.266,15.394 0.266,15.527 5.464,16.06l3.065,0.4l0,9.129l-14.993,0l-14.993,0l0,-4.598Zm32.718,-44.78c5.265,-0.733 11.862,-3.132 14.727,-5.464c0.6,-0.467 1.733,-2.132 2.532,-3.665c3.665,-6.93 1.933,-12.461 -4.798,-15.66c-2.132,-0.999 -5.597,-2.199 -7.729,-2.532c-4.398,-0.866 -13.928,-0.4 -15.06,0.733c-0.467,0.466 -0.8,5.264 -0.933,13.994l-0.2,13.327l2.932,0c1.599,0 5.464,-0.333 8.529,-0.733Z"
       style="fill:#ffffff;fill-rule:nonzero"
       id="path409" /><path
       d="M234.174,374.378l0,-4.531l2.999,-0.333c5.331,-0.667 4.998,1.799 4.998,-33.919c0,-31.052 -0.067,-31.985 -1.333,-33.251c-0.866,-0.867 -2.199,-1.333 -3.998,-1.333l-2.666,0l0,-4.665l0,-4.664l63.305,0l0,27.388l-4.465,-0.2l-4.531,-0.2l-0.533,-4.332c-0.266,-2.399 -1.133,-5.597 -1.866,-7.13c-1.932,-3.998 -5.597,-5.131 -16.592,-5.198c-7.197,0 -8.663,0.2 -10.662,1.4l-2.333,1.333l-0.199,12.127l-0.134,12.128l7.264,0c4.065,0 8.063,-0.333 8.929,-0.733c1.666,-0.733 3.798,-4.398 3.798,-6.597c0,-2.932 0.6,-3.332 5.398,-3.332l4.598,0l0,31.986l-4.665,0c-4.531,0 -4.664,-0.066 -4.997,-1.799c-0.867,-4.065 -1.933,-6.93 -2.999,-7.863c-0.866,-0.8 -3.332,-1.133 -9.263,-1.466l-8.063,-0.4l0,27.521l2.199,1.399c1.933,1.2 2.999,1.333 10.462,1.133c10.862,-0.333 13.994,-1.599 17.859,-7.063c1.399,-2.133 2.799,-4.598 2.999,-5.531c0.266,-1 0.999,-2.466 1.666,-3.265c1.199,-1.466 1.399,-1.533 4.331,-0.6c1.733,0.466 3.199,1.199 3.398,1.666c0.4,0.999 -1.266,9.529 -2.998,15.593c-0.8,2.732 -1.6,5.997 -1.733,7.197l-0.333,2.132l-29.92,0l-29.92,0l0,-4.598Z"
       style="fill:#ffffff;fill-rule:nonzero"
       id="path411" /><path
       d="M314.805,374.378l0,-4.598l7.93,-0.2c4.398,-0.133 8.196,-0.533 8.529,-0.799c0.267,-0.334 0.6,-15.727 0.733,-34.185l0.2,-33.652l-4.198,0.467c-2.332,0.2 -5.198,0.866 -6.397,1.399c-2.732,1.333 -6.198,5.264 -8.53,9.929c-0.999,1.999 -1.932,3.598 -1.999,3.598c-0.133,0 -1.732,-0.333 -3.532,-0.733c-4.664,-0.999 -4.864,-1.865 -2.065,-8.929c2.665,-6.797 3.331,-8.663 3.331,-9.662c0,-0.6 0.334,-2.066 0.733,-3.266l0.733,-2.065l28.321,0.133l28.321,0.2l1.599,4.331c1.733,4.732 4.265,13.261 4.798,16.126c0.333,2 -0.533,2.533 -5.064,3.399c-1.733,0.333 -2.266,0.2 -2.599,-0.733c-0.267,-0.6 -1.2,-2.332 -2.199,-3.798c-1,-1.466 -1.933,-2.999 -2.066,-3.399c-0.666,-1.799 -5.797,-5.531 -8.13,-5.864c-1.333,-0.2 -3.532,-0.533 -4.798,-0.733l-2.332,-0.4l0,33.319c0,29.387 0.133,33.385 1.066,34.318c0.8,0.866 2.599,1.066 8.33,1.066l7.263,0l0,9.329l-23.989,0l-23.989,0l0,-4.598Z"
       style="fill:#ffffff;fill-rule:nonzero"
       id="path413" /><path
       d="M386.773,374.311l0,-4.664l6.53,0c7.397,0 9.196,-0.333 9.796,-1.866c0.2,-0.6 0.399,-15.326 0.399,-32.652c0,-28.854 -0.066,-31.719 -1.132,-32.852c-1,-1.066 -2.133,-1.266 -8.397,-1.266l-7.196,0l0,-4.665l0,-4.664l47.312,0l0,9.329l-7.197,0c-7.13,0 -7.263,0 -8.196,1.799c-0.733,1.399 -0.933,7.33 -0.933,33.319c0,30.519 0.066,31.652 1.266,32.585c0.933,0.666 3.332,0.933 8.196,0.933l6.864,0l0,9.329l-23.656,0l-23.656,0l0,-4.665Z"
       style="fill:#ffffff;fill-rule:nonzero"
       id="path415" /><path
       d="M450.078,374.778c0,-3.932 0.266,-4.665 3.398,-9.862c1.799,-3.066 3.665,-6.198 4.132,-6.931c0.399,-0.733 1.732,-2.798 2.865,-4.664c1.133,-1.799 2.599,-4.398 3.332,-5.664c0.666,-1.266 1.799,-2.866 2.465,-3.599c0.6,-0.733 1.133,-1.599 1.133,-1.999c0,-0.6 3.465,-6.33 7.33,-12.061c1,-1.466 2.466,-4.065 3.332,-5.864c0.866,-1.733 2.132,-3.665 2.799,-4.265c0.666,-0.6 1.199,-1.466 1.199,-1.999c0,-0.466 1.067,-2.332 2.333,-4.131c1.266,-1.733 2.332,-3.532 2.332,-3.865c0,-0.4 1.066,-1.999 2.332,-3.599c3.798,-4.798 3.732,-4.798 -7.796,-4.464c-8.73,0.266 -10.662,0.533 -13.528,1.799c-1.799,0.799 -3.865,1.932 -4.531,2.599c-1.466,1.332 -4.065,6.263 -4.731,8.996c-0.4,1.732 -0.6,1.799 -4.398,1.799c-3.732,0 -3.998,-0.134 -3.998,-1.466c0,-1.6 2.399,-18.925 3.065,-21.99l0.4,-1.866l55.841,0l0,3.531c0,2.733 -0.399,4.065 -1.665,5.798c-0.933,1.266 -1.666,2.532 -1.666,2.865c0,0.333 -0.533,1.4 -1.266,2.333c-0.667,0.999 -1.933,3.132 -2.866,4.797c-2.465,4.332 -5.731,9.863 -8.329,13.728c-1.2,1.865 -2.2,3.598 -2.2,3.798c0,0.266 -1.066,1.999 -2.332,3.798c-1.266,1.799 -2.332,3.665 -2.332,4.065c0,0.467 -0.733,1.733 -1.599,2.865c-0.867,1.133 -2.333,3.599 -3.266,5.398c-0.933,1.866 -2.265,4.065 -3.065,4.931c-0.8,0.866 -1.399,1.933 -1.399,2.266c0,0.333 -1.133,2.332 -2.466,4.398c-1.399,2.066 -2.998,4.664 -3.598,5.731c-0.533,1.132 -1.733,3.132 -2.532,4.531l-1.533,2.466l10.662,0c11.528,0 14.193,-0.534 19.125,-3.865c2.665,-1.733 8.996,-8.063 8.996,-8.93c0,-1.199 2.265,-2.532 3.598,-2.132c2.999,0.933 5.731,2.465 5.731,3.265c0,0.467 -1.066,3.065 -2.333,5.731c-1.266,2.732 -2.332,5.264 -2.332,5.731c0,0.399 -1.066,2.932 -2.332,5.464l-2.399,4.731l-27.921,0l-27.987,0l0,-4.198Z"
       style="fill:#ffffff;fill-rule:nonzero"
       id="path417" /><path
       d="M530.175,374.511l0.2,-4.531l7.797,-0.333c4.264,-0.2 7.996,-0.6 8.329,-0.866c0.267,-0.334 0.6,-14.994 0.733,-32.652c0.133,-27.255 0.067,-32.319 -0.799,-33.452c-0.8,-1.133 -1.933,-1.4 -8.53,-1.666l-7.53,-0.333l0,-4.332l0,-4.331l23.856,-0.2l23.789,-0.133l0,9.329l-6.93,0c-7.396,0 -8.663,0.466 -9.396,3.532c-0.2,0.799 -0.266,15.326 -0.2,32.319c0.2,29.72 0.267,30.919 1.467,31.852c0.932,0.666 3.331,0.933 8.196,0.933l6.863,0l0,9.329l-23.989,0l-24.056,0l0.2,-4.465Z"
       style="fill:#ffffff;fill-rule:nonzero"
       id="path419" /><path
       d="M4.01,502.854c-0.2,-3.065 -0.666,-12.661 -1.066,-21.257c-0.4,-8.596 -0.999,-20.324 -1.399,-25.989c-0.333,-5.664 -0.8,-19.657 -1.066,-31.052l-0.4,-20.724l1.599,-0.4c0.866,-0.2 9.996,-0.533 20.258,-0.8c10.262,-0.2 24.655,-0.666 31.985,-0.999c7.33,-0.334 20.058,-0.933 28.321,-1.333c8.263,-0.4 20.724,-1 27.654,-1.4c6.997,-0.333 22.724,-0.932 34.985,-1.266c12.261,-0.399 28.454,-0.999 35.984,-1.332c28.454,-1.466 39.649,-1.933 60.639,-2.666c28.587,-0.933 48.778,-1.799 91.959,-3.998c7.53,-0.4 23.856,-1 36.317,-1.333c12.461,-0.4 28.787,-0.999 36.317,-1.333c33.985,-1.732 61.973,-2.865 110.951,-4.664c18.258,-0.666 33.585,-1.399 58.307,-2.666c6.797,-0.333 18.192,-0.799 25.389,-1.066l13.127,-0.466l-3.798,-3.132c-7.264,-6.131 -10.729,-11.395 -14.127,-21.324c-2.133,-6.131 -2.199,-6.664 -2.199,-17.659c-0.067,-10.995 0,-11.528 2.065,-17.392c2.266,-6.53 4.465,-11.262 5.931,-12.794c0.533,-0.467 0.933,-1.133 0.933,-1.466c0,-1.266 6.73,-7.33 10.929,-9.863l4.664,-2.798l7.597,0c6.93,0 7.996,0.2 11.261,1.732c1.933,1 3.532,1.999 3.532,2.333c0,0.333 0.4,0.599 0.866,0.599c1.466,0 8.263,7.73 10.796,12.328c1.399,2.399 3.331,7.597 4.464,11.795c1.933,7.063 1.999,7.996 1.666,17.192c-0.333,12.195 -1.532,16.526 -7.13,27.121c-1.466,2.733 -6.53,8.397 -8.796,9.863c-1.066,0.599 -1.866,1.399 -1.866,1.732c0,0.4 5.598,0.533 13.527,0.467c7.397,-0.134 12.661,-0.267 11.662,-0.4c-1.733,-0.2 -1.866,-0.4 -1.866,-3.399l0,-3.198l3.465,-0.4c5.931,-0.733 5.531,1.599 5.531,-33.785l0,-31.186l-1.599,-1.733c-1.266,-1.332 -2.266,-1.732 -4.532,-1.732l-2.865,0l0,-4.665l0,-4.664l20.591,0l1.133,2.199c0.599,1.133 1.466,2.599 1.932,3.132c0.467,0.533 1.066,1.732 1.333,2.599c0.266,0.866 1.466,3.331 2.732,5.464c1.266,2.066 2.266,4.265 2.266,4.864c0,0.6 0.2,1.066 0.533,1.066c0.4,0 3.132,4.998 4.398,7.997c0.2,0.533 1.133,2.199 2.065,3.665c0.933,1.466 1.866,3.132 2.066,3.665c0.2,0.533 0.8,1.932 1.4,2.999c0.599,1.132 2.132,3.931 3.331,6.33c2.133,4.132 2.799,5.331 4.732,8.33c0.666,1.066 0.799,-2.599 0.799,-19.525l0,-20.791l-2.132,-1.332c-1.2,-0.733 -3.199,-1.333 -4.331,-1.333l-2.199,0l0,-4.665l0,-4.664l28.054,0l-0.2,4.531l-0.2,4.465l-2.732,0.333c-4.332,0.6 -5.998,2.066 -6.531,5.731c-0.2,1.732 -0.4,17.459 -0.4,34.984l0,31.919l6.864,0c3.798,0 9.196,-0.2 11.995,-0.4c4.798,-0.466 5.131,-0.533 5.131,-1.999c0,-1.599 0.133,-1.599 6.863,-1.599c4.865,0 7.264,-0.267 8.197,-0.933c1.199,-0.933 1.266,-2.066 1.266,-32.585c0,-25.989 -0.2,-31.92 -0.933,-33.319c-0.933,-1.799 -1.066,-1.799 -8.196,-1.799l-7.197,0l0,-4.665l0,-4.664l23.722,0.133l23.723,0.2l0.133,8.663l-7.263,0.2c-5.597,0.133 -7.53,0.466 -8.463,1.266c-1.133,0.999 -1.199,3.198 -1.199,33.651l0,32.519l1.732,0.667c0.933,0.399 4.665,0.666 8.33,0.666c4.398,0 6.597,0.266 6.597,0.733c0,0.4 0.533,0.6 1.266,0.4c1.133,-0.267 1.266,0.266 1.666,5.464c0.267,3.132 0.733,13.527 1.066,23.056c0.4,9.529 1,24.523 1.333,33.319c0.333,8.796 0.666,21.457 0.666,28.054l0,12.128l-5.797,0.4c-3.265,0.2 -9.862,0.533 -14.66,0.799l-8.863,0.4l-0.067,-1.866l-0.066,-1.932l-0.667,1.866c-0.666,1.799 -0.666,1.799 -6.996,1.799c-3.466,0 -10.596,0.266 -15.793,0.666c-5.131,0.333 -16.127,0.933 -24.39,1.333c-8.262,0.4 -19.324,0.999 -24.655,1.333c-5.331,0.333 -18.059,0.933 -28.321,1.332c-30.186,1.133 -48.778,1.999 -68.303,2.999c-10.062,0.533 -26.854,1.266 -37.316,1.666c-28.388,1 -61.106,2.599 -85.962,4.065c-6.397,0.333 -20.791,0.933 -31.986,1.333c-11.195,0.333 -25.855,0.932 -32.652,1.266c-28.654,1.599 -36.583,1.932 -54.642,2.665c-10.462,0.333 -25.588,1 -33.652,1.333c-13.86,0.666 -21.323,1.066 -51.31,2.665c-6.93,0.4 -24.656,1.133 -39.316,1.666c-24.655,0.933 -32.452,1.266 -63.971,2.999c-6.197,0.333 -19.391,0.933 -29.32,1.333c-54.709,2.132 -60.573,2.399 -88.627,4.065c-6.198,0.333 -19.592,0.799 -29.72,1.066l-18.459,0.4l-0.4,-5.598Zm134.207,-31.519l12.994,-0.733l0.2,-2.799l0.2,-2.865l7.263,0l0,-5.331c0,-6.597 -1.199,-9.996 -3.531,-9.996c-2.199,0 -3.199,1.4 -3.599,4.931c-0.466,3.865 -1.799,4.465 -11.595,4.865l-7.729,0.4l-0.4,-2.199c-0.933,-4.332 -0.6,-5.998 1.266,-6.664c2.665,-1.066 2.932,-0.866 2.932,1.999c0,1.932 0.266,2.665 0.999,2.665c0.733,0 1,-0.733 1,-2.665c0,-2.999 0.067,-3.065 2.266,-1.666c1.199,0.8 1.999,0.866 3.331,0.4c1.933,-0.8 2.133,-2.199 1.267,-10.862l-0.4,-4.531l-2.066,0c-2.532,0 -3.732,0.999 -3.732,3.132c0,1.399 -0.266,1.532 -3.998,1.532l-3.998,0l0,-4.664l0,-4.665l15.926,0l0.2,4.132c0.133,2.532 0.533,4.198 1.066,4.398c0.533,0.133 0.8,-0.467 0.8,-1.866c0,-2.132 0.067,-2.132 2.399,-1.733c3.665,0.733 4.265,-0.2 4.265,-6.53c0,-8.663 0.2,-8.396 -6.597,-8.396c-8.597,0 -26.788,1.332 -28.854,2.132c-1.6,0.6 -2.066,1.266 -1.999,3.199c0,0.2 0.2,0.999 0.466,1.865c0.333,1.267 0.2,1.466 -1.266,1.466c-1.133,0 -1.733,0.334 -1.733,1.067c0,0.933 0.467,1.066 2.866,0.733l2.932,-0.4l0.466,11.128c0.2,6.131 0.6,12.528 0.8,14.327c0.333,2.266 0.2,3.132 -0.4,3.132c-1.066,0 -2.599,1.999 -2.665,3.465c0,0.6 0.733,1.666 1.666,2.399c1.999,1.599 2.199,3.465 0.399,3.465c-2.065,0 -4.864,1.266 -4.398,1.999c0.467,0.8 3.932,0.733 20.991,-0.266Zm81.23,-3.665c0.933,-0.267 1.733,-0.8 1.933,-1.266c0.2,-0.6 -0.933,-0.8 -3.865,-0.8c-3.865,0 -4.065,-0.067 -3.865,-1.466c0.2,-1.466 0.533,-1.533 6.197,-1.733c6.464,-0.199 8.33,-1.066 8.33,-3.798c0,-1.999 -1.2,-2.865 -4.332,-3.132c-2.132,-0.133 -2.665,-0.533 -3.065,-1.866c-0.666,-2.265 -0.733,-11.994 -0.067,-11.994c0.6,0.066 10.796,15.593 10.796,16.526c0,0.333 0.466,0.999 0.999,1.466c0.6,0.466 1.866,2.332 2.866,4.065c1.466,2.665 2.132,3.265 3.665,3.265c1.666,0 1.799,-0.2 1.799,-2.999l0,-2.999l6.73,0l-0.533,-8.796c-0.267,-4.864 -0.533,-13.194 -0.533,-18.525c0,-9.529 0,-9.662 1.533,-9.862c2.065,-0.333 3.132,-2.532 2.199,-4.598c-0.733,-1.666 -0.8,-1.666 -8.663,-1.466c-9.463,0.333 -10.396,0.8 -9.729,5.064c0.4,2.799 0.4,2.866 -1.466,2.933c-1.666,0 -1.733,0.066 -0.533,0.599c0.733,0.333 2.465,0.6 3.798,0.6c2.399,0.067 2.466,0.133 2.799,2.932c0.599,4.798 0.799,13.794 0.266,13.794c-0.333,0 -0.533,-0.267 -0.533,-0.667c0,-0.333 -0.733,-1.266 -1.599,-2.132c-0.866,-0.866 -3.132,-4.065 -5.131,-7.197c-1.933,-3.132 -4.398,-6.73 -5.398,-7.996c-0.999,-1.266 -1.866,-2.532 -1.866,-2.866c0,-0.333 -0.466,-0.999 -0.999,-1.532c-0.533,-0.533 -1.2,-1.4 -1.466,-1.933c-0.467,-0.733 -1.599,-0.866 -6.131,-0.399c-6.13,0.666 -6.863,1.132 -6.597,4.731c0.2,1.999 0,2.332 -1.266,2.532c-3.065,0.466 -0.799,2.132 2.866,2.132c1.266,0 1.466,0.533 1.799,4.532c0.733,7.13 0.533,23.989 -0.2,24.455c-1.066,0.667 -0.733,3.199 0.666,4.998c2.066,2.666 1.4,3.998 -2.066,3.998c-0.666,0 -1.266,0.467 -1.266,1c0,0.8 1,0.999 5.198,0.933c2.799,-0.067 5.864,-0.267 6.73,-0.533Zm56.309,-2.199c2.332,-0.667 5.997,-3.199 8.729,-5.931c6.464,-6.53 8.796,-9.862 9.929,-14.394c1.333,-5.064 1.333,-7.596 0,-13.26c-1,-4.465 -3.465,-8.463 -6.73,-11.129c-0.867,-0.666 -2,-1.666 -2.533,-2.265c-1.199,-1.2 -7.13,-2.866 -10.195,-2.866c-3.998,0 -8.396,1.533 -11.462,3.932c-1.666,1.333 -3.132,2.665 -3.198,2.932c-0.134,0.266 -1,1.399 -1.866,2.466c-2.332,2.732 -6.264,15.059 -6.264,19.591c0,6.264 2.865,12.794 7.463,17.192c4.532,4.265 9.996,5.531 16.127,3.732Zm35.85,-2.266c1.333,-0.866 -0.533,-1.599 -3.865,-1.599c-3.132,0 -3.598,-0.2 -3.598,-1.333c0,-1.399 0.266,-1.466 8.996,-2.466l4.664,-0.533l0,-2.665l0,-2.666l-3.465,-0.533c-3.398,-0.533 -3.531,-0.599 -3.531,-2.732c0,-1.199 -0.2,-4.065 -0.4,-6.33c-0.733,-6.597 1.066,-5.265 8.063,6.264c0.733,1.199 1.932,3.065 2.599,4.064c0.666,1.067 2.465,3.799 3.998,6.131c2.066,3.132 3.065,4.132 4.065,3.998c1.133,-0.2 1.332,-0.666 1.133,-2.998l-0.134,-2.866l7.53,0l-0.466,-15.793c-0.267,-8.729 -0.667,-16.925 -0.8,-18.192c-0.333,-2.199 -0.2,-2.465 1.999,-3.531c3.665,-1.733 3.265,-4.998 -0.799,-5.998c-2.333,-0.533 -14.327,0.8 -14.994,1.733c-0.266,0.466 -0.333,1.932 -0.133,3.332c0.267,2.132 0.2,2.465 -0.933,2.465c-0.733,0 -1.533,0.333 -1.732,0.667c-0.267,0.399 0.399,0.666 1.532,0.666c1.066,0 2.932,0.2 4.065,0.4l2.066,0.466l0,7.863c0,4.399 -0.267,7.93 -0.6,7.93c-0.267,0 -1.399,-1.266 -2.466,-2.798c-0.999,-1.6 -2.532,-3.599 -3.331,-4.532c-0.867,-0.933 -1.933,-2.399 -2.399,-3.332c-1.866,-3.465 -7.13,-11.061 -8.463,-12.261c-1.133,-1.066 -2.133,-1.199 -6.331,-0.933c-2.798,0.2 -5.464,0.733 -6.064,1.2c-1.199,0.999 -1.332,3.731 -0.133,4.464c0.533,0.334 0.133,0.6 -1.133,0.867c-2.865,0.466 -3.065,1.999 -0.266,1.999c1.199,0 2.532,0.266 2.998,0.533c0.533,0.333 1.067,4.998 1.6,13.994c0.733,12.261 0.666,13.594 -0.334,14.726c-1.466,1.6 -1.332,3.066 0.334,5.398c1.732,2.266 1.266,3.998 -1.067,3.998c-1.066,0 -1.665,0.4 -1.665,1.066c0,1 0.733,1.067 6.463,0.667c3.599,-0.267 6.731,-0.667 6.997,-0.8Zm458.329,-3.265c0,-1.666 -0.267,-2.999 -0.667,-2.999c-0.733,0 -0.866,2.199 -0.266,4.532c0.666,2.265 0.933,1.799 0.933,-1.533Zm-377.165,-1.666c0,-2.199 1.266,-2.666 2.665,-0.933c1.6,1.866 5.398,2.932 10.662,2.932c4.865,0 5.331,-0.133 8.73,-2.466c3.465,-2.398 5.064,-3.798 10.262,-8.729c4.398,-4.198 4.331,-10.462 -0.267,-15.127c-2.599,-2.665 -3.198,-2.932 -14.593,-5.33c-6.93,-1.533 -9.063,-2.866 -9.329,-5.865c-0.2,-1.932 0.133,-2.598 1.532,-3.531c3.599,-2.333 11.329,0.666 13.394,5.131c1.4,3.198 3.199,3.532 2.799,0.6c-0.333,-2.399 0.267,-3.066 1.466,-1.666c1,1.199 3.399,1.332 4.531,0.2c0.867,-0.867 1.067,-5.931 0.4,-10.063c-0.533,-3.198 -2.332,-4.331 -4.664,-2.798c-1.466,0.932 -1.8,0.932 -3.599,0c-2.865,-1.466 -10.462,-1.333 -14.06,0.266c-3.665,1.666 -6.864,4.998 -7.93,8.263c-0.4,1.333 -1,2.466 -1.266,2.466c-1,0 -2.066,3.465 -2.066,6.597c0,2.732 0.333,3.598 2.266,5.664c1.266,1.333 2.732,2.399 3.265,2.399c0.466,0 2.199,0.4 3.865,0.933c1.599,0.466 5.064,1.266 7.597,1.732c4.931,0.933 6.397,1.533 8.862,3.599c2.466,2.199 1.933,3.531 -2.132,4.664c-4.665,1.4 -5.264,1.333 -10.262,-0.4c-3.599,-1.266 -4.265,-1.732 -4.598,-3.398c-0.467,-2.266 -2.932,-3.532 -4.931,-2.466c-0.933,0.533 -1.266,1.466 -1.266,3.532c0,3.399 -0.733,4.665 -2.199,4.065c-1,-0.333 -1.133,0.2 -1.133,4.598c0,2.799 0.2,5.464 0.4,6.064c0.666,1.732 1.599,1.199 1.599,-0.933Zm65.437,-1.799c4.132,-2.199 13.528,-12.195 15.593,-16.593c1.6,-3.398 1.866,-4.731 1.866,-9.929c-0.066,-7.596 -1.932,-11.994 -7.263,-16.859c-4.465,-4.131 -7.663,-5.664 -12.461,-5.997c-3.266,-0.267 -4.465,0 -7.464,1.532c-5.664,2.866 -7.996,5.198 -10.928,10.796c-3.199,6.33 -4.798,11.594 -4.798,16.126c0,10.728 5.131,18.658 14.327,22.19c2.199,0.8 8.529,0.133 11.128,-1.266Zm53.976,-1.933c2.266,-0.4 2.466,-0.599 2.666,-2.865c0.2,-2.399 0.266,-2.399 3.398,-2.599l3.265,-0.2l-0.466,-8.463c-0.467,-8.729 -1,-10.129 -3.665,-10.129c-1.799,0 -2.666,1.466 -2.666,4.465c0,2.532 -0.266,2.999 -1.732,3.532c-1.4,0.533 -1.666,0.999 -1.333,2.266c0.4,1.532 0.333,1.532 -6.464,1.932c-3.731,0.2 -6.93,0.267 -6.997,0.133c-0.466,-0.466 -1.399,-13.993 -1.466,-20.524c0,-8.063 0.8,-9.795 4.732,-9.795c4.398,0 6.13,-4.732 2.065,-5.798c-2.865,-0.666 -20.79,0.267 -21.923,1.2c-0.733,0.599 -0.866,1.532 -0.6,3.331c0.333,2.199 0.2,2.533 -1.066,2.733c-0.8,0.133 -1.533,0.599 -1.733,1.066c-0.2,0.599 1,0.799 4.465,0.799l4.731,0l0,4.532c0,2.465 0.2,8.729 0.467,13.993l0.4,9.463l-1.866,0c-1.066,0 -2.466,0.466 -3.132,1.133c-2.532,2.265 -0.733,5.531 3.198,5.531c1.933,0 2.266,0.199 2.266,1.599c0,1.399 -0.333,1.599 -4.131,1.999c-2.266,0.2 -4.465,0.733 -4.865,1.133c-0.466,0.599 3.332,0.666 14.66,0.333c8.463,-0.2 16.459,-0.6 17.792,-0.8Zm36.051,-2.265c3.465,-1.733 6.064,-4.065 12.661,-11.395c3.332,-3.599 4.664,-7.597 4.731,-13.927c0.067,-6.797 -1.466,-12.328 -4.331,-15.26c-1.067,-1.133 -1.933,-2.333 -1.933,-2.599c0,-0.333 -2.199,-1.799 -4.864,-3.332c-4.265,-2.465 -5.398,-2.799 -8.996,-2.799c-3.399,0 -4.865,0.4 -7.997,2.133c-2.066,1.133 -4.531,2.732 -5.331,3.465c-2.532,2.265 -5.797,8.396 -7.663,14.46c-2.399,7.597 -2.332,12.261 0.2,18.259c0.333,0.733 0.733,1.932 0.999,2.665c0.6,2.266 4.798,6.197 8.73,8.33c4.998,2.665 8.596,2.665 13.794,0Zm42.447,-2.533c0.733,-0.866 1.333,-1.999 1.333,-2.398c0,-0.4 0.866,-1.133 1.933,-1.533c1.399,-0.467 2.065,-1.333 2.399,-2.932c0.399,-1.866 0.266,-2.399 -1.267,-3.732c-0.999,-0.866 -2.532,-1.532 -3.465,-1.532c-1.799,0 -4.931,2.665 -4.931,4.264c0,0.533 -0.666,1.2 -1.466,1.466c-2.066,0.667 -3.132,2.199 -3.198,4.665c0,2.266 0.866,3.265 2.998,3.732c2.333,0.466 4.332,-0.267 5.664,-2Zm44.114,-0.599c0.6,-0.667 1.266,-1.866 1.466,-2.666c0.267,-0.866 1.533,-1.999 2.799,-2.599c2.199,-1.066 2.332,-1.266 2.132,-4.198c-0.2,-2.865 -0.333,-3.065 -2.532,-3.598c-3.265,-0.733 -5.931,0.4 -6.864,2.865c-0.399,1.133 -1.066,1.999 -1.466,1.999c-1.466,0 -3.665,2.732 -3.665,4.465c0,3.932 5.664,6.53 8.13,3.732Zm45.247,-2.599c0.599,-0.533 1.332,-1.733 1.532,-2.599c0.2,-0.866 1,-1.799 1.733,-1.999c1.932,-0.6 3.332,-2.199 3.332,-3.865c0,-1.999 -2.599,-4.465 -4.665,-4.465c-2.199,0 -5.331,2.333 -5.331,3.865c0,0.667 -1,1.733 -2.266,2.399c-3.198,1.733 -3.665,3.998 -1.266,6.531c1.533,1.599 2.266,1.865 3.799,1.599c1.066,-0.267 2.465,-0.866 3.132,-1.466Zm88.627,-4.598l-0.6,-3.998l-0.067,3.665c-0.066,3.931 0.733,8.129 1.066,5.664c0.134,-0.733 -0.066,-3.132 -0.399,-5.331Zm-0.733,-16.992l-0.467,-4.332l-0.067,4.998c-0.066,2.665 0.134,4.664 0.4,4.331c0.333,-0.4 0.4,-2.599 0.134,-4.997Zm-1.267,-20.791l-0.599,-2.199l-0.067,3.065c-0.067,1.733 0.133,4.132 0.467,5.331c0.466,2.266 0.466,2.199 0.666,-0.866c0.133,-1.666 -0.067,-4.065 -0.467,-5.331Zm-0.266,-13.328c-0.133,-0.866 -0.267,-0.333 -0.267,1.133c-0.066,1.466 0.067,2.133 0.267,1.533c0.133,-0.666 0.133,-1.866 0,-2.666Zm-132.208,-12.994c-0.866,-0.133 -2.199,-0.133 -2.998,0c-0.867,0.134 -0.2,0.267 1.466,0.267c1.666,0 2.332,-0.133 1.532,-0.267Zm49.645,-1.999c-1.4,-0.133 -3.798,-0.133 -5.331,0c-1.599,0.133 -0.467,0.267 2.465,0.267c2.932,0 4.199,-0.134 2.866,-0.267Zm27.987,-1.866c0.267,-0.2 -2.065,-5.064 -4.065,-8.662c-0.466,-0.734 -2.132,-3.865 -3.731,-6.997c-3.799,-7.33 -6.331,-12.195 -12.395,-23.656c-2.732,-5.132 -5.864,-11.129 -6.93,-13.328l-1.999,-3.998l0,24.656c0,19.324 0.133,24.922 0.866,25.788c0.533,0.733 2.266,1.333 4.598,1.599l3.799,0.467l0,4.798l9.862,-0.2c5.397,-0.134 9.929,-0.4 9.995,-0.467Zm4.665,0.533c-0.666,-0.133 -1.733,-0.133 -2.332,0c-0.667,0.2 -0.134,0.334 1.132,0.334c1.267,0 1.8,-0.134 1.2,-0.334Zm45.646,-1.999c-0.866,-0.133 -2.199,-0.133 -2.999,0c-0.866,0.134 -0.199,0.267 1.466,0.267c1.666,0 2.333,-0.133 1.533,-0.267Zm15.993,-0.666c-0.866,-0.133 -2.199,-0.133 -2.999,0c-0.866,0.133 -0.2,0.266 1.466,0.266c1.666,0 2.333,-0.133 1.533,-0.266Zm14.327,-0.666c-0.666,-0.134 -1.733,-0.134 -2.332,0c-0.667,0.199 -0.134,0.333 1.132,0.333c1.267,0 1.8,-0.134 1.2,-0.333Zm-161.528,-1.533c6.064,-2.732 11.128,-11.728 13.461,-24.189c2.998,-15.727 -2.133,-34.518 -11.462,-42.181c-2.399,-2 -3.198,-2.266 -6.53,-2.266c-2.932,0 -4.332,0.4 -6.331,1.666c-2.599,1.732 -8.063,8.463 -8.063,9.929c0,0.466 -0.599,2.065 -1.332,3.598c-2.866,5.864 -3.532,10.395 -3.199,21.79c0.2,6.597 0.666,11.395 1.199,12.661c0.467,1.133 1.067,2.599 1.4,3.332c2.599,6.331 4.598,10.329 5.197,10.329c0.334,0 1.067,0.8 1.533,1.799c1,2.133 5.864,4.798 8.929,4.798c1.133,0.067 3.466,-0.533 5.198,-1.266Z"
       style="fill:#ffffff;fill-rule:nonzero"
       id="path421" /><path
       d="M125.556,468.07c0,-1.533 0.2,-1.6 8.13,-2c4.398,-0.266 9.795,-0.466 11.994,-0.466c3.599,0 3.865,0.067 3.865,1.599c0,1.333 -0.4,1.6 -3.065,1.999c-1.733,0.2 -7.13,0.4 -11.995,0.4c-8.929,0 -8.929,0 -8.929,-1.532Z"
       style="fill:#ffffff;fill-rule:nonzero"
       id="path423" /><path
       d="M236.306,461.806c-0.666,-1.666 -6.796,-10.929 -8.262,-12.461c-0.667,-0.733 -1.2,-1.533 -1.2,-1.866c0,-0.267 -0.866,-1.733 -1.932,-3.199c-1,-1.399 -2.733,-4.265 -3.732,-6.33c-1.533,-2.932 -1.733,-3.865 -1.066,-4.532c0.666,-0.599 0.933,-0.533 1.466,0.334c0.333,0.599 0.999,1.532 1.466,1.999c0.933,0.866 6.863,9.595 8.196,11.928c0.4,0.733 1.333,1.999 2.132,2.798c2.399,2.599 4.798,7.664 4.798,10.063c0,2.532 -1.066,3.198 -1.866,1.266Z"
       style="fill:#ffffff;fill-rule:nonzero"
       id="path425" /><path
       d="M263.294,462.006c-4.531,-3.132 -7.596,-7.664 -8.196,-12.128c-0.466,-3.999 0,-5.331 1,-2.866c1.266,3.066 4.731,7.597 7.196,9.396c4.732,3.399 6.331,3.998 10.996,4.198c2.532,0.067 4.797,0.333 4.997,0.533c0.2,0.2 -0.666,1 -1.866,1.733c-1.665,1.066 -3.398,1.399 -6.597,1.399c-3.798,-0.066 -4.731,-0.333 -7.53,-2.265Z"
       style="fill:#ffffff;fill-rule:nonzero"
       id="path427" /><path
       d="M268.692,452.143c-4.665,-3.265 -6.73,-7.13 -7.063,-13.26c-0.2,-4.132 0,-5.531 1.199,-8.13c2.066,-4.465 4.065,-5.797 8.396,-5.797c1.933,0 3.732,0.333 3.932,0.666c0.2,0.4 0.933,0.666 1.599,0.666c1.733,0 6.597,5.664 8.063,9.396c0.733,1.733 1.466,5.131 1.733,7.397c0.4,3.865 0.266,4.398 -1.266,6.197c-2.466,2.932 -6.731,4.998 -10.396,4.998c-2.399,0 -3.798,-0.467 -6.197,-2.133Z"
       style="fill:#ffffff;fill-rule:nonzero"
       id="path429" /><path
       d="M285.818,432.952c-1.266,-2.865 -5.864,-7.53 -8.663,-8.796c-0.933,-0.4 -1.666,-1 -1.666,-1.333c0,-1.199 3.598,-0.4 5.997,1.333c2.866,1.999 7.33,8.263 7.33,10.195c0,2.199 -1.732,1.333 -2.998,-1.399Z"
       style="fill:#ffffff;fill-rule:nonzero"
       id="path431" /><path
       d="M326.799,458.074c0,-0.466 -0.599,-1.533 -1.399,-2.399c-0.733,-0.8 -1.733,-2.132 -2.199,-2.932c-0.4,-0.8 -2.799,-4.531 -5.264,-8.263c-2.466,-3.665 -4.465,-6.93 -4.465,-7.13c0,-0.2 -0.733,-1.466 -1.666,-2.799c-1.666,-2.465 -2.266,-5.597 -1.066,-5.597c0.6,0 5.797,6.797 7.73,10.062c0.4,0.6 2.665,4.131 5.197,7.796c3.665,5.531 4.465,7.197 4.465,9.396c0,1.533 -0.266,2.732 -0.666,2.732c-0.333,0 -0.667,-0.399 -0.667,-0.866Z"
       style="fill:#ffffff;fill-rule:nonzero"
       id="path433" /><path
       d="M398.634,456.941c-1.399,-0.733 -2.532,-1.599 -2.532,-1.866c0.066,-0.266 1.133,-0.999 2.465,-1.599c2.133,-0.999 2.666,-0.999 4.732,-0.133c1.266,0.533 4.398,1.133 6.863,1.333c2.532,0.266 4.598,0.666 4.598,0.932c0,1.067 -3.998,2.199 -8.663,2.466c-4.065,0.2 -5.464,0 -7.463,-1.133Z"
       style="fill:#ffffff;fill-rule:nonzero"
       id="path435" /><path
       d="M419.425,442.148c-0.067,-1.066 -4.998,-4.198 -7.53,-4.798c-1,-0.267 -4.132,-0.733 -6.864,-1.066c-6.064,-0.8 -8.929,-2.066 -10.462,-4.598c-1.199,-2.066 -1.533,-5.398 -0.533,-5.398c0.4,0 1.133,0.8 1.733,1.866c2.132,3.598 7.263,5.997 15.992,7.463c2.599,0.4 5.598,1.267 6.797,1.8c1.999,0.999 3.332,3.531 2.533,4.864c-0.6,0.933 -1.666,0.8 -1.666,-0.133Z"
       style="fill:#ffffff;fill-rule:nonzero"
       id="path437" /><path
       d="M412.628,418.225c-2.466,-1.199 -3.665,-3.198 -1.466,-2.332c0.599,0.2 1.866,0.6 2.798,0.866c1.733,0.4 2.799,1.266 2.799,2.399c0,0.733 -1.466,0.4 -4.131,-0.933Z"
       style="fill:#ffffff;fill-rule:nonzero"
       id="path439" /><path
       d="M446.746,455.542c-2.199,-0.667 -7.397,-4.731 -7.93,-6.197c-0.133,-0.4 -0.8,-1.466 -1.399,-2.399c-1.133,-1.6 -2.133,-4.398 -2.932,-8.13c-0.733,-3.199 1.199,-2.132 2.998,1.533c1.533,3.331 5.798,8.063 8.796,9.729c2.932,1.666 8.663,2.998 10.995,2.532c1.733,-0.333 2.199,-0.2 2,0.466c-0.733,2.266 -8.263,3.732 -12.528,2.466Z"
       style="fill:#ffffff;fill-rule:nonzero"
       id="path441" /><path
       d="M450.677,445.08c-2.532,-1.133 -6.663,-5.664 -7.596,-8.33c-1.999,-5.731 -0.8,-14.793 2.465,-18.258c1.2,-1.333 2.133,-1.533 6.131,-1.533c4.531,0 4.864,0.133 7.796,2.599c3.999,3.465 7.264,9.862 7.73,15.26l0.4,3.998l-3.065,3.199l-2.999,3.265l-4.931,0.133c-2.665,0.067 -5.331,-0.067 -5.931,-0.333Z"
       style="fill:#ffffff;fill-rule:nonzero"
       id="path443" /><path
       d="M467.07,425.555c-0.666,-1.999 -5.464,-7.13 -8.463,-9.062c-3.132,-1.933 -3.332,-2.999 -0.4,-2.199c4.132,1.199 7.197,3.865 8.93,7.729c0.866,2 1.599,3.932 1.599,4.265c0,1.266 -1.266,0.667 -1.666,-0.733Z"
       style="fill:#ffffff;fill-rule:nonzero"
       id="path445" /><path
       d="M491.392,451.877c0,-1.666 1.067,-1.799 14.861,-2.532c6.463,-0.334 6.53,-0.334 6.33,1.066c-0.267,1.932 -2.266,2.332 -12.661,2.665c-8.463,0.267 -8.53,0.267 -8.53,-1.199Z"
       style="fill:#ffffff;fill-rule:nonzero"
       id="path447" /><path
       d="M535.24,450.677c-5.198,-2.265 -9.863,-9.329 -9.863,-14.86l0,-3.198l2.599,4.331c1.466,2.399 3.599,5.264 4.865,6.331c3.265,2.998 8.463,4.997 12.794,4.997c2.599,0 3.732,0.267 3.732,0.867c0,2.199 -10.196,3.332 -14.127,1.532Z"
       style="fill:#ffffff;fill-rule:nonzero"
       id="path449" /><path
       d="M541.503,441.082c-2.665,-0.8 -6.13,-4.132 -7.796,-7.664c-3.132,-6.463 -1.666,-15.926 3.132,-19.924c1.532,-1.333 4.998,-1.533 8.596,-0.533c5.664,1.599 11.328,10.129 11.795,17.859c0.266,4.131 0.266,4.264 -2.266,6.863c-3.398,3.532 -8.529,4.798 -13.461,3.399Z"
       style="fill:#ffffff;fill-rule:nonzero"
       id="path451" /><path
       d="M555.697,419.558c-1.999,-3.399 -6.997,-7.93 -8.729,-7.93c-0.533,0 -0.933,-0.466 -0.933,-0.999c0,-1.267 0.599,-1.267 3.531,0c4.465,1.865 8.73,6.597 9.263,10.262c0.4,2.798 -1.133,2.199 -3.132,-1.333Z"
       style="fill:#ffffff;fill-rule:nonzero"
       id="path453" /><path
       d="M14.939,374.378l0,-4.531l2.732,-0.4c5.198,-0.666 4.931,1 5.131,-31.986c0.133,-16.192 0,-30.453 -0.2,-31.652c-0.533,-2.866 -2.732,-4.798 -5.464,-4.798l-2.199,0l0,-4.731l0,-4.665l23.523,0.2c17.192,0.133 23.856,0.4 24.988,1.066c1.8,1 3.932,2.066 6.331,3.332c2.665,1.333 7.13,6.331 8.663,9.662c1.866,3.932 1.866,11.529 0.133,16.726c-1.733,5.131 -6.064,9.729 -11.995,12.795c-2.465,1.199 -4.931,2.265 -5.397,2.265c-0.533,0 -0.933,0.267 -0.933,0.533c0,0.733 5.397,11.062 5.997,11.462c0.267,0.2 0.733,1.066 1,1.932c0.266,0.933 1.532,3.199 2.732,5.131c1.266,1.933 2.265,3.799 2.265,4.132c0,0.533 3.599,5.731 5.065,7.263c0.466,0.467 2.799,1 5.198,1.266l4.398,0.467l0,9.129l-9.663,0c-8.996,0 -9.662,-0.067 -10.995,-1.466c-0.733,-0.8 -1.333,-1.799 -1.333,-2.266c0,-0.399 -0.466,-1.132 -0.999,-1.599c-0.533,-0.466 -1,-1.266 -1,-1.799c0,-0.533 -0.666,-1.866 -1.399,-2.999c-0.8,-1.066 -2.332,-3.665 -3.399,-5.731c-3.331,-6.33 -5.131,-9.595 -7.396,-13.46c-1.2,-1.999 -2.932,-5.065 -3.799,-6.797l-1.532,-3.199l-4.598,0l-4.665,0l0.267,13.194c0.133,8.93 0.466,13.594 1.066,14.594c0.6,1.133 1.666,1.599 4.132,1.932l3.331,0.467l0,9.129l-14.993,0l-14.993,0l0,-4.598Zm32.052,-44.78c3.065,-0.4 6.93,-1.333 8.596,-2.066c1.6,-0.733 3.599,-1.599 4.465,-1.932c0.8,-0.267 1.999,-1.399 2.665,-2.399c0.667,-1 1.333,-1.999 1.533,-2.199c1,-0.933 1.999,-4.398 1.999,-6.93c0,-4.265 -2.132,-6.93 -7.663,-9.729c-4.531,-2.266 -4.865,-2.333 -12.528,-2.333c-7.063,0 -7.996,0.134 -8.863,1.267c-0.733,1.066 -0.932,4.131 -0.932,14.193l0,12.861l2.532,0c1.466,0 5.131,-0.333 8.196,-0.733Z"
       style="fill:#ffffff;fill-rule:nonzero"
       id="path455" /><path
       d="M98.901,374.378l0,-4.598l7.663,-0.266c5.065,-0.134 7.864,-0.467 8.463,-1.067c0.667,-0.666 0.867,-7.53 0.867,-32.718c0,-30.453 -0.067,-31.986 -1.266,-33.319c-1.133,-1.266 -2,-1.399 -8.53,-1.399l-7.197,0l0,-4.665l0,-4.664l47.979,0l0,9.329l-7.53,0c-4.998,0 -7.797,0.266 -8.33,0.8c-0.6,0.599 -0.799,9.062 -0.799,33.918l0,33.118l1.532,0.4c0.8,0.2 4.532,0.4 8.33,0.4l6.797,0l0,9.329l-23.989,0l-23.99,0l0,-4.598Z"
       style="fill:#ffffff;fill-rule:nonzero"
       id="path457" /><path
       d="M162.873,374.378l0,-4.531l2.732,-0.4c5.131,-0.666 4.931,0.866 5.131,-30.653c0.133,-15.46 0.066,-29.653 -0.2,-31.519c-0.533,-4.265 -2.199,-6.264 -5.331,-6.264l-2.332,0l0,-4.731l0,-4.732l23.856,0.267l23.789,0.2l4.665,2.532c8.996,4.865 12.994,10.795 12.994,19.258c0,7.797 -1.466,11.528 -6.597,16.526c-2.466,2.399 -5.464,4.665 -6.731,5.131c-1.266,0.4 -4.131,1.4 -6.33,2.199c-3.265,1.2 -5.864,1.533 -14.26,1.866l-10.196,0.267l0.267,13.593c0.266,15.394 0.266,15.527 5.464,16.06l3.065,0.4l0,9.129l-14.993,0l-14.993,0l0,-4.598Zm32.518,-44.713c3.599,-0.467 6.997,-1.4 9.663,-2.666c5.264,-2.465 5.997,-3.132 7.796,-6.53c3.665,-6.93 1.933,-12.461 -4.798,-15.66c-2.132,-0.999 -5.597,-2.199 -7.729,-2.532c-4.398,-0.866 -13.928,-0.4 -15.06,0.733c-0.467,0.466 -0.8,5.264 -0.933,13.994l-0.2,13.327l2.865,0c1.599,0 5.398,-0.333 8.396,-0.666Z"
       style="fill:#ffffff;fill-rule:nonzero"
       id="path459" /><path
       d="M234.174,374.378l0,-4.531l3.465,-0.4c1.866,-0.267 3.665,-0.8 3.998,-1.266c0.267,-0.467 0.534,-15.193 0.534,-32.652c0,-30.986 -0.067,-31.919 -1.333,-33.185c-0.866,-0.867 -2.199,-1.333 -3.998,-1.333l-2.666,0l0,-4.665l0,-4.664l63.305,0l0,27.388l-4.465,-0.2l-4.531,-0.2l-0.533,-4.332c-0.266,-2.399 -1.133,-5.597 -1.866,-7.13c-1.932,-3.998 -5.597,-5.131 -16.592,-5.198c-7.197,0 -8.663,0.2 -10.662,1.4l-2.333,1.333l-0.199,12.127l-0.134,12.128l7.264,0c4.065,0 8.063,-0.333 8.929,-0.733c1.666,-0.733 3.798,-4.398 3.798,-6.597c0,-2.932 0.6,-3.332 5.398,-3.332l4.598,0l0,31.986l-4.665,0c-4.531,0 -4.664,-0.066 -4.997,-1.799c-0.867,-4.065 -1.933,-6.93 -2.999,-7.863c-0.866,-0.8 -3.332,-1.133 -9.263,-1.466l-8.063,-0.4l0,27.521l2.199,1.399c1.933,1.2 2.999,1.333 10.462,1.133c10.862,-0.333 14.261,-1.666 17.926,-7.13c1.399,-2.066 2.732,-4.531 2.932,-5.464c0.266,-1 0.999,-2.466 1.666,-3.265c1.199,-1.466 1.399,-1.533 4.331,-0.6c1.733,0.466 3.199,1.199 3.398,1.666c0.4,0.999 -1.266,9.529 -2.998,15.593c-0.8,2.732 -1.6,5.997 -1.733,7.197l-0.333,2.132l-29.92,0l-29.92,0l0,-4.598Z"
       style="fill:#ffffff;fill-rule:nonzero"
       id="path461" /><path
       d="M314.805,374.378l0,-4.598l7.93,-0.2c4.398,-0.133 8.196,-0.533 8.529,-0.799c0.267,-0.334 0.6,-15.727 0.733,-34.185l0.2,-33.652l-4.198,0.467c-2.332,0.2 -5.198,0.866 -6.397,1.399c-2.732,1.333 -6.198,5.264 -8.53,9.929c-0.999,1.999 -1.932,3.598 -1.999,3.598c-1.999,0 -6.93,-1.666 -7.197,-2.465c-0.4,-1 0.267,-3.998 1.6,-7.197c2.199,-5.331 3.331,-8.663 3.331,-9.662c0,-0.6 0.334,-2.066 0.733,-3.266l0.733,-2.065l28.321,0.133l28.321,0.2l1.599,4.331c1.933,5.331 4.931,15.727 4.931,17.059c0,1 -1.599,1.8 -5.197,2.466c-1.733,0.333 -2.266,0.2 -2.599,-0.733c-0.267,-0.6 -1.266,-2.399 -2.333,-3.932c-0.999,-1.532 -1.865,-2.998 -1.865,-3.331c0,-1.267 -5.931,-5.465 -8.263,-5.798c-1.333,-0.2 -3.466,-0.533 -4.732,-0.733l-2.332,-0.4l0,33.319c0,29.387 0.133,33.385 1.066,34.318c0.8,0.866 2.599,1.066 8.33,1.066l7.263,0l0,9.329l-23.989,0l-23.989,0l0,-4.598Z"
       style="fill:#ffffff;fill-rule:nonzero"
       id="path463" /><path
       d="M386.773,374.311l0,-4.664l6.53,0c7.397,0 9.196,-0.333 9.796,-1.866c0.2,-0.6 0.399,-15.326 0.399,-32.652c0,-28.854 -0.066,-31.719 -1.132,-32.852c-1,-1.066 -2.133,-1.266 -8.397,-1.266l-7.196,0l0,-4.665l0,-4.664l47.312,0l0,9.329l-7.197,0c-7.13,0 -7.263,0 -8.196,1.799c-0.733,1.399 -0.933,7.33 -0.933,33.319c0,30.519 0.066,31.652 1.266,32.585c0.933,0.666 3.332,0.933 8.196,0.933l6.864,0l0,9.329l-23.656,0l-23.656,0l0,-4.665Z"
       style="fill:#ffffff;fill-rule:nonzero"
       id="path465" /><path
       d="M450.078,374.778c0,-3.932 0.266,-4.665 3.531,-10.062c1.866,-3.199 4.065,-6.864 4.798,-8.13c0.733,-1.266 2.999,-4.931 4.998,-8.13c1.999,-3.198 3.998,-6.463 4.465,-7.33c1.399,-2.599 5.73,-9.729 7.263,-11.794c0.8,-1.067 2.132,-3.399 2.932,-5.198c0.866,-1.733 2.132,-3.665 2.799,-4.265c0.666,-0.6 1.199,-1.399 1.199,-1.799c0,-0.4 1.067,-2.332 2.333,-4.198c1.266,-1.933 2.332,-3.732 2.332,-4.065c0,-0.333 1.066,-1.932 2.332,-3.532c3.798,-4.798 3.732,-4.798 -7.796,-4.464c-8.73,0.266 -10.662,0.533 -13.528,1.799c-1.799,0.799 -3.865,1.932 -4.531,2.599c-1.466,1.332 -4.065,6.263 -4.731,8.996c-0.4,1.732 -0.6,1.799 -4.398,1.799c-3.798,0 -3.998,-0.067 -3.998,-1.6c0,-1.399 1.999,-15.926 2.998,-21.59l0.4,-2.132l27.788,0.133l27.787,0.2l0.2,3.265c0.2,2.599 -0.133,3.665 -1.466,5.664c-0.933,1.333 -1.732,2.666 -1.732,2.932c0,0.267 -1.067,2.066 -2.333,4.065c-1.266,1.999 -2.332,3.865 -2.332,4.065c0,0.267 -0.866,1.666 -1.866,3.199c-1.066,1.532 -2.732,4.398 -3.798,6.33c-1,1.866 -2.066,3.465 -2.332,3.465c-0.267,0 -0.933,1 -1.4,2.199c-0.466,1.133 -1.866,3.532 -3.065,5.265c-1.2,1.732 -2.199,3.531 -2.199,3.931c0,0.467 -0.733,1.733 -1.599,2.865c-0.867,1.133 -2.333,3.599 -3.266,5.398c-0.933,1.866 -2.265,4.065 -3.065,4.931c-0.8,0.866 -1.399,1.933 -1.399,2.266c0,0.333 -1.133,2.332 -2.466,4.398c-1.399,2.066 -2.998,4.664 -3.598,5.731c-0.533,1.132 -1.733,3.132 -2.532,4.531l-1.533,2.466l10.728,0c15.66,0 18.659,-1.4 28.854,-13.528c1.466,-1.732 1.666,-1.799 3.865,-0.999c5.131,1.932 5.198,1.932 3.399,5.997c-0.867,1.932 -2.266,5.331 -3.066,7.53c-0.866,2.199 -2.332,5.597 -3.265,7.53l-1.732,3.465l-27.988,0l-27.987,0l0,-4.198Z"
       style="fill:#ffffff;fill-rule:nonzero"
       id="path467" /><path
       d="M530.308,378.043c-0.199,-0.466 -0.266,-2.532 -0.133,-4.465l0.2,-3.598l7.797,-0.333c4.264,-0.2 7.996,-0.6 8.329,-0.866c0.267,-0.334 0.6,-15.06 0.733,-32.719c0.133,-27.121 0,-32.252 -0.799,-33.385c-0.8,-1.133 -2,-1.4 -8.53,-1.666l-7.53,-0.333l0,-4.332l0,-4.331l23.856,-0.2l23.789,-0.133l0,9.329l-6.93,0c-7.396,0 -8.663,0.466 -9.396,3.532c-0.2,0.799 -0.266,15.326 -0.2,32.319c0.2,29.72 0.267,30.919 1.467,31.852c0.932,0.666 3.331,0.933 8.196,0.933l6.863,0l0,9.329l-23.656,0c-19.458,0 -23.789,-0.133 -24.056,-0.933Z"
       style="fill:#ffffff;fill-rule:nonzero"
       id="path469" /><path
       d="M393.57,445.613c0,-1.266 0.133,-1.799 0.333,-1.133c0.133,0.6 0.133,1.666 0,2.332c-0.2,0.6 -0.333,0.067 -0.333,-1.199Z"
       style="fill:#ffffff;fill-rule:nonzero"
       id="path471" /><path
       d="M14.939,374.378l0,-4.531l2.732,-0.4c5.198,-0.666 4.931,1 5.131,-31.986c0.133,-16.192 0,-30.453 -0.2,-31.652c-0.533,-2.866 -2.732,-4.798 -5.464,-4.798l-2.199,0l0,-4.731l0,-4.665l23.523,0.2c17.192,0.133 23.856,0.4 24.988,1.066c1.8,1 3.932,2.066 6.331,3.332c2.665,1.333 7.13,6.331 8.663,9.662c1.866,3.932 1.866,11.529 0.133,16.726c-1.733,5.131 -6.064,9.729 -11.995,12.795c-2.465,1.199 -4.931,2.265 -5.397,2.265c-0.533,0 -0.933,0.267 -0.933,0.533c0,0.733 5.397,11.062 5.997,11.462c0.267,0.2 0.733,1.066 1,1.932c0.266,0.933 1.532,3.199 2.732,5.131c1.266,1.933 2.265,3.799 2.265,4.132c0,0.533 3.599,5.731 5.065,7.263c0.466,0.467 2.799,1 5.198,1.266l4.398,0.467l0,9.129l-9.663,0c-8.996,0 -9.662,-0.067 -10.995,-1.466c-0.733,-0.8 -1.333,-1.799 -1.333,-2.266c0,-0.399 -0.466,-1.132 -0.999,-1.599c-0.533,-0.466 -1,-1.266 -1,-1.799c0,-0.533 -0.666,-1.866 -1.399,-2.999c-0.8,-1.066 -2.332,-3.665 -3.399,-5.731c-3.331,-6.33 -5.131,-9.595 -7.396,-13.46c-1.2,-1.999 -2.932,-5.065 -3.799,-6.797l-1.532,-3.199l-4.598,0l-4.665,0l0.267,13.194c0.133,8.93 0.466,13.594 1.066,14.594c0.6,1.133 1.666,1.599 4.132,1.932l3.331,0.467l0,9.129l-14.993,0l-14.993,0l0,-4.598Zm32.052,-44.78c3.065,-0.4 6.93,-1.333 8.596,-2.066c1.6,-0.733 3.599,-1.599 4.465,-1.932c0.8,-0.267 1.999,-1.399 2.665,-2.399c0.667,-1 1.333,-1.999 1.533,-2.199c1,-0.933 1.999,-4.398 1.999,-6.93c0,-4.265 -2.132,-6.93 -7.663,-9.729c-4.531,-2.266 -4.865,-2.333 -12.528,-2.333c-7.063,0 -7.996,0.134 -8.863,1.267c-0.733,1.066 -0.932,4.131 -0.932,14.193l0,12.861l2.532,0c1.466,0 5.131,-0.333 8.196,-0.733Z"
       style="fill:#ffffff;fill-rule:nonzero"
       id="path473" /><path
       d="M98.901,374.378l0,-4.598l7.663,-0.266c5.065,-0.134 7.864,-0.467 8.463,-1.067c0.667,-0.666 0.867,-7.53 0.867,-32.718c0,-30.453 -0.067,-31.986 -1.266,-33.319c-1.133,-1.266 -2,-1.399 -8.53,-1.399l-7.197,0l0,-4.665l0,-4.664l47.979,0l0,9.329l-7.53,0c-4.998,0 -7.797,0.266 -8.33,0.8c-0.6,0.599 -0.799,9.062 -0.799,33.918l0,33.118l1.532,0.4c0.8,0.2 4.532,0.4 8.33,0.4l6.797,0l0,9.329l-23.989,0l-23.99,0l0,-4.598Z"
       style="fill:#ffffff;fill-rule:nonzero"
       id="path475" /><path
       d="M162.873,374.378l0,-4.531l2.732,-0.4c5.131,-0.666 4.931,0.866 5.131,-30.653c0.133,-15.46 0.066,-29.653 -0.2,-31.519c-0.533,-4.265 -2.199,-6.264 -5.331,-6.264l-2.332,0l0,-4.731l0,-4.732l23.856,0.267l23.789,0.2l4.665,2.532c8.996,4.865 12.994,10.795 12.994,19.258c0,7.797 -1.466,11.528 -6.597,16.526c-2.466,2.399 -5.464,4.665 -6.731,5.131c-1.266,0.4 -4.131,1.4 -6.33,2.199c-3.265,1.2 -5.864,1.533 -14.26,1.866l-10.196,0.267l0.267,13.593c0.266,15.394 0.266,15.527 5.464,16.06l3.065,0.4l0,9.129l-14.993,0l-14.993,0l0,-4.598Zm32.518,-44.713c3.599,-0.467 6.997,-1.4 9.663,-2.666c5.264,-2.465 5.997,-3.132 7.796,-6.53c3.665,-6.93 1.933,-12.461 -4.798,-15.66c-2.132,-0.999 -5.597,-2.199 -7.729,-2.532c-4.398,-0.866 -13.928,-0.4 -15.06,0.733c-0.467,0.466 -0.8,5.264 -0.933,13.994l-0.2,13.327l2.865,0c1.599,0 5.398,-0.333 8.396,-0.666Z"
       style="fill:#ffffff;fill-rule:nonzero"
       id="path477" /><path
       d="M234.174,374.378l0,-4.531l3.465,-0.4c1.866,-0.267 3.665,-0.8 3.998,-1.266c0.267,-0.467 0.534,-15.193 0.534,-32.652c0,-30.986 -0.067,-31.919 -1.333,-33.185c-0.866,-0.867 -2.199,-1.333 -3.998,-1.333l-2.666,0l0,-4.665l0,-4.664l63.305,0l0,27.388l-4.465,-0.2l-4.531,-0.2l-0.533,-4.332c-0.266,-2.399 -1.133,-5.597 -1.866,-7.13c-1.932,-3.998 -5.597,-5.131 -16.592,-5.198c-7.197,0 -8.663,0.2 -10.662,1.4l-2.333,1.333l-0.199,12.127l-0.134,12.128l7.264,0c4.065,0 8.063,-0.333 8.929,-0.733c1.666,-0.733 3.798,-4.398 3.798,-6.597c0,-2.932 0.6,-3.332 5.398,-3.332l4.598,0l0,31.986l-4.665,0c-4.531,0 -4.664,-0.066 -4.997,-1.799c-0.867,-4.065 -1.933,-6.93 -2.999,-7.863c-0.866,-0.8 -3.332,-1.133 -9.263,-1.466l-8.063,-0.4l0,27.521l2.199,1.399c1.933,1.2 2.999,1.333 10.462,1.133c10.862,-0.333 14.261,-1.666 17.926,-7.13c1.399,-2.066 2.732,-4.531 2.932,-5.464c0.266,-1 0.999,-2.466 1.666,-3.265c1.199,-1.466 1.399,-1.533 4.331,-0.6c1.733,0.466 3.199,1.199 3.398,1.666c0.4,0.999 -1.266,9.529 -2.998,15.593c-0.8,2.732 -1.6,5.997 -1.733,7.197l-0.333,2.132l-29.92,0l-29.92,0l0,-4.598Z"
       style="fill:#ffffff;fill-rule:nonzero"
       id="path479" /><path
       d="M314.805,374.378l0,-4.598l7.93,-0.2c4.398,-0.133 8.196,-0.533 8.529,-0.799c0.267,-0.334 0.6,-15.727 0.733,-34.185l0.2,-33.652l-4.198,0.467c-2.332,0.2 -5.198,0.866 -6.397,1.399c-2.732,1.333 -6.198,5.264 -8.53,9.929c-0.999,1.999 -1.932,3.598 -1.999,3.598c-1.999,0 -6.93,-1.666 -7.197,-2.465c-0.4,-1 0.267,-3.998 1.6,-7.197c2.199,-5.331 3.331,-8.663 3.331,-9.662c0,-0.6 0.334,-2.066 0.733,-3.266l0.733,-2.065l28.321,0.133l28.321,0.2l1.599,4.331c1.933,5.331 4.931,15.727 4.931,17.059c0,1 -1.599,1.8 -5.197,2.466c-1.733,0.333 -2.266,0.2 -2.599,-0.733c-0.267,-0.6 -1.266,-2.399 -2.333,-3.932c-0.999,-1.532 -1.865,-2.998 -1.865,-3.331c0,-1.267 -5.931,-5.465 -8.263,-5.798c-1.333,-0.2 -3.466,-0.533 -4.732,-0.733l-2.332,-0.4l0,33.319c0,29.387 0.133,33.385 1.066,34.318c0.8,0.866 2.599,1.066 8.33,1.066l7.263,0l0,9.329l-23.989,0l-23.989,0l0,-4.598Z"
       style="fill:#ffffff;fill-rule:nonzero"
       id="path481" /><path
       d="M386.773,374.311l0,-4.664l6.53,0c7.397,0 9.196,-0.333 9.796,-1.866c0.2,-0.6 0.399,-15.326 0.399,-32.652c0,-28.854 -0.066,-31.719 -1.132,-32.852c-1,-1.066 -2.133,-1.266 -8.397,-1.266l-7.196,0l0,-4.665l0,-4.664l47.312,0l0,9.329l-7.197,0c-7.13,0 -7.263,0 -8.196,1.799c-0.733,1.399 -0.933,7.33 -0.933,33.319c0,30.519 0.066,31.652 1.266,32.585c0.933,0.666 3.332,0.933 8.196,0.933l6.864,0l0,9.329l-23.656,0l-23.656,0l0,-4.665Z"
       style="fill:#ffffff;fill-rule:nonzero"
       id="path483" /><path
       d="M450.078,374.778c0,-3.932 0.266,-4.665 3.531,-10.062c1.866,-3.199 4.065,-6.864 4.798,-8.13c0.733,-1.266 2.999,-4.931 4.998,-8.13c1.999,-3.198 3.998,-6.463 4.465,-7.33c1.399,-2.599 5.73,-9.729 7.263,-11.794c0.8,-1.067 2.132,-3.399 2.932,-5.198c0.866,-1.733 2.132,-3.665 2.799,-4.265c0.666,-0.6 1.199,-1.399 1.199,-1.799c0,-0.4 1.067,-2.332 2.333,-4.198c1.266,-1.933 2.332,-3.732 2.332,-4.065c0,-0.333 1.066,-1.932 2.332,-3.532c3.798,-4.798 3.732,-4.798 -7.796,-4.464c-8.73,0.266 -10.662,0.533 -13.528,1.799c-1.799,0.799 -3.865,1.932 -4.531,2.599c-1.466,1.332 -4.065,6.263 -4.731,8.996c-0.4,1.732 -0.6,1.799 -4.398,1.799c-3.798,0 -3.998,-0.067 -3.998,-1.6c0,-1.399 1.999,-15.926 2.998,-21.59l0.4,-2.132l27.788,0.133l27.787,0.2l0.2,3.265c0.2,2.599 -0.133,3.665 -1.466,5.664c-0.933,1.333 -1.732,2.666 -1.732,2.932c0,0.267 -1.067,2.066 -2.333,4.065c-1.266,1.999 -2.332,3.865 -2.332,4.065c0,0.267 -0.866,1.666 -1.866,3.199c-1.066,1.532 -2.732,4.398 -3.798,6.33c-1,1.866 -2.066,3.465 -2.332,3.465c-0.267,0 -0.933,1 -1.4,2.199c-0.466,1.133 -1.866,3.532 -3.065,5.265c-1.2,1.732 -2.199,3.531 -2.199,3.931c0,0.467 -0.733,1.733 -1.599,2.865c-0.867,1.133 -2.333,3.599 -3.266,5.398c-0.933,1.866 -2.265,4.065 -3.065,4.931c-0.8,0.866 -1.399,1.933 -1.399,2.266c0,0.333 -1.133,2.332 -2.466,4.398c-1.399,2.066 -2.998,4.664 -3.598,5.731c-0.533,1.132 -1.733,3.132 -2.532,4.531l-1.533,2.466l10.728,0c15.66,0 18.659,-1.4 28.854,-13.528c1.466,-1.732 1.666,-1.799 3.865,-0.999c5.131,1.932 5.198,1.932 3.399,5.997c-0.867,1.932 -2.266,5.331 -3.066,7.53c-0.866,2.199 -2.332,5.597 -3.265,7.53l-1.732,3.465l-27.988,0l-27.987,0l0,-4.198Z"
       style="fill:#ffffff;fill-rule:nonzero"
       id="path485" /><path
       d="M530.308,378.043c-0.199,-0.466 -0.266,-2.532 -0.133,-4.465l0.2,-3.598l7.797,-0.333c4.264,-0.2 7.996,-0.6 8.329,-0.866c0.267,-0.334 0.6,-15.06 0.733,-32.719c0.133,-27.121 0,-32.252 -0.799,-33.385c-0.8,-1.133 -2,-1.4 -8.53,-1.666l-7.53,-0.333l0,-4.332l0,-4.331l23.856,-0.2l23.789,-0.133l0,9.329l-6.93,0c-7.396,0 -8.663,0.466 -9.396,3.532c-0.2,0.799 -0.266,15.326 -0.2,32.319c0.2,29.72 0.267,30.919 1.467,31.852c0.932,0.666 3.331,0.933 8.196,0.933l6.863,0l0,9.329l-23.656,0c-19.458,0 -23.789,-0.133 -24.056,-0.933Z"
       style="fill:#ffffff;fill-rule:nonzero"
       id="path487" /><path
       d="M616.27,378.376c-2.799,-0.466 -6.997,-3.531 -11.328,-8.196c-3.332,-3.532 -6.731,-9.729 -8.996,-16.526c-2.133,-6.131 -2.199,-6.664 -2.199,-17.659c-0.067,-10.995 0,-11.528 2.065,-17.392c2.266,-6.53 4.465,-11.262 5.931,-12.794c0.533,-0.467 0.933,-1.133 0.933,-1.466c0,-1.266 6.73,-7.33 10.929,-9.863l4.664,-2.798l7.597,0c6.93,0 7.996,0.2 11.261,1.732c1.933,1 3.532,1.999 3.532,2.333c0,0.333 0.4,0.599 0.866,0.599c1.466,0 8.263,7.73 10.796,12.328c1.399,2.399 3.331,7.597 4.464,11.795c1.933,7.063 1.999,7.996 1.666,17.192c-0.2,7.397 -0.6,10.795 -1.799,14.66c-1.333,4.598 -2.132,6.464 -5.398,12.595c-2.199,4.065 -11.128,12.727 -13.26,12.727c-4.732,0.134 -14.794,0.667 -16.66,0.933c-1.266,0.134 -3.598,0.067 -5.064,-0.2Zm14.66,-8.729c6.064,-2.732 11.128,-11.728 13.461,-24.189c2.998,-15.727 -2.133,-34.518 -11.462,-42.181c-2.399,-2 -3.198,-2.266 -6.53,-2.266c-2.932,0 -4.332,0.4 -6.331,1.666c-2.599,1.732 -8.063,8.463 -8.063,9.929c0,0.466 -0.599,2.065 -1.332,3.598c-2.866,5.864 -3.532,10.395 -3.199,21.79c0.2,6.597 0.666,11.395 1.199,12.661c0.467,1.133 1.067,2.599 1.4,3.332c2.599,6.331 4.598,10.329 5.197,10.329c0.334,0 1.067,0.8 1.533,1.799c1,2.133 5.864,4.798 8.929,4.798c1.133,0.067 3.466,-0.533 5.198,-1.266Z"
       style="fill:#ffffff;fill-rule:nonzero"
       id="path489" /><path
       d="M764.404,378.576c-0.6,-0.666 0.133,-1.599 1.266,-1.599c0.533,0 0.933,0.466 0.933,1c0,0.999 -1.4,1.399 -2.199,0.599Z"
       style="fill:#ffffff;fill-rule:nonzero"
       id="path491" /><path
       d="M665.848,376.51c-1.733,-0.266 -1.866,-0.533 -1.866,-3.465l0,-3.198l3.465,-0.4c5.931,-0.733 5.531,1.599 5.531,-33.785l0,-31.186l-1.599,-1.733c-1.266,-1.332 -2.266,-1.732 -4.532,-1.732l-2.865,0l0,-4.665l0,-4.664l20.591,0l1.133,2.199c0.599,1.133 1.466,2.599 1.932,3.132c0.467,0.533 1.066,1.732 1.333,2.599c0.266,0.866 1.466,3.331 2.732,5.464c1.266,2.066 2.266,4.265 2.266,4.864c0,0.6 0.2,1.066 0.533,1.066c0.4,0 3.132,4.998 4.398,7.997c0.2,0.533 1.133,2.199 2.065,3.665c0.933,1.466 1.866,3.132 2.066,3.665c0.2,0.533 0.8,1.932 1.4,2.999c0.599,1.132 2.132,3.931 3.331,6.33c2.133,4.132 2.799,5.331 4.732,8.33c0.666,1.066 0.799,-2.599 0.799,-19.525l0,-20.791l-2.132,-1.332c-1.2,-0.733 -3.199,-1.333 -4.331,-1.333l-2.199,0l0,-4.665l0,-4.664l28.054,0l-0.2,4.464l-0.2,4.532l-2.732,0.333c-4.332,0.6 -5.998,2.066 -6.531,5.731c-0.2,1.732 -0.4,17.792 -0.4,35.717l0,32.585l-4.931,-0.199l-4.931,-0.2l-2.066,-3.532c-1.132,-1.999 -2.065,-3.865 -2.065,-4.265c0,-0.333 -0.6,-1.466 -1.266,-2.465c-0.667,-0.933 -2.333,-3.865 -3.599,-6.398c-2.465,-4.931 -4.265,-8.462 -12.128,-23.322c-2.732,-5.132 -5.864,-11.129 -6.93,-13.328l-1.999,-3.998l0,24.656c0,19.324 0.133,24.922 0.866,25.788c0.533,0.733 2.266,1.333 4.665,1.599l3.798,0.467l-0.2,3.065l-0.2,3.065l-7.796,-0.266c-5.531,-0.133 -7.863,0 -7.863,0.533c0,0.733 -6.064,0.866 -10.129,0.266Z"
       style="fill:#ffffff;fill-rule:nonzero"
       id="path493" /><path
       d="M747.811,373.179c-0.733,-0.134 -1.199,-0.933 -1.199,-1.933c0,-1.599 0.066,-1.599 6.863,-1.599c4.865,0 7.264,-0.267 8.197,-0.933c1.199,-0.933 1.266,-2.066 1.266,-32.585c0,-25.989 -0.2,-31.92 -0.933,-33.319c-0.933,-1.799 -1.066,-1.799 -8.196,-1.799l-7.197,0l0,-4.665l0,-4.664l23.722,0.133l23.723,0.2l0.133,8.663l-7.263,0.2c-5.597,0.133 -7.53,0.466 -8.463,1.266c-1.133,0.999 -1.199,3.198 -1.199,33.651l0,32.519l1.732,0.667c0.933,0.399 4.665,0.666 8.33,0.666c5.064,0 6.597,0.2 6.597,0.866c0,0.6 -0.666,0.8 -1.999,0.6c-1.133,-0.133 -2.466,0.067 -2.999,0.533c-0.6,0.533 -3.398,0.733 -8.13,0.666c-8.662,-0.133 -24.722,0.334 -28.853,0.867c-1.666,0.2 -3.532,0.2 -4.132,0Z"
       style="fill:#ffffff;fill-rule:nonzero"
       id="path495" /><path
       d="M14.939,374.378l0,-4.531l2.732,-0.4c5.198,-0.666 4.931,1 5.131,-31.986c0.133,-16.192 0,-30.453 -0.2,-31.652c-0.533,-2.866 -2.732,-4.798 -5.464,-4.798l-2.199,0l0,-4.731l0,-4.665l23.523,0.2c17.192,0.133 23.856,0.4 24.988,1.066c1.8,1 3.932,2.066 6.331,3.332c2.665,1.333 7.13,6.331 8.663,9.662c1.866,3.932 1.866,11.529 0.133,16.726c-1.733,5.131 -6.064,9.729 -11.995,12.795c-2.465,1.199 -4.931,2.265 -5.397,2.265c-0.533,0 -0.933,0.267 -0.933,0.533c0,0.733 5.397,11.062 5.997,11.462c0.267,0.2 0.733,1.066 1,1.932c0.266,0.933 1.532,3.199 2.732,5.131c1.266,1.933 2.265,3.799 2.265,4.132c0,0.533 3.599,5.731 5.065,7.263c0.466,0.467 2.799,1 5.198,1.266l4.398,0.467l0,9.129l-9.663,0c-8.996,0 -9.662,-0.067 -10.995,-1.466c-0.733,-0.8 -1.333,-1.799 -1.333,-2.266c0,-0.399 -0.466,-1.132 -0.999,-1.599c-0.533,-0.466 -1,-1.266 -1,-1.799c0,-0.533 -0.666,-1.866 -1.399,-2.999c-0.8,-1.066 -2.332,-3.665 -3.399,-5.731c-3.331,-6.33 -5.131,-9.595 -7.396,-13.46c-1.2,-1.999 -2.932,-5.065 -3.799,-6.797l-1.532,-3.199l-4.598,0l-4.665,0l0.267,13.194c0.133,8.93 0.466,13.594 1.066,14.594c0.6,1.133 1.666,1.599 4.132,1.932l3.331,0.467l0,9.129l-14.993,0l-14.993,0l0,-4.598Zm32.052,-44.78c3.065,-0.4 6.93,-1.333 8.596,-2.066c1.6,-0.733 3.599,-1.599 4.465,-1.932c0.8,-0.267 1.999,-1.399 2.665,-2.399c0.667,-1 1.333,-1.999 1.533,-2.199c1,-0.933 1.999,-4.398 1.999,-6.93c0,-4.265 -2.132,-6.93 -7.663,-9.729c-4.531,-2.266 -4.865,-2.333 -12.528,-2.333c-7.063,0 -7.996,0.134 -8.863,1.267c-0.733,1.066 -0.932,4.131 -0.932,14.193l0,12.861l2.532,0c1.466,0 5.131,-0.333 8.196,-0.733Z"
       style="fill:#ffffff;fill-rule:nonzero"
       id="path497" /><path
       d="M98.901,374.378l0,-4.598l7.663,-0.266c5.065,-0.134 7.864,-0.467 8.463,-1.067c0.667,-0.666 0.867,-7.53 0.867,-32.718c0,-30.453 -0.067,-31.986 -1.266,-33.319c-1.133,-1.266 -2,-1.399 -8.53,-1.399l-7.197,0l0,-4.665l0,-4.664l47.979,0l0,9.329l-7.53,0c-4.998,0 -7.797,0.266 -8.33,0.8c-0.6,0.599 -0.799,9.062 -0.799,33.918l0,33.118l1.532,0.4c0.8,0.2 4.532,0.4 8.33,0.4l6.797,0l0,9.329l-23.989,0l-23.99,0l0,-4.598Z"
       style="fill:#ffffff;fill-rule:nonzero"
       id="path499" /><path
       d="M162.873,374.378l0,-4.531l2.732,-0.4c5.131,-0.666 4.931,0.866 5.131,-30.653c0.133,-15.46 0.066,-29.653 -0.2,-31.519c-0.533,-4.265 -2.199,-6.264 -5.331,-6.264l-2.332,0l0,-4.731l0,-4.732l23.856,0.267l23.789,0.2l4.665,2.532c8.996,4.865 12.994,10.795 12.994,19.258c0,7.797 -1.466,11.528 -6.597,16.526c-2.466,2.399 -5.464,4.665 -6.731,5.131c-1.266,0.4 -4.131,1.4 -6.33,2.199c-3.265,1.2 -5.864,1.533 -14.26,1.866l-10.196,0.267l0.267,13.593c0.266,15.394 0.266,15.527 5.464,16.06l3.065,0.4l0,9.129l-14.993,0l-14.993,0l0,-4.598Zm32.518,-44.713c3.599,-0.467 6.997,-1.4 9.663,-2.666c5.264,-2.465 5.997,-3.132 7.796,-6.53c3.665,-6.93 1.933,-12.461 -4.798,-15.66c-2.132,-0.999 -5.597,-2.199 -7.729,-2.532c-4.398,-0.866 -13.928,-0.4 -15.06,0.733c-0.467,0.466 -0.8,5.264 -0.933,13.994l-0.2,13.327l2.865,0c1.599,0 5.398,-0.333 8.396,-0.666Z"
       style="fill:#ffffff;fill-rule:nonzero"
       id="path501" /><path
       d="M234.174,374.378l0,-4.531l3.465,-0.4c1.866,-0.267 3.665,-0.8 3.998,-1.266c0.267,-0.467 0.534,-15.193 0.534,-32.652c0,-30.986 -0.067,-31.919 -1.333,-33.185c-0.866,-0.867 -2.199,-1.333 -3.998,-1.333l-2.666,0l0,-4.665l0,-4.664l63.305,0l0,27.388l-4.465,-0.2l-4.531,-0.2l-0.533,-4.332c-0.266,-2.399 -1.133,-5.597 -1.866,-7.13c-1.932,-3.998 -5.597,-5.131 -16.592,-5.198c-7.197,0 -8.663,0.2 -10.662,1.4l-2.333,1.333l-0.199,12.127l-0.134,12.128l7.264,0c4.065,0 8.063,-0.333 8.929,-0.733c1.666,-0.733 3.798,-4.398 3.798,-6.597c0,-2.932 0.6,-3.332 5.398,-3.332l4.598,0l0,31.986l-4.665,0c-4.531,0 -4.664,-0.066 -4.997,-1.799c-0.867,-4.065 -1.933,-6.93 -2.999,-7.863c-0.866,-0.8 -3.332,-1.133 -9.263,-1.466l-8.063,-0.4l0,27.521l2.199,1.399c1.933,1.2 2.999,1.333 10.462,1.133c10.862,-0.333 14.261,-1.666 17.926,-7.13c1.399,-2.066 2.732,-4.531 2.932,-5.464c0.266,-1 0.999,-2.466 1.666,-3.265c1.199,-1.466 1.399,-1.533 4.331,-0.6c1.733,0.466 3.199,1.199 3.398,1.666c0.4,0.999 -1.266,9.529 -2.998,15.593c-0.8,2.732 -1.6,5.997 -1.733,7.197l-0.333,2.132l-29.92,0l-29.92,0l0,-4.598Z"
       style="fill:#ffffff;fill-rule:nonzero"
       id="path503" /><path
       d="M314.805,374.378l0,-4.598l7.93,-0.2c4.398,-0.133 8.196,-0.533 8.529,-0.799c0.267,-0.334 0.6,-15.727 0.733,-34.185l0.2,-33.652l-4.198,0.467c-2.332,0.2 -5.198,0.866 -6.397,1.399c-2.732,1.333 -6.198,5.264 -8.53,9.929c-0.999,1.999 -1.932,3.598 -1.999,3.598c-1.999,0 -6.93,-1.666 -7.197,-2.465c-0.4,-1 0.267,-3.998 1.6,-7.197c2.199,-5.331 3.331,-8.663 3.331,-9.662c0,-0.6 0.334,-2.066 0.733,-3.266l0.733,-2.065l28.321,0.133l28.321,0.2l1.599,4.331c1.933,5.331 4.931,15.727 4.931,17.059c0,1 -1.599,1.8 -5.197,2.466c-1.733,0.333 -2.266,0.2 -2.599,-0.733c-0.267,-0.6 -1.266,-2.399 -2.333,-3.932c-0.999,-1.532 -1.865,-2.998 -1.865,-3.331c0,-1.267 -5.931,-5.465 -8.263,-5.798c-1.333,-0.2 -3.466,-0.533 -4.732,-0.733l-2.332,-0.4l0,33.319c0,29.387 0.133,33.385 1.066,34.318c0.8,0.866 2.599,1.066 8.33,1.066l7.263,0l0,9.329l-23.989,0l-23.989,0l0,-4.598Z"
       style="fill:#ffffff;fill-rule:nonzero"
       id="path505" /><path
       d="M386.773,374.311l0,-4.664l6.53,0c7.397,0 9.196,-0.333 9.796,-1.866c0.2,-0.6 0.399,-15.326 0.399,-32.652c0,-28.854 -0.066,-31.719 -1.132,-32.852c-1,-1.066 -2.133,-1.266 -8.397,-1.266l-7.196,0l0,-4.665l0,-4.664l47.312,0l0,9.329l-7.197,0c-7.13,0 -7.263,0 -8.196,1.799c-0.733,1.399 -0.933,7.33 -0.933,33.319c0,30.519 0.066,31.652 1.266,32.585c0.933,0.666 3.332,0.933 8.196,0.933l6.864,0l0,9.329l-23.656,0l-23.656,0l0,-4.665Z"
       style="fill:#ffffff;fill-rule:nonzero"
       id="path507" /><path
       d="M450.078,374.778c0,-3.932 0.266,-4.665 3.531,-10.062c1.866,-3.199 4.065,-6.864 4.798,-8.13c0.733,-1.266 2.999,-4.931 4.998,-8.13c1.999,-3.198 3.998,-6.463 4.465,-7.33c1.399,-2.599 5.73,-9.729 7.263,-11.794c0.8,-1.067 2.132,-3.399 2.932,-5.198c0.866,-1.733 2.132,-3.665 2.799,-4.265c0.666,-0.6 1.199,-1.399 1.199,-1.799c0,-0.4 1.067,-2.332 2.333,-4.198c1.266,-1.933 2.332,-3.732 2.332,-4.065c0,-0.333 1.066,-1.932 2.332,-3.532c3.798,-4.798 3.732,-4.798 -7.796,-4.464c-8.73,0.266 -10.662,0.533 -13.528,1.799c-1.799,0.799 -3.865,1.932 -4.531,2.599c-1.466,1.332 -4.065,6.263 -4.731,8.996c-0.4,1.732 -0.6,1.799 -4.398,1.799c-3.798,0 -3.998,-0.067 -3.998,-1.6c0,-1.399 1.999,-15.926 2.998,-21.59l0.4,-2.132l27.788,0.133l27.787,0.2l0.2,3.265c0.2,2.599 -0.133,3.665 -1.466,5.664c-0.933,1.333 -1.732,2.666 -1.732,2.932c0,0.267 -1.067,2.066 -2.333,4.065c-1.266,1.999 -2.332,3.865 -2.332,4.065c0,0.267 -0.866,1.666 -1.866,3.199c-1.066,1.532 -2.732,4.398 -3.798,6.33c-1,1.866 -2.066,3.465 -2.332,3.465c-0.267,0 -0.933,1 -1.4,2.199c-0.466,1.133 -1.866,3.532 -3.065,5.265c-1.2,1.732 -2.199,3.531 -2.199,3.931c0,0.467 -0.733,1.733 -1.599,2.865c-0.867,1.133 -2.333,3.599 -3.266,5.398c-0.933,1.866 -2.265,4.065 -3.065,4.931c-0.8,0.866 -1.399,1.933 -1.399,2.266c0,0.333 -1.133,2.332 -2.466,4.398c-1.399,2.066 -2.998,4.664 -3.598,5.731c-0.533,1.132 -1.733,3.132 -2.532,4.531l-1.533,2.466l10.728,0c15.66,0 18.659,-1.4 28.854,-13.528c1.466,-1.732 1.666,-1.799 3.865,-0.999c5.131,1.932 5.198,1.932 3.399,5.997c-0.867,1.932 -2.266,5.331 -3.066,7.53c-0.866,2.199 -2.332,5.597 -3.265,7.53l-1.732,3.465l-27.988,0l-27.987,0l0,-4.198Z"
       style="fill:#ffffff;fill-rule:nonzero"
       id="path509" /><path
       d="M530.308,378.043c-0.199,-0.466 -0.266,-2.532 -0.133,-4.465l0.2,-3.598l7.797,-0.333c4.264,-0.2 7.996,-0.6 8.329,-0.866c0.267,-0.334 0.6,-15.06 0.733,-32.719c0.133,-27.121 0,-32.252 -0.799,-33.385c-0.8,-1.133 -2,-1.4 -8.53,-1.666l-7.53,-0.333l0,-4.332l0,-4.331l23.856,-0.2l23.789,-0.133l0,9.329l-6.93,0c-7.396,0 -8.663,0.466 -9.396,3.532c-0.2,0.799 -0.266,15.326 -0.2,32.319c0.2,29.72 0.267,30.919 1.467,31.852c0.932,0.666 3.331,0.933 8.196,0.933l6.863,0l0,9.329l-23.656,0c-19.458,0 -23.789,-0.133 -24.056,-0.933Z"
       style="fill:#ffffff;fill-rule:nonzero"
       id="path511" /><path
       d="M610.206,375.044c-7.397,-6.197 -10.862,-11.394 -14.26,-21.39c-2.133,-6.131 -2.199,-6.664 -2.199,-17.659c-0.067,-10.995 0,-11.528 2.065,-17.392c2.266,-6.53 4.465,-11.262 5.931,-12.794c0.533,-0.467 0.933,-1.133 0.933,-1.466c0,-1.266 6.73,-7.33 10.929,-9.863l4.664,-2.798l7.597,0c6.93,0 7.996,0.2 11.261,1.732c1.933,1 3.532,1.999 3.532,2.333c0,0.333 0.4,0.599 0.866,0.599c1.466,0 8.263,7.73 10.796,12.328c1.399,2.399 3.331,7.597 4.464,11.795c1.933,7.063 1.999,7.996 1.666,17.192c-0.266,10.129 -1.599,16.46 -4.664,22.324c-3.199,6.263 -3.865,7.33 -6.997,10.595c-5.931,6.264 -6.531,6.597 -12.795,7.13c-3.132,0.267 -8.862,0.533 -12.794,0.533l-7.13,0.067l-3.865,-3.266Zm20.724,-5.397c6.064,-2.732 11.128,-11.728 13.461,-24.189c2.998,-15.727 -2.133,-34.518 -11.462,-42.181c-2.399,-2 -3.198,-2.266 -6.53,-2.266c-2.932,0 -4.332,0.4 -6.331,1.666c-2.599,1.732 -8.063,8.463 -8.063,9.929c0,0.466 -0.599,2.065 -1.332,3.598c-2.866,5.864 -3.532,10.395 -3.199,21.79c0.2,6.597 0.666,11.395 1.199,12.661c0.467,1.133 1.067,2.599 1.4,3.332c2.599,6.331 4.598,10.329 5.197,10.329c0.334,0 1.067,0.8 1.533,1.799c1,2.133 5.864,4.798 8.929,4.798c1.133,0.067 3.466,-0.533 5.198,-1.266Z"
       style="fill:#ffffff;fill-rule:nonzero"
       id="path513" /><path
       d="M663.982,373.112l0,-3.265l3.465,-0.4c5.931,-0.733 5.531,1.599 5.531,-33.785l0,-31.186l-1.599,-1.733c-1.266,-1.332 -2.266,-1.732 -4.532,-1.732l-2.865,0l0,-4.665l0,-4.664l20.591,0l1.133,2.132c0.599,1.2 1.466,2.666 1.932,3.199c0.467,0.533 1.066,1.732 1.333,2.599c0.266,0.866 1.466,3.331 2.732,5.464c1.266,2.066 2.266,4.265 2.266,4.864c0,0.6 0.2,1.066 0.533,1.066c0.4,0 3.132,4.998 4.398,7.997c0.2,0.533 1.133,2.199 2.065,3.665c0.933,1.466 1.866,3.132 2.066,3.665c0.2,0.533 0.8,1.932 1.4,2.999c0.599,1.132 2.132,3.931 3.331,6.33c2.133,4.132 2.799,5.331 4.732,8.33c0.666,1.066 0.799,-2.599 0.799,-19.525l0,-20.791l-2.132,-1.332c-1.2,-0.733 -3.199,-1.333 -4.331,-1.333l-2.199,0l0,-4.665l0,-4.664l28.054,0l-0.2,4.464l-0.2,4.532l-2.732,0.333c-4.332,0.6 -5.998,2.066 -6.531,5.731c-0.2,1.732 -0.4,17.592 -0.4,35.317l0,32.252l-4.931,0c-5.331,0 -5.331,0 -7.73,-4.664c-0.799,-1.666 -1.865,-3.598 -2.265,-4.331c-0.4,-0.734 -2.066,-3.865 -3.665,-6.997c-3.799,-7.33 -6.331,-12.195 -12.395,-23.656c-2.732,-5.132 -5.864,-11.129 -6.93,-13.328l-1.999,-3.998l0,24.656c0,19.324 0.133,24.922 0.866,25.788c0.533,0.733 2.266,1.333 4.598,1.599l3.799,0.467l0,2.532c0,1.399 -0.2,2.665 -0.467,2.799c-0.333,0.2 -6.597,0.533 -13.994,0.799l-13.527,0.467l0,-3.332Z"
       style="fill:#ffffff;fill-rule:nonzero"
       id="path515" /><path
       d="M746.612,371.313l0,-1.666l6.863,0c4.865,0 7.264,-0.267 8.197,-0.933c1.199,-0.933 1.266,-2.066 1.266,-32.585c0,-25.989 -0.2,-31.92 -0.933,-33.319c-0.933,-1.799 -1.066,-1.799 -8.196,-1.799l-7.197,0l0,-4.665l0,-4.664l23.722,0.133l23.723,0.2l0.133,8.663l-7.263,0.2c-5.597,0.133 -7.53,0.466 -8.463,1.266c-1.133,0.999 -1.199,3.198 -1.199,33.651l0,32.519l1.732,0.667c0.933,0.399 4.665,0.666 8.33,0.666c3.598,0 6.597,0.266 6.597,0.6c0,0.799 -5.464,1.199 -26.055,2.065c-22.723,0.933 -21.257,1 -21.257,-0.999Z"
       style="fill:#ffffff;fill-rule:nonzero"
       id="path517" /></g></svg>