<?xml version="1.0" encoding="UTF-8" standalone="no"?><!DOCTYPE svg PUBLIC "-//W3C//DTD SVG 1.1//EN" "http://www.w3.org/Graphics/SVG/1.1/DTD/svg11.dtd"><svg width="100%" height="100%" viewBox="0 0 800 800" version="1.1" xmlns="http://www.w3.org/2000/svg" xmlns:xlink="http://www.w3.org/1999/xlink" xml:space="preserve" xmlns:serif="http://www.serif.com/" style="fill-rule:evenodd;clip-rule:evenodd;stroke-linejoin:round;stroke-miterlimit:2;"><g><path d="M139.878,349.899c-3.263,23.548 -4.681,47.52 -4.257,71.208c0,11.062 0,22.268 -0.282,33.332c-0.284,12.2 -3.122,24.256 -6.243,36.17c-6.097,24.258 -14.468,47.663 -21.274,71.633c-4.826,17.021 -13.05,33.05 -17.023,50.355c-1.276,4.824 -0.992,9.645 2.837,12.198c7.801,5.249 6.951,13.476 6.809,20.711c-0.284,20.85 -4.539,41.276 -7.377,61.987c-0.566,2.977 -0.566,6.241 0,9.22c4.113,16.169 -1.559,31.489 -4.539,46.666c-0.85,4.397 -4.539,4.965 -8.369,4.965c-16.313,0 -32.908,0.14 -49.219,0.424c-3.263,0 -6.667,0 -9.93,0.144c-12.34,0.85 -18.157,-4.539 -18.157,-16.597c0,-68.51 0,-136.88 0.142,-205.108c0,-45.108 -0.282,-90.072 -0.282,-135.036c0,-13.334 0.424,-26.81 0.282,-40.001c0,-5.247 2.128,-6.951 6.951,-6.525c22.838,2.269 44.54,-5.389 66.81,-7.801c20.143,-2.695 40.567,-7.803 63.121,-7.945Z" style="fill:#fff;fill-rule:nonzero;"/><path d="M183.85,66.353c1.276,17.305 -5.249,32.057 -8.37,47.518c-1.702,8.227 -7.943,14.47 -13.9,20.426c-6.385,6.383 -12.2,12.908 -18.299,19.291c-4.255,4.397 -5.815,9.504 -3.829,15.461c1.702,4.824 0.284,9.363 -0.568,14.042c-2.127,7.661 -0.426,15.887 4.539,22.128c8.937,11.772 11.632,25.531 13.192,39.857c0.994,9.646 -10.638,25.817 -20.85,29.931c-5.817,2.127 -11.632,3.261 -17.873,3.687c-34.61,2.554 -69.362,4.539 -100.568,22.694c-4.256,2.556 -8.511,4.965 -14.47,8.655l0,-33.619c0,-1.417 0.568,-2.695 1.846,-3.545c7.374,-4.115 4.963,-8.37 1.276,-13.476c-4.822,-6.666 -2.98,-14.609 -2.838,-21.986c0.426,-21.702 0,-43.404 0.284,-65.106c0,-4.821 -0.426,-9.363 4.965,-12.198c2.554,-1.276 2.27,-4.255 2.27,-6.809c0,-6.241 -0.142,-12.2 -0.284,-18.299c-0.142,-5.247 0.852,-10.78 -4.965,-14.751c-4.254,-2.98 -2.694,-20.85 1.275,-24.966c4.684,-4.963 7.803,-11.346 13.902,-15.459c3.831,-2.696 2.695,-7.661 2.979,-11.632c0.852,-8.368 0.852,-16.455 1.986,-24.966c0.994,-6.806 -1.986,-14.183 -6.525,-20.142c-3.261,-4.111 -2.695,-5.957 1.986,-6.525c5.815,-0.85 7.093,-4.255 6.525,-9.36c-0.284,-2.554 -0.426,-5.107 2.553,-6.383c2.554,-0.994 4.256,0.566 5.391,2.553c2.268,2.978 5.105,2.554 8.369,1.986c3.545,-0.568 6.667,-0.142 8.652,3.262c1.986,3.405 0.85,6.524 -2.127,8.936c-2.27,1.702 -3.548,4.539 -2.98,7.377c1.704,12.198 0.426,24.397 0.426,36.737c0,7.377 2.978,9.363 8.369,4.681c14.325,-12.481 31.772,-11.206 48.227,-10.922c7.943,0.426 15.604,3.688 21.418,9.079c3.548,3.119 5.957,3.119 9.079,0c4.823,-4.965 11.206,-7.945 16.171,-13.05c3.687,-3.547 5.389,-2.554 6.383,2.552c0.284,2.553 0,4.965 -0.852,7.376c-1.702,6.383 0.994,9.079 7.093,7.519c6.383,-1.846 13.189,-0.426 20.142,-2.554Z" style="fill:#fff;fill-rule:nonzero;"/><path d="M197.466,726.783c-7.659,-5.391 -15.461,-3.829 -22.836,-2.695c-5.817,0.852 -6.525,4.397 -2.554,8.652c6.099,6.243 14.468,9.644 23.12,9.644c3.832,0.145 6.101,1.42 6.809,4.54c2.554,10.64 4.823,20.994 -2.27,31.064c-6.098,8.369 -21.702,13.05 -30.78,7.945c-5.815,-3.122 -11.488,-0.852 -17.305,-0.57c-4.679,0.144 -8.227,-0.282 -10.922,-4.255c-0.992,-1.416 -2.27,-2.27 -4.113,-2.694c-8.937,-2.551 -12.198,-6.241 -11.63,-14.751c1.417,-19.009 3.687,-38.158 7.09,-57.022c1.278,-6.383 -0.565,-12.198 0.284,-18.157c2.554,-15.035 2.98,-30.213 4.54,-45.248c2.127,-21.702 2.837,-43.546 7.092,-65.109c1.56,-7.656 5.815,-13.899 10.638,-19.574c1.702,-2.552 5.108,-3.12 7.659,-1.416c0.568,0.424 1.278,1.276 1.704,1.844c4.539,6.381 9.36,12.34 12.766,19.29c3.261,6.951 6.24,14.752 11.49,20.993c0.565,0.852 1.417,1.843 1.559,2.977c2.696,15.605 8.227,30.355 6.525,46.668c-1.42,13.192 0.568,26.809 0,39.859c-0.568,12.766 2.978,24.966 1.134,38.015Z" style="fill:#fff;fill-rule:nonzero;"/><path d="M93.068,307.773c6.809,-0.426 14.326,1.844 21.702,4.113c2.128,0.566 4.256,1.56 4.398,4.397c0.142,2.694 -1.418,4.966 -3.83,5.957c-0.991,0.426 -1.985,0.852 -3.121,1.278c-25.816,4.397 -50.637,14.184 -77.021,16.879c-4.681,0.426 -9.362,0.14 -14.043,-0.852c-4.681,-0.991 -5.389,-3.687 -1.844,-6.808c13.76,-12.34 29.361,-20.851 47.944,-22.41c8.226,-1.42 16.453,-2.838 25.815,-2.554Z" style="fill:#fff;fill-rule:nonzero;"/><path d="M770.239,458.412c-2.269,0 -4.255,-1.843 -4.255,-4.113c0,-0.284 0,-0.57 0.14,-0.994c0.142,-2.551 1.276,-5.107 4.399,-4.965c3.12,0.144 3.83,2.27 4.111,4.965c-0.281,2.98 -1.559,5.107 -4.395,5.107Zm-71.207,-86.242c0,0 0,-0.284 0.142,-0.284l1.843,1.275l-1.985,-0.991Zm3.119,3.971l0.144,0.426l-0.144,0.142l0,-0.568l-1.415,-3.12c0.989,0.85 1.275,1.844 1.415,3.12Zm7.093,-190.497l0,0.426c-1.56,-0.142 -1.844,-1.561 -2.554,-2.695c0.426,-0.142 0.852,-0.426 1.278,-0.284c0.852,0.426 1.562,1.418 1.276,2.553Zm29.363,33.474l0,6.101c0,0.992 -0.284,1.276 -1.278,0.424c-0.566,-1.843 -1.418,-3.687 1.278,-6.525Zm-55.176,77.023c0.139,-0.284 0.849,-0.568 1.275,-0.85l0.424,1.56l-1.699,0.85c-0.144,-0.568 -0.144,-1.134 0,-1.56Zm74.75,252.342c-2.837,0.426 -1.417,4.399 -5.107,4.681c-9.504,0.852 -17.445,6.383 -25.389,11.208c-2.13,1.416 -1.986,3.829 -1.844,6.099c1.702,40.991 -0.852,81.701 0.85,122.41c0.426,10.922 0,21.702 0,32.483c0,7.8 0,7.8 7.803,7.8c1.417,-0.282 2.695,0.144 3.261,1.42c-6.525,2.553 -13.334,4.965 -11.772,14.043c0.142,1.276 -0.284,2.128 -1.418,2.836c-0.993,1.276 -1.985,2.27 -2.979,3.689c-0.142,-1.985 -0.284,-3.119 -0.284,-4.539c0,-10.214 -4.113,-13.334 -13.902,-10.214c-0.284,0.144 -0.426,1.56 -0.566,2.269l-0.993,1.42l0.568,-0.568c2.695,3.122 5.247,6.243 7.942,9.363c0.424,0.992 0.85,2.125 0.994,3.261c-4.115,-3.261 -7.095,-7.375 -9.646,-12.056c-5.815,-2.837 -11.348,-5.105 -19.149,-3.263c3.119,-2.978 6.809,-3.546 6.809,-7.091c0,-3.689 -2.554,-4.539 -5.391,-4.965c1.417,-6.099 -4.256,-7.801 -6.667,-11.49c-7.517,-10.638 -15.603,-20.71 -23.404,-31.065c-10.922,-14.183 -20.994,-28.934 -31.49,-43.544c-6.241,-8.37 -13.19,-16.029 -20.993,-22.696c-2.127,-1.988 -6.099,-3.121 -3.261,-7.659c0.566,-1.279 -1.42,-3.263 -2.696,-3.831c-5.815,-1.418 -7.66,-6.099 -9.788,-10.922c-0.992,20.992 -1.702,41.845 -0.852,62.837c0.144,-0.85 0.426,-1.704 0.57,-2.554l0,17.305c-0.286,-4.821 -0.426,-9.786 -0.57,-14.609c-1.844,6.667 -1.986,13.76 -0.424,20.568c1.56,6.809 0.568,13.19 0.85,19.859c0.144,12.482 2.27,16.453 14.044,20.708c4.965,1.844 9.36,7.093 16.171,3.122c1.56,-0.852 4.539,5.389 4.113,7.516c-1.704,6.383 3.261,8.369 6.381,11.774c-8.225,2.27 -15.885,-1.275 -23.686,-1.845c-8.512,-0.566 -16.597,1.703 -25.249,0c-6.241,-1.276 -6.383,-0.14 -6.241,9.362c-3.264,-9.646 -3.264,-9.786 -15.178,-9.221c-4.539,0.145 -9.504,-0.565 -11.774,4.966c-0.426,1.417 -1.701,2.269 -2.551,0.284c-0.57,-1.56 -1.42,-2.554 -2.84,-2.554c-2.551,0 -4.823,-1.276 -4.823,-3.545c0,-2.27 3.834,-0.426 4.541,-3.832c-0.568,-1.843 -2.695,-3.545 -7.518,-4.821c9.502,-1.42 9.502,-7.658 11.204,-12.908c0.57,0.284 1.561,0.284 1.561,0.568c1.56,9.077 1.56,9.077 10.071,5.389c1.845,-0.851 3.689,-1.417 5.249,-2.127c5.391,-2.836 9.08,-6.099 9.08,-13.476c0,-35.034 -0.994,-70.072 -1.846,-105.107c-0.284,-12.766 -4.395,-24.54 -5.249,-37.02c-0.565,-7.095 -7.516,-8.228 -12.765,-9.93c-4.258,-1.42 -9.081,-2.128 -11.204,4.681c0.849,-8.51 -6.241,-5.959 -9.789,-8.51c2.128,-0.852 4.256,-1.704 6.243,-2.554c1.56,-0.426 3.12,-1.702 2.124,-2.837c-5.955,-6.525 1.422,-10.211 2.555,-15.462c0.142,-0.992 -0.284,-2.267 0.852,-2.977c0,9.502 0.424,9.93 9.505,9.644l6.664,-0.282c8.229,-0.286 8.229,-0.286 11.49,-7.521c2.554,1.42 -0.426,5.819 3.83,6.243c4.399,0.426 8.228,-0.994 9.646,-4.255c1.278,-2.553 3.687,-3.689 4.539,-6.099c1.56,-3.689 1.418,0 1.702,0.284c2.27,1.986 3.263,1.702 3.121,-1.562c-0.144,-1.985 0.85,-2.837 2.126,-1.275c2.84,3.687 5.249,1.417 7.945,0c1.701,-0.852 3.261,-2.128 5.249,-1.846c4.537,0.426 5.957,-1.7 5.815,-5.815c-0.284,-7.801 3.121,-16.029 -2.27,-23.546c-0.568,-0.85 -0.142,-2.693 0,-4.113c0.566,-6.385 1.702,-12.34 0.284,-19.149c-0.852,-4.541 1.276,-11.066 0.992,-16.597c-0.424,-20.85 -1.418,-41.561 -2.126,-62.411c-0.144,-6.383 -0.854,-12.766 -0.994,-18.865c0,-4.397 -1.419,-6.81 -6.099,-6.81c-6.384,-0.14 -12.765,-0.566 -19.006,-0.992c-4.115,-0.284 -7.661,1.559 -9.93,4.681c-4.824,7.801 -12.198,13.76 -16.314,21.986c-4.395,8.653 -4.679,8.511 4.4,13.334c-5.11,0.284 -9.365,1.985 -13.762,3.261c-3.827,1.278 -5.107,3.832 -6.097,7.093c-0.428,1.986 -1.706,1.56 -2.979,1.418c-1.42,-0.142 -3.546,-0.424 -2.98,-1.986c3.548,-9.36 -4.113,-6.241 -8.368,-6.809c2.127,-3.545 7.516,-0.282 8.936,-5.247c0.85,-3.687 0.426,-7.093 0.85,-10.78c0.568,-5.817 0,-11.206 0.852,-16.879c1.559,-9.788 -1.844,-18.725 -8.227,-23.83c5.249,-2.837 5.249,-2.837 7.799,-17.447c2.981,1.986 1.562,5.247 2.555,7.517c0.852,1.844 1.986,3.545 4.398,2.977c2.269,-0.424 1.703,-2.267 1.559,-4.111c-0.426,-6.811 -0.991,-13.901 -1.417,-20.852c-0.142,-4.397 -1.844,-6.809 -8.653,-6.099c4.679,-2.27 7.659,-2.838 7.375,-7.377c-0.85,-10.07 0.284,-20.566 -3.262,-30.213c-0.423,-0.993 -0.568,-1.985 -0.423,-2.979c1.275,-9.644 0.989,-9.644 -9.647,-10.07c4.255,-0.994 6.807,-1.562 9.502,-2.128c1.702,-0.426 4.4,0.284 3.83,-2.979c-0.284,-0.992 -0.85,-1.844 -1.7,-2.27c-1.985,1.278 -4.541,1.278 -8.37,0.284c-3.546,0.142 -7.091,0 -11.346,0.142c4.111,-3.119 6.95,-1.418 10.07,-0.426c0.284,0.142 0.852,0.142 1.276,0.284c1.845,0 3.689,-0.142 5.391,-0.566l0.14,0c0.993,-0.284 1.987,-0.142 2.839,0.14c2.27,-1.56 3.83,-4.679 5.389,-10.212c1.42,5.391 -1.276,13.05 7.091,11.49c5.819,-0.994 -0.424,-5.107 1.988,-7.377c4.681,-0.284 4.537,8.937 11.346,6.099c-2.978,3.263 -2.836,6.385 -0.85,9.362c7.8,11.064 12.34,25.25 23.404,33.051c13.475,9.504 26.099,22.978 45.25,20.994c4.395,-0.426 7.942,2.125 12.198,2.125c12.197,0.284 24.255,-4.253 33.332,-12.339c5.817,-4.965 8.938,-12.056 9.078,-19.717c0.142,-4.681 -4.821,-7.942 -3.545,-13.192c0.284,-0.991 -10.638,-6.95 -15.888,-9.078c4.114,3.831 6.669,6.241 9.079,9.078c2.269,2.696 4.115,6.099 4.823,9.505c-0.142,0.426 -0.852,0.85 -1.418,0.426c-0.284,-0.142 -0.426,-0.284 -0.426,-0.426c-4.823,-14.186 -17.589,-19.291 -29.362,-24.54c-9.077,-3.829 -18.581,-7.093 -28.935,-6.383c-1.42,0 -2.696,-0.426 -3.546,-1.701c-0.57,-1.844 1.984,-2.128 2.694,-4.114c-8.369,-1.419 -15.887,-4.823 -24.54,-4.681l6.101,3.545c-6.385,-0.991 -11.774,-3.829 -17.449,-6.808c-2.27,-1.418 -4.111,-7.517 -8.368,-1.844c-0.566,0.994 -1.56,-1.702 -1.842,-2.696c-3.831,-7.942 -10.214,-13.331 -17.733,-18.864c-2.268,6.667 -1.418,12.908 -2.551,18.583c-2.696,-3.548 0,-7.803 -0.145,-11.774c-0.426,-7.801 -2.125,-15.744 -4.963,-22.978c-4.259,-11.348 -0.993,-22.696 2.696,-32.625c2.695,-7.658 10.922,-13.475 16.879,-19.858c5.107,-5.391 9.362,-12.2 19.149,-10.638c4.113,0.568 9.078,-2.554 13.191,-4.681c15.178,-7.801 31.065,-6.099 47.236,-4.824c19.859,1.418 39.433,5.957 57.872,13.05c3.121,1.418 4.821,-0.142 6.525,-1.844c2.695,-2.553 -0.426,-2.695 -1.704,-3.829c-1.276,-1.42 -0.992,-3.121 0.144,-4.397c0.142,-0.142 0.426,-0.284 0.85,-0.426c2.695,-1.56 5.391,-2.835 8.226,-4.255c2.98,-1.56 3.122,6.383 7.377,2.127c2.693,-2.695 7.659,-0.568 8.51,0.284c2.838,4.256 6.809,0.992 9.647,2.696c1.276,0.566 2.269,3.687 0.14,3.545c-5.815,-0.142 -3.688,3.69 -3.83,6.241c-0.991,17.023 -0.139,33.9 0,50.781c-0.139,2.128 0.284,4.539 1.56,6.383c2.13,3.122 -3.545,4.113 -1.844,6.809c-1.701,-0.142 -0.426,-2.128 -1.701,-2.696c-1.702,-0.568 -2.27,0.284 -2.836,1.844c-0.568,2.128 1.418,5.105 -1.843,6.525c-2.556,-0.426 -1.986,-2.554 -2.13,-4.113c-0.284,-2.696 -1.844,-4.398 -4.395,-4.114c-4.4,0.426 -9.365,-0.568 -12.484,0.568c-6.667,2.978 -4.965,-4.539 -8.371,-4.965c4.258,-5.815 -2.693,-9.362 -2.551,-14.327l-0.142,0.142l0.142,-0.142c0.992,-0.566 3.545,2.127 3.121,-1.276c-0.426,-4.255 -2.553,-7.943 -5.959,-10.78c-0.282,-0.284 -0.849,-0.566 -1.417,-0.852c-4.398,-0.424 -4.682,-0.424 -6.099,-4.111c-1.986,-5.391 -6.809,-8.229 -11.064,-10.641c-8.369,-4.823 -17.021,-9.362 -27.236,-9.502c-6.098,-0.142 -11.774,-2.695 -18.012,-1.278c-6.525,1.56 -13.336,2.98 -19.007,6.525c-4.965,3.122 -8.655,7.377 -7.661,15.036c0.852,7.376 -1.417,14.609 5.391,20.71c3.546,3.121 7.659,5.389 12.196,6.949c8.939,3.121 18.299,8.512 26.953,7.66c14.042,-1.559 22.978,7.943 34.61,11.348c11.772,3.262 22.836,9.077 32.481,16.453c6.101,4.822 12.909,8.937 18.159,14.752c8.51,9.646 11.771,20.568 7.658,31.916c-5.815,15.601 -6.525,31.205 -6.809,46.95c-1.701,-7.943 0.142,-16.027 -0.568,-23.972c-2.267,-0.426 -2.837,1.702 -3.261,2.838c-8.51,18.157 -25.815,23.83 -43.12,29.219c-3.548,1.277 -7.379,1.701 -10.781,3.547l-0.851,0.85c-3.688,2.127 -8.937,0 -12.908,3.831c5.247,2.27 9.36,1.702 13.192,-1.278c-0.852,-0.565 -0.852,-1.701 0,-2.695c1.417,-0.14 1.843,0.426 2.127,1.42c0.282,0 0.852,0 1.276,0.142c2.837,3.261 7.091,4.963 11.49,4.681c8.51,-0.426 17.305,0.282 25.815,0.142c8.653,-0.142 9.505,-1.42 9.221,-9.789l0,-3.261c0,-0.142 0.142,-0.426 0.994,-1.846c0,9.079 1.559,16.455 11.63,18.299c-7.945,2.696 -9.361,4.539 -7.661,12.056c0.994,4.823 -0.424,9.362 0.142,14.044c0.994,7.376 0.144,15.035 2.837,22.27c2.27,6.383 -2.127,11.772 -1.701,16.879c0.426,0.568 0.568,1.417 0.426,2.127c-0.284,-0.566 -0.426,-1.417 -0.426,-2.127c-1.702,-2.128 -6.241,-3.546 -6.241,-7.519c0,-0.282 -1.986,-0.566 -2.98,-0.14c-2.127,1.418 0.852,2.977 -0.566,4.679c-2.837,-4.679 -6.666,-6.241 -11.773,-4.255c-3.262,-6.099 -8.937,-0.424 -12.766,-2.694c2.127,-1.419 6.099,0.14 7.374,-3.121c1.42,-3.264 -0.849,-5.957 -1.985,-8.511c-2.836,-6.524 -7.943,-11.206 -13.05,-15.745c-0.14,0 -0.14,0 -0.284,0.142l0.144,-0.142l0.14,0c1.56,-0.426 4.823,0.568 2.98,-2.553c-2.27,-4.682 -5.25,-9.361 -11.49,-9.503c-4.68,-0.142 -9.363,-0.568 -14.184,-0.568c-3.263,0 -5.391,1.276 -5.959,5.25c-2.128,27.801 -4.113,55.744 -1.418,83.829l0.426,0c-0.144,0.852 -0.144,1.846 -0.144,2.695c0,0.566 0.144,1.56 0.144,2.128c1.702,14.041 0.284,28.227 -0.426,42.696c0,-7.66 0.142,-15.461 0,-22.838c-0.423,-7.376 -0.284,-14.467 0.282,-21.986c-0.14,-0.849 -0.14,-1.843 -0.282,-2.695c-4.113,0.142 -3.687,2.553 -3.263,4.255c3.121,18.725 -0.566,37.447 0.284,56.314c0.286,6.381 1.42,10.07 8.226,11.772c4.824,1.278 9.363,2.977 14.328,4.113c3.261,0.994 6.807,0 9.362,-2.551c1.418,2.267 -0.426,6.097 3.546,7.8l0.993,-12.339c1.844,1.559 1.276,3.119 1.276,4.679c0,10.07 2.838,12.202 12.908,9.786c4.681,-1.276 3.261,-5.815 5.107,-8.934c0.424,8.934 0.424,8.934 8.653,9.362c3.829,0.144 7.8,-0.284 11.629,0c4.256,0.282 5.108,-2.128 5.108,-5.391c2.695,0.426 1.703,3.263 3.547,4.257c1.842,0.85 3.545,1.416 1.418,3.83c-1.846,2.127 -2.98,4.821 1.559,6.096c1.56,1.56 1.278,4.258 0.426,4.54Zm-15.035,-428.229l1.278,-0.284l-0.854,6.951l-0.282,0l0,-6.667l-0.142,0Zm6.809,123.404c-0.284,-1.276 -0.142,-2.269 0.14,-3.261c-0.566,-1.988 -1.842,-3.832 1.42,-4.681c0,1.559 -0.85,2.977 -1.42,4.681c0.284,1.134 0.57,2.409 -0.14,3.261Zm47.234,-116.879c-0.284,-11.49 -6.383,-21.702 -6.951,-33.334c-0.14,-1.276 -1.56,-2.27 -2.128,-3.546c-1.702,-2.695 -2.695,-5.815 -2.977,-8.652c-0.994,-8.369 -1.42,-8.653 -9.789,-8.229c-8.51,0.428 -17.021,1.704 -24.255,-4.963c-1.276,-1.276 -3.83,-1.562 -3.264,-4.113c0.57,-2.838 3.264,-1.986 5.391,-2.128c3.688,0 7.377,-0.142 10.922,-0.426c1.276,-0.142 2.128,-0.568 2.98,-1.42c2.269,-1.983 2.695,-5.247 0.566,-7.658c-0.14,-0.284 -0.424,-0.426 -0.566,-0.85c-2.27,-2.554 -6.243,-2.838 -8.937,-0.426c-4.681,3.829 -9.928,4.397 -15.603,4.965c-2.837,0.14 -5.389,0.992 -7.942,2.128c-5.25,2.977 -11.064,3.545 -16.882,3.545c-5.815,0 -11.629,0.566 -17.588,0c-13.332,-1.704 -27.802,3.688 -40.283,-6.101c-1.418,-0.992 -4.398,-0.424 -6.525,-0.424c-4.965,-0.142 -9.93,-0.142 -15.036,0.142c-6.101,0.282 -11.631,0 -16.881,-3.263c-11.204,-7.659 -25.247,-9.505 -38.155,-5.247c-9.788,2.977 -20.424,3.829 -29.929,7.658c-3.119,1.276 -6.382,0.994 -7.376,-2.977c-1.702,-6.383 -6.099,-6.527 -11.488,-6.527c-12.058,-0.142 -22.554,5.391 -33.902,7.803c-14.468,2.977 -28.369,9.646 -43.831,8.652c-20.284,-1.42 -40.424,-0.284 -60.567,-0.426c-16.029,-0.142 -32.2,0.426 -48.228,1.42c-1.701,0 -3.687,1.276 -4.823,-0.144c-4.113,-4.821 -8.51,-2.128 -13.049,-1.276c-6.809,1.702 -13.76,3.264 -18.723,-4.113c-1.846,-2.695 -5.107,-1.56 -7.803,-1.56c-13.475,0.142 -27.233,0.142 -40.709,0.568c-11.49,0.282 -23.406,-0.994 -34.044,5.247c-3.261,1.986 -7.658,2.27 -10.638,-1.701c-3.261,-4.682 -7.802,-4.54 -12.765,-4.256c-4.114,0.142 -5.392,1.56 -4.114,5.815c4.255,11.206 2.978,22.978 4.255,34.61c1.702,15.745 4.822,30.497 17.731,41.561c4.114,3.547 7.377,7.661 12.056,11.064c4.681,3.263 8.371,7.803 7.661,14.044c-0.426,5.815 0.142,11.206 0.142,16.595c-0.142,9.646 -2.98,19.29 -8.227,27.517c-3.263,4.823 -6.95,9.362 -11.348,13.191c-12.058,11.772 -12.058,27.378 -11.49,42.837c0,1.278 1.418,2.553 2.128,3.547c6.525,7.661 9.788,8.653 19.151,3.546c12.056,-6.525 24.395,-12.056 37.161,-16.453c19.151,-6.809 38.157,-13.334 59.008,-9.505c1.561,0.142 2.837,0 4.255,-0.284c4.965,-0.992 9.788,0 14.753,0.284c10.781,0.568 19.575,6.525 29.787,8.653c16.455,3.263 30.213,14.043 45.532,20.284c2.128,0.85 3.829,3.12 5.957,4.539c8.937,5.957 15.887,13.758 23.83,20.567c12.482,10.638 22.696,22.838 29.221,37.731c6.525,15.745 11.774,31.775 15.885,48.228c1.846,7.092 4.825,14.325 3.689,21.986c-1.419,6.525 -0.991,13.333 0.994,19.716c1.842,5.389 1.418,11.63 -1.56,16.879c-2.839,5.105 -4.115,11.206 -3.123,17.021c2.698,15.746 3.263,31.207 -0.85,46.668c-0.282,0.994 -0.282,2.128 -0.142,3.264c2.27,6.664 1.276,13.475 1.42,20.424c0.566,18.581 -4.683,35.32 -9.93,52.625c-1.418,4.255 -2.978,8.368 -4.256,12.481c-2.127,7.519 -2.693,16.17 -9.078,22.129c-6.099,5.959 -11.348,12.2 -16.029,19.008c-5.815,7.941 -13.474,14.326 -22.554,18.013c-9.926,4.113 -20.567,7.093 -30.495,11.206c-20.994,8.369 -43.83,9.079 -65.106,16.455c-4.54,1.56 -9.363,1.702 -14.044,0.426c-6.525,-1.846 -13.05,-2.979 -19.717,-3.549c-20.282,-0.566 -38.015,-7.659 -54.042,-19.575c-3.261,-2.551 -6.809,-4.679 -10.78,-6.381c-2.27,-0.993 -5.249,-1.703 -6.667,2.552c-4.681,15.037 -6.667,31.064 -5.389,46.81c0.85,12.484 2.552,24.681 0.14,37.163c-1.276,6.383 2.554,9.363 7.661,12.766c6.099,3.829 14.183,3.263 18.298,9.788c4.112,6.241 9.503,7.945 16.17,6.525c10.07,-2.27 18.864,2.836 26.667,6.951c5.389,3.119 11.632,4.539 17.873,4.255c3.119,-0.142 5.957,0.142 8.368,2.694c7.517,7.66 18.297,7.376 27.236,6.524c7.8,-0.565 16.879,-3.545 23.403,-11.204c6.525,-7.66 12.482,-5.959 16.312,3.546c3.545,8.368 6.666,10.78 15.745,10.07c9.078,-0.426 17.731,-1.418 26.667,-2.696c6.099,-0.991 9.36,0.145 9.928,6.385c0.284,1.844 0.284,4.54 2.27,4.963c2.695,0.568 3.687,-1.985 4.823,-3.829c0.852,-1.276 1.56,-2.553 1.702,-3.829c0.284,-6.525 4.397,-7.661 9.646,-7.519c3.687,0.142 7.091,0.142 10.92,0.142c8.655,0.142 17.589,0.426 25.534,-2.693c5.391,-2.13 9.786,-5.107 14.043,1.559c0.566,1.276 2.552,0.992 3.827,0.992c5.394,-0.142 11.209,0 16.03,-3.545c3.829,-2.696 9.362,-4.539 12.484,-2.552c7.516,4.679 16.879,4.537 23.545,9.361c6.099,4.395 10.922,3.687 15.888,0.284c2.977,-2.554 6.806,-3.83 10.78,-3.83c3.261,0.14 6.383,-1.562 9.362,-2.979c8.225,-4.397 16.879,-1.986 25.39,-2.13c4.823,0 6.948,4.825 9.928,7.945c4.965,5.105 7.661,5.105 11.49,-0.992c2.269,-3.829 5.391,-6.669 9.786,-6.525c11.348,0.282 20.994,-4.113 30.639,-8.652c6.101,-2.98 8.37,-1.278 7.802,5.815c-0.142,2.127 -0.993,4.397 -2.553,6.098c-1.702,1.844 -2.836,4.114 -0.994,6.667c1.42,2.128 4.115,3.122 6.525,2.554c4.115,-0.284 8.228,-0.568 12.91,-0.994c5.249,0.568 10.92,0.568 16.595,0.852c2.127,-0.426 4.823,-0.994 5.389,-3.12c0.57,-2.129 -1.7,-3.123 -2.978,-4.539c-8.652,-8.37 -7.942,-12.058 2.838,-17.731c1.843,-1.277 3.829,-2.129 5.957,-3.123c3.829,-1.56 6.809,-0.85 6.667,4.115c-0.284,10.214 9.93,14.754 13.049,23.404c0.426,1.42 2.552,1.276 3.83,1.276c3.261,-0.14 6.666,0 9.93,-0.424c8.936,-1.276 13.475,-7.093 12.766,-16.027c-0.426,-2.98 -0.994,-6.101 -1.844,-9.079c-1.846,-7.944 -8.371,-15.035 -8.937,-22.13c-0.567,-10.636 -11.489,-20.85 -1.985,-31.914c0.426,-0.426 0.142,-1.702 0.142,-2.554c-0.142,-24.537 -0.286,-48.935 -0.426,-73.475c0,-2.979 0.426,-6.383 -1.986,-8.652c-3.547,-3.262 -3.547,-7.377 -3.547,-11.488c-0.142,-20.995 1.278,-42.129 -0.992,-63.263c-0.284,-2.98 -1.276,-6.525 1.56,-8.655c8.226,-6.808 1.701,-18.58 8.226,-25.955c0.426,-0.428 -0.426,-2.556 -0.992,-3.831c-3.263,-7.377 -9.788,-13.334 -9.22,-22.554c0,-0.85 -0.994,-1.844 -1.844,-2.694c-5.391,-5.391 -3.831,-12.484 -3.831,-19.009l0,-0.426c0.142,-2.125 2.13,-3.685 4.397,-3.545l0.428,0c1.842,0.142 3.12,1.986 2.978,3.829c-0.992,8.653 6.383,15.462 5.957,23.972c0,1.844 1.701,4.113 2.837,5.959c1.418,1.986 2.838,4.395 6.099,3.546c3.119,-0.852 4.255,-3.546 4.255,-6.525c0,-6.241 -0.142,-12.2 -0.284,-18.299c-0.142,-3.829 0.142,-8.227 -2.551,-11.206c-3.832,-4.539 -4.255,-9.505 -4.399,-14.752c-0.282,-22.128 -0.566,-44.114 -1.276,-65.958c0,-4.397 0.142,-8.369 4.255,-11.062c2.128,-1.562 3.264,-3.831 1.42,-5.817c-5.107,-4.539 -4.681,-11.064 -7.377,-16.313c-3.263,-6.665 -6.243,-12.764 1.56,-18.155c0.284,-0.284 0.568,-0.992 0.568,-1.56c-0.568,-10.64 8.934,-18.582 6.525,-30.072c-1.562,-7.091 -0.852,-14.468 -3.832,-21.703c-4.113,-9.928 -7.942,-20.282 -7.516,-31.488c0.284,-8.369 0,-16.597 0,-25.108c0,-2.551 -0.284,-5.247 1.561,-7.09c6.525,-6.383 5.247,-14.042 4.821,-21.986c-0.425,-9.221 -1.985,-18.581 -0.565,-27.376c1.415,-8.512 7.94,-16.029 5.954,-25.675c-0.139,-0.85 0.57,-2.128 1.562,-2.836c4.681,-3.689 4.397,-8.652 4.114,-13.759Z" style="fill:#fff;fill-rule:nonzero;"/><path d="M671.657,544.937c-0.852,4.114 -5.25,6.809 0.565,7.661c3.83,0.566 2.128,5.249 4.824,7.801c-0.85,-5.957 0.142,-9.221 6.385,-5.108c0.989,0.426 2.125,0.852 3.119,0.994c13.334,4.256 17.305,8.937 17.305,23.688c0,17.305 -0.85,34.328 -1.276,51.489c-0.144,4.539 -0.568,8.939 2.126,13.478c1.42,1.985 3.831,6.806 -0.14,10.636c-1.986,1.704 -0.284,2.269 1.702,2.979c3.545,0.994 1.417,4.398 2.127,6.383c-1.985,-0.994 -4.397,-0.424 -6.099,-2.837c-5.391,-7.943 -11.49,-15.746 -18.015,-22.836c-17.73,-18.865 -32.34,-40.283 -48.653,-60.284c-4.681,-5.959 -9.079,-11.774 -13.334,-18.015c-2.551,-3.689 -4.965,-7.944 -2.977,-12.339c1.985,-4.4 6.951,-3.548 11.206,-3.548l41.135,-0.142Z" style="fill:#fff;fill-rule:nonzero;"/><path d="M593.216,334.012c-5.391,-0.282 -10.924,-1.275 -16.173,-2.693c0,2.693 1.28,2.835 2.84,2.979c9.218,0.566 18.154,1.418 27.375,1.984c1.986,0.144 5.107,-0.282 4.965,2.837c-0.142,2.27 -0.992,6.383 -4.681,5.815c-6.241,-0.991 -12.766,2.556 -18.581,-1.559c-0.568,-0.424 -0.994,-0.992 -1.704,-0.568c-8.934,5.391 -19.006,1.42 -28.225,3.547c-1.703,0.426 -4.257,0.568 -4.965,-1.702c-0.854,-2.269 1.56,-3.121 2.836,-4.539c5.959,-5.391 12.91,-9.504 20.568,-11.49c5.815,-1.701 11.63,1.42 17.447,3.69c-0.426,0.849 -0.852,1.559 -1.702,1.699Z" style="fill:#fff;fill-rule:nonzero;"/><path d="M615.203,339.403c1.417,-0.994 2.977,-1.417 4.679,-0.849c13.759,2.835 27.519,2.127 41.56,1.559l1.704,0c2.552,0 4.395,0.424 4.395,3.688c0,2.695 -1.701,3.261 -3.829,3.121c-12.34,-0.852 -24.966,1.56 -37.305,-1.56c-4.54,-1.135 -10.781,1.844 -11.204,-5.959Z" style="fill:#fff;fill-rule:nonzero;"/><path d="M689.246,337.986c-0.284,1.417 0.139,2.837 1.275,3.687c0.568,2.695 -1.275,3.261 -3.121,3.689c-3.262,0.282 -6.525,0.424 -9.786,0.566c-2.128,0.142 -4.54,0.568 -4.963,-2.695c-0.429,-3.262 2.125,-4.114 4.679,-4.537c3.687,-0.852 7.66,-0.994 11.916,-0.71Z" style="fill:#fff;fill-rule:nonzero;"/></g></svg>