<?xml version="1.0" encoding="UTF-8" standalone="no"?>
<!-- Created with Inkscape (http://www.inkscape.org/) -->

<svg
   xmlns:dc="http://purl.org/dc/elements/1.1/"
   xmlns:cc="http://creativecommons.org/ns#"
   xmlns:rdf="http://www.w3.org/1999/02/22-rdf-syntax-ns#"
   xmlns:svg="http://www.w3.org/2000/svg"
   xmlns="http://www.w3.org/2000/svg"
   xmlns:sodipodi="http://sodipodi.sourceforge.net/DTD/sodipodi-0.dtd"
   xmlns:inkscape="http://www.inkscape.org/namespaces/inkscape"
   version="1.1"
   id="svg10"
   width="640"
   height="960"
   viewBox="0 0 640 960"
   sodipodi:docname="map-icon.svg"
   inkscape:version="0.92.4 (5da689c313, 2019-01-14)">
  <metadata
     id="metadata16">
    <rdf:RDF>
      <cc:Work
         rdf:about="">
        <dc:format>image/svg+xml</dc:format>
        <dc:type
           rdf:resource="http://purl.org/dc/dcmitype/StillImage" />
        <dc:title></dc:title>
      </cc:Work>
    </rdf:RDF>
  </metadata>
  <defs
     id="defs14">
    <clipPath
       id="clipPath854"
       clipPathUnits="userSpaceOnUse">
      <path
         inkscape:connector-curvature="0"
         id="path852"
         d="M 0,841.89 H 595.276 V 0 H 0 Z" />
    </clipPath>
  </defs>
  <sodipodi:namedview
     pagecolor="#ffffff"
     bordercolor="#666666"
     borderopacity="1"
     objecttolerance="10"
     gridtolerance="10"
     guidetolerance="10"
     inkscape:pageopacity="0"
     inkscape:pageshadow="2"
     inkscape:window-width="1366"
     inkscape:window-height="705"
     id="namedview12"
     showgrid="false"
     inkscape:zoom="0.55833333"
     inkscape:cx="288.56655"
     inkscape:cy="473.97703"
     inkscape:window-x="-8"
     inkscape:window-y="-8"
     inkscape:window-maximized="1"
     inkscape:current-layer="svg10" />
  <path
     style="fill:#1f375f;fill-opacity:1;stroke-width:1.79104483"
     d="m 317.01492,956.68481 c -0.74068,-1.89095 -95.87392,-57.77344 -100.341,-58.9416 -1.7826,-0.46615 -3.24108,-1.48069 -3.24108,-2.25451 0,-0.77382 -2.21642,-2.30973 -4.92537,-3.41316 -5.5932,-2.27823 -15.22489,-7.66275 -16.56717,-9.26174 -0.85021,-1.0128 -6.18492,-4.02699 -16.1194,-9.10766 -2.46269,-1.25946 -4.8806,-2.7864 -5.37313,-3.39319 -0.84727,-1.0438 -6.03685,-3.98771 -16.11941,-9.14413 -2.46268,-1.25946 -4.88059,-2.7864 -5.37313,-3.39318 -0.84727,-1.04381 -6.03684,-3.98771 -16.1194,-9.14413 -2.46269,-1.25946 -4.8806,-2.7864 -5.37314,-3.39319 -0.84727,-1.0438 -6.03684,-3.9877 -16.1194,-9.14412 -2.46269,-1.25946 -4.8806,-2.7864 -5.37314,-3.39319 -0.8407,-1.03573 -5.65924,-3.7738 -16.119398,-9.15969 -2.46269,-1.26804 -5.54264,-3.32237 -6.84435,-4.56521 -1.3017,-1.24283 -3.3948,-2.25969 -4.651321,-2.25969 -1.25653,0 -4.14317,-1.61194 -6.41479,-3.58209 -2.2716,-1.97015 -5.21581,-3.58209 -6.5427,-3.58209 -1.32689,0 -2.412519,-0.7082 -2.412519,-1.57376 0,-0.86555 -2.619401,-2.64496 -5.820901,-3.95421 -3.20149,-1.30925 -6.88592,-3.42195 -8.18763,-4.6949 -1.3017,-1.27295 -3.51812,-2.31444 -4.92537,-2.31444 -1.40725,0 -2.55864,-0.7082 -2.55864,-1.57376 0,-0.86556 -2.6194,-2.63325 -5.82089,-3.92817 -3.2015,-1.29493 -6.22388,-2.88022 -6.71642,-3.52288 -1.031439,-1.34583 -9.384869,-6.00607 -16.56717,-9.24254 -2.7089495,-1.22071 -4.9253695,-2.77329 -4.9253695,-3.45018 0,-0.67689 -1.61194,-0.80918 -3.58209,-0.29397 -3.57393,0.93461 -3.58209,0.0549 -3.58209,-386.13782 V 1.7910425 H 320.00001 639.7015 l -0.039,385.5223875 -0.039,385.52239 -17.42357,9.74826 c -9.58297,5.36155 -81.77338,47.07051 -160.42311,92.68657 -78.6499,45.61607 -143.26184,82.93831 -143.58224,82.93831 -0.3204,0 -0.8512,-0.68587 -1.17957,-1.52415 z"
     id="path834"
     inkscape:connector-curvature="0" />
  <g
     transform="matrix(0.96486882,0,0,-0.9840589,31.411506,847.34237)"
     inkscape:label="barbaro.definitivo4"
     id="g846">
    <g
       id="g848">
      <g
         clip-path="url(#clipPath854)"
         id="g850">
        <g
           transform="translate(383.5576,382.6875)"
           id="g856">
          <path
             inkscape:connector-curvature="0"
             id="path858"
             style="fill:#ffffff;fill-opacity:1;fill-rule:nonzero;stroke:none"
             d="m 0,0 c 0.128,0.626 0.212,1.268 0.413,1.869 0.508,1.519 1.661,2.09 3.184,1.602 0.607,-0.195 1.2,-0.443 1.781,-0.705 2.117,-0.957 4.124,-2.116 6.071,-3.38 0.536,-0.348 1.056,-0.731 1.62,-1.026 1.159,-0.604 2.012,-0.148 2.216,1.189 0.097,0.629 0.099,1.274 0.122,1.913 0.148,4.015 -0.24,7.984 -1.009,11.921 -1.203,6.156 -3.078,12.076 -6.188,17.56 -0.514,0.906 -1.039,1.803 -1.778,2.55 -1.985,2.004 -5.059,3.09 -8.328,1.218 -0.688,-0.395 -1.334,-0.887 -1.93,-1.413 -1.737,-1.535 -3.465,-3.083 -5.15,-4.675 -4.847,-4.581 -10.444,-7.872 -16.797,-9.894 -3.832,-1.218 -7.787,-1.751 -11.769,-2.102 -1.684,-0.148 -3.334,-0.421 -4.921,-0.972 -2.744,-0.951 -3.076,-2.486 -1.036,-4.601 0.893,-0.925 1.932,-1.674 3.008,-2.371 2.355,-1.528 4.866,-2.752 7.436,-3.87 0.647,-0.281 1.389,-0.376 2.211,-1.188 -3.567,0.444 -6.727,0.824 -9.812,1.724 -8.286,2.418 -15.185,7.005 -21.009,13.297 -0.705,0.763 -1.358,1.575 -2.061,2.34 -0.949,1.035 -1.479,1.105 -2.716,0.442 -1.021,-0.546 -1.777,-1.355 -2.338,-2.347 -0.516,-0.91 -0.85,-1.89 -1.069,-2.915 -0.626,-2.937 -0.511,-5.871 -0.081,-8.823 2.028,-13.892 9.289,-24.082 21.652,-30.661 1.979,-1.054 4.08,-1.817 6.289,-2.283 3.131,-0.659 6.287,-1.094 9.468,-1.434 4.237,-0.451 8.457,-0.554 12.658,0.212 6.279,1.143 11.346,4.168 14.747,9.708 1.476,2.405 2.56,4.985 3.192,7.724 C -1.207,-6.277 -0.637,-3.131 0,0" />
        </g>
        <g
           transform="translate(218.2998,416.1045)"
           id="g860">
          <path
             inkscape:connector-curvature="0"
             id="path862"
             style="fill:#ffffff;fill-opacity:1;fill-rule:nonzero;stroke:none"
             d="m 0,0 c -0.536,0.474 -1.116,0.921 -1.736,1.273 -3.255,1.857 -6.27,0.917 -8.319,-1.179 -0.66,-0.676 -1.183,-1.507 -1.674,-2.324 -1.275,-2.13 -2.306,-4.384 -3.197,-6.7 -2.518,-6.545 -3.863,-13.337 -4.228,-20.329 -0.083,-1.599 -0.052,-3.201 0.267,-4.778 0.242,-1.202 1.028,-1.597 2.099,-1.047 0.566,0.291 1.092,0.664 1.626,1.015 2.008,1.317 4.082,2.515 6.281,3.487 0.584,0.259 1.177,0.506 1.786,0.691 1.189,0.362 2.26,-0.077 2.81,-1.17 0.21,-0.417 0.313,-0.9 0.404,-1.365 0.475,-2.429 0.92,-4.866 1.396,-7.296 0.663,-3.386 1.625,-6.674 3.29,-9.723 2.692,-4.934 6.687,-8.288 12.064,-9.964 2.605,-0.813 5.271,-1.261 8.004,-1.364 4.817,-0.184 9.574,0.388 14.312,1.131 3.324,0.522 6.545,1.408 9.562,2.985 8.388,4.383 14.535,10.867 18.384,19.504 2.411,5.411 3.589,11.078 3.281,17.023 -0.097,1.858 -0.466,3.644 -1.276,5.323 -0.607,1.257 -1.477,2.274 -2.745,2.912 -0.959,0.483 -1.42,0.433 -2.134,-0.31 -0.443,-0.46 -0.842,-0.962 -1.259,-1.447 -1.831,-2.125 -3.825,-4.085 -5.989,-5.868 -7.371,-6.069 -15.787,-9.521 -25.397,-9.827 0.658,0.276 1.316,0.547 1.971,0.828 2.28,0.977 4.501,2.072 6.611,3.38 1.293,0.801 2.554,1.653 3.619,2.751 2.033,2.099 1.699,3.647 -0.992,4.64 -0.224,0.083 -0.446,0.189 -0.679,0.231 -1.334,0.243 -2.665,0.513 -4.008,0.689 -1.742,0.227 -3.506,0.3 -5.24,0.571 -9.184,1.439 -17.19,5.291 -23.92,11.75 C 3.36,-2.958 1.676,-1.481 0,0" />
        </g>
        <g
           transform="translate(248.8828,404.8047)"
           id="g864">
          <path
             inkscape:connector-curvature="0"
             id="path866"
             style="fill:#ffffff;fill-opacity:1;fill-rule:nonzero;stroke:none"
             d="m 0,0 c 4.519,0.012 9.263,0.882 13.296,2.217 2.06,0.681 4.036,1.537 5.84,2.748 0.523,0.351 0.996,0.795 1.433,1.252 0.247,0.258 0.151,0.6 -0.133,0.832 -0.894,0.731 -2.001,0.99 -3.07,1.285 -3.394,0.938 -6.867,1.491 -10.35,1.963 -3.165,0.429 -6.341,0.782 -9.516,1.143 -2.539,0.289 -5.081,0.561 -7.626,0.8 -4.057,0.382 -8.117,0.728 -12.175,1.098 -0.477,0.043 -0.948,0.156 -1.424,0.208 -0.316,0.034 -0.638,0.029 -0.956,0.014 -0.24,-0.012 -0.516,-0.086 -0.527,-0.363 -0.007,-0.21 0.073,-0.502 0.223,-0.627 2.638,-2.205 5.239,-4.459 7.956,-6.564 C -11.714,1.886 -5.583,0.119 0,0" />
        </g>
        <g
           transform="translate(347.9053,404.7734)"
           id="g868">
          <path
             inkscape:connector-curvature="0"
             id="path870"
             style="fill:#ffffff;fill-opacity:1;fill-rule:nonzero;stroke:none"
             d="m 0,0 c 6.018,0.144 11.301,1.477 16.088,4.479 3.668,2.298 6.746,5.356 10.108,8.049 0.159,0.128 0.283,0.412 0.273,0.617 -0.022,0.412 -0.411,0.474 -0.711,0.451 C 23.531,13.423 21.307,13.234 19.084,13.024 16.623,12.793 14.165,12.526 11.705,12.289 9.402,12.067 7.095,11.906 4.797,11.645 1.232,11.238 -2.33,10.811 -5.883,10.314 -9.277,9.84 -12.664,9.291 -15.979,8.395 -16.98,8.124 -17.98,7.838 -18.877,7.293 -19.429,6.958 -19.485,6.347 -18.992,5.889 -17.866,4.844 -16.534,4.105 -15.148,3.49 -10.202,1.296 -4.995,0.231 0,0" />
        </g>
        <g
           transform="translate(328.5254,308.9209)"
           id="g872">
          <path
             inkscape:connector-curvature="0"
             id="path874"
             style="fill:#ffffff;fill-opacity:1;fill-rule:nonzero;stroke:none"
             d="m 0,0 c -5.725,-1.386 -11.524,-1.589 -17.373,-1.025 -2.94,0.283 -5.892,0.448 -8.839,0.663 -5.289,0.385 -10.53,-0.371 -15.782,-0.741 -5.535,-0.387 -11.006,-0.198 -16.439,0.968 -1.636,0.352 -3.275,0.737 -4.979,0.723 -4.247,-0.276 -8.138,-1.482 -11.41,-4.347 -2.58,-2.26 -3.841,-5.624 -1.717,-9.495 2.125,-3.875 4.568,-7.496 7.796,-10.561 1.473,-1.4 3.107,-2.497 4.977,-3.26 4.186,-1.711 8.401,-1.773 12.61,-0.129 2.305,0.9 4.559,1.93 6.852,2.862 2.366,0.962 4.735,1.925 7.135,2.797 1.724,0.627 3.505,1.099 5.351,1.236 3.879,0.29 7.658,-0.149 11.284,-1.609 2.74,-1.103 5.46,-2.258 8.196,-3.372 1.922,-0.782 3.818,-1.656 5.792,-2.279 5.592,-1.766 10.823,-0.805 15.352,2.829 4.107,3.297 7.059,7.617 9.259,12.38 1.281,2.771 0.83,5.469 -1.276,7.784 -1.253,1.377 -2.756,2.425 -4.428,3.228 C 8.401,0.555 4.295,1.039 0,0" />
        </g>
        <g
           transform="translate(279.0132,602.437)"
           id="g876">
          <path
             inkscape:connector-curvature="0"
             id="path878"
             style="fill:#ffffff;fill-opacity:1;fill-rule:nonzero;stroke:none"
             d="m 0,0 c 1.737,-7.064 3.536,-14.114 5.195,-21.196 2.555,-10.901 4.683,-21.889 6.352,-32.96 1.156,-7.668 2.094,-15.365 2.633,-23.109 0.427,-6.145 0.805,-12.289 0.812,-19.452 0.163,-4.367 -0.246,-9.719 -0.598,-15.062 -0.331,-5.023 -0.931,-10.028 -1.73,-15.006 -0.991,-6.163 -2.218,-12.272 -3.878,-18.289 -1.118,-4.051 -2.943,-7.775 -5.457,-11.141 -5.363,-7.178 -12.457,-11.662 -21.281,-13.186 -5.129,-0.886 -10.351,-0.938 -15.55,-0.891 -7.444,0.067 -14.853,0.687 -22.213,1.787 -7.586,1.134 -15.108,2.628 -22.563,4.441 -6.056,1.472 -12.068,3.106 -18.041,4.888 -0.574,0.171 -1.303,0.543 -1.731,-0.122 -0.342,-0.532 0.17,-1.058 0.476,-1.508 1.251,-1.838 2.986,-3.122 4.968,-4.041 2.974,-1.378 5.96,-2.735 8.992,-3.977 11.008,-4.514 22.532,-7.122 34.211,-9.122 8.508,-1.457 17.099,-2.3 25.668,-3.293 4.842,-0.56 9.679,-1.133 14.474,-2.018 4.578,-0.847 9.016,-2.141 13.228,-4.159 1.666,-0.797 3.261,-1.705 4.666,-2.915 2.422,-2.086 3.765,-4.715 3.981,-7.918 0.118,-1.754 0.307,-3.505 0.396,-5.262 0.392,-7.67 0.716,-15.34 0.574,-23.025 -0.111,-6.006 -0.492,-11.991 -1.497,-17.913 -1.036,-6.107 -2.567,-12.054 -6.492,-17.084 -0.574,-0.736 -0.549,-1.114 0.104,-1.651 2.718,-2.234 5.388,-4.537 8.22,-6.618 3.472,-2.55 8.955,-2.575 12.62,0.18 2.683,2.017 5.245,4.197 7.834,6.337 0.782,0.647 0.807,0.968 0.141,1.828 -2.853,3.688 -4.405,7.939 -5.499,12.406 -1.261,5.147 -1.868,10.39 -2.156,15.66 -0.455,8.313 -0.285,16.637 0.033,24.952 0.134,3.514 0.5,7.018 0.736,10.527 0.238,3.529 1.999,6.174 4.736,8.254 1.408,1.071 2.981,1.858 4.584,2.596 4.76,2.195 9.791,3.483 14.944,4.234 6.165,0.9 12.35,1.678 18.54,2.374 6.114,0.689 12.215,1.439 18.294,2.396 7.588,1.195 15.076,2.828 22.468,4.9 7.331,2.055 14.389,4.842 21.247,8.143 1.747,0.841 3.351,1.873 4.634,3.347 0.525,0.603 1.042,1.217 1.231,2.03 0.075,0.319 -0.159,0.652 -0.477,0.671 -0.658,0.039 -1.25,-0.201 -1.866,-0.375 -3.921,-1.106 -7.838,-2.236 -11.779,-3.266 -7.809,-2.042 -15.669,-3.859 -23.65,-5.101 -4.025,-0.627 -8.055,-1.221 -12.094,-1.747 -2.138,-0.278 -4.296,-0.44 -6.449,-0.548 -5.995,-0.298 -11.992,-0.429 -17.989,-0.023 -3.512,0.237 -7.019,0.564 -10.374,1.716 -11.722,4.026 -19.198,12.143 -22.437,24.005 -3.723,13.635 -5.524,27.576 -5.861,41.704 -0.3,12.574 0.316,25.099 1.845,37.588 0.865,7.065 1.888,14.104 3.144,21.107 2.3,12.832 5.134,25.549 8.392,38.171 0.6,2.322 1.176,4.65 1.797,6.966 0.455,1.699 0.089,3.159 -1.126,4.418 C 39.271,5.763 39.167,5.884 39.055,6 34.053,11.172 28.036,14.681 21.226,16.902 20.424,17.164 19.685,17.143 18.888,16.882 12.082,14.652 6.088,11.122 1.062,5.969 -0.31,4.563 -0.757,3.019 -0.308,1.158 -0.214,0.77 -0.095,0.388 0,0" />
        </g>
        <g
           transform="translate(377.1064,218.5713)"
           id="g880">
          <path
             inkscape:connector-curvature="0"
             id="path882"
             style="fill:#ffffff;fill-opacity:1;fill-rule:nonzero;stroke:none"
             d="m 0,0 c 1.89,8.199 4.605,16.139 7.56,24.002 2.754,7.335 5.739,14.584 8.259,22.006 2.631,7.742 4.729,15.594 5.232,23.818 0.291,4.75 -0.067,9.428 -0.962,14.076 -1.407,7.31 -4.326,14.031 -8.073,20.422 -2.616,4.462 -5.874,8.388 -9.851,11.685 -10.221,8.476 -22.109,12.662 -35.265,13.281 -7.86,0.369 -15.409,-1.325 -22.688,-4.258 -0.297,-0.119 -0.59,-0.246 -0.879,-0.383 -1.143,-0.542 -1.212,-0.928 -0.288,-1.664 0.375,-0.298 0.789,-0.548 1.154,-0.856 0.422,-0.356 0.419,-0.836 0.001,-1.249 -0.283,-0.28 -0.596,-0.532 -0.905,-0.785 -3.656,-2.985 -7.312,-5.971 -10.976,-8.945 -0.557,-0.453 -1.136,-0.888 -1.747,-1.266 -3.01,-1.866 -6.292,-2.786 -9.825,-2.471 -3.513,0.315 -6.628,1.661 -9.357,3.941 -3.438,2.87 -6.937,5.668 -10.409,8.5 -0.371,0.303 -0.746,0.604 -1.096,0.932 -0.648,0.608 -0.668,1.032 0.116,1.527 2.292,1.448 1.894,1.873 -0.316,2.754 -9.239,3.687 -18.767,5.201 -28.663,3.71 -7.088,-1.067 -13.851,-3.189 -20.171,-6.622 -7.523,-4.086 -13.787,-9.545 -18.306,-16.884 -2.142,-3.479 -3.993,-7.109 -5.524,-10.902 -4.055,-10.039 -5.142,-20.388 -3.373,-31.068 0.852,-5.144 2.179,-10.157 3.786,-15.105 2.422,-7.458 5.385,-14.715 8.172,-22.038 3.131,-8.223 6.043,-16.516 8.132,-25.08 1.461,-5.993 2.502,-12.06 3,-18.201 0.33,-4.064 0.43,-8.148 0.264,-12.231 -0.028,-0.714 0.019,-1.432 0.067,-2.146 0.007,-0.104 0.198,-0.257 0.323,-0.278 0.129,-0.024 0.356,0.044 0.413,0.144 0.392,0.693 0.788,1.387 1.114,2.112 4.329,9.592 6.578,19.708 7.204,30.163 0.595,9.921 0.058,19.826 -1.07,29.698 -0.4,3.494 -0.848,6.984 -1.183,10.485 -0.479,5.014 -0.939,10.03 -1.289,15.055 -0.409,5.852 -0.081,11.677 1.277,17.401 2.006,8.452 6.763,14.909 14.268,19.309 3.747,2.197 7.737,3.816 11.951,4.877 1.707,0.43 3.43,0.791 5.19,0.881 3.363,0.172 6.706,0.03 10.03,-0.59 5.357,-0.999 10.756,-1.504 16.218,-1.365 3.239,0.082 6.364,0.574 9.304,1.975 0.775,0.369 1.47,0.431 2.272,0.039 3.157,-1.54 6.533,-1.963 10.014,-2.026 5.222,-0.096 10.377,0.439 15.499,1.36 3.724,0.669 7.486,0.994 11.221,0.499 6.433,-0.852 12.376,-3.171 17.784,-6.762 5.583,-3.709 9.486,-8.754 11.629,-15.123 1.233,-3.66 1.902,-7.434 2.089,-11.286 0.3,-6.164 0.037,-12.316 -0.587,-18.45 -0.786,-7.714 -1.787,-15.404 -2.435,-23.135 -0.381,-4.546 -0.592,-9.095 -0.76,-13.649 -0.046,-3.044 0.166,-6.074 0.339,-9.11 0.366,-6.413 1.395,-12.711 3.089,-18.9 1.077,-3.938 2.452,-7.777 4.162,-11.489 0.3,-0.651 0.65,-1.279 1.006,-1.901 0.056,-0.1 0.279,-0.175 0.4,-0.149 0.118,0.027 0.285,0.192 0.293,0.306 0.046,0.636 0.068,1.274 0.066,1.912 -0.014,3.919 0.002,7.829 0.317,11.747 C -2.301,-11.756 -1.349,-5.851 0,0" />
        </g>
        <g
           transform="translate(421.1064,431.3003)"
           id="g884">
          <path
             inkscape:connector-curvature="0"
             id="path886"
             style="fill:#ffffff;fill-opacity:1;fill-rule:nonzero;stroke:none"
             d="m 0,0 c -0.182,0.356 -0.34,0.725 -0.536,1.073 -0.526,0.933 -0.789,1.04 -1.723,0.719 -0.302,-0.105 -0.596,-0.231 -0.892,-0.351 -3.927,-1.589 -7.855,-3.177 -11.78,-4.771 -0.591,-0.24 -1.166,-0.524 -1.758,-0.763 -0.682,-0.275 -0.964,-0.796 -0.988,-1.495 -0.044,-1.283 0.014,-2.551 0.315,-3.812 0.792,-3.323 2.297,-6.307 4.32,-9.026 5.094,-6.843 11.791,-11.408 19.957,-13.81 3.62,-1.064 7.337,-1.555 11.31,-1.473 -1.408,-0.801 -2.8,-0.697 -4.119,-0.894 -3.1,-0.464 -6.206,-0.417 -9.317,-0.021 -2.628,0.335 -5.185,0.951 -7.696,1.765 -1.008,0.327 -2.014,0.52 -3.064,0.405 -1.063,-0.116 -1.613,-0.844 -1.305,-1.831 0.211,-0.677 0.509,-1.357 0.909,-1.939 0.584,-0.855 1.263,-1.651 1.955,-2.424 2.62,-2.928 5.019,-6.018 7.042,-9.394 4.082,-6.812 6.183,-14.165 6.145,-22.13 -0.011,-2.573 -0.261,-5.118 -0.649,-7.642 -0.3,-1.948 -0.523,-3.938 -1.302,-5.926 -0.4,0.637 -0.189,1.181 -0.188,1.697 0,2.638 0.083,5.279 0.022,7.917 -0.111,4.836 -1.09,9.519 -2.737,14.063 -2.359,6.508 -6.189,12.077 -10.99,16.996 -3.023,3.098 -5.892,6.315 -8.429,9.825 -0.344,0.476 -0.638,1.365 -1.384,1.012 -0.485,-0.228 -0.201,-1.024 -0.151,-1.573 0.014,-0.158 0.054,-0.316 0.079,-0.473 1.016,-6.379 0.966,-12.747 -0.256,-19.092 -0.407,-2.12 -0.971,-4.203 -1.644,-6.257 -1.405,-4.28 -6.305,-4.541 -8.539,-2.323 -0.284,0.281 -0.587,0.542 -0.887,0.808 -2.407,2.128 -2.588,2.07 -3.243,-1.042 -1.896,-9.014 -4.436,-17.839 -7.675,-26.462 -0.281,-0.749 -0.553,-1.501 -0.816,-2.257 -0.174,-0.503 -0.041,-0.951 0.335,-1.31 0.463,-0.442 0.946,-0.863 1.425,-1.287 3.071,-2.71 5.821,-5.707 8.185,-9.06 0.442,-0.627 0.756,-1.761 1.571,-1.617 1.007,0.176 0.789,1.424 0.953,2.212 0.851,4.08 1.974,8.076 3.433,11.976 1.405,3.757 3.122,7.362 5.383,10.688 0.184,0.27 0.298,0.76 0.951,0.565 -0.231,-0.532 -0.448,-1.034 -0.664,-1.536 -1.528,-3.532 -2.698,-7.174 -3.564,-10.928 -1.6,-6.933 -1.692,-13.952 -1.271,-20.998 0.133,-2.234 0.604,-4.405 1.425,-6.525 2.181,-5.636 3.332,-11.517 3.676,-17.537 0.353,-6.185 -0.327,-12.296 -1.628,-18.344 -1.586,-7.371 -4.057,-14.464 -6.715,-21.499 -2.543,-6.732 -5.165,-13.435 -7.607,-20.202 -4.555,-12.62 -7.762,-25.532 -8.187,-39.034 -0.188,-5.936 0.115,-11.835 0.952,-17.702 0.574,-4.034 1.351,-8.039 2.019,-12.06 0.057,-0.341 0.259,-0.821 -0.446,-0.978 -0.227,0.285 -0.488,0.581 -0.715,0.903 -1.474,2.092 -2.931,4.196 -4.41,6.285 -10.492,14.816 -15.413,31.451 -16.126,49.454 -0.355,8.965 0.301,17.913 0.626,26.861 0.254,6.959 0.385,13.912 0.263,20.87 -0.043,2.474 -0.286,4.951 -0.562,7.412 -0.178,1.584 -0.526,3.156 -0.901,4.708 -0.358,1.477 -0.881,2.907 -1.747,4.185 -1.558,2.297 -3.613,3.022 -6.244,2.205 -1.313,-0.407 -2.496,-1.069 -3.622,-1.839 -1.722,-1.176 -3.276,-2.555 -4.764,-4.014 -2.229,-2.184 -4.472,-4.351 -6.724,-6.51 -1.04,-0.998 -2.137,-1.934 -3.378,-2.679 -2.299,-1.382 -4.718,-1.848 -7.357,-1.102 -1.238,0.349 -2.443,0.761 -3.615,1.266 -1.836,0.791 -3.647,1.639 -5.482,2.43 -5.046,2.178 -10.332,3.363 -15.81,3.579 -6.986,0.274 -13.667,-1.127 -20.048,-3.974 -1.533,-0.683 -3.056,-1.391 -4.598,-2.054 -1.174,-0.506 -2.376,-0.921 -3.616,-1.263 -2.643,-0.728 -5.062,-0.257 -7.351,1.143 -1.235,0.753 -2.332,1.688 -3.376,2.682 -1.912,1.82 -3.814,3.651 -5.707,5.49 -1.552,1.508 -3.186,2.916 -4.992,4.115 -1.206,0.799 -2.492,1.432 -3.895,1.819 -2.149,0.592 -3.94,-0.014 -5.428,-1.616 -0.658,-0.709 -1.139,-1.539 -1.534,-2.421 -0.622,-1.394 -1.054,-2.847 -1.375,-4.335 -0.965,-4.477 -1.265,-9.026 -1.381,-13.584 -0.265,-10.401 0.107,-20.799 0.615,-31.183 0.392,-8.023 0.07,-15.983 -1.075,-23.922 -1.653,-11.459 -5.404,-22.18 -11.349,-32.125 -2.63,-4.4 -5.709,-8.495 -8.625,-12.7 -0.126,-0.182 -0.259,-0.41 -0.682,-0.323 0.123,0.921 0.217,1.863 0.378,2.795 0.925,5.355 1.912,10.695 2.376,16.125 0.588,6.884 0.476,13.747 -0.311,20.595 -0.823,7.164 -2.403,14.177 -4.462,21.089 -2.172,7.288 -4.861,14.389 -7.589,21.478 -2.728,7.089 -5.534,14.149 -7.709,21.436 -2.112,7.073 -3.606,14.248 -3.76,21.671 -0.143,6.942 0.661,13.745 2.975,20.297 1.108,3.14 1.643,6.345 1.855,9.617 0.724,11.104 -0.654,21.868 -5.421,32.052 -0.135,0.288 -0.485,0.615 -0.051,1.024 2.213,-2.926 3.863,-6.112 5.261,-9.435 2.085,-4.955 3.57,-10.092 4.581,-15.371 0.116,-0.604 0.062,-1.526 0.661,-1.703 0.862,-0.255 1.113,0.74 1.49,1.295 2.447,3.589 5.281,6.834 8.551,9.69 2.45,2.14 2.378,1.672 1.205,4.801 -3.175,8.476 -5.72,17.134 -7.598,25.987 -0.149,0.704 -0.291,1.411 -0.471,2.107 -0.315,1.227 -0.798,1.377 -1.848,0.536 -0.748,-0.6 -1.451,-1.255 -2.171,-1.891 -2.152,-1.903 -6.638,-1.776 -8.165,2.071 -0.206,0.519 -0.393,1.049 -0.549,1.586 -1.237,4.239 -2.03,8.547 -2.125,12.978 -0.087,4.006 0.058,7.994 0.664,11.961 0.059,0.386 0.042,0.784 0.045,1.177 0.001,0.063 -0.072,0.175 -0.124,0.183 -0.149,0.025 -0.372,0.073 -0.447,-0.004 -0.387,-0.396 -0.771,-0.802 -1.094,-1.25 -2.349,-3.248 -4.954,-6.276 -7.78,-9.118 -0.733,-0.736 -1.44,-1.501 -2.137,-2.271 -9.533,-10.523 -13.157,-22.976 -12.073,-36.966 0.061,-0.788 0.101,-1.578 0.155,-2.421 -0.435,0.199 -0.496,0.531 -0.564,0.823 -1.035,4.452 -1.667,8.943 -1.686,13.534 -0.03,7.637 1.96,14.689 5.782,21.261 2.06,3.542 4.535,6.774 7.264,9.823 0.798,0.89 1.535,1.841 2.238,2.809 0.421,0.58 0.722,1.241 0.765,1.991 0.046,0.825 -0.38,1.382 -1.208,1.496 -1.221,0.167 -2.375,-0.118 -3.526,-0.499 -4.603,-1.521 -9.327,-2.203 -14.17,-1.919 -2.135,0.125 -4.267,0.331 -6.318,1.056 1.835,0.143 3.654,0.233 5.474,0.46 6.506,0.814 12.337,3.245 17.599,7.087 4.191,3.059 7.633,6.803 10.101,11.397 1.221,2.276 2.117,4.68 2.397,7.248 0.355,3.265 -0.022,3.185 -2.388,4.135 -4.005,1.609 -8.002,3.235 -12,4.863 -2.19,0.892 -2.187,0.899 -3.277,-1.165 -0.037,-0.071 -0.073,-0.143 -0.109,-0.214 -3.998,-7.754 -9.844,-13.764 -17.382,-18.082 -10.013,-5.738 -20.803,-7.918 -32.299,-6.868 -5.049,0.462 -9.935,1.545 -14.726,3.146 -0.453,0.151 -0.91,0.3 -1.375,0.406 -0.607,0.14 -0.98,-0.235 -0.765,-0.78 0.262,-0.667 0.551,-1.33 0.888,-1.962 1.977,-3.711 4.64,-6.888 7.664,-9.779 2.549,-2.438 5.313,-4.613 8.126,-6.732 2.62,-1.972 5.259,-3.921 7.835,-5.949 1.316,-1.036 2.617,-2.129 3.744,-3.361 5.631,-6.155 4.555,-15.53 -2.173,-20.165 -1.324,-0.913 -2.738,-1.644 -4.256,-2.179 -3.881,-1.368 -7.861,-1.313 -11.847,-0.728 -4.716,0.693 -9.08,2.469 -13.307,4.611 -0.64,0.324 -1.285,0.64 -1.938,0.936 -0.129,0.059 -0.342,0.065 -0.457,-0.004 -0.229,-0.137 -0.263,-0.408 -0.179,-0.637 0.496,-1.361 1.244,-2.594 2.002,-3.816 2.416,-3.895 5.323,-7.395 8.604,-10.589 1.435,-1.396 2.863,-2.801 4.025,-4.438 6.349,-8.948 8.131,-18.783 5.587,-29.412 -1.25,-5.22 -3.668,-9.878 -7.094,-14.005 -2.35,-2.831 -4.755,-5.617 -7.101,-8.451 -3.573,-4.318 -6.949,-8.778 -9.785,-13.628 -5.866,-10.032 -8.03,-20.789 -6.396,-32.301 0.109,-0.768 0.151,-1.569 0.716,-2.185 0.577,0.278 0.635,0.79 0.775,1.23 0.434,1.371 0.77,2.776 1.264,4.124 1.285,3.513 3.234,6.597 6.101,9.051 3.23,2.764 6.908,4.179 11.224,4.015 6.832,-0.258 12.967,-5.3 14.479,-11.942 0.588,-2.579 0.341,-5.075 -0.244,-7.593 -0.958,-4.128 -1.828,-8.272 -2.413,-12.474 -0.786,-5.645 -1.041,-11.285 -0.395,-16.976 0.908,-8.011 3.518,-15.398 7.734,-22.237 0.527,-0.856 0.853,-1.921 1.932,-2.337 1.106,0.815 0.65,2.038 0.734,3.08 0.259,3.209 0.84,6.339 1.993,9.348 1.105,2.882 2.749,5.407 5.09,7.455 2.05,1.794 4.44,2.895 7.125,3.157 5.108,0.498 9.447,-1.155 12.886,-5.016 1.44,-1.615 2.692,-3.374 3.823,-5.219 2.998,-4.891 4.897,-10.224 6.331,-15.743 1.913,-7.362 3.006,-14.881 4.309,-22.362 1.181,-6.774 2.503,-13.517 4.356,-20.146 5.118,-18.313 14.792,-33.721 29.3,-46.053 0.526,-0.447 1.085,-1.353 1.745,-1.018 0.863,0.438 0.312,1.434 0.174,2.162 -1.063,5.602 -1.5,11.245 -1.3,16.946 0.09,2.573 0.452,5.1 1.093,7.581 0.934,3.613 2.469,6.928 5.209,9.568 2.509,2.418 5.49,3.783 8.979,4.083 4.337,0.373 8.422,-0.538 12.372,-2.249 3.691,-1.598 7.089,-3.689 10.312,-6.078 4.71,-3.491 8.924,-7.526 12.857,-11.858 5.989,-6.595 11.175,-13.788 15.828,-21.373 7.895,-12.875 14.048,-26.561 19.012,-40.801 0.236,-0.678 0.468,-1.361 0.751,-2.02 0.082,-0.191 0.312,-0.38 0.516,-0.443 0.244,-0.077 0.434,0.141 0.523,0.362 0.301,0.739 0.603,1.481 0.865,2.234 2.397,6.877 5.147,13.612 8.266,20.192 6.301,13.284 13.893,25.754 23.488,36.942 5.225,6.092 10.944,11.667 17.498,16.338 3.989,2.842 8.206,5.265 12.818,6.971 3.799,1.405 7.698,2.076 11.758,1.802 5.582,-0.379 9.857,-2.975 12.967,-7.562 1.267,-1.867 2.152,-3.924 2.787,-6.084 0.909,-3.084 1.373,-6.231 1.47,-9.45 0.159,-5.301 -0.305,-10.543 -1.251,-15.752 -0.093,-0.51 -0.446,-1.16 0.226,-1.491 0.498,-0.244 0.863,0.265 1.244,0.534 0.13,0.092 0.246,0.204 0.367,0.309 9.969,8.613 17.715,18.842 22.698,31.099 3.52,8.659 5.469,17.708 6.63,26.936 0.907,7.217 1.62,14.458 2.44,21.686 0.513,4.533 1.285,9.024 2.492,13.427 1.383,5.048 3.377,9.827 6.472,14.093 1.037,1.428 2.136,2.802 3.472,3.963 5.459,4.745 14.247,5.113 19.701,-0.826 1.533,-1.67 2.714,-3.556 3.597,-5.633 1.007,-2.37 1.641,-4.846 1.949,-7.398 0.211,-1.744 0.342,-3.499 0.514,-5.248 0.023,-0.241 0.111,-0.514 0.369,-0.528 0.206,-0.012 0.476,0.093 0.621,0.24 0.276,0.282 0.499,0.622 0.717,0.955 4.67,7.154 7.544,14.969 8.526,23.457 0.732,6.324 0.301,12.611 -0.711,18.877 -0.625,3.87 -1.479,7.692 -2.323,11.517 -0.455,2.06 -0.532,4.152 -0.137,6.198 1.556,8.062 9.653,13.961 18.63,12.068 4.18,-0.881 7.384,-3.338 9.963,-6.658 1.941,-2.498 3.176,-5.351 4.078,-8.361 0.207,-0.69 0.388,-1.386 0.578,-2.079 0.087,-0.314 0.205,-0.626 0.565,-0.685 0.453,-0.074 0.511,0.326 0.572,0.611 0.416,1.963 0.518,3.958 0.645,5.956 0.459,7.228 -0.694,14.177 -3.452,20.873 -2.179,5.291 -5.207,10.077 -8.607,14.647 -3.439,4.625 -7.228,8.966 -10.946,13.363 -7.302,8.636 -10.127,18.546 -8.305,29.709 0.999,6.124 3.48,11.619 7.597,16.315 0.947,1.081 1.991,2.079 3.011,3.094 3.42,3.399 6.435,7.117 8.848,11.302 0.439,0.76 0.813,1.559 1.176,2.358 0.126,0.276 0.231,0.661 -0.129,0.848 -0.178,0.093 -0.487,0.066 -0.681,-0.026 -1.735,-0.817 -3.435,-1.712 -5.188,-2.487 -5.339,-2.364 -10.884,-3.695 -16.775,-3.231 -3.687,0.291 -7.032,1.496 -9.91,3.826 -3.011,2.437 -4.675,5.604 -4.879,9.515 -0.226,4.353 1.274,8.003 4.443,10.954 1.579,1.471 3.239,2.857 4.883,4.257 2.983,2.542 6.015,5.029 8.781,7.815 3.691,3.719 6.828,7.835 8.975,12.649 0.325,0.726 0.609,1.475 0.853,2.233 0.179,0.552 -0.219,0.9 -0.808,0.75 -0.386,-0.098 -0.772,-0.208 -1.148,-0.343 -4.76,-1.703 -9.641,-2.783 -14.682,-3.331 -5.162,-0.561 -10.239,-0.212 -15.245,0.919 C 16.831,-20.902 6.535,-12.84 0,0" />
        </g>
        <g
           transform="translate(507.79,576.856)"
           id="g888">
          <path
             inkscape:connector-curvature="0"
             id="path890"
             style="fill:#ffffff;fill-opacity:1;fill-rule:nonzero;stroke:none"
             d="m 0,0 c -3.698,9.581 -8.508,18.604 -13.925,27.312 -6.685,10.747 -14.246,20.866 -22.124,30.754 -9.271,11.637 -18.988,22.903 -28.524,34.32 -8.615,10.313 -17.105,20.726 -24.933,31.659 -6.947,9.703 -13.335,19.747 -18.574,30.49 -5.608,11.495 -9.752,23.456 -11.519,36.178 -0.128,0.918 -0.114,1.907 -0.605,2.812 -0.792,-0.978 -0.763,-0.983 -0.915,-1.904 -0.853,-5.133 -1.374,-10.289 -1.559,-15.496 -0.365,-10.29 0.659,-20.436 2.798,-30.488 2.455,-11.54 6.302,-22.626 10.956,-33.444 4.999,-11.62 10.846,-22.816 17.064,-33.819 5.783,-10.233 11.677,-20.403 17.463,-30.635 5.079,-8.982 9.903,-18.097 13.892,-27.628 4.002,-9.56 7.062,-19.357 7.786,-29.788 0.336,-4.834 0.036,-9.6 -1.029,-14.297 -1.726,-7.609 -5.822,-13.773 -11.851,-18.681 -0.62,-0.505 -1.263,-0.98 -1.882,-1.485 -0.416,-0.34 -0.539,-0.794 -0.338,-1.29 0.209,-0.517 0.454,-1.022 0.701,-1.523 1.488,-3.012 2.877,-6.068 4.117,-9.19 2.872,-7.231 5.002,-14.665 6.319,-22.339 1.026,-5.973 4.301,-10.422 9.578,-13.36 3.875,-2.158 8.125,-2.925 12.495,-2.751 6.01,0.237 11.658,1.936 16.857,4.964 12.118,7.056 19.609,17.631 23.178,31.048 1.317,4.953 1.662,10.075 2.016,15.189 0.43,6.184 0.008,12.314 -0.797,18.42 C 5.51,-16.372 3.118,-8.079 0,0" />
        </g>
        <g
           transform="translate(435.877,528.8169)"
           id="g892">
          <path
             inkscape:connector-curvature="0"
             id="path894"
             style="fill:#ffffff;fill-opacity:1;fill-rule:nonzero;stroke:none"
             d="M 0,0 C -0.698,1.359 -1.56,2.614 -2.571,3.752 -4.245,5.634 -6.235,7.03 -8.656,7.864 -10.505,8.501 -12.79,7.703 -13.967,6.078 -14.729,5.026 -15.239,3.86 -15.583,2.62 c -0.602,-2.168 -0.875,-4.382 -0.958,-6.63 -0.082,-2.251 0.29,-4.466 0.434,-6.698 0.252,-3.91 0.417,-7.826 0.687,-11.734 0.375,-5.434 0.228,-10.872 0.221,-16.299 -0.617,5.254 -1.129,10.502 -1.992,15.713 -1.443,8.72 -3.814,17.161 -7.323,25.275 -4.632,10.714 -10.874,20.459 -17.94,29.705 -0.339,0.444 -0.72,0.858 -1.097,1.271 -5.288,5.805 -10.941,11.226 -17.058,16.157 -5.613,4.524 -11.426,8.754 -17.763,12.229 -3.024,1.659 -6.16,3.029 -9.492,3.961 -3.134,0.877 -6.325,1.063 -9.511,0.646 -3.574,-0.467 -6.672,-2.133 -9.436,-4.42 -2.679,-2.216 -4.823,-4.891 -6.636,-7.84 -2.319,-3.769 -3.986,-7.827 -5.391,-12.01 -1.92,-5.715 -2.791,-11.653 -3.791,-17.561 -1.281,-7.568 -2.301,-15.171 -3.042,-22.815 -0.626,-6.451 -1.043,-12.914 -1.217,-19.388 -0.204,-7.602 0.111,-15.188 0.781,-22.768 0.614,-6.94 1.629,-13.813 3.047,-20.627 0.765,-3.676 1.448,-7.393 2.811,-10.905 4.007,-10.328 11.306,-16.852 22.329,-18.89 3.223,-0.596 6.497,-0.859 9.779,-0.863 4.717,-0.006 9.427,-0.047 14.144,0.372 3.742,0.333 7.481,0.691 11.198,1.201 6.809,0.935 13.557,2.241 20.251,3.796 3.501,0.813 7.016,1.596 10.408,2.812 6.195,2.221 10.654,6.334 13.348,12.345 1.448,3.232 2.331,6.63 2.966,10.101 0.156,0.853 0.347,1.701 0.522,2.55 0.211,-0.442 0.215,-0.841 0.21,-1.239 -0.04,-3.839 -0.032,-7.679 -0.139,-11.517 -0.084,-3.009 0.397,-5.861 1.607,-8.64 1.48,-3.396 3.946,-5.522 7.471,-6.56 3.934,-1.158 7.257,-0.307 9.952,2.819 1.21,1.404 2.146,2.984 2.925,4.66 1.455,3.132 2.532,6.395 3.214,9.776 1.077,5.339 1.72,10.74 1.989,16.175 0.325,6.566 0.004,13.117 -0.973,19.62 C 9.181,-21.792 5.455,-10.611 0,0" />
        </g>
        <g
           transform="translate(175.6147,447.8306)"
           id="g896">
          <path
             inkscape:connector-curvature="0"
             id="path898"
             style="fill:#ffffff;fill-opacity:1;fill-rule:nonzero;stroke:none"
             d="m 0,0 c 1.284,2.804 2.176,5.651 2.08,8.777 -0.111,3.597 -0.144,7.197 -0.193,10.795 -0.01,0.772 0.056,1.545 0.087,2.317 0.076,0.003 0.152,0.006 0.229,0.009 0.181,-0.929 0.36,-1.857 0.543,-2.786 0.6,-3.067 1.398,-6.074 2.626,-8.958 2.689,-6.31 7.242,-10.652 13.73,-12.893 2.11,-0.729 4.267,-1.351 6.438,-1.877 9.946,-2.408 19.965,-4.407 30.167,-5.408 4.058,-0.398 8.108,-0.862 12.191,-0.867 4.396,-0.005 8.79,-0.117 13.18,0.404 1.906,0.226 3.825,0.356 5.675,0.865 10.776,2.963 17.634,9.967 20.864,20.556 1.517,4.972 2.49,10.086 3.358,15.212 0.974,5.756 1.656,11.546 2.087,17.374 0.418,5.67 0.599,11.345 0.503,17.02 -0.081,4.874 -0.186,9.75 -0.559,14.622 -0.435,5.663 -0.983,11.311 -1.689,16.942 -0.863,6.9 -2.025,13.758 -3.245,20.605 -0.858,4.816 -2.07,9.528 -3.868,14.081 -1.415,3.581 -3.116,7.015 -5.341,10.17 -1.762,2.5 -3.817,4.717 -6.263,6.576 -4.769,3.624 -10.125,4.513 -15.898,3.473 -4.058,-0.73 -7.806,-2.318 -11.389,-4.304 -3.288,-1.823 -6.5,-3.77 -9.57,-5.95 C 51.172,133.51 46.767,130.06 42.567,126.35 35.231,119.872 28.311,113.017 23.052,104.667 22.285,103.449 21.458,102.27 20.68,101.058 16.304,94.243 12.521,87.121 9.59,79.561 5.923,70.106 3.796,60.289 2.702,50.229 2.547,48.799 2.362,47.373 2.182,45.945 2.176,45.899 2.067,45.866 2.006,45.827 1.724,46.065 1.755,46.402 1.762,46.71 c 0.128,5.597 0.231,11.196 0.416,16.791 0.077,2.316 0.249,4.636 0.533,6.935 0.344,2.792 0.374,5.583 0.281,8.383 -0.063,1.851 -0.458,3.647 -1.016,5.405 -0.364,1.149 -0.865,2.248 -1.689,3.148 -1.353,1.476 -2.958,2.093 -4.968,1.479 -1.007,-0.308 -1.944,-0.726 -2.828,-1.279 -2.436,-1.522 -4.255,-3.601 -5.569,-6.146 -2.315,-4.482 -4.339,-9.092 -6.058,-13.834 -3.207,-8.846 -5.234,-17.963 -5.891,-27.344 -0.623,-8.886 -0.217,-17.746 1.402,-26.525 0.787,-4.263 2.024,-8.391 3.905,-12.309 0.87,-1.81 1.919,-3.511 3.36,-4.935 1.339,-1.323 2.884,-2.299 4.782,-2.552 C -7.657,-6.595 -2.078,-4.539 0,0" />
        </g>
        <g
           transform="translate(158.2183,531.3921)"
           id="g900">
          <path
             inkscape:connector-curvature="0"
             id="path902"
             style="fill:#ffffff;fill-opacity:1;fill-rule:nonzero;stroke:none"
             d="m 0,0 c 0.226,0.499 0.111,0.945 -0.302,1.288 -0.554,0.46 -1.131,0.89 -1.693,1.34 -6.136,4.918 -10.26,11.148 -12.094,18.814 -1.259,5.265 -1.349,10.631 -0.884,15.987 0.554,6.398 2.056,12.61 4.092,18.7 2.873,8.597 6.68,16.783 10.829,24.819 5.028,9.74 10.547,19.206 16.017,28.699 6.629,11.503 13.219,23.026 19.096,34.94 5.741,11.637 10.77,23.559 14.374,36.046 3.477,12.045 5.536,24.307 5.538,37.906 0.141,2.98 -0.223,6.968 -0.614,10.945 -0.281,2.86 -0.607,5.726 -1.27,8.534 -0.079,0.337 -10e-4,0.904 -0.573,0.806 -0.194,-0.034 -0.355,-0.482 -0.457,-0.767 -0.105,-0.297 -0.134,-0.624 -0.172,-0.941 -0.783,-6.45 -2.285,-12.739 -4.254,-18.923 C 44.145,207.237 39.145,196.979 33.279,187.122 26.557,175.826 18.817,165.243 10.693,154.931 1.732,143.555 -7.698,132.567 -17.007,121.479 -26.01,110.758 -34.917,99.961 -43.153,88.63 -50.216,78.912 -56.752,68.865 -62.158,58.115 -69.045,44.418 -73.843,30.111 -75.082,14.721 c -0.705,-8.751 -0.395,-17.458 1.469,-26.014 2.478,-11.378 8.256,-20.921 17.255,-28.368 6.563,-5.429 14.034,-8.84 22.666,-9.357 4.307,-0.257 8.482,0.321 12.349,2.281 5.546,2.811 9.04,7.241 10.13,13.447 0.193,1.102 0.41,2.201 0.63,3.298 1.97,9.777 5.247,19.104 9.665,28.038 C -0.6,-1.309 -0.296,-0.656 0,0" />
        </g>
      </g>
    </g>
  </g>
</svg>
