<?xml version="1.0" encoding="UTF-8" standalone="no"?>
<!-- Created with Inkscape (http://www.inkscape.org/) -->

<svg
   xmlns:dc="http://purl.org/dc/elements/1.1/"
   xmlns:cc="http://creativecommons.org/ns#"
   xmlns:rdf="http://www.w3.org/1999/02/22-rdf-syntax-ns#"
   xmlns:svg="http://www.w3.org/2000/svg"
   xmlns="http://www.w3.org/2000/svg"
   xmlns:sodipodi="http://sodipodi.sourceforge.net/DTD/sodipodi-0.dtd"
   xmlns:inkscape="http://www.inkscape.org/namespaces/inkscape"
   version="1.1"
   id="svg10"
   width="629.33331"
   height="1100.8"
   viewBox="0 0 629.33331 1100.8"
   sodipodi:docname="barbaroWhite.svg"
   inkscape:version="0.92.4 (5da689c313, 2019-01-14)">
  <metadata
     id="metadata16">
    <rdf:RDF>
      <cc:Work
         rdf:about="">
        <dc:format>image/svg+xml</dc:format>
        <dc:type
           rdf:resource="http://purl.org/dc/dcmitype/StillImage" />
        <dc:title></dc:title>
      </cc:Work>
    </rdf:RDF>
  </metadata>
  <defs
     id="defs14" />
  <sodipodi:namedview
     pagecolor="#ffffff"
     bordercolor="#666666"
     borderopacity="1"
     objecttolerance="10"
     gridtolerance="10"
     guidetolerance="10"
     inkscape:pageopacity="0"
     inkscape:pageshadow="2"
     inkscape:window-width="1366"
     inkscape:window-height="705"
     id="namedview12"
     showgrid="false"
     inkscape:zoom="0.48691858"
     inkscape:cx="224.30247"
     inkscape:cy="550.40002"
     inkscape:window-x="-8"
     inkscape:window-y="-8"
     inkscape:window-maximized="1"
     inkscape:current-layer="svg10" />
  <path
     style="fill:#ffffff;stroke-width:1.0666666;fill-opacity:1"
     d="m 310.98502,1091.9013 c -17.2449,-58.0913 -44.89979,-103.50777 -74.9879,-123.1495 -16.71677,-10.91282 -28.42283,-10.69893 -33.7928,0.61746 -4.78255,10.07847 -4.45009,24.82146 1.07421,47.63614 2.90283,11.9884 2.98415,12.6486 1.55805,12.6486 -2.4053,0 -22.78972,-16.6175 -31.05108,-25.3131 -10.85263,-11.42307 -17.52026,-21.16727 -24.45722,-35.7423 -6.91356,-14.52584 -10.83535,-28.49585 -15.9902,-56.95942 -5.75085,-31.75458 -9.31494,-42.7956 -16.61514,-51.47141 -10.82486,-12.86462 -23.848972,-5.19879 -25.684192,15.11738 -0.32967,3.64955 -0.0841,11.16932 0.54575,16.71061 0.62984,5.54128 0.86829,10.34128 0.52988,10.66667 -0.96145,0.92446 -12.77968,-12.37076 -18.06943,-20.32768 -14.0004,-21.0596 -17.58372,-45.88011 -11.10008,-76.88652 2.3781,-11.37267 2.379,-11.41759 0.309,-15.46667 -4.32577,-8.46153 -15.31549,-10.19667 -22.21671,-3.50775 -6.68476,6.47913 -9.20868,16.08045 -10.73194,40.8256 -0.44881,7.29085 -1.11983,11.375 -1.83001,11.13827 -1.66368,-0.55456 -9.18058,-21.29955 -11.49258,-31.71699 -2.45615,-11.06692 -2.66802,-28.74735 -0.45687,-38.12533 3.32941,-14.12077 10.66889,-26.73701 27.15294,-46.67467 5.33548,-6.45333 10.99565,-14.37333 12.57815,-17.6 2.5617,-5.22321 2.8804,-7.09508 2.90567,-17.06667 0.0255,-10.05971 -0.26668,-11.8002 -2.86977,-17.09523 -1.59399,-3.24239 -6.18394,-9.48239 -10.1999,-13.86667 -8.56607,-9.35173 -13.29164,-16.04141 -16.33187,-23.12001 -2.62803,-6.11885 -4.09228,-19.51809 -2.13292,-19.51809 0.70395,0 4.1683,1.96148 7.69856,4.35883 14.28773,9.70261 28.23246,14.09308 37.09951,11.6807 6.5241,-1.77495 10.76478,-6.23035 10.76478,-11.30985 0,-4.74175 -4.08864,-9.08974 -20.73821,-22.05367 -11.992,-9.33738 -18.4297,-16.5644 -23.04989,-25.87601 -3.08593,-6.21942 -6.27583,-19.09162 -5.03792,-20.32953 0.33764,-0.33765 3.18162,0.68754 6.31996,2.27819 12.11388,6.13986 19.84709,8.15086 33.47429,8.70493 14.39118,0.58512 21.91478,-0.78005 33.031772,-5.9937 7.96992,-3.73773 18.66666,-12.35434 18.66666,-15.03665 0,-3.06179 -4.69961,-7.9651 -12.13495,-12.66095 -7.12025,-4.49684 -9.09682,-7.34713 -11.37051,-16.3967 -0.69569,-2.76893 -1.81156,-5.4725 -2.479712,-6.00793 -0.66815,-0.53544 -7.08327,-3.38478 -14.25581,-6.33188 C 37.298248,478.8265 11.461538,451.45991 2.5225681,410.66552 0.24082805,400.25242 -0.59423195,374.40626 0.97114805,362.64664 5.1647681,331.1427 19.316898,299.7047 46.052008,262.50256 c 10.31359,-14.35147 14.0886,-19.065 46.38355,-57.9152 32.284852,-38.83806 40.988172,-50.03243 53.672262,-69.03425 18.22434,-27.30158 29.54095,-52.898118 33.61506,-76.032425 1.92653,-10.939535 2.18411,-31.385756 0.58456,-46.399999 -1.32436,-12.43107615 -1.31462,-11.7333342 -0.16392,-11.7333342 1.11884,0 9.54546,22.5981452 12.72797,34.1333342 13.98818,50.700903 5.42989,100.996214 -28.04252,164.800004 -4.30883,8.21333 -15.12324,27.65333 -24.03201,43.2 -28.8208,50.2951 -37.57638,70.79902 -40.62922,95.14592 -1.984622,15.82765 2.58256,30.76308 12.32353,40.29999 4.19824,4.11028 5.13938,4.59335 6.7239,3.45128 5.96848,-4.30192 9.23975,-5.87729 18.20892,-8.76905 13.08345,-4.21825 19.70334,-8.78674 29.89007,-20.6276 30.22316,-35.1308 65.67834,-59.46162 102.01007,-70.00357 6.76329,-1.96242 9.63962,-3.47307 13.86667,-7.28272 7.16421,-6.45681 14.50259,-11.03064 23.32223,-14.53616 7.25817,-2.8849 7.37014,-2.8948 12.8,-1.13223 8.71405,2.82863 17.70885,8.07068 24.27276,14.14586 5.44326,5.03794 7.3402,6.02319 18.17463,9.43964 22.54827,7.1102 46.56195,20.22091 65.96371,36.01408 9.4996,7.73276 24.04375,22.06314 35.75633,35.23081 10.20681,11.47482 15.00079,14.66774 28.24367,18.81102 5.57333,1.74373 12.163,4.62734 14.64373,6.40805 3.56237,2.55712 4.93286,3.01153 6.52037,2.16192 3.58182,-1.91694 8.94083,-8.89357 12.22914,-15.92051 2.67419,-5.71461 3.29448,-8.58162 3.70339,-17.1172 1.1889,-24.81665 -7.90719,-48.27409 -41.61526,-107.31953 -21.02813,-36.83435 -27.95917,-49.94406 -35.81026,-67.73333 -8.14343,-18.45167 -14.46937,-37.48203 -18.07146,-54.36447 -2.58958,-12.13696 -2.85613,-15.53125 -2.89271,-36.835537 -0.0422,-24.567503 0.7785,-31.278927 5.99131,-48.997406 3.17764,-10.800894 11.67825,-33.66926115 12.5155,-33.66926115 0.39543,0 0.0777,6.83999995 -0.70605,15.20000015 -3.07782,32.829561 1.02056,56.808941 14.63009,85.600004 13.49869,28.55658 28.61656,49.66869 76.80878,107.26349 36.35263,43.44522 52.07575,64.79925 65.61433,89.11274 16.73923,30.06143 25.30288,62.99545 23.68575,91.09044 -1.91255,33.22735 -11.5368,55.90143 -32.61441,76.83727 -14.06911,13.97448 -31.26371,24.52502 -56.63225,34.74932 l -11.2,4.51394 -2.43313,8.00694 c -1.92324,6.32905 -3.21349,8.63759 -6.15705,11.01641 -9.84576,7.95675 -12.52952,10.65444 -14.56115,14.63677 l -2.19685,4.30617 5.13567,4.64962 c 5.92417,5.3635 14.42896,9.91786 23.37954,12.51987 4.87755,1.41794 8.85962,1.69996 18.07757,1.28035 12.47274,-0.5678 20.80188,-2.79172 32.31995,-8.62962 3.06049,-1.55121 5.82049,-2.82038 6.13333,-2.82038 1.35623,0 0.36736,6.92087 -2.08776,14.61161 -4.81204,15.07394 -11.92116,24.54431 -29.85239,39.76769 -12.07123,10.2483 -13.74965,15.68959 -6.80423,22.05866 8.09885,7.4268 24.59365,4.65988 42.56789,-7.14055 5.58164,-3.66445 8.93753,-5.26515 9.61601,-4.58668 1.56688,1.56688 -0.73199,15.64211 -3.41971,20.93767 -3.58343,7.06037 -8.26733,13.44648 -15.89994,21.67826 -8.11037,8.74705 -11.08061,14.36463 -12.79232,24.19396 -2.34809,13.48378 1.78894,24.25024 15.65675,40.74605 19.9501,23.73071 27.52979,39.43886 28.82016,59.72689 0.94683,14.88682 -3.53165,35.62493 -11.5736,53.59279 l -2.27382,5.08032 -0.76792,-3.2 c -0.42236,-1.76 -0.82472,-6.3326 -0.89413,-10.16131 -0.1795,-9.90156 -2.06734,-23.8531 -4.01451,-29.66822 -4.40461,-13.15409 -14.944,-18.73312 -23.93841,-12.67178 -6.79196,4.5771 -7.40847,7.94882 -4.26346,23.31722 7.24309,35.39404 1.00008,61.41018 -20.76131,86.51742 -3.94076,4.54667 -7.55495,8.26667 -8.03154,8.26667 -0.47659,0 -0.58156,-6.66306 -0.23326,-14.80682 0.71083,-16.62034 -0.33126,-23.03216 -4.66873,-28.7261 -9.85128,-12.93207 -24.34575,-1.61364 -30.15873,23.55031 -1.11585,4.83044 -3.04786,18.13656 -4.29337,29.56917 -5.15128,47.28429 -13.8139,69.40221 -36.61653,93.49165 -8.12745,8.5861 -26.97555,23.8551 -29.44675,23.8551 -1.55582,0 -1.55348,-0.02 1.4647,-12.2666 7.27226,-29.50918 4.88487,-48.36144 -6.92381,-54.67456 -3.91862,-2.09497 -5.70494,-2.4326 -9.97146,-1.88472 -7.39191,0.94924 -14.35469,3.83139 -22.73017,9.40883 -30.63917,20.40343 -58.60243,64.17025 -74.46794,116.55375 -2.12053,7.0015 -4.26429,13.1412 -4.76389,13.6439 -0.50139,0.5046 -2.16491,-3.3188 -3.7129,-8.5333 z"
     id="path20"
     inkscape:connector-curvature="0" />
</svg>
