<?xml version="1.0" encoding="UTF-8" standalone="no"?>
<!-- Created with Inkscape (http://www.inkscape.org/) -->

<svg
   xmlns:dc="http://purl.org/dc/elements/1.1/"
   xmlns:cc="http://creativecommons.org/ns#"
   xmlns:rdf="http://www.w3.org/1999/02/22-rdf-syntax-ns#"
   xmlns:svg="http://www.w3.org/2000/svg"
   xmlns="http://www.w3.org/2000/svg"
   xmlns:sodipodi="http://sodipodi.sourceforge.net/DTD/sodipodi-0.dtd"
   xmlns:inkscape="http://www.inkscape.org/namespaces/inkscape"
   version="1.1"
   id="svg10"
   width="512"
   height="512"
   viewBox="0 0 512 512"
   sodipodi:docname="seggiovia.svg"
   inkscape:version="0.92.4 (5da689c313, 2019-01-14)">
  <metadata
     id="metadata16">
    <rdf:RDF>
      <cc:Work
         rdf:about="">
        <dc:format>image/svg+xml</dc:format>
        <dc:type
           rdf:resource="http://purl.org/dc/dcmitype/StillImage" />
        <dc:title></dc:title>
      </cc:Work>
    </rdf:RDF>
  </metadata>
  <defs
     id="defs14" />
  <sodipodi:namedview
     pagecolor="#ffffff"
     bordercolor="#666666"
     borderopacity="1"
     objecttolerance="10"
     gridtolerance="10"
     guidetolerance="10"
     inkscape:pageopacity="0"
     inkscape:pageshadow="2"
     inkscape:window-width="1366"
     inkscape:window-height="705"
     id="namedview12"
     showgrid="false"
     inkscape:zoom="1.046875"
     inkscape:cx="96"
     inkscape:cy="256"
     inkscape:window-x="-8"
     inkscape:window-y="-8"
     inkscape:window-maximized="1"
     inkscape:current-layer="svg10" />
  <path
     style="fill:#2b353a;fill-opacity:1"
     d="m 100.26455,482.50872 c -17.507869,-4.71508 -31.638949,-19.49399 -35.244079,-36.85981 -0.79026,-3.80666 -1.02472,-25.07937 -0.78542,-71.26258 0.3319,-64.05384 0.40014,-66.04673 2.52077,-73.6198 5.93685,-21.20131 18.7211,-40.41281 35.244179,-52.96312 8.50976,-6.46369 24.35473,-14.15518 35,-16.98976 l 8.5,-2.26334 H 256 366.5 l 8.2498,2.2018 c 21.26406,5.67521 40.77481,18.54869 53.4971,35.2982 6.24327,8.21957 14.05532,24.12264 16.94739,34.5 2.18434,7.83785 2.23644,9.3344 2.57066,73.83602 0.2393,46.18321 0.005,67.45592 -0.78542,71.26258 -3.65145,17.58895 -17.83406,32.26332 -35.67283,36.90973 -8.35233,2.17551 -302.95434,2.12822 -311.04215,-0.0499 z m 308.35046,-33.0202 c 5.98895,-4.4716 6.85774,-6.6976 7.22347,-18.50796 l 0.33847,-10.93025 H 256.08848 96.000001 v 9.4349 c 0,10.13451 0.8834,13.70416 4.316609,17.4426 4.88139,5.31536 -3.041189,5.07097 156.86019,4.83858 148.43564,-0.21573 148.68127,-0.21942 151.43821,-2.27787 z M 240,316.05031 v -56 l -43.25,0.0174 c -49.21364,0.0198 -52.05361,0.33011 -65.75,7.18503 -11.76224,5.8869 -21.91071,16.03537 -27.79761,27.79761 -6.397309,12.78205 -7.164859,18.09669 -7.18503,49.75 l -0.0174,27.24996 h 72 72 z m 175.98264,28.75 c -0.0202,-31.65331 -0.78773,-36.96795 -7.18503,-49.75 C 402.91071,283.28807 392.76224,273.1396 381,267.2527 c -13.69639,-6.85492 -16.53636,-7.16527 -65.75,-7.18503 L 272,260.05027 v 56 56 h 72 72 l -0.0174,-27.25 z M 208,196.05031 v -16 h 20 20 v -21 c 0,-18.38889 -0.19462,-21 -1.56522,-21 -2.72367,0 -11.89713,-10.14319 -13.21866,-14.61602 -2.77033,-9.37634 -0.81722,-16.85064 6.25,-23.917862 10.11736,-10.11737 22.9504,-10.11737 33.06776,0 7.06722,7.067222 9.02033,14.541522 6.25,23.917862 -1.32153,4.47283 -10.49499,14.61602 -13.21866,14.61602 -1.3706,0 -1.56522,2.61111 -1.56522,21 v 21 h 20 20 v 16 16 h -48 -48 z m 179,-72.57047 c -49.775,-8.98218 -90.73736,-16.35335 -91.02748,-16.38038 -0.29011,-0.027 -1.80679,-2.98574 -3.37041,-6.57492 C 288.557,91.239238 282.45989,84.881084 273.22348,80.316198 266.01191,76.752048 265.08927,76.550314 256,76.550314 c -9.09504,0 -10.0087,0.20015 -17.24943,3.778714 -5.28661,2.612784 -8.98404,5.308626 -11.98317,8.73708 l -4.33745,4.95836 -92.46498,-16.490613 C 79.109241,68.464018 36.262501,60.784078 34.750001,60.467323 l -2.75,-0.57592 V 43.862451 27.833498 l 2.25,0.545776 C 35.487501,28.679451 135.05,46.504214 255.5,67.989858 375.95,89.475508 475.7375,107.31445 477.25,107.63195 l 2.75,0.57728 v 15.92054 c 0,12.13356 -0.29733,15.89209 -1.25,15.80093 -0.6875,-0.0658 -41.975,-7.46867 -91.75,-16.45086 z"
     id="path20"
     inkscape:connector-curvature="0" />
</svg>
